<svg width="201" height="41" viewBox="0 0 201 41" fill="none" xmlns="http://www.w3.org/2000/svg">
<path d="M38.8164 4.98828H58.0322V10.8366H44.8736V17.7988H56.222V23.6471H44.8736V35.7614H38.8164V4.98828Z" fill="white"/>
<path d="M67.778 36.6667C66.107 36.6667 64.7842 36.1793 63.6703 35.135C62.5563 34.0907 61.9993 32.7678 61.9297 31.1665V17.5205H67.778V29.0082C67.8476 29.8437 68.0565 30.4703 68.4046 30.9577C68.7527 31.445 69.3793 31.6539 70.2148 31.6539C71.0502 31.6539 71.8161 31.3754 72.4427 30.7488C73.0693 30.1918 73.5567 29.3563 73.9048 28.3816C74.2529 27.3373 74.4617 26.2233 74.4617 24.9005V17.5205H80.31V35.7616H75.0187L74.5314 32.4197L74.601 32.7678C74.1833 33.5337 73.6263 34.1603 72.9997 34.7869C72.3731 35.3439 71.6072 35.8312 70.7021 36.1097C69.797 36.4578 68.8223 36.6667 67.778 36.6667Z" fill="white"/>
<path d="M91.5193 17.5201L92.0762 22.5329L91.937 21.7671C92.494 20.6531 93.1902 19.748 94.0953 18.9822C95.0004 18.2164 95.9055 17.5897 96.8106 17.172C97.7157 16.7543 98.4119 16.5454 98.8992 16.5454L98.6207 22.3937C97.2283 22.2545 96.1143 22.4633 95.1396 23.0899C94.1649 23.7165 93.3991 24.4824 92.9117 25.5267C92.3547 26.5014 92.1459 27.5458 92.1459 28.5901V35.7612H86.3672V17.5201H91.5193Z" fill="white"/>
<path d="M108.721 17.5208L109.208 20.7931L109.139 20.5146C109.765 19.4006 110.67 18.4259 111.854 17.7297C113.038 17.0335 114.43 16.6157 116.171 16.6157C117.911 16.6157 119.304 17.1031 120.487 18.1474C121.671 19.1221 122.228 20.445 122.297 22.0463V35.7619H116.449V24.2742C116.449 23.4387 116.171 22.8121 115.753 22.3248C115.335 21.8374 114.709 21.5589 113.734 21.5589C112.829 21.5589 112.063 21.8374 111.367 22.464C110.67 23.021 110.183 23.8565 109.835 24.8312C109.487 25.8059 109.278 26.9895 109.278 28.3123V35.7619H103.43V17.5208H108.721Z" fill="white"/>
<path d="M133.641 17.5205H127.793V35.7616H133.641V17.5205Z" fill="white"/>
<path d="M148.334 23.2992L151.816 17.5205H157.594L150.354 27.5462L148.334 23.2992ZM158.639 35.7616H151.607L137.543 17.5205H144.644L158.639 35.7616ZM147.569 29.9133L143.461 35.7616H137.682L144.923 26.0145L147.569 29.9133Z" fill="white"/>
<path d="M169.706 36.2486C168.036 36.2486 166.434 35.9005 165.042 35.2739C163.649 34.5776 162.605 33.5333 161.77 32.0712C160.934 30.6788 160.586 28.8686 160.586 26.6407C160.586 24.552 161.004 22.8114 161.839 21.2797C162.675 19.748 163.789 18.6341 165.111 17.7986C166.504 16.9631 167.896 16.5454 169.428 16.5454C171.238 16.5454 172.631 16.8239 173.536 17.4505C174.51 18.0075 175.276 18.7037 175.903 19.3999L175.624 20.0962L176.181 17.4505H181.612V35.7612H175.764V31.7927L176.251 33.0459C176.181 33.0459 176.042 33.1852 175.764 33.5333C175.485 33.8118 175.067 34.2295 174.51 34.6473C173.953 35.065 173.327 35.4131 172.491 35.7612C171.726 36.1093 170.82 36.2486 169.706 36.2486ZM171.377 31.5143C172.074 31.5143 172.7 31.4446 173.257 31.2358C173.814 31.0269 174.302 30.6788 174.719 30.3307C175.137 29.9129 175.485 29.4256 175.833 28.799V24.3431C175.624 23.7165 175.276 23.2292 174.859 22.8114C174.441 22.3937 173.884 22.0456 173.257 21.8367C172.631 21.5582 171.934 21.4886 171.238 21.4886C170.403 21.4886 169.637 21.6975 168.871 22.1848C168.175 22.6026 167.618 23.1596 167.2 23.9254C166.782 24.6912 166.573 25.5267 166.573 26.5014C166.573 27.4761 166.782 28.3812 167.27 29.1471C167.687 29.9129 168.314 30.5395 169.01 30.9573C169.706 31.3054 170.542 31.5143 171.377 31.5143Z" fill="white"/>
<path d="M192.961 17.5201L193.518 22.5329L193.378 21.7671C193.935 20.6531 194.632 19.748 195.537 18.9822C196.442 18.2164 197.347 17.5897 198.252 17.172C199.157 16.7543 199.853 16.5454 200.341 16.5454L200.062 22.3937C198.67 22.2545 197.556 22.4633 196.581 23.0899C195.606 23.7165 194.84 24.4824 194.353 25.5267C193.796 26.5014 193.587 27.5458 193.587 28.5901V35.7612H187.809V17.5201H192.961Z" fill="white"/>
<path d="M130.72 13.9696C132.412 13.9696 133.783 12.598 133.783 10.9062C133.783 9.2143 132.412 7.84277 130.72 7.84277C129.028 7.84277 127.656 9.2143 127.656 10.9062C127.656 12.598 129.028 13.9696 130.72 13.9696Z" fill="#BB976D"/>
<path d="M30.9504 4.29208C30.9504 4.08321 30.9504 3.87434 30.8808 3.7351C30.8808 3.52623 30.8112 3.38698 30.8112 3.17812C30.8112 3.10849 30.7415 3.03887 30.7415 2.96925C30.7415 2.89963 30.6719 2.83 30.6719 2.76038C30.6023 2.62114 30.6023 2.48189 30.5327 2.34265C30.3238 1.85529 30.0453 1.50718 29.9061 1.29831C29.8364 1.15906 29.7668 1.08944 29.6972 1.08944C29.6276 0.950195 29.6276 0.950195 29.6276 0.950195C29.6276 0.950195 29.558 1.08944 29.4883 1.36793C29.4187 1.5768 29.2795 1.92491 29.0706 2.34265C29.001 2.41227 28.9314 2.55151 28.9314 2.62114C28.9314 2.69076 28.8617 2.69076 28.8617 2.76038C28.8617 2.83 28.7921 2.83 28.7225 2.89963C28.6529 2.96925 28.5832 3.10849 28.5136 3.17812C28.444 3.24774 28.3744 3.38698 28.2351 3.45661C27.887 3.87434 27.4693 4.22245 26.9819 4.64019C26.4946 5.05793 25.9376 5.40604 25.311 5.82377C25.1717 5.8934 24.9629 6.03264 24.8236 6.10226C24.6844 6.17189 24.4755 6.31113 24.3363 6.38075C24.197 6.45038 23.9882 6.58962 23.8489 6.65924C23.7097 6.72887 23.5008 6.79849 23.3616 6.93773L23.0831 7.07698C23.0134 7.21622 22.8742 7.28585 22.8046 7.35547L22.6653 7.42509H22.5957C22.5957 7.42509 22.6653 7.35547 22.6653 7.42509L22.5957 7.49471C22.5261 7.56434 22.3868 7.56434 22.3172 7.63396C21.8995 7.84283 21.4817 8.05169 21.1336 8.26056C20.2982 8.6783 19.4627 9.16565 18.5576 9.65301C18.2791 9.86188 17.931 10.0011 17.6525 10.21C17.0955 10.5581 16.4689 10.9758 15.9119 11.3936C15.0068 12.0202 14.1714 12.7164 13.4055 13.5519C13.2663 13.6911 13.1967 13.7607 13.0574 13.9L12.9182 14.0392C12.8485 14.1089 12.7789 14.1785 12.7789 14.1785C12.7093 14.2481 12.6397 14.3873 12.5701 14.457L12.4308 14.5962L12.3612 14.6658L12.2916 14.7355C11.9435 15.1532 11.665 15.6406 11.3865 16.0583C11.3169 16.1975 11.2472 16.2672 11.1776 16.4064C11.108 16.5456 10.9687 16.7545 10.8991 16.8938C10.8295 17.033 10.7599 17.2419 10.6902 17.3811C10.4814 17.8685 10.3421 18.2862 10.2029 18.7039C9.9244 19.609 9.78516 20.3749 9.78516 21.1407C9.78516 21.837 9.78516 22.5332 9.9244 23.0205C9.9244 23.1598 9.99402 23.299 9.99402 23.3687C9.99402 23.5079 10.0636 23.5775 10.0636 23.7168C10.1333 23.9256 10.2029 24.0649 10.2029 24.2041C10.2029 24.2737 10.2029 24.2737 10.2725 24.3434C10.3421 24.5522 10.4118 24.6219 10.4118 24.6219C10.4118 24.6219 10.4814 24.5522 10.551 24.413C10.551 24.3434 10.6206 24.3434 10.6206 24.2737C10.7599 24.0649 10.9687 23.856 11.1776 23.5775C11.2472 23.5079 11.2472 23.5079 11.3169 23.4383C11.4561 23.2294 11.5953 23.0902 11.8042 22.8813C12.0131 22.6724 12.1523 22.4636 12.3612 22.2547C12.7789 21.837 13.2663 21.4192 13.7536 20.9319C14.241 20.5141 14.8676 20.0964 15.4246 19.6787C15.5638 19.609 15.7031 19.4698 15.9119 19.4002C16.0512 19.3305 16.2601 19.1913 16.3993 19.1217C16.4689 19.0521 16.3297 19.1913 16.3297 19.1913H16.3993L16.4689 19.1217L16.6082 19.0521C16.6778 18.9824 16.817 18.9128 16.8867 18.8432C16.9563 18.7736 16.9563 18.7736 17.0259 18.7736L17.1651 18.7039C17.2348 18.6343 17.3044 18.6343 17.374 18.5647C18.0702 18.2166 18.8361 17.7988 19.6716 17.3811C20.507 16.9634 21.3425 16.476 22.178 15.9887C23.0831 15.5013 23.9185 14.9443 24.8236 14.3177C24.8932 14.2481 25.0325 14.1785 25.1021 14.1089C25.4502 13.8304 25.7983 13.6215 26.0768 13.343C26.2161 13.2734 26.2857 13.2038 26.4249 13.0645L26.4946 12.9949C26.4249 12.9949 26.5642 12.9253 26.5642 12.9253L26.7034 12.786C26.7731 12.7164 26.9123 12.6468 26.9819 12.5075C27.0515 12.4379 27.1908 12.2987 27.2604 12.229C27.4693 12.0202 27.6781 11.8113 27.887 11.6024L27.9566 11.5328C28.0959 11.324 28.3048 11.1847 28.444 10.9758C28.5832 10.767 28.7921 10.5581 28.9314 10.3492C29.0706 10.1404 29.2098 9.9315 29.4187 9.72264C29.9757 8.81754 30.4631 7.91245 30.7415 7.00736C30.8808 5.96302 31.02 5.05793 30.9504 4.29208Z" fill="white"/>
<path d="M28.6524 16.8939C28.6524 16.6851 28.5828 16.5458 28.5828 16.337C28.5828 16.2673 28.5132 16.1977 28.5132 16.1281C28.5132 16.0585 28.4435 15.9888 28.4435 15.9192C28.3739 15.78 28.3739 15.6407 28.3043 15.5015C28.1651 15.1534 27.9562 14.8749 27.8169 14.666L27.6777 14.8053C27.6081 14.8749 27.4688 14.9445 27.3992 15.0141C27.26 15.1534 27.0511 15.2926 26.8422 15.4319C26.8422 15.5015 26.7726 15.5015 26.7726 15.5711C26.703 15.6407 26.6334 15.78 26.6334 15.8496C26.6334 15.9192 26.5637 15.9192 26.5637 15.9888C26.5637 16.0585 26.4941 16.0585 26.4245 16.1281C26.4245 16.2673 26.2853 16.337 26.2853 16.4762C26.2156 16.5458 26.146 16.6851 26.0068 16.7547C25.6586 17.1724 25.2409 17.5205 24.7536 17.9383C24.2662 18.356 23.7092 18.7041 23.0826 19.1219C22.9434 19.1915 22.7345 19.3307 22.5953 19.4003C22.456 19.47 22.2471 19.6092 22.1079 19.6788C21.9687 19.7485 21.7598 19.8877 21.6205 19.9573C21.4813 20.0269 21.2724 20.0966 21.1332 20.2358L20.8547 20.3751C20.7154 20.4447 20.6458 20.5143 20.5066 20.5143L20.3673 20.5839H20.2977C20.2977 20.5839 20.3673 20.5143 20.3673 20.5839L20.2977 20.6536C20.2281 20.7232 20.0888 20.7232 20.0192 20.7928C19.6015 21.0017 19.1838 21.2105 18.8356 21.4194C18.0002 21.8371 17.1647 22.3245 16.2596 22.8119C15.3545 23.2992 14.4494 23.8562 13.6139 24.5524C13.3355 24.7613 13.057 24.9701 12.7785 25.179C12.2911 25.5968 11.8038 26.0145 11.3164 26.5018C11.3164 26.5715 11.386 26.6411 11.386 26.6411C11.386 26.6411 11.386 26.7107 11.4557 26.7107C11.4557 26.7107 11.4557 26.7803 11.5253 26.7803L11.5949 26.85C11.6645 26.9196 11.6645 26.9892 11.6645 26.9892L11.7341 27.1284L12.0126 27.6854C12.0823 27.8247 12.1519 27.9639 12.2215 28.0335V28.1032L12.3607 28.4513C12.5696 28.869 12.7089 29.2867 12.8481 29.7741C12.9873 30.1918 13.057 30.6096 13.1266 31.0273V31.0969C13.1962 31.5147 13.2658 31.8628 13.2658 32.2805C13.2658 32.3501 13.2658 32.4894 13.2658 32.559C13.3355 32.4894 13.4051 32.4894 13.4747 32.4198C13.614 32.3501 13.8228 32.2109 13.9621 32.1413C14.0317 32.0716 13.8924 32.2109 13.8924 32.2109H13.9621L14.0317 32.1413L14.1709 32.0716C14.2406 32.002 14.3798 31.9324 14.4494 31.8628C14.519 31.7932 14.519 31.7932 14.5887 31.7932L14.7279 31.7235C14.7975 31.6539 14.8672 31.6539 14.9368 31.5843C15.633 31.2362 16.3989 30.8184 17.2343 30.4007C18.0698 29.983 18.9053 29.4956 19.7407 29.0083C20.6458 28.5209 21.4813 27.9639 22.3864 27.3373C22.8041 27.0588 23.2915 26.7107 23.7092 26.3626C23.8485 26.293 23.9181 26.2234 24.0573 26.0841L24.127 26.0145C24.0573 26.0145 24.1966 25.9449 24.1966 25.9449L24.3358 25.8056C24.4054 25.736 24.5447 25.6664 24.6143 25.5271C24.6839 25.4575 24.8232 25.3183 24.8928 25.2486C25.1017 25.0398 25.3105 24.8309 25.5194 24.622C25.7283 24.4132 25.8675 24.2043 26.0764 23.9954C26.2156 23.7866 26.4245 23.5777 26.5637 23.3688C26.703 23.16 26.8422 22.9511 27.0511 22.7422C27.6081 21.8371 28.0954 20.932 28.3739 20.0269C28.6524 19.1219 28.7917 18.2168 28.722 17.4509C28.6524 17.3117 28.6524 17.1028 28.6524 16.8939Z" fill="white"/>
<path d="M10.8283 31.5839C10.7586 31.2358 10.689 30.8877 10.5498 30.5396C10.4105 30.1915 10.3409 29.8434 10.132 29.4256L9.99278 29.1471C9.92316 29.0775 9.85354 28.9383 9.85354 28.799C9.85354 28.799 9.85354 28.799 9.85354 28.7294C9.78391 28.5902 9.71429 28.4509 9.64467 28.3117V28.2421V28.1724C9.64467 28.1724 9.50542 28.0332 9.57505 28.1028L9.50542 27.9636C9.4358 27.8939 9.4358 27.7547 9.36618 27.6851C9.29656 27.4762 9.15731 27.337 9.08769 27.1281C8.94844 26.78 8.73958 26.3622 8.60033 26.0141V25.9445C8.32184 25.109 8.04335 24.2039 7.90411 23.3685C7.76486 22.4634 7.69524 21.5583 7.69524 20.7228C7.69524 19.8873 7.83448 19.0519 7.97373 18.2164C8.11297 17.6594 8.32184 17.1024 8.53071 16.5455C8.73958 16.1277 8.94844 15.71 9.15731 15.2923C9.4358 14.8049 9.78391 14.3175 10.132 13.8998C10.6194 13.2732 11.1067 12.7162 11.6637 12.2289C11.803 12.0896 11.9422 12.02 12.0118 11.8808C12.1511 11.7415 12.2207 11.6719 12.3599 11.5326C12.5688 11.3238 12.8473 11.1149 13.0562 10.9757C13.8916 10.2794 14.4486 9.8617 14.4486 9.8617C14.4486 9.8617 14.379 9.8617 14.1701 9.79208C14.1005 9.79208 14.0309 9.79208 13.9613 9.79208C13.6828 9.72245 13.1954 9.72245 12.6384 9.65283C12.3599 9.65283 12.0118 9.65283 11.6637 9.65283C11.3156 9.65283 10.9675 9.72245 10.5498 9.79208C9.71429 9.93132 8.8092 10.1402 7.83448 10.6275C6.85977 11.0453 5.81543 11.6719 4.91034 12.5074C3.93562 13.3428 3.10015 14.4568 2.40393 15.71C1.7077 16.9632 1.22034 18.4253 1.01147 19.8873C0.732985 21.3494 0.732985 22.8811 0.941852 24.3432C1.15072 25.8053 1.56845 27.2673 2.12544 28.5902C2.40393 29.2864 2.75204 29.913 3.16977 30.5396C3.10015 30.8877 3.30902 31.1662 3.51789 31.4447C3.65713 31.5839 3.72675 31.7232 3.866 31.8624L4.00524 32.0713L4.07487 32.1409C4.07487 32.2105 4.00524 32.0713 4.00524 32.0713L4.07487 32.1409L4.21411 32.2802C4.21411 32.2802 4.21411 32.2802 4.28373 32.3498L4.35336 32.4194C4.4926 32.5586 4.56222 32.6979 4.63185 32.8371C4.70147 32.9764 4.84071 33.1156 4.91034 33.2549C4.91034 33.3245 4.97996 33.3245 4.97996 33.3941C5.04958 33.5334 5.1192 33.6726 5.18883 33.7422C5.32807 34.0903 5.53694 34.4385 5.67618 34.8562C5.74581 35.0651 5.81543 35.2043 5.88505 35.4132C5.88505 35.4828 5.95467 35.622 5.95467 35.6917L6.09392 35.9701V36.0398C6.09392 36.0398 6.09392 36.1094 6.09392 35.9701V36.0398C6.30279 36.5271 6.44203 37.1537 6.44203 37.7107C6.44203 37.9892 6.44203 38.2677 6.37241 38.5462C6.30279 38.8247 6.23316 39.0335 6.16354 39.2424C6.09392 39.312 6.09392 39.312 6.09392 39.3817C5.88505 39.7298 5.67618 40.0083 5.46732 40.2171C5.25845 40.426 5.1192 40.4956 5.1192 40.4956C5.1192 40.4956 5.18883 40.4956 5.25845 40.5652C5.32807 40.5652 5.39769 40.6349 5.60656 40.6349C5.88505 40.7045 6.23316 40.7045 6.72052 40.6349C6.85977 40.6349 6.99901 40.5652 7.13826 40.5652C7.48637 40.4956 7.83448 40.2867 8.1826 40.0779C8.53071 39.869 8.87882 39.5209 9.22693 39.1728C9.85354 38.4069 10.4801 37.4322 10.7586 36.1094V36.0398C10.7586 35.9702 10.7586 36.0398 10.7586 35.9701V35.9005L10.8283 35.6917C10.8283 35.5524 10.8979 35.4132 10.8979 35.2739C10.9675 34.9954 10.9675 34.7169 10.9675 34.4385C11.0371 33.8815 11.0371 33.2549 10.9675 32.6283C10.8979 32.2802 10.8283 31.932 10.8283 31.5839Z" fill="#BB976D"/>
</svg>
