<svg  width="73" height="63" viewBox="0 0 73 63" fill="none" xmlns="http://www.w3.org/2000/svg">
    <path d="M13.7435 61.797C13.7435 62.4613 13.2025 62.9998 12.5353 62.9998H1.20822C0.54098 62.9998 0 62.4613 0 61.797C0 61.1327 0.54098 60.5941 1.20822 60.5941H12.5353C13.2025 60.5941 13.7435 61.1327 13.7435 61.797ZM28.0911 8.72061C32.7545 8.72061 36.5486 12.4979 36.5486 17.1407V19.2457C36.5486 19.91 36.0076 20.4485 35.3404 20.4485H20.8418C20.1745 20.4485 19.6336 19.91 19.6336 19.2457V17.1407C19.6336 12.4979 23.4277 8.72061 28.0911 8.72061ZM22.05 17.1407V18.0428H34.1322V17.1407C34.1322 13.8244 31.4222 11.1263 28.0911 11.1263C24.76 11.1263 22.05 13.8244 22.05 17.1407ZM10.0433 58.1884C10.7106 58.1884 11.2524 57.6497 11.2515 56.9839L11.1881 9.97069C11.1825 5.79104 14.5782 2.40558 18.7768 2.40558H19.2944C21.7168 2.40558 23.9371 3.51672 25.3857 5.45409C25.7842 5.9868 26.5411 6.09732 27.0763 5.70067C27.6116 5.30403 27.7224 4.55043 27.324 4.01757C25.4428 1.50193 22.441 0 19.2944 0H18.7768C13.2418 0 8.76427 4.46308 8.77167 9.974L8.8351 56.9872C8.83601 57.6509 9.37669 58.1884 10.0433 58.1884V58.1884ZM67.0562 41.7994V33.9562C67.0562 30.4048 64.1539 27.5154 60.5866 27.5154H27.6134C24.0461 27.5154 21.1438 30.4048 21.1438 33.9562V36.8376C21.1438 37.5018 21.6848 38.0404 22.3521 38.0404C23.0193 38.0404 23.5603 37.5018 23.5603 36.8376V33.9562C23.5603 31.7312 25.3785 29.9211 27.6134 29.9211H43.0428V43.4533C43.0428 44.1176 43.5838 44.6562 44.251 44.6562C44.9183 44.6562 45.4592 44.1176 45.4592 43.4533V29.9211H60.5866C62.8215 29.9211 64.6397 31.7312 64.6397 33.9562V41.8312C61.9265 42.1223 59.8068 44.4153 59.8068 47.1927V48.2648C59.8068 48.929 60.3478 49.4676 61.0151 49.4676C61.6823 49.4676 62.2233 48.929 62.2233 48.2648V47.1927C62.2233 45.5454 63.5694 44.2051 65.224 44.2051H67.076C68.7306 44.2051 70.0767 45.5454 70.0767 47.1927V57.6067C70.0767 59.254 68.7306 60.5943 67.076 60.5943H62.2233C62.2233 52.7215 62.2292 53.206 62.2129 53.0764C62.305 52.3419 61.7281 51.7231 61.0151 51.7231H33.9812C33.3139 51.7231 32.7729 52.2617 32.7729 52.926C32.7729 53.5903 33.3139 54.1289 33.9812 54.1289H59.8068V61.7971C59.8068 62.4614 60.3478 63 61.0151 63H67.076C70.063 63 72.4932 60.5806 72.4932 57.6067V47.1927C72.4932 44.2577 70.1101 41.7994 67.0562 41.7994ZM54.8229 60.5941C53.7304 60.5941 23.1422 60.5941 21.4263 60.5941C19.7716 60.5941 18.4253 59.2538 18.4253 57.6065V47.1927C18.4253 45.5454 19.7716 44.2051 21.4263 44.2051H23.278C24.9327 44.2051 26.2789 45.5454 26.2789 47.1927V53.9784C26.2789 54.6426 26.8199 55.1812 27.4871 55.1812C28.1544 55.1812 28.6954 54.6426 28.6954 53.9784V47.1927C28.6954 44.2188 26.2652 41.7994 23.278 41.7994H21.4263C18.4391 41.7994 16.0089 44.2188 16.0089 47.1927V57.6067C16.0089 60.5806 18.4391 63 21.4263 63H54.8229C55.4902 63 56.0312 62.4614 56.0312 61.7971C56.0312 61.1329 55.4902 60.5941 54.8229 60.5941Z" fill="#BB976D"/>
</svg>