<svg className="mx-auto w-14 sm:w-24" viewBox="0 0 76 63" fill="none" xmlns="http://www.w3.org/2000/svg">
    <path d="M71.749 29.234V12.4939C71.749 10.1443 69.8384 8.23257 67.4896 8.23257H60.3281C57.3673 8.23257 54.4966 7.17838 52.245 5.26413C48.2516 1.8695 43.1632 0 37.9167 0C32.6701 0 27.5817 1.8695 23.5883 5.26413C21.3367 7.17838 18.466 8.23257 15.5053 8.23257H8.34374C5.99513 8.23257 4.08434 10.1442 4.08434 12.4939V29.234C1.61146 31.0362 0 33.9535 0 37.2419V60.3639C0 61.8175 1.18193 63 2.63476 63H5.16674C6.61972 63 7.80165 61.8175 7.80165 60.3639V58.2235C7.80165 57.0665 8.74246 56.1254 9.89877 56.1254H65.9349C67.0912 56.1254 68.0317 57.0667 68.0317 58.2234V60.3639C68.0317 61.8175 69.2136 63 70.6666 63H73.1986C74.6514 63 75.8333 61.8175 75.8333 60.3639V37.2419C75.8333 33.9535 74.2219 31.0362 71.749 29.234ZM6.30602 12.4939C6.30602 11.3698 7.22016 10.4553 8.34374 10.4553H15.5053C18.9925 10.4553 22.3741 9.21326 25.0269 6.95803C28.6191 3.90438 33.1966 2.22278 37.9167 2.22278C42.6367 2.22278 47.2143 3.90453 50.8064 6.95818C53.4592 9.21341 56.8408 10.4555 60.3281 10.4555H67.4896C68.6132 10.4555 69.5273 11.3699 69.5273 12.4941V28.0165C68.4128 27.5805 67.2018 27.3384 65.9347 27.3384H62.1352V18.7672C62.1352 17.0955 60.7758 15.7353 59.105 15.7353H45.6749C44.0041 15.7353 42.6446 17.0955 42.6446 18.7672V20.0503C42.6446 20.6643 43.1418 21.1617 43.7554 21.1617C44.369 21.1617 44.8662 20.6643 44.8662 20.0503V18.7672C44.8662 18.321 45.229 17.9581 45.6749 17.9581H59.105C59.5508 17.9581 59.9135 18.321 59.9135 18.7672V27.3384H44.8662V25.2461C44.8662 24.6322 44.369 24.1348 43.7554 24.1348C43.1418 24.1348 42.6446 24.6322 42.6446 25.2461V27.3384H33.1888V18.7672C33.1888 17.0955 31.8293 15.7353 30.1584 15.7353H16.7284C15.0575 15.7353 13.6981 17.0955 13.6981 18.7672V27.3384H9.89862C8.63152 27.3384 7.42056 27.5804 6.30602 28.0165V12.4939ZM15.9198 27.3384V18.7672C15.9198 18.321 16.2825 17.9581 16.7284 17.9581H30.1584C30.6044 17.9581 30.9671 18.321 30.9671 18.7672V27.3384H15.9198ZM73.1986 60.7772H70.6666C70.4388 60.7772 70.2534 60.5918 70.2534 60.3639V58.2234C70.2534 55.8409 68.3161 53.9026 65.9349 53.9026H9.89877C7.51742 53.9026 5.57997 55.841 5.57997 58.2235V60.3639C5.57997 60.5918 5.39453 60.7772 5.16674 60.7772H2.63476C2.40697 60.7772 2.22168 60.5918 2.22168 60.3639V46.5593H5.61596C6.22959 46.5593 6.7268 46.0619 6.7268 45.4479C6.7268 44.834 6.22959 44.3365 5.61596 44.3365H2.22168V37.2419C2.22168 33.0067 5.66558 29.5611 9.89862 29.5611H65.9347C70.1678 29.5611 73.6117 33.0067 73.6117 37.2419V44.3365H10.8369C10.2233 44.3365 9.72607 44.834 9.72607 45.4479C9.72607 46.0619 10.2233 46.5593 10.8369 46.5593H73.6117V60.3639C73.6117 60.5918 73.4264 60.7772 73.1986 60.7772Z" fill="#BB976D"/>
</svg> 