<svg width="63" height="63" viewBox="0 0 63 63" fill="none" xmlns="http://www.w3.org/2000/svg">
    <path d="M54.1712 13.3447C51.1919 10.3694 47.603 8.07541 43.6517 6.62074C39.7004 5.16606 35.4808 4.58531 31.2834 4.91849C27.583 5.20919 23.9747 6.21786 20.66 7.88816C20.3943 8.02261 20.1928 8.25689 20.0996 8.53966C20.0064 8.82242 20.0291 9.13061 20.1627 9.39668C20.2963 9.66275 20.5299 9.865 20.8124 9.9591C21.0949 10.0532 21.4032 10.0315 21.6696 9.89869C24.7242 8.35948 28.0493 7.42992 31.4592 7.16195C35.6479 6.82393 39.8575 7.47425 43.749 9.06055C47.6404 10.6469 51.105 13.1248 53.8637 16.2949C56.6224 19.4649 58.5981 23.2385 59.6318 27.3117C60.6655 31.3849 60.7282 35.644 59.815 39.7459C58.9018 43.8478 57.0381 47.6779 54.3739 50.9279C51.7098 54.1778 48.3198 56.7568 44.4768 58.457C40.6337 60.1573 36.4452 60.9313 32.2483 60.7169C28.0514 60.5024 23.9636 59.3054 20.3139 57.2223C19.7228 56.8884 19.0678 56.6832 18.3918 56.6203C17.7159 56.5573 17.0343 56.638 16.3917 56.857L7.80458 59.7162L10.6627 51.1324C10.8835 50.4918 10.9652 49.8115 10.9025 49.1368C10.8398 48.4621 10.6341 47.8086 10.2991 47.2196C7.75663 42.7571 6.54397 37.6604 6.80425 32.5311C6.99787 28.7145 8.02183 24.9862 9.8047 21.6061C9.87344 21.4753 9.91576 21.3322 9.92922 21.1851C9.94269 21.0379 9.92704 20.8896 9.88317 20.7485C9.8393 20.6074 9.76807 20.4763 9.67355 20.3628C9.57902 20.2492 9.46306 20.1554 9.33227 20.0866C9.20148 20.0179 9.05843 19.9756 8.91129 19.9621C8.76415 19.9486 8.6158 19.9643 8.47471 20.0081C8.33361 20.052 8.20254 20.1232 8.08898 20.2178C7.97541 20.3123 7.88157 20.4283 7.81283 20.559C5.87824 24.2277 4.76714 28.2741 4.55699 32.4163C4.2749 37.9775 5.59054 43.5033 8.34846 48.3408C8.52452 48.6541 8.63172 49.0014 8.66288 49.3595C8.69405 49.7176 8.64847 50.0782 8.5292 50.4172L4.95962 61.1385C4.89365 61.3366 4.88416 61.5493 4.93218 61.7525C4.98021 61.9558 5.08386 62.1416 5.23154 62.2893C5.37922 62.437 5.56509 62.5407 5.76835 62.5887C5.9716 62.6367 6.18421 62.6272 6.38237 62.5612L17.1069 58.9906C17.4487 58.8722 17.8116 58.8275 18.1718 58.8594C18.5321 58.8913 18.8815 58.9991 19.1971 59.1757C23.5981 61.6894 28.5801 63.0079 33.6483 63.0002C34.1334 63.0002 34.6193 62.9881 35.1062 62.9639C40.7246 62.6746 46.1386 60.7621 50.692 57.4581C55.2455 54.154 58.743 49.6004 60.7608 44.3488C62.7786 39.0972 63.23 33.3732 62.0604 27.8702C60.8909 22.3673 58.1504 17.3216 54.1712 13.3447V13.3447Z" fill="#BB976D"/>
    <path d="M22.8322 29.2756L29.7565 31.1351C29.9473 31.1863 30.1483 31.1863 30.3391 31.1352C30.5299 31.0841 30.7039 30.9837 30.8436 30.844C30.9833 30.7043 31.0838 30.5303 31.1349 30.3394C31.186 30.1486 31.186 29.9477 31.1348 29.7568L29.2753 22.8315C29.1152 22.2369 28.8019 21.6948 28.3667 21.2593L11.3368 4.22982L11.3359 4.22845L11.3345 4.22755L8.13439 1.02749C7.47535 0.369542 6.58216 0 5.6509 0C4.71965 0 3.82645 0.369542 3.16741 1.02749L1.02717 3.16714H1.02662C0.369089 3.82655 -0.000103318 4.71981 2.16884e-08 5.65103C0.000103362 6.58226 0.369494 7.47544 1.02717 8.13471L21.2595 28.3665C21.6951 28.802 22.2375 29.1155 22.8322 29.2756V29.2756ZM26.4488 22.5231C26.4147 22.5431 26.3818 22.565 26.3501 22.5886L22.5889 26.3499C22.5652 26.3815 22.5433 26.4145 22.5233 26.4486L6.61474 10.5404L10.5402 6.61488L26.4488 22.5231ZM28.4557 28.456L24.6789 27.4416L27.4415 24.679L28.4557 28.456ZM2.61858 4.75799L4.75822 2.61835C4.99515 2.38196 5.31618 2.2492 5.65087 2.2492C5.98557 2.2492 6.30659 2.38196 6.54353 2.61835L8.94927 5.02409L5.02381 8.94964L2.61804 6.54385C2.38159 6.3068 2.24885 5.98562 2.24895 5.65081C2.24905 5.31599 2.38199 4.9949 2.61858 4.75799V4.75799Z" fill="#BB976D"/>
    <path d="M52.0644 36.4375H21.3438C21.0454 36.4375 20.7592 36.556 20.5483 36.767C20.3373 36.978 20.2188 37.2642 20.2188 37.5625C20.2188 37.8609 20.3373 38.1471 20.5483 38.358C20.7592 38.569 21.0454 38.6876 21.3438 38.6876H52.0644C52.3628 38.6876 52.649 38.569 52.86 38.358C53.0709 38.1471 53.1895 37.8609 53.1895 37.5625C53.1895 37.2642 53.0709 36.978 52.86 36.767C52.649 36.556 52.3628 36.4375 52.0644 36.4375Z" fill="#BB976D"/>
    <path d="M52.0646 43.9521H30.0469C29.7485 43.9521 29.4624 44.0707 29.2514 44.2817C29.0404 44.4926 28.9219 44.7788 28.9219 45.0772C28.9219 45.3755 29.0404 45.6617 29.2514 45.8727C29.4624 46.0837 29.7485 46.2022 30.0469 46.2022H52.0646C52.3629 46.2022 52.6491 46.0837 52.8601 45.8727C53.0711 45.6617 53.1896 45.3755 53.1896 45.0772C53.1896 44.7788 53.0711 44.4926 52.8601 44.2817C52.6491 44.0707 52.3629 43.9521 52.0646 43.9521Z" fill="#BB976D"/>
    <path d="M22.1914 45.0766C22.1914 45.3128 22.2614 45.5436 22.3926 45.7399C22.5238 45.9363 22.7102 46.0893 22.9284 46.1797C23.1465 46.27 23.3866 46.2937 23.6182 46.2476C23.8498 46.2015 24.0625 46.0878 24.2295 45.9209C24.3964 45.7539 24.5101 45.5412 24.5562 45.3096C24.6023 45.078 24.5786 44.8379 24.4883 44.6198C24.3979 44.4016 24.2449 44.2152 24.0485 44.084C23.8522 43.9528 23.6214 43.8828 23.3852 43.8828C23.0686 43.8828 22.765 44.0086 22.5411 44.2325C22.3172 44.4564 22.1914 44.76 22.1914 45.0766Z" fill="#BB976D"/>
</svg>