<svg viewBox="0 0 43 54" fill="none" xmlns="http://www.w3.org/2000/svg">
    <path d="M21.4886 32.2419C20.4222 32.2419 19.3812 32.0896 18.3655 31.7595C17.0452 31.3279 15.8519 30.6677 14.8109 29.7791C13.8206 28.9158 13.0081 27.8748 12.3734 26.7068C11.764 25.5134 11.4085 24.2693 11.2816 22.949C11.1546 21.5779 11.307 20.2322 11.7386 18.9119C12.1702 17.5916 12.8304 16.3982 13.7191 15.3572C14.5823 14.3669 15.6234 13.5544 16.7913 12.9197C17.9847 12.3103 19.2288 11.9548 20.5491 11.8279C21.9202 11.7009 23.2659 11.8533 24.5862 12.2849C25.0433 12.4373 25.3226 12.9451 25.1702 13.4021C25.0179 13.8591 24.5101 14.1384 24.053 13.9861C22.9612 13.6306 21.8441 13.5037 20.7269 13.6052C19.6351 13.7068 18.5941 14.0115 17.6038 14.5193C16.6136 15.0271 15.7757 15.7127 15.0648 16.5252C14.3284 17.3884 13.7698 18.3787 13.4398 19.4451C13.0843 20.5369 12.9573 21.6541 13.0589 22.7712C13.1605 23.863 13.4652 24.9041 13.973 25.8943C14.4808 26.8845 15.1409 27.7224 15.9788 28.4334C16.8421 29.1697 17.8323 29.7283 18.8987 30.0584C19.9905 30.4138 21.1077 30.5408 22.2249 30.4392C23.3167 30.3377 24.3577 30.033 25.348 29.5252C26.3382 29.0173 27.1761 28.3318 27.887 27.5193C28.6234 26.656 29.182 25.6658 29.512 24.5994C29.8675 23.5076 29.9945 22.3904 29.8929 21.2732C29.8421 20.7908 30.1976 20.3591 30.7054 20.3084C31.1878 20.2576 31.6195 20.613 31.6702 21.1209C31.7972 22.4919 31.6448 23.8377 31.2132 25.158C30.7816 26.4783 30.1214 27.6716 29.2327 28.7127C28.3695 29.7029 27.3284 30.5408 26.1605 31.1502C24.9671 31.7595 23.6976 32.115 22.4027 32.2419C22.098 32.2166 21.7933 32.2419 21.4886 32.2419Z" fill="#BB976D"/>
    <path d="M21.4883 43.4646C19.6348 43.4646 18.1875 41.9919 16.9434 40.697C16.1309 39.8591 15.3438 39.0466 14.582 38.7419C13.7695 38.4119 12.5508 38.4119 11.3828 38.4119C9.5293 38.4373 7.59961 38.4373 6.33008 37.1931C5.06055 35.9236 5.08594 34.0193 5.11133 32.1404C5.11133 30.9724 5.13672 29.7537 4.78125 28.9412C4.47656 28.1794 3.66406 27.3923 2.82617 26.5798C1.53125 25.3103 0.0585938 23.8884 0.0585938 22.0095C0.0585938 20.156 1.53125 18.7087 2.82617 17.4646C3.66406 16.6521 4.47656 15.865 4.78125 15.1033C5.11133 14.2908 5.11133 13.072 5.11133 11.9041C5.08594 10.0505 5.08594 8.12085 6.33008 6.85132C7.59961 5.58179 9.50391 5.60718 11.3828 5.63257C12.5508 5.63257 13.7695 5.65796 14.582 5.30249C15.3438 4.9978 16.1309 4.1853 16.9434 3.34741C18.2129 2.05249 19.6348 0.579834 21.5137 0.579834C23.3672 0.579834 24.8145 2.05249 26.0586 3.34741C26.8711 4.1853 27.6582 4.9978 28.4199 5.30249C29.2324 5.63257 30.4512 5.63257 31.6191 5.63257C33.4727 5.60718 35.4023 5.60718 36.6719 6.85132C37.9414 8.12085 37.916 10.0251 37.8906 11.9041C37.8906 13.072 37.8652 14.2908 38.2207 15.1033C38.5254 15.865 39.3379 16.6521 40.1758 17.4646C41.4707 18.7341 42.9434 20.156 42.9434 22.0349C42.9434 23.8884 41.4707 25.3357 40.1758 26.5798C39.3379 27.3923 38.5254 28.1794 38.2207 28.9412C37.8906 29.7537 37.8906 30.9724 37.8906 32.1404C37.916 33.9939 37.916 35.9236 36.6719 37.1931C35.4023 38.4626 33.498 38.4373 31.6191 38.4119C30.4512 38.4119 29.2324 38.3865 28.4199 38.7419C27.6582 39.0466 26.8711 39.8591 26.0586 40.697C24.7891 41.9666 23.3418 43.4646 21.4883 43.4646ZM11.9922 36.6091C13.1348 36.6091 14.2773 36.6599 15.2422 37.0662C16.334 37.5232 17.2988 38.488 18.1875 39.4275C19.2539 40.5193 20.3711 41.6619 21.4629 41.6619C22.5801 41.6619 23.6719 40.5193 24.7383 39.4275C25.6523 38.488 26.5918 37.5232 27.6836 37.0662C28.8262 36.5837 30.2227 36.6091 31.5684 36.6091C33.1426 36.6345 34.6152 36.6345 35.3516 35.8982C36.0879 35.1619 36.0625 33.6892 36.0625 32.115C36.0625 30.7693 36.0371 29.3728 36.5195 28.2302C36.9766 27.1384 37.9414 26.1736 38.8809 25.2849C39.9727 24.2185 41.1152 23.1013 41.1152 22.0095C41.1152 20.8923 39.9727 19.8005 38.8809 18.7341C37.9414 17.8201 36.9766 16.8806 36.5195 15.7888C36.0371 14.6462 36.0625 13.2498 36.0625 11.9041C36.0879 10.3298 36.0879 8.85718 35.3516 8.12085C34.6152 7.38452 33.1426 7.40991 31.5684 7.40991C30.2227 7.40991 28.8262 7.4353 27.6836 6.95288C26.5918 6.49585 25.627 5.53101 24.7383 4.59155C23.6719 3.49976 22.5801 2.35718 21.4629 2.35718C20.3457 2.35718 19.2539 3.49976 18.1875 4.59155C17.2734 5.53101 16.334 6.49585 15.2422 6.95288C14.0996 7.4353 12.7031 7.40991 11.3574 7.40991C9.7832 7.38452 8.31055 7.38452 7.57422 8.12085C6.83789 8.85718 6.86328 10.3298 6.86328 11.9041C6.86328 13.2498 6.88867 14.6462 6.40625 15.7888C5.94922 16.8806 4.98438 17.8455 4.04492 18.7341C2.95313 19.8005 1.81055 20.8923 1.81055 22.0095C1.81055 23.1267 2.95313 24.2185 4.04492 25.2849C4.98438 26.199 5.94922 27.1384 6.40625 28.2302C6.88867 29.3728 6.86328 30.7693 6.86328 32.115C6.83789 33.6892 6.83789 35.1619 7.57422 35.8982C8.31055 36.6345 9.7832 36.6091 11.3574 36.6091H11.9922Z" fill="#BB976D"/>
    <path d="M30.8809 53.1384C30.7031 53.1384 30.5 53.0876 30.3477 53.0115L21.6133 48.3904L12.8789 53.0115C12.5234 53.1892 12.0918 53.1892 11.7617 52.9861C11.4062 52.783 11.2031 52.4021 11.2031 51.9959V42.1443C11.2031 41.6619 11.6094 41.2556 12.0918 41.2556C12.5742 41.2556 12.9805 41.6619 12.9805 42.1443V50.9294L21.6133 46.3591L30.2461 50.9294V42.1443C30.2461 41.6619 30.6523 41.2556 31.1348 41.2556C31.6172 41.2556 32.0234 41.6619 32.0234 42.1443V51.9959C32.0234 52.4021 31.8203 52.7576 31.4648 52.9861C31.2871 53.0876 31.084 53.1384 30.8809 53.1384Z" fill="#BB976D"/>
    <path d="M21.3096 25.5388L15.9775 20.2068C15.6221 19.8513 15.6221 19.2927 15.9775 18.9626C16.333 18.6072 16.8916 18.6072 17.2217 18.9626L21.2842 23.0251L30.9326 13.4021C31.2881 13.0466 31.8467 13.0466 32.2021 13.4021C32.5576 13.7576 32.5576 14.3162 32.2021 14.6462L21.3096 25.5388Z" fill="#BB976D"/>
</svg>