<svg className="w-12 h-12" viewBox="0 0 52 46" fill="none" xmlns="http://www.w3.org/2000/svg">
    <path d="M42.6778 13.6488H38.9588V9.68657C38.9588 7.41603 38.1046 5.25307 36.5533 3.59636C36.265 3.28829 35.7815 3.27251 35.4736 3.5609C35.1656 3.84929 35.1498 4.33266 35.4382 4.64053C36.7233 6.01315 37.4311 7.80521 37.4311 9.68657V13.6488H21.8867C16.9725 13.6488 12.9746 17.6469 12.9746 22.561V25.2939H11.7781C11.3021 25.2939 10.8545 25.4793 10.5177 25.8159L6.4633 29.8703V25.7917C6.4633 25.1669 6.12876 24.5798 5.59005 24.2595C3.35906 22.933 1.97306 20.4999 1.97306 17.9096V9.68657C1.97306 5.61478 5.28568 2.30216 9.35747 2.30216H30.0467C31.0011 2.30216 31.9293 2.48127 32.8058 2.83469C33.1971 2.99221 33.6422 2.80302 33.7999 2.41184C33.9577 2.02057 33.7684 1.57545 33.3771 1.41772C32.3183 0.99078 31.1977 0.774414 30.0467 0.774414H9.35747C4.44329 0.774414 0.445312 4.77239 0.445312 9.68657V17.9096C0.445312 21.036 2.1175 23.9723 4.80929 25.5727C4.88721 25.619 4.93555 25.7029 4.93555 25.7918V30.2392C4.93555 30.7973 5.26869 31.2959 5.78434 31.5096C6.12846 31.675 6.8311 31.6511 7.28281 31.2116L11.5979 26.8964C11.6461 26.8482 11.71 26.8217 11.7781 26.8217H12.9746V30.7839C12.9746 31.9868 13.2103 33.1541 13.6752 34.2533C13.8395 34.6418 14.2877 34.8233 14.6763 34.6593C15.0649 34.4949 15.2466 34.0467 15.0824 33.6581C14.6976 32.7483 14.5024 31.7814 14.5024 30.784V22.5611C14.5024 18.4892 17.815 15.1766 21.8868 15.1766H42.6778C46.7496 15.1766 50.0622 18.4892 50.0622 22.5611V30.784C50.0622 33.3844 48.7326 35.7447 46.5053 37.0978C45.9803 37.4168 45.6542 37.9988 45.6542 38.6168V43.599L40.7457 38.6904C40.4091 38.3538 39.9615 38.1684 39.4854 38.1684H21.8867C20.0336 38.1684 18.2616 37.4791 16.897 36.2277C16.5861 35.9427 16.103 35.9634 15.8177 36.2743C15.5325 36.5853 15.5534 37.0684 15.8643 37.3536C17.5114 38.8643 19.6501 39.6962 21.8866 39.6962H39.4852C39.5522 39.6962 39.6178 39.7234 39.6652 39.7708L44.8345 44.9401C45.2337 45.2469 45.6238 45.484 46.3329 45.2381C46.8485 45.0244 47.1816 44.5259 47.1816 43.9678V38.6167C47.1816 38.5289 47.2264 38.4471 47.2983 38.4034C49.9857 36.7709 51.59 33.9226 51.59 30.7839V22.561C51.59 17.6469 47.592 13.6488 42.6778 13.6488Z" fill="#BB976D"/>
    <path d="M30.1249 31.8666C29.6769 31.2336 28.8609 30.8093 27.9302 30.8093C26.5191 30.8093 25.3711 31.7847 25.3711 32.9838C25.3711 34.1827 26.5192 35.1581 27.9302 35.1581C29.1685 35.1581 30.2039 34.407 30.4391 33.4129C31.5659 32.9383 32.4529 31.9926 32.8379 30.7962C33.9535 30.5422 34.7889 29.5429 34.7889 28.3514V25.5968C34.7889 24.4466 34.0104 23.4754 32.9527 23.181C32.7038 21.6467 31.9498 20.2389 30.7939 19.175C29.5042 17.9878 27.828 17.334 26.0741 17.334C22.6228 17.334 19.736 19.82 19.1949 23.1811C18.1376 23.4757 17.3594 24.4468 17.3594 25.5967V28.3513C17.3594 29.7342 18.4845 30.8592 19.8674 30.8592C21.2503 30.8592 22.3753 29.7342 22.3753 28.3513V25.5967C22.3753 24.5184 21.6912 23.5969 20.7342 23.2433C21.2295 20.7125 23.4418 18.8617 26.0741 18.8617C28.6731 18.8617 30.9133 20.7449 31.4121 23.2441C30.4561 23.5982 29.7729 24.5191 29.7729 25.5967V28.3513C29.7729 29.3706 30.3845 30.2492 31.2597 30.6411C31.0169 31.1629 30.6174 31.5892 30.1249 31.8666ZM27.9302 33.6305C27.3224 33.6305 26.8989 33.2897 26.8989 32.9839C26.8989 32.678 27.3224 32.3372 27.9302 32.3372C28.5381 32.3372 28.9617 32.678 28.9617 32.9839C28.9617 33.2897 28.538 33.6305 27.9302 33.6305ZM20.8476 28.3515C20.8476 28.892 20.4079 29.3317 19.8674 29.3317C19.3268 29.3317 18.8871 28.892 18.8871 28.3515V25.5969C18.8871 25.0564 19.3268 24.6167 19.8674 24.6167C20.4079 24.6167 20.8476 25.0564 20.8476 25.5969V28.3515ZM31.3007 25.5969C31.3007 25.0564 31.7404 24.6167 32.2809 24.6167C32.8214 24.6167 33.2612 25.0564 33.2612 25.5969V28.3515C33.2612 28.892 32.8214 29.3317 32.2809 29.3317C31.7404 29.3317 31.3007 28.892 31.3007 28.3515V25.5969Z" fill="#BB976D"/>
    <path d="M36.7756 21.6635H42.8601C43.282 21.6635 43.624 21.3216 43.624 20.8996C43.624 20.4777 43.282 20.1357 42.8601 20.1357H36.7756C36.3537 20.1357 36.0117 20.4777 36.0117 20.8996C36.0117 21.3216 36.3537 21.6635 36.7756 21.6635Z" fill="#BB976D"/>
    <path d="M36.7756 25.0824H41.4672C41.8891 25.0824 42.2311 24.7405 42.2311 24.3186C42.2311 23.8966 41.8891 23.5547 41.4672 23.5547H36.7756C36.3537 23.5547 36.0117 23.8966 36.0117 24.3186C36.0117 24.7405 36.3537 25.0824 36.7756 25.0824Z" fill="#BB976D"/>
    <path d="M7.95918 11.9047C8.58816 11.9047 9.09805 11.3948 9.09805 10.7658C9.09805 10.1368 8.58816 9.62695 7.95918 9.62695C7.3302 9.62695 6.82031 10.1368 6.82031 10.7658C6.82031 11.3948 7.3302 11.9047 7.95918 11.9047Z" fill="#BB976D"/>
    <path d="M11.4123 11.9047C12.0413 11.9047 12.5512 11.3948 12.5512 10.7658C12.5512 10.1368 12.0413 9.62695 11.4123 9.62695C10.7833 9.62695 10.2734 10.1368 10.2734 10.7658C10.2734 11.3948 10.7833 11.9047 11.4123 11.9047Z" fill="#BB976D"/>
    <path d="M14.8381 11.9047C15.4671 11.9047 15.977 11.3948 15.977 10.7658C15.977 10.1368 15.4671 9.62695 14.8381 9.62695C14.2091 9.62695 13.6992 10.1368 13.6992 10.7658C13.6992 11.3948 14.2091 11.9047 14.8381 11.9047Z" fill="#BB976D"/>
</svg> 