<svg className="w-12 h-12" viewBox="0 0 48 48" fill="none" xmlns="http://www.w3.org/2000/svg">
    <path d="M23.8943 37.7367C23.7894 37.7364 23.6859 37.7134 23.5908 37.6693L10.7372 31.487C10.6198 31.4287 10.5208 31.339 10.4514 31.2279C10.3819 31.1168 10.3447 30.9885 10.3438 30.8575V17.0203C10.3434 16.9021 10.3731 16.7858 10.4301 16.6822C10.4871 16.5787 10.5695 16.4913 10.6695 16.4283C10.7696 16.3654 10.884 16.3289 11.002 16.3224C11.12 16.3158 11.2378 16.3394 11.3442 16.3908L24.1978 22.5732C24.3152 22.6314 24.4141 22.7211 24.4836 22.8322C24.553 22.9434 24.5903 23.0716 24.5912 23.2026V37.0398C24.5912 37.1577 24.5613 37.2737 24.5043 37.3769C24.4473 37.4801 24.365 37.5672 24.2652 37.6299C24.1545 37.7006 24.0256 37.7377 23.8943 37.7367ZM11.7376 30.4303L23.1974 35.9495V23.6466L11.7376 18.1275V30.4303Z" fill="#BB976D"/>
    <path d="M23.8912 23.8936C23.794 23.9006 23.6964 23.8872 23.6046 23.8543L10.751 17.672C10.6317 17.6164 10.5307 17.5279 10.4599 17.4169C10.3892 17.3059 10.3516 17.177 10.3516 17.0453C10.3516 16.9137 10.3892 16.7848 10.4599 16.6737C10.5307 16.5627 10.6317 16.4742 10.751 16.4186L23.6046 10.2082C23.6986 10.1637 23.8013 10.1406 23.9053 10.1406C24.0093 10.1406 24.112 10.1637 24.206 10.2082L37.0596 16.3905C37.1778 16.4477 37.2775 16.5372 37.3471 16.6485C37.4167 16.7599 37.4534 16.8887 37.453 17.02C37.453 17.1505 37.4161 17.2784 37.3464 17.3888C37.2768 17.4992 37.1774 17.5876 37.0596 17.6439L24.1666 23.8543C24.0784 23.8858 23.9848 23.8992 23.8912 23.8936ZM12.6507 17.0144L23.8912 22.4267L35.1318 17.0256L23.8912 11.6077L12.6507 17.0144Z" fill="#BB976D"/>
    <path d="M23.8922 37.737C23.7609 37.7379 23.632 37.7008 23.5213 37.6302C23.4215 37.5674 23.3392 37.4804 23.2822 37.3771C23.2252 37.2739 23.1953 37.1579 23.1953 37.04V23.2085C23.1949 23.0772 23.2316 22.9484 23.3012 22.837C23.3709 22.7257 23.4705 22.6362 23.5887 22.579L36.4423 16.3967C36.5487 16.3452 36.6665 16.3217 36.7845 16.3282C36.9025 16.3348 37.017 16.3713 37.117 16.4342C37.217 16.4971 37.2994 16.5845 37.3564 16.6881C37.4134 16.7916 37.4431 16.908 37.4428 17.0262V30.8521C37.4432 30.9834 37.4064 31.1122 37.3368 31.2236C37.2672 31.3349 37.1676 31.4244 37.0493 31.4816L24.1676 37.6695C24.0814 37.7106 23.9877 37.7336 23.8922 37.737ZM24.5891 23.6469V35.9328L36.0489 30.4137V18.1278L24.5891 23.6469Z" fill="#BB976D"/>
    <path d="M17.4633 20.8033C17.3068 20.8017 17.1554 20.7475 17.0335 20.6494C16.9115 20.5513 16.8262 20.415 16.7911 20.2625C16.7561 20.11 16.7734 19.9501 16.8403 19.8086C16.9071 19.6671 17.0197 19.5523 17.1598 19.4825L30.019 13.3002C30.1853 13.221 30.3762 13.2108 30.5499 13.2719C30.7237 13.3329 30.8662 13.4603 30.9464 13.6262C30.9864 13.7084 31.0097 13.7977 31.0149 13.889C31.0201 13.9803 31.0072 14.0717 30.9769 14.1579C30.9466 14.2441 30.8995 14.3235 30.8383 14.3914C30.7771 14.4593 30.703 14.5144 30.6204 14.5535L17.7668 20.7359C17.6715 20.7795 17.5681 20.8025 17.4633 20.8033Z" fill="#BB976D"/>
    <path d="M19.1882 26.8724C19.0832 26.8728 18.9795 26.8498 18.8847 26.8049L15.091 24.9783C15.0083 24.9392 14.9343 24.8841 14.8731 24.8162C14.8119 24.7483 14.7647 24.6689 14.7344 24.5827C14.7041 24.4965 14.6912 24.4051 14.6965 24.3138C14.7017 24.2225 14.725 24.1332 14.765 24.051C14.8451 23.8851 14.9876 23.7577 15.1614 23.6967C15.3352 23.6356 15.5261 23.6458 15.6923 23.725L19.486 25.5404C19.6257 25.6099 19.7381 25.7242 19.8051 25.8652C19.872 26.0061 19.8898 26.1654 19.8555 26.3177C19.8211 26.4699 19.7367 26.6062 19.6157 26.7047C19.4947 26.8032 19.3442 26.8583 19.1882 26.8611V26.8724Z" fill="#BB976D"/>
    <path d="M2.77855 33.2575C2.64253 33.2597 2.50885 33.222 2.394 33.1491C2.27915 33.0761 2.18815 32.9712 2.13221 32.8472C0.0226843 27.6303 -0.140798 21.8288 1.6716 16.5014C3.48399 11.1739 7.15144 6.67573 12.0047 3.82755C16.858 0.979382 22.5735 -0.0288691 28.1084 0.986781C33.6433 2.00243 38.6285 4.97427 42.1543 9.36001C42.2197 9.42982 42.27 9.51234 42.3021 9.60244C42.3342 9.69254 42.3475 9.78828 42.341 9.88371C42.3345 9.97913 42.3084 10.0722 42.2644 10.1571C42.2204 10.242 42.1594 10.317 42.0851 10.3773C42.0109 10.4376 41.925 10.482 41.8329 10.5077C41.7408 10.5334 41.6444 10.5399 41.5496 10.5267C41.4549 10.5135 41.3639 10.481 41.2823 10.4311C41.2006 10.3812 41.1302 10.3151 41.0752 10.2368C37.7585 6.12398 33.0757 3.33823 27.8787 2.38617C22.6816 1.43411 17.3154 2.37899 12.7561 5.04896C8.19683 7.71893 4.74726 11.9366 3.03481 16.935C1.32236 21.9333 1.46077 27.3803 3.42488 32.2852C3.46709 32.3909 3.48279 32.5053 3.4706 32.6184C3.4584 32.7315 3.41869 32.84 3.35494 32.9342C3.29118 33.0285 3.20531 33.1057 3.10484 33.1591C3.00436 33.2125 2.89234 33.2405 2.77855 33.2406V33.2575Z" fill="#BB976D"/>
    <path d="M23.9192 47.5103C20.41 47.5186 16.9438 46.7386 13.7764 45.2279C10.609 43.7172 7.82147 41.5143 5.6195 38.782C5.50324 38.6329 5.45095 38.4438 5.47414 38.2562C5.49732 38.0685 5.59409 37.8978 5.74315 37.7816C5.89221 37.6653 6.08135 37.613 6.26896 37.6362C6.45658 37.6594 6.6273 37.7561 6.74356 37.9052C10.0806 42.0132 14.7833 44.7844 19.9937 45.7134C25.204 46.6424 30.5747 45.6672 35.1258 42.9657C39.677 40.2642 43.1052 36.0165 44.7849 30.9976C46.4646 25.9787 46.284 20.5231 44.2759 15.6264C44.2381 15.5414 44.2178 15.4497 44.216 15.3568C44.2142 15.2638 44.231 15.1714 44.2655 15.0851C44.3 14.9987 44.3514 14.9201 44.4167 14.8539C44.482 14.7878 44.5598 14.7353 44.6457 14.6997C44.7316 14.6641 44.8237 14.646 44.9167 14.6465C45.0097 14.647 45.1016 14.6662 45.1871 14.7028C45.2726 14.7394 45.3499 14.7927 45.4144 14.8596C45.4789 14.9265 45.5294 15.0057 45.5629 15.0924C47.4777 19.779 47.8351 24.957 46.5822 29.8621C45.3294 34.7673 42.5327 39.1397 38.605 42.334C34.4468 45.69 29.2627 47.5172 23.9192 47.5103Z" fill="#BB976D"/>
    <path d="M41.6697 10.5456H41.591L35.0995 9.84304C34.9252 9.81236 34.7691 9.71649 34.6629 9.57489C34.5566 9.4333 34.5083 9.2566 34.5276 9.08065C34.5469 8.9047 34.6324 8.74269 34.7668 8.62751C34.9013 8.51233 35.0744 8.4526 35.2513 8.46045L41.0289 9.0843L41.6753 3.28416C41.6795 3.18893 41.7032 3.09557 41.745 3.00987C41.7867 2.92417 41.8456 2.84794 41.918 2.78591C41.9904 2.72387 42.0747 2.67735 42.1658 2.64921C42.2569 2.62107 42.3528 2.61192 42.4475 2.62232C42.5423 2.63272 42.6339 2.66246 42.7167 2.70968C42.7995 2.7569 42.8718 2.82061 42.929 2.89687C42.9862 2.97313 43.0271 3.06031 43.0493 3.15303C43.0715 3.24574 43.0744 3.34202 43.0579 3.43591L42.3609 9.92735C42.34 10.111 42.247 10.2788 42.1024 10.3938C41.9801 10.493 41.8271 10.5466 41.6697 10.5456Z" fill="#BB976D"/>
    <path d="M5.42716 45.4762H5.34847C5.16532 45.4564 4.99747 45.3649 4.88162 45.2216C4.76577 45.0784 4.71134 44.8951 4.73024 44.7119L5.43278 38.2204C5.44152 38.1297 5.46841 38.0417 5.51186 37.9615C5.55531 37.8814 5.61442 37.8108 5.68569 37.754C5.82959 37.6381 6.01333 37.5836 6.19714 37.6022L12.6886 38.2991C12.8621 38.3301 13.0174 38.4256 13.1233 38.5665C13.2292 38.7074 13.2777 38.8832 13.2592 39.0585C13.2407 39.2337 13.1564 39.3955 13.0235 39.5111C12.8905 39.6268 12.7186 39.6877 12.5424 39.6817L6.74793 39.0579L6.11283 44.858C6.09483 45.0275 6.01487 45.1843 5.88833 45.2984C5.76178 45.4125 5.59755 45.4758 5.42716 45.4762Z" fill="#BB976D"/>
</svg>