<svg viewBox="0 0 55 34" fill="none" xmlns="http://www.w3.org/2000/svg">
    <path d="M16.2514 27.7893H10.6261C10.3834 27.7893 10.1506 27.6929 9.97899 27.5213C9.80736 27.3497 9.71094 27.1169 9.71094 26.8742C9.71094 26.6314 9.80736 26.3987 9.97899 26.227C10.1506 26.0554 10.3834 25.959 10.6261 25.959H16.2514C16.4942 25.959 16.7269 26.0554 16.8986 26.227C17.0702 26.3987 17.1666 26.6314 17.1666 26.8742C17.1666 27.1169 17.0702 27.3497 16.8986 27.5213C16.7269 27.6929 16.4942 27.7893 16.2514 27.7893Z" fill="#BB976D"/>
    <path d="M39.078 27.7893H26.7902C26.5475 27.7893 26.3147 27.6929 26.143 27.5213C25.9714 27.3497 25.875 27.1169 25.875 26.8742C25.875 26.6314 25.9714 26.3987 26.143 26.227C26.3147 26.0554 26.5475 25.959 26.7902 25.959H39.078C39.3207 25.959 39.5535 26.0554 39.7251 26.227C39.8968 26.3987 39.9932 26.6314 39.9932 26.8742C39.9932 27.1169 39.8968 27.3497 39.7251 27.5213C39.5535 27.6929 39.3207 27.7893 39.078 27.7893Z" fill="#BB976D"/>
    <path d="M54.0043 27.7884H49.5993C49.3565 27.7884 49.1238 27.692 48.9521 27.5204C48.7805 27.3487 48.6841 27.116 48.6841 26.8732C48.6841 26.6305 48.7805 26.3977 48.9521 26.2261C49.1238 26.0545 49.3565 25.9581 49.5993 25.9581H53.1075V18.8685C53.1084 18.4101 52.9978 17.9585 52.7852 17.5524C52.5726 17.1464 52.2644 16.7981 51.8872 16.5378L49.0807 14.6403C48.9825 14.5706 48.8978 14.4838 48.8305 14.3841L42.168 4.09133C41.8909 3.6571 41.5083 3.30013 41.0559 3.05368C40.6036 2.80724 40.0962 2.67935 39.5811 2.68195H14.0597C13.817 2.68195 13.5842 2.58553 13.4126 2.4139C13.241 2.24227 13.1445 2.00949 13.1445 1.76677C13.1445 1.52405 13.241 1.29127 13.4126 1.11964C13.5842 0.94801 13.817 0.85159 14.0597 0.85159H39.5811C40.4019 0.848855 41.2101 1.05316 41.931 1.44561C42.652 1.83806 43.2623 2.40598 43.7055 3.09683L50.2643 13.2309L52.8878 15.0247C53.5171 15.4496 54.0328 16.022 54.3902 16.692C54.7475 17.362 54.9355 18.1092 54.9378 18.8685V26.8732C54.9378 26.995 54.9136 27.1155 54.8664 27.2278C54.8193 27.34 54.7503 27.4417 54.6633 27.5269C54.5764 27.6122 54.4733 27.6792 54.3602 27.7241C54.247 27.769 54.126 27.7909 54.0043 27.7884Z" fill="#BB976D"/>
    <path d="M21.5148 33.2609C20.2912 33.2609 19.095 32.8981 18.0776 32.2183C17.0603 31.5385 16.2673 30.5723 15.7991 29.4418C15.3308 28.3114 15.2083 27.0675 15.447 25.8674C15.6857 24.6673 16.2749 23.5649 17.1401 22.6997C18.0054 21.8345 19.1077 21.2453 20.3078 21.0066C21.5079 20.7679 22.7518 20.8904 23.8823 21.3586C25.0127 21.8269 25.9789 22.6198 26.6587 23.6372C27.3385 24.6546 27.7014 25.8507 27.7014 27.0743C27.7014 28.7151 27.0496 30.2887 25.8894 31.4489C24.7291 32.6091 23.1555 33.2609 21.5148 33.2609ZM21.5148 22.7181C20.6532 22.7181 19.8109 22.9736 19.0945 23.4522C18.3782 23.9309 17.8198 24.6113 17.4901 25.4073C17.1604 26.2033 17.0741 27.0792 17.2422 27.9242C17.4103 28.7692 17.8252 29.5454 18.4344 30.1547C19.0436 30.7639 19.8199 31.1788 20.6649 31.3469C21.5099 31.515 22.3858 31.4287 23.1818 31.099C23.9778 30.7693 24.6582 30.2109 25.1369 29.4945C25.6155 28.7782 25.871 27.9359 25.871 27.0743C25.8694 25.9195 25.4099 24.8124 24.5933 23.9958C23.7767 23.1792 22.6696 22.7197 21.5148 22.7181Z" fill="#BB976D"/>
    <path d="M44.3273 33.2609C43.1037 33.2609 41.9075 32.8981 40.8901 32.2183C39.8728 31.5385 39.0798 30.5723 38.6116 29.4418C38.1433 28.3114 38.0208 27.0675 38.2595 25.8674C38.4982 24.6673 39.0874 23.5649 39.9526 22.6997C40.8179 21.8345 41.9202 21.2453 43.1203 21.0066C44.3204 20.7679 45.5643 20.8904 46.6948 21.3586C47.8252 21.8269 48.7914 22.6198 49.4712 23.6372C50.151 24.6546 50.5139 25.8507 50.5139 27.0743C50.5123 28.7146 49.8599 30.2873 48.7001 31.4471C47.5402 32.607 45.9676 33.2593 44.3273 33.2609ZM44.3273 22.7181C43.4657 22.7181 42.6234 22.9736 41.907 23.4522C41.1907 23.9309 40.6323 24.6113 40.3026 25.4073C39.9729 26.2033 39.8866 27.0792 40.0547 27.9242C40.2228 28.7692 40.6377 29.5454 41.2469 30.1547C41.8561 30.7639 42.6324 31.1788 43.4774 31.3469C44.3224 31.515 45.1983 31.4287 45.9943 31.099C46.7903 30.7693 47.4707 30.2109 47.9494 29.4945C48.428 28.7782 48.6835 27.9359 48.6835 27.0743C48.6803 25.92 48.2203 24.8138 47.404 23.9975C46.5878 23.1813 45.4816 22.7213 44.3273 22.7181Z" fill="#BB976D"/>
    <path d="M49.6032 14.7989H34.7589C34.5162 14.7989 34.2834 14.7025 34.1118 14.5309C33.9402 14.3593 33.8438 14.1265 33.8438 13.8838V1.76676C33.8438 1.52404 33.9402 1.29126 34.1118 1.11963C34.2834 0.947996 34.5162 0.851576 34.7589 0.851576H39.4325C40.3003 0.84957 41.1547 1.06589 41.917 1.48064C42.6793 1.89539 43.3251 2.49522 43.7948 3.22495L50.3719 13.3896C50.4627 13.5273 50.5143 13.6871 50.5212 13.852C50.5281 14.0168 50.49 14.1804 50.411 14.3252C50.332 14.4701 50.2151 14.5907 50.0728 14.6741C49.9305 14.7576 49.7681 14.8007 49.6032 14.7989ZM35.6741 12.9686H47.9192L42.2573 4.21944C41.9533 3.74675 41.5352 3.35816 41.0415 3.08947C40.5478 2.82078 39.9945 2.68064 39.4325 2.68194H35.6741V12.9686Z" fill="#BB976D"/>
    <path d="M17.3842 9.36259H7.81753C7.5748 9.36259 7.34202 9.26617 7.17039 9.09454C6.99876 8.92291 6.90234 8.69013 6.90234 8.44741C6.90234 8.20469 6.99876 7.97191 7.17039 7.80028C7.34202 7.62865 7.5748 7.53223 7.81753 7.53223H17.3842C17.6269 7.53223 17.8597 7.62865 18.0314 7.80028C18.203 7.97191 18.2994 8.20469 18.2994 8.44741C18.2994 8.69013 18.203 8.92291 18.0314 9.09454C17.8597 9.26617 17.6269 9.36259 17.3842 9.36259Z" fill="#BB976D"/>
    <path d="M13.0786 16.0013H1.71206C1.46934 16.0013 1.23656 15.9048 1.06493 15.7332C0.893296 15.5616 0.796875 15.3288 0.796875 15.0861C0.796875 14.8434 0.893296 14.6106 1.06493 14.4389C1.23656 14.2673 1.46934 14.1709 1.71206 14.1709H13.0786C13.3213 14.1709 13.5541 14.2673 13.7257 14.4389C13.8974 14.6106 13.9938 14.8434 13.9938 15.0861C13.9938 15.3288 13.8974 15.5616 13.7257 15.7332C13.5541 15.9048 13.3213 16.0013 13.0786 16.0013Z" fill="#BB976D"/>
    <path d="M12.0315 21.553H5.20424C4.96152 21.553 4.72874 21.4566 4.55711 21.285C4.38548 21.1133 4.28906 20.8806 4.28906 20.6378C4.28906 20.3951 4.38548 20.1623 4.55711 19.9907C4.72874 19.8191 4.96152 19.7227 5.20424 19.7227H12.0315C12.2742 19.7227 12.507 19.8191 12.6786 19.9907C12.8503 20.1623 12.9467 20.3951 12.9467 20.6378C12.9467 20.8806 12.8503 21.1133 12.6786 21.285C12.507 21.4566 12.2742 21.553 12.0315 21.553Z" fill="#BB976D"/>
</svg>