<svg className="w-12 h-12" viewBox="0 0 55 44" fill="none" xmlns="http://www.w3.org/2000/svg">
    <path d="M53.624 4.91831L42.864 0.614331C42.6071 0.511369 42.3204 0.511369 42.0635 0.614331L31.3036 4.91831C31.1041 4.99824 30.9331 5.13607 30.8127 5.31403C30.6923 5.492 30.6279 5.70195 30.6278 5.91683V17.0383C30.6334 19.0818 31.1652 21.0894 32.1719 22.8677C33.1787 24.646 34.6265 26.1351 36.3758 27.1914L41.9107 30.5119C42.0778 30.612 42.269 30.6649 42.4638 30.6649C42.6586 30.6649 42.8497 30.612 43.0168 30.5119L47.8437 27.6153V39.6665C47.8432 40.1343 47.6571 40.5828 47.3263 40.9136C46.9954 41.2444 46.5469 41.4305 46.0791 41.4311H4.41662C3.94878 41.4305 3.50027 41.2444 3.16946 40.9136C2.83866 40.5828 2.65256 40.1343 2.65199 39.6665V15.6008H27.3998C27.6852 15.6008 27.9589 15.4874 28.1607 15.2856C28.3625 15.0838 28.4758 14.8102 28.4758 14.5248C28.4758 14.2394 28.3625 13.9657 28.1607 13.7639C27.9589 13.5622 27.6852 13.4488 27.3998 13.4488H2.65199V10.9094C2.65256 10.4416 2.83866 9.9931 3.16946 9.66229C3.50027 9.33148 3.94878 9.14538 4.41662 9.14481H27.3998C27.6852 9.14481 27.9589 9.03145 28.1607 8.82966C28.3625 8.62787 28.4758 8.35419 28.4758 8.06882C28.4758 7.78345 28.3625 7.50976 28.1607 7.30797C27.9589 7.10619 27.6852 6.99282 27.3998 6.99282H4.41662C3.37804 6.99339 2.38217 7.40622 1.64778 8.1406C0.913396 8.87499 0.50057 9.87086 0.5 10.9094V39.66C0.50057 40.6986 0.913396 41.6945 1.64778 42.4288C2.38217 43.1632 3.37804 43.576 4.41662 43.5766H46.0791C47.1177 43.576 48.1136 43.1632 48.8479 42.4288C49.5823 41.6945 49.9951 40.6986 49.9957 39.66V26.1455C51.3361 25.0342 52.4162 23.6422 53.1599 22.0679C53.9036 20.4935 54.2927 18.7751 54.2997 17.034V5.91683C54.2996 5.70195 54.2353 5.492 54.1148 5.31403C53.9944 5.13607 53.8234 4.99824 53.624 4.91831ZM52.1477 17.0383C52.1433 18.7104 51.7081 20.3531 50.8841 21.8081C50.0602 23.2631 48.8752 24.4812 47.4435 25.345L42.4638 28.3341L37.4841 25.345C36.0524 24.4812 34.8674 23.2631 34.0434 21.8081C33.2194 20.3531 32.7842 18.7104 32.7798 17.0383V6.6442L42.4638 2.77062L52.1477 6.6442V17.0383Z" fill="#BB976D"/>
    <path d="M38.9204 13.9474C38.8205 13.8473 38.7019 13.7679 38.5713 13.7137C38.4407 13.6595 38.3008 13.6316 38.1594 13.6315C38.018 13.6314 37.878 13.6591 37.7473 13.7132C37.6167 13.7672 37.4979 13.8464 37.3979 13.9463C37.2979 14.0462 37.2185 14.1648 37.1643 14.2954C37.1101 14.426 37.0821 14.5659 37.082 14.7073C37.0819 14.8487 37.1097 14.9887 37.1637 15.1194C37.2177 15.25 37.2969 15.3688 37.3968 15.4688L40.2676 18.3374C40.4694 18.5391 40.743 18.6525 41.0283 18.6525C41.3136 18.6525 41.5873 18.5391 41.789 18.3374L47.5284 12.5981C47.7301 12.396 47.8434 12.1221 47.8432 11.8366C47.843 11.551 47.7293 11.2773 47.5273 11.0755C47.3253 10.8738 47.0513 10.7605 46.7658 10.7607C46.4803 10.7609 46.2065 10.8746 46.0048 11.0766L41.0272 16.0563L38.9204 13.9474Z" fill="#BB976D"/>
    <path d="M8.03303 34.9688C7.74765 34.9688 7.47397 35.0821 7.27218 35.2839C7.07039 35.4857 6.95703 35.7594 6.95703 36.0447C6.95703 36.3301 7.07039 36.6038 7.27218 36.8056C7.47397 37.0074 7.74765 37.1207 8.03303 37.1207H16.641C16.9263 37.1207 17.2 37.0074 17.4018 36.8056C17.6036 36.6038 17.717 36.3301 17.717 36.0447C17.717 35.7594 17.6036 35.4857 17.4018 35.2839C17.2 35.0821 16.9263 34.9688 16.641 34.9688H8.03303Z" fill="#BB976D"/>
</svg> 