<svg width="49" height="49" viewBox="0 0 49 49" fill="none" xmlns="http://www.w3.org/2000/svg">
    <g clip-path="url(#clip0_2128_1888)">
    <path d="M14.381 23.3001H34.6216C35.0331 23.3001 35.3659 22.9671 35.3659 22.5558C35.3659 22.1445 35.033 21.8115 34.6216 21.8115H14.381C13.9696 21.8115 13.6367 22.1445 13.6367 22.5558C13.6367 22.9671 13.9696 23.3001 14.381 23.3001V23.3001Z" fill="#BB976D"/>
    <path d="M14.381 16.2171H34.6216C35.0331 16.2171 35.3659 15.8841 35.3659 15.4728C35.3659 15.0615 35.033 14.7285 34.6216 14.7285H14.381C13.9696 14.7285 13.6367 15.0615 13.6367 15.4728C13.6367 15.8841 13.9696 16.2171 14.381 16.2171V16.2171Z" fill="#BB976D"/>
    <path d="M14.381 9.1331H34.6216C35.0331 9.1331 35.3659 8.80015 35.3659 8.38881C35.3659 7.97739 35.033 7.64453 34.6216 7.64453H14.381C13.9696 7.64453 13.6367 7.97748 13.6367 8.38881C13.6367 8.80024 13.9696 9.1331 14.381 9.1331V9.1331Z" fill="#BB976D"/>
    <path d="M16.4371 33.3504C16.4446 33.3579 16.4595 33.3653 16.4743 33.3802V33.3727L16.4371 33.3504ZM39.8758 25.9147H39.8832C39.8832 25.9072 39.8907 25.8997 39.9056 25.8997C39.8982 25.8997 39.8907 25.9072 39.8758 25.9147V25.9147ZM47.5721 31.4227C47.9832 31.4227 48.3164 31.0894 48.3164 30.6784V22.8184C48.3164 21.4935 47.6763 20.1835 46.6119 19.387L41.5132 15.5314V4.46329C41.5132 2.3915 39.8336 0.711914 37.7619 0.711914H11.2417C9.16989 0.711914 7.4903 2.3915 7.4903 4.46329V15.5314L2.39162 19.3869C1.40914 20.1239 0.679688 21.4115 0.679688 22.8183V43.9794C0.679688 46.3016 2.58514 48.289 4.99676 48.289H44.0067C46.4778 48.289 48.3163 46.2346 48.3163 43.9794V36.4245C48.3163 36.0135 47.9831 35.6802 47.572 35.6802C47.161 35.6802 46.8277 36.0135 46.8277 36.4245V43.9794C46.8277 44.4259 46.716 44.8577 46.5077 45.2522L31.6733 34.0203C33.8235 32.3876 43.4824 25.0377 46.6152 22.7065C46.7138 22.7584 46.7292 22.7664 46.8277 22.8183V30.6783C46.8277 31.0894 47.161 31.4227 47.5721 31.4227V31.4227ZM3.28492 20.5779C3.29238 20.5704 3.29238 20.5704 3.29238 20.5704L7.4904 17.3996V24.7014L2.76391 21.1212C2.8755 20.9724 3.00948 20.7789 3.28492 20.5779V20.5779ZM2.16845 43.9794C2.17591 38.1514 2.15352 23.1086 2.19821 22.5652C11.0631 29.279 14.9187 32.1968 16.4371 33.3505C16.4446 33.358 16.4595 33.3654 16.4743 33.3803V33.3728C16.4967 33.3876 16.5116 33.4026 16.5339 33.4249C16.5488 33.4322 16.5563 33.4397 16.5711 33.4472C16.586 33.4621 16.6083 33.4769 16.6232 33.4919C16.6381 33.4993 16.6456 33.5068 16.6604 33.5143C16.6604 33.5216 16.6679 33.5216 16.6753 33.5291L16.6977 33.544C16.7125 33.5515 16.7275 33.5664 16.7424 33.5813H16.7499C16.7722 33.5962 16.7946 33.6185 16.8169 33.6333L16.8318 33.6482C16.8541 33.6631 16.869 33.678 16.8913 33.6855C16.8913 33.6929 16.8987 33.7004 16.9062 33.7004C16.9062 33.7078 16.9136 33.7078 16.9211 33.7152C16.9583 33.7376 16.9955 33.7673 17.0401 33.8045L17.0625 33.8195C17.07 33.8269 17.07 33.8269 17.0775 33.8344L17.0923 33.8419C17.0998 33.8492 17.0998 33.8492 17.0998 33.8492C17.0998 33.8492 17.0998 33.8492 17.1072 33.8567C17.1147 33.8567 17.1222 33.8642 17.1222 33.8642C17.1424 33.8797 17.1428 33.8802 17.1554 33.89C17.1617 33.8963 17.1679 33.9025 17.1742 33.9088C17.2636 33.9758 17.2784 33.9833 17.2189 33.9386C17.2264 33.946 17.2413 33.9534 17.2487 33.9609C17.3007 34.0056 17.271 33.9758 17.271 33.9758C17.271 33.9758 17.2784 33.9833 17.2859 33.9907L17.3008 33.9981C17.3083 34.0056 17.3231 34.0131 17.3306 34.0205L2.49594 45.2596C2.2875 44.8651 2.16845 44.4259 2.16845 43.9794V43.9794ZM44.5873 45.6689L44.6022 45.6839H44.6097V45.6913H44.6172C44.699 45.7509 44.9149 45.9146 45.4954 46.3538C45.1754 46.5548 44.7213 46.8003 44.0068 46.8003H4.99685C4.56514 46.8003 4.05896 46.7036 3.50819 46.3538C5.55509 44.7981 22.7266 31.8022 22.7266 31.8022C23.7761 31.0207 25.2275 31.0207 26.2696 31.8022C41.9153 43.6444 44.2971 45.4457 44.5873 45.6689V45.6689ZM40.0247 4.46329V4.81318V25.803C40.0247 25.803 40.0172 25.8104 39.9874 25.8327C39.9502 25.8625 39.9205 25.8774 39.9056 25.8997C39.8982 25.8997 39.8907 25.9072 39.8759 25.9147L39.8685 25.9221C39.3623 26.3092 37.3378 27.8499 30.4379 33.0899C30.3634 33.0304 27.3713 30.7527 27.1778 30.6113C25.5998 29.4278 23.4041 29.4278 21.8335 30.6113C21.7591 30.6708 18.7521 32.9485 18.566 33.0899L8.97897 25.8254C8.97897 25.5649 8.97897 25.4829 8.97897 25.4829V4.46329C8.97897 3.22029 9.99122 2.20058 11.2417 2.20058H37.7619C39.0123 2.20058 40.0171 3.21283 40.0246 4.45582V4.46329H40.0247ZM41.5133 24.6865V17.3996L45.7188 20.5779C46.0091 20.7937 46.1803 21.0394 46.2398 21.1212L41.5133 24.6865Z" fill="#BB976D"/>
    </g>
    <defs>
    <clipPath id="clip0_2128_1888">
    <rect width="49" height="49" fill="white"/>
    </clipPath>
    </defs>
</svg> 