<svg viewBox="0 0 201 39" fill="#ffffff" xmlns="http://www.w3.org/2000/svg">
    <path d="M38.625 3.96289H57.8844V9.70269H44.6959V16.5358H56.0701V22.2756H44.6959V34.1651H38.625V3.96289Z"/>
    <path d="M67.6545 35.0527C65.9798 35.0527 64.654 34.5744 63.5375 33.5494C62.421 32.5245 61.8627 31.2262 61.793 29.6546V16.2617H67.6545V27.5363C67.7243 28.3563 67.9336 28.9713 68.2825 29.4496C68.6314 29.9279 69.2595 30.1329 70.0968 30.1329C70.9342 30.1329 71.7018 29.8596 72.3298 29.2446C72.9578 28.6979 73.4463 27.878 73.7952 26.9213C74.1441 25.8964 74.3534 24.8031 74.3534 23.5048V16.2617H80.215V34.1644H74.9117L74.4232 30.8845L74.493 31.2262C74.0743 31.9778 73.5161 32.5928 72.8881 33.2078C72.26 33.7544 71.4924 34.2327 70.5853 34.5061C69.6782 34.8477 68.7012 35.0527 67.6545 35.0527Z"/>
    <path d="M91.4489 16.2613L92.0071 21.1811L91.8676 20.4295C92.4258 19.3362 93.1236 18.4479 94.0308 17.6963C94.9379 16.9446 95.8451 16.3297 96.7522 15.9197C97.6594 15.5097 98.3572 15.3047 98.8456 15.3047L98.5665 21.0445C97.1709 20.9078 96.0544 21.1128 95.0775 21.7278C94.1006 22.3428 93.333 23.0944 92.8445 24.1194C92.2863 25.076 92.0769 26.101 92.0769 27.1259V34.164H86.2852V16.2613H91.4489Z"/>
    <path d="M108.686 16.2633L109.175 19.4749L109.105 19.2015C109.733 18.1082 110.64 17.1516 111.826 16.4683C113.013 15.785 114.408 15.375 116.153 15.375C117.897 15.375 119.293 15.8533 120.479 16.8783C121.665 17.8349 122.224 19.1332 122.293 20.7048V34.166H116.432V22.8914C116.432 22.0714 116.153 21.4564 115.734 20.9781C115.315 20.4998 114.687 20.2265 113.71 20.2265C112.803 20.2265 112.036 20.4998 111.338 21.1148C110.64 21.6614 110.152 22.4814 109.803 23.438C109.454 24.3947 109.244 25.5563 109.244 26.8546V34.166H103.383V16.2633H108.686Z"/>
    <path d="M133.666 16.2617H127.805V34.1644H133.666V16.2617Z"/>
    <path d="M148.39 21.9332L151.879 16.2617H157.671L150.414 26.1014L148.39 21.9332ZM158.718 34.1644H151.67L137.574 16.2617H144.692L158.718 34.1644ZM147.623 28.4246L143.506 34.1644H137.714L144.971 24.5981L147.623 28.4246Z"/>
    <path d="M169.813 34.6423C168.138 34.6423 166.533 34.3007 165.138 33.6857C163.742 33.0024 162.696 31.9774 161.858 30.5425C161.021 29.1759 160.672 27.3993 160.672 25.2127C160.672 23.1627 161.091 21.4545 161.928 19.9512C162.765 18.4479 163.882 17.3546 165.208 16.5346C166.603 15.7147 167.999 15.3047 169.534 15.3047C171.348 15.3047 172.744 15.578 173.651 16.193C174.628 16.7396 175.396 17.4229 176.024 18.1063L175.744 18.7896L176.303 16.193H181.746V34.164H175.884V30.2692L176.372 31.4991C176.303 31.4991 176.163 31.6358 175.884 31.9774C175.605 32.2507 175.186 32.6607 174.628 33.0707C174.07 33.4807 173.442 33.8224 172.604 34.164C171.837 34.5057 170.93 34.6423 169.813 34.6423ZM171.488 29.9958C172.186 29.9958 172.814 29.9275 173.372 29.7225C173.93 29.5175 174.419 29.1759 174.837 28.8342C175.256 28.4242 175.605 27.9459 175.954 27.3309V22.9577C175.744 22.3428 175.396 21.8645 174.977 21.4545C174.558 21.0445 174 20.7028 173.372 20.4978C172.744 20.2245 172.046 20.1562 171.348 20.1562C170.511 20.1562 169.743 20.3612 168.976 20.8395C168.278 21.2495 167.72 21.7961 167.301 22.5478C166.882 23.2994 166.673 24.1194 166.673 25.076C166.673 26.0326 166.882 26.9209 167.371 27.6726C167.789 28.4242 168.418 29.0392 169.115 29.4492C169.813 29.7908 170.65 29.9958 171.488 29.9958Z"/>
    <path d="M193.117 16.2613L193.675 21.1811L193.536 20.4295C194.094 19.3362 194.792 18.4479 195.699 17.6963C196.606 16.9446 197.513 16.3297 198.42 15.9197C199.327 15.5097 200.025 15.3047 200.514 15.3047L200.234 21.0445C198.839 20.9078 197.722 21.1128 196.745 21.7278C195.769 22.3428 195.001 23.0944 194.512 24.1194C193.954 25.076 193.745 26.101 193.745 27.1259V34.164H187.953V16.2613H193.117Z"/>
    <path d="M130.734 12.7768C132.43 12.7768 133.805 11.4307 133.805 9.77023C133.805 8.10975 132.43 6.76367 130.734 6.76367C129.039 6.76367 127.664 8.10975 127.664 9.77023C127.664 11.4307 129.039 12.7768 130.734 12.7768Z" fill="#BB976D"/>
    <path d="M30.7406 3.27988C30.7406 3.07489 30.7406 2.8699 30.6708 2.73324C30.6708 2.52824 30.601 2.39158 30.601 2.18659C30.601 2.11826 30.5312 2.04993 30.5312 1.9816C30.5312 1.91327 30.4615 1.84493 30.4615 1.7766C30.3917 1.63994 30.3917 1.50328 30.3219 1.36662C30.1126 0.888302 29.8334 0.546647 29.6939 0.341654C29.6241 0.204993 29.5543 0.136662 29.4845 0.136662C29.4148 0 29.4148 0 29.4148 0C29.4148 0 29.345 0.136662 29.2752 0.409985C29.2054 0.614978 29.0659 0.956633 28.8565 1.36662C28.7867 1.43495 28.717 1.57161 28.717 1.63994C28.717 1.70827 28.6472 1.70827 28.6472 1.7766C28.6472 1.84493 28.5774 1.84493 28.5076 1.91327C28.4378 1.9816 28.3681 2.11826 28.2983 2.18659C28.2285 2.25492 28.1587 2.39158 28.0191 2.45991C27.6702 2.8699 27.2516 3.21155 26.7631 3.62154C26.2746 4.03152 25.7164 4.37318 25.0884 4.78316C24.9488 4.85149 24.7395 4.98816 24.5999 5.05649C24.4603 5.12482 24.251 5.26148 24.1114 5.32981C23.9719 5.39814 23.7625 5.5348 23.623 5.60313C23.4834 5.67146 23.2741 5.7398 23.1345 5.87646L22.8554 6.01312C22.7856 6.14978 22.6461 6.21811 22.5763 6.28644L22.4367 6.35477H22.3669C22.3669 6.35477 22.4367 6.28644 22.4367 6.35477L22.3669 6.4231C22.2972 6.49143 22.1576 6.49144 22.0878 6.55977C21.6691 6.76476 21.2504 6.96975 20.9015 7.17474C20.0642 7.58473 19.2268 8.06305 18.3197 8.54136C18.0406 8.74635 17.6916 8.88302 17.4125 9.08801C16.8543 9.42966 16.2263 9.83965 15.668 10.2496C14.7609 10.8646 13.9235 11.5479 13.1559 12.3679C13.0164 12.5046 12.9466 12.5729 12.807 12.7095L12.6675 12.8462C12.5977 12.9145 12.5279 12.9829 12.5279 12.9829C12.4581 13.0512 12.3883 13.1879 12.3186 13.2562L12.179 13.3929L12.1092 13.4612L12.0394 13.5295C11.6905 13.9395 11.4114 14.4178 11.1323 14.8278C11.0625 14.9645 10.9927 15.0328 10.923 15.1695C10.8532 15.3061 10.7136 15.5111 10.6438 15.6478C10.574 15.7844 10.5043 15.9894 10.4345 16.1261C10.2251 16.6044 10.0856 17.0144 9.94603 17.4244C9.6669 18.3127 9.52734 19.0643 9.52734 19.816C9.52734 20.4993 9.52734 21.1826 9.6669 21.6609C9.6669 21.7976 9.73669 21.9342 9.73669 22.0025C9.73669 22.1392 9.80647 22.2075 9.80647 22.3442C9.87625 22.5492 9.94603 22.6859 9.94603 22.8225C9.94603 22.8909 9.94603 22.8908 10.0158 22.9592C10.0856 23.1642 10.1554 23.2325 10.1554 23.2325C10.1554 23.2325 10.2251 23.1642 10.2949 23.0275C10.2949 22.9592 10.3647 22.9592 10.3647 22.8909C10.5043 22.6859 10.7136 22.4809 10.923 22.2075C10.9927 22.1392 10.9927 22.1392 11.0625 22.0709C11.2021 21.8659 11.3416 21.7292 11.551 21.5242C11.7603 21.3192 11.8999 21.1142 12.1092 20.9093C12.5279 20.4993 13.0164 20.0893 13.5048 19.611C13.9933 19.201 14.6213 18.791 15.1796 18.381C15.3191 18.3127 15.4587 18.176 15.668 18.1077C15.8076 18.0394 16.0169 17.9027 16.1565 17.8344C16.2263 17.766 16.0867 17.9027 16.0867 17.9027H16.1565L16.2263 17.8344L16.3658 17.766C16.4356 17.6977 16.5752 17.6294 16.6449 17.561C16.7147 17.4927 16.7147 17.4927 16.7845 17.4927L16.9241 17.4244C16.9938 17.356 17.0636 17.356 17.1334 17.2877C17.8312 16.9461 18.5988 16.5361 19.4362 16.1261C20.2735 15.7161 21.1109 15.2378 21.9483 14.7595C22.8554 14.2812 23.6928 13.7345 24.5999 13.1195C24.6697 13.0512 24.8092 12.9829 24.879 12.9145C25.2279 12.6412 25.5768 12.4362 25.856 12.1629C25.9955 12.0946 26.0653 12.0262 26.2049 11.8896L26.2746 11.8212C26.2049 11.8212 26.3444 11.7529 26.3444 11.7529L26.484 11.6163C26.5538 11.5479 26.6933 11.4796 26.7631 11.3429C26.8329 11.2746 26.9724 11.1379 27.0422 11.0696C27.2516 10.8646 27.4609 10.6596 27.6702 10.4546L27.74 10.3863C27.8796 10.1813 28.0889 10.0446 28.2285 9.83965C28.368 9.63466 28.5774 9.42966 28.717 9.22467C28.8565 9.01968 28.9961 8.81469 29.2054 8.60969C29.7637 7.72139 30.2521 6.83309 30.5312 5.94479C30.6708 4.91982 30.8104 4.03152 30.7406 3.27988Z"/>
    <path d="M28.4378 15.6475C28.4378 15.4425 28.368 15.3059 28.368 15.1009C28.368 15.0325 28.2983 14.9642 28.2983 14.8959C28.2983 14.8276 28.2285 14.7592 28.2285 14.6909C28.1587 14.5542 28.1587 14.4176 28.0889 14.2809C27.9494 13.9393 27.74 13.6659 27.6005 13.4609L27.4609 13.5976C27.3911 13.6659 27.2515 13.7343 27.1818 13.8026C27.0422 13.9393 26.8329 14.0759 26.6235 14.2126C26.6235 14.2809 26.5537 14.2809 26.5537 14.3492C26.484 14.4176 26.4142 14.5542 26.4142 14.6226C26.4142 14.6909 26.3444 14.6909 26.3444 14.7592C26.3444 14.8276 26.2746 14.8276 26.2048 14.8959C26.2048 15.0325 26.0653 15.1009 26.0653 15.2375C25.9955 15.3059 25.9257 15.4425 25.7862 15.5109C25.4373 15.9208 25.0186 16.2625 24.5301 16.6725C24.0417 17.0825 23.4834 17.4241 22.8554 17.8341C22.7158 17.9024 22.5065 18.0391 22.3669 18.1074C22.2274 18.1758 22.018 18.3124 21.8785 18.3808C21.7389 18.4491 21.5296 18.5858 21.39 18.6541C21.2504 18.7224 21.0411 18.7907 20.9015 18.9274L20.6224 19.0641C20.4829 19.1324 20.4131 19.2007 20.2735 19.2007L20.134 19.2691H20.0642C20.0642 19.2691 20.134 19.2007 20.134 19.2691L20.0642 19.3374C19.9944 19.4057 19.8548 19.4057 19.785 19.4741C19.3664 19.679 18.9477 19.884 18.5988 20.089C17.7614 20.499 16.9241 20.9773 16.0169 21.4557C15.1098 21.934 14.2026 22.4806 13.3653 23.1639C13.0861 23.3689 12.807 23.5739 12.5279 23.7789C12.0394 24.1889 11.551 24.5989 11.0625 25.0772C11.0625 25.1455 11.1323 25.2139 11.1323 25.2139C11.1323 25.2139 11.1323 25.2822 11.2021 25.2822C11.2021 25.2822 11.2021 25.3505 11.2718 25.3505L11.3416 25.4188C11.4114 25.4872 11.4114 25.5555 11.4114 25.5555L11.4812 25.6922L11.7603 26.2388C11.8301 26.3755 11.8999 26.5121 11.9696 26.5805V26.6488L12.1092 26.9905C12.3185 27.4004 12.4581 27.8104 12.5977 28.2887C12.7372 28.6987 12.807 29.1087 12.8768 29.5187V29.587C12.9466 29.997 13.0164 30.3387 13.0164 30.7487C13.0164 30.817 13.0164 30.9536 13.0164 31.022C13.0861 30.9536 13.1559 30.9536 13.2257 30.8853C13.3653 30.817 13.5746 30.6803 13.7142 30.612C13.7839 30.5437 13.6444 30.6803 13.6444 30.6803H13.7142L13.7839 30.612L13.9235 30.5437C13.9933 30.4753 14.1328 30.407 14.2026 30.3387C14.2724 30.2703 14.2724 30.2703 14.3422 30.2703L14.4817 30.202C14.5515 30.1337 14.6213 30.1337 14.6911 30.0653C15.3889 29.7237 16.1565 29.3137 16.9938 28.9037C17.8312 28.4937 18.6686 28.0154 19.5059 27.5371C20.4131 27.0588 21.2504 26.5121 22.1576 25.8972C22.5763 25.6238 23.0647 25.2822 23.4834 24.9405C23.623 24.8722 23.6928 24.8039 23.8323 24.6672L23.9021 24.5989C23.8323 24.5989 23.9719 24.5305 23.9719 24.5305L24.1114 24.3939C24.1812 24.3255 24.3208 24.2572 24.3906 24.1206C24.4603 24.0522 24.5999 23.9156 24.6697 23.8472C24.879 23.6422 25.0884 23.4372 25.2977 23.2323C25.507 23.0273 25.6466 22.8223 25.8559 22.6173C25.9955 22.4123 26.2048 22.2073 26.3444 22.0023C26.484 21.7973 26.6235 21.5923 26.8329 21.3873C27.3911 20.499 27.8796 19.6107 28.1587 18.7224C28.4378 17.8341 28.5774 16.9458 28.5076 16.1942C28.4378 16.0575 28.4378 15.8525 28.4378 15.6475Z"/>
    <path d="M10.5737 30.0652C10.5039 29.7236 10.4341 29.3819 10.2945 29.0403C10.155 28.6986 10.0852 28.357 9.87586 27.947L9.7363 27.6737C9.66652 27.6053 9.59674 27.4687 9.59674 27.332C9.59674 27.332 9.59674 27.332 9.59674 27.2637C9.52696 27.127 9.45718 26.9904 9.3874 26.8537V26.7854V26.717C9.3874 26.717 9.24783 26.5804 9.31761 26.6487L9.24783 26.512C9.17805 26.4437 9.17805 26.307 9.10827 26.2387C9.03849 26.0337 8.89893 25.8971 8.82915 25.6921C8.68959 25.3504 8.48025 24.9404 8.34069 24.5988V24.5304C8.06157 23.7105 7.78245 22.8222 7.64289 22.0022C7.50332 21.1139 7.43354 20.2256 7.43354 19.4056C7.43354 18.5857 7.5731 17.7657 7.71267 16.9457C7.85223 16.3991 8.06157 15.8524 8.27091 15.3058C8.48025 14.8958 8.68959 14.4858 8.89893 14.0758C9.17805 13.5975 9.52696 13.1192 9.87586 12.7092C10.3643 12.0942 10.8528 11.5476 11.411 11.0693C11.5506 10.9326 11.6901 10.8643 11.7599 10.7276C11.8995 10.5909 11.9693 10.5226 12.1088 10.3859C12.3182 10.181 12.5973 9.97596 12.8066 9.8393C13.644 9.15599 14.2022 8.74601 14.2022 8.74601C14.2022 8.74601 14.1325 8.74601 13.9231 8.67768C13.8533 8.67768 13.7836 8.67768 13.7138 8.67768C13.4347 8.60935 12.9462 8.60935 12.388 8.54102C12.1088 8.54102 11.7599 8.54102 11.411 8.54102C11.0621 8.54102 10.7132 8.60935 10.2945 8.67768C9.45718 8.81434 8.55003 9.01933 7.5731 9.49765C6.59618 9.90763 5.54947 10.5226 4.64233 11.3426C3.6654 12.1626 2.82804 13.2558 2.13023 14.4858C1.43243 15.7158 0.943968 17.1507 0.734626 18.5857C0.455505 20.0206 0.455505 21.5239 0.664846 22.9588C0.874187 24.3938 1.29287 25.8287 1.85111 27.127C2.13023 27.8103 2.47914 28.4253 2.89782 29.0403C2.82804 29.3819 3.03738 29.6553 3.24672 29.9286C3.38628 30.0652 3.45606 30.2019 3.59562 30.3386L3.73518 30.5436L3.80496 30.6119C3.80496 30.6802 3.73518 30.5436 3.73518 30.5436L3.80496 30.6119L3.94452 30.7486C3.94452 30.7486 3.94452 30.7486 4.0143 30.8169L4.08409 30.8852C4.22365 31.0219 4.29343 31.1585 4.36321 31.2952C4.43299 31.4319 4.57255 31.5685 4.64233 31.7052C4.64233 31.7735 4.71211 31.7735 4.71211 31.8419C4.78189 31.9785 4.85167 32.1152 4.92145 32.1835C5.06101 32.5252 5.27035 32.8668 5.40991 33.2768C5.47969 33.4818 5.54947 33.6185 5.61925 33.8234C5.61925 33.8918 5.68903 34.0284 5.68903 34.0968L5.8286 34.3701V34.4384C5.8286 34.4384 5.8286 34.5068 5.8286 34.3701V34.4384C6.03794 34.9167 6.1775 35.5317 6.1775 36.0784C6.1775 36.3517 6.1775 36.625 6.10772 36.8983C6.03794 37.1717 5.96816 37.3767 5.89838 37.5816C5.8286 37.65 5.8286 37.65 5.8286 37.7183C5.61925 38.06 5.40991 38.3333 5.20057 38.5383C4.99123 38.7433 4.85167 38.8116 4.85167 38.8116C4.85167 38.8116 4.92145 38.8116 4.99123 38.8799C5.06101 38.8799 5.13079 38.9483 5.34013 38.9483C5.61925 39.0166 5.96816 39.0166 6.45662 38.9483C6.59618 38.9483 6.73574 38.8799 6.8753 38.8799C7.2242 38.8116 7.5731 38.6066 7.92201 38.4016C8.27091 38.1966 8.61981 37.855 8.96871 37.5133C9.59674 36.7617 10.2248 35.805 10.5039 34.5068V34.4384C10.5039 34.3701 10.5039 34.4384 10.5039 34.3701V34.3018L10.5737 34.0968C10.5737 33.9601 10.6434 33.8234 10.6434 33.6868C10.7132 33.4135 10.7132 33.1401 10.7132 32.8668C10.783 32.3202 10.783 31.7052 10.7132 31.0902C10.6434 30.7486 10.5737 30.4069 10.5737 30.0652Z" fill="#BB976D"/>
</svg> 