<svg width="43" height="41" viewBox="0 0 43 41" fill="none" xmlns="http://www.w3.org/2000/svg">
    <path d="M37.7095 12.4569V7.362C37.7074 5.48033 36.9589 3.67633 35.6284 2.34579C34.2978 1.01524 32.4939 0.266795 30.6122 0.264648H12.3618C10.4802 0.266795 8.67617 1.01524 7.34562 2.34579C6.01508 3.67633 5.26663 5.48033 5.26448 7.362V12.4569C4.16487 12.5581 3.12006 12.9835 2.2625 13.6792C1.40493 14.3749 0.773219 15.3096 0.447432 16.3647C0.121645 17.4198 0.11645 18.5479 0.432507 19.606C0.748563 20.664 1.37164 21.6045 2.22276 22.308V31.6958C2.22406 32.6811 2.51244 33.6446 3.05264 34.4686C3.59285 35.2926 4.36146 35.9413 5.26448 36.3354V38.7931C5.26448 39.331 5.47813 39.8467 5.85842 40.227C6.23871 40.6073 6.75449 40.821 7.2923 40.821H9.32012C9.85793 40.821 10.3737 40.6073 10.754 40.227C11.1343 39.8467 11.3479 39.331 11.3479 38.7931V36.7653H31.6261V38.7931C31.6261 39.331 31.8397 39.8467 32.22 40.227C32.6003 40.6073 33.1161 40.821 33.6539 40.821H35.6817C36.2195 40.821 36.7353 40.6073 37.1156 40.227C37.4959 39.8467 37.7095 39.331 37.7095 38.7931V36.3354C38.6126 35.9413 39.3812 35.2926 39.9214 34.4686C40.4616 33.6446 40.75 32.6811 40.7513 31.6958V22.308C41.6024 21.6045 42.2254 20.664 42.5415 19.606C42.8576 18.5479 42.8524 17.4198 42.5266 16.3647C42.2008 15.3096 41.5691 14.3749 40.7115 13.6792C39.854 12.9835 38.8091 12.5581 37.7095 12.4569ZM12.3618 2.29246H30.6122C31.9562 2.29407 33.2447 2.8287 34.1951 3.77908C35.1455 4.72945 35.6801 6.01797 35.6817 7.362V12.6475C34.5152 12.9792 33.4884 13.6818 32.7567 14.649C32.0249 15.6161 31.6281 16.7953 31.6261 18.008V24.4048C28.2726 23.8703 24.8828 23.5961 21.487 23.5845C18.0912 23.5961 14.7014 23.8703 11.3479 24.4048V18.008C11.3459 16.7953 10.9491 15.6161 10.2173 14.649C9.48561 13.6818 8.45883 12.9792 7.2923 12.6475V7.362C7.29391 6.01797 7.82854 4.72945 8.77891 3.77908C9.72929 2.8287 11.0178 2.29407 12.3618 2.29246ZM9.32012 38.7931H7.2923V36.7653H9.32012V38.7931ZM35.6817 38.7931H33.6539V36.7653H35.6817V38.7931ZM39.1726 20.9585C39.0344 21.0512 38.9212 21.1764 38.8429 21.3232C38.7645 21.4699 38.7235 21.6337 38.7234 21.8V31.6958C38.7234 32.5025 38.403 33.2762 37.8325 33.8466C37.2621 34.417 36.4884 34.7375 35.6817 34.7375H7.2923C6.48558 34.7375 5.71191 34.417 5.14148 33.8466C4.57104 33.2762 4.25058 32.5025 4.25058 31.6958V21.8C4.25049 21.6337 4.20948 21.4699 4.13114 21.3232C4.05281 21.1764 3.93958 21.0512 3.80142 20.9585C3.29138 20.6181 2.87826 20.1513 2.60233 19.6037C2.3264 19.0561 2.19708 18.4463 2.22698 17.8338C2.25689 17.2213 2.44499 16.6271 2.77295 16.1089C3.10091 15.5908 3.55754 15.1665 4.09831 14.8774C4.63908 14.5883 5.24555 14.4442 5.85857 14.4593C6.47159 14.4743 7.07025 14.648 7.59618 14.9633C8.12211 15.2786 8.55735 15.7248 8.85948 16.2584C9.16161 16.792 9.32032 17.3948 9.32012 18.008V25.6123C9.32016 25.7623 9.35347 25.9104 9.41764 26.0459C9.48181 26.1814 9.57524 26.301 9.69121 26.3961C9.8069 26.4917 9.94254 26.5602 10.0882 26.5965C10.2338 26.6328 10.3857 26.6361 10.5327 26.606C14.1484 25.9574 17.8137 25.625 21.487 25.6123C25.159 25.6252 28.8229 25.9577 32.4372 26.606C32.5845 26.636 32.7367 26.633 32.8827 26.597C33.0287 26.561 33.1649 26.493 33.2813 26.3979C33.3978 26.3027 33.4916 26.1829 33.5561 26.0471C33.6205 25.9112 33.6539 25.7627 33.6539 25.6123V18.008C33.6537 17.3948 33.8124 16.792 34.1145 16.2584C34.4167 15.7248 34.8519 15.2786 35.3778 14.9633C35.9038 14.648 36.5024 14.4743 37.1154 14.4593C37.7285 14.4442 38.3349 14.5883 38.8757 14.8774C39.4165 15.1665 39.8731 15.5908 40.2011 16.1089C40.529 16.6271 40.7171 17.2213 40.747 17.8338C40.7769 18.4463 40.6476 19.0561 40.3717 19.6037C40.0958 20.1513 39.6826 20.6181 39.1726 20.9585Z" fill="#BB976D"/>
</svg> 