<svg width="33" height="47" viewBox="0 0 33 47" fill="none" xmlns="http://www.w3.org/2000/svg">
    <path d="M32.1763 28.8921V26.8136C32.1763 25.1875 31.1095 23.8065 29.6391 23.3323L28.1472 3.77221C27.9891 1.69792 26.422 0.133789 24.5022 0.133789H8.47486C6.5551 0.133789 4.98814 1.69792 4.82985 3.77221L3.33796 23.3322C1.86765 23.8065 0.800781 25.1874 0.800781 26.8135V28.892C0.800781 29.9501 1.66172 30.811 2.7198 30.811H3.28428V34.0279V46.0382C3.28428 46.5431 3.69367 46.9526 4.19871 46.9526H7.39492C7.85414 46.9526 8.24214 46.612 8.30166 46.1566L9.76667 34.9424H23.2122L24.6771 46.1566C24.7365 46.612 25.1246 46.9526 25.5838 46.9526H28.78C29.285 46.9526 29.6945 46.5431 29.6945 46.0382V34.0279C29.6945 34.0279 29.6945 34.0279 29.6945 34.0278C29.6945 34.0277 29.6945 34.0277 29.6945 34.0276L29.6932 30.8111H30.2573C31.3155 30.8111 32.1763 29.9502 32.1763 28.8921ZM2.62964 28.8921V26.8136C2.62964 25.8053 3.44998 24.985 4.45823 24.985H12.4321C12.9371 24.985 13.3465 24.5755 13.3465 24.0705C13.3465 23.5656 12.9371 23.1561 12.4321 23.1561H5.18556L6.65341 3.91139C6.7368 2.81855 7.53684 1.96265 8.47486 1.96265H24.5022C25.4402 1.96265 26.2402 2.81855 26.3236 3.91139L27.7915 23.1561H20.4787C19.9737 23.1561 19.5642 23.5656 19.5642 24.0705C19.5642 24.5755 19.9737 24.985 20.4787 24.985H28.5188C29.527 24.985 30.3474 25.8053 30.3474 26.8136V28.8921C30.3474 28.9418 30.307 28.9822 30.2572 28.9822H2.71989C2.67015 28.9822 2.62964 28.9418 2.62964 28.8921ZM6.59214 45.1237H5.11314V34.9424H7.92218L6.59214 45.1237ZM27.8655 45.1237H26.3864L25.0565 34.9424H27.8655V45.1237ZM27.8652 33.1135H5.11323V30.8111H27.8643L27.8652 33.1135Z" fill="#BB976D"/>
</svg> 