<svg width="33" height="45" viewBox="0 0 33 45" fill="none" xmlns="http://www.w3.org/2000/svg">
    <path d="M20.1341 6.50098H12.8424C12.4397 6.50098 12.1133 6.82744 12.1133 7.23014C12.1133 7.63285 12.4397 7.95931 12.8424 7.95931H20.1341C20.5368 7.95931 20.8633 7.63285 20.8633 7.23014C20.8633 6.82744 20.5368 6.50098 20.1341 6.50098Z" fill="#ffffff"/>
    <path d="M8.50517 39.208L6.02601 40.4476C5.28505 40.8169 4.81785 41.5746 4.8207 42.4025V42.9596C4.8207 43.765 5.47362 44.4179 6.27903 44.4179H26.6957C27.5011 44.4179 28.154 43.765 28.154 42.9596V42.4025C28.1567 41.5733 27.6879 40.8146 26.945 40.4462L24.4695 39.2066C28.8693 35.7824 32.529 28.0525 32.529 21.8138C32.6206 18.5605 31.2573 15.4356 28.8102 13.2898C28.8008 13.2796 28.7906 13.2723 28.7811 13.2629C27.2439 11.9316 25.5783 10.7563 23.8089 9.75412C23.8875 8.99056 24.0995 8.24671 24.4353 7.55641C24.8861 6.6024 25.5093 5.7399 26.2735 5.01236C27.4119 4.85561 28.2338 3.84287 28.1528 2.69653C28.0718 1.5502 27.1157 0.663091 25.9665 0.667989H7.0082C5.85975 0.665061 4.90553 1.5527 4.82554 2.69836C4.74555 3.84403 5.56715 4.85566 6.70486 5.01236C7.46917 5.73983 8.09239 6.60234 8.54309 7.55641C8.87818 8.2468 9.08945 8.99066 9.16725 9.75412C7.39774 10.7561 5.73216 11.9315 4.19508 13.2629C4.1856 13.2723 4.17539 13.2796 4.16591 13.2898C1.71832 15.4354 0.354495 18.5602 0.445706 21.8138C0.445706 28.0525 4.10539 35.7824 8.50517 39.208ZM26.6957 42.4025L26.6957 42.9596H6.27903L6.27903 42.4025C6.27815 42.1261 6.43455 41.8733 6.68226 41.7506L10.0969 40.0429H22.8778L26.2924 41.7506C26.5401 41.8733 26.6965 42.1261 26.6957 42.4025ZM22.842 38.5846H10.1327C7.93205 37.1831 5.84518 34.4451 4.32195 31.2929H17.2165C17.6192 31.2929 17.9457 30.9665 17.9457 30.5638C17.9457 30.1611 17.6192 29.8346 17.2165 29.8346H3.67445C3.03206 28.2902 2.5488 26.6843 2.23216 25.0418C2.58685 25.2978 2.90566 25.6002 3.18008 25.9409C3.88189 26.9712 5.03307 27.6051 6.27903 27.6471C7.52663 27.6055 8.67929 26.9704 9.3809 25.9379C10.0546 25.1679 10.4798 24.7304 11.3759 24.7304C12.272 24.7304 12.7037 25.1679 13.3789 25.9401C14.0808 26.9716 15.2331 27.6058 16.4801 27.6471C17.727 27.6058 18.8793 26.9716 19.5812 25.9401C20.2571 25.1679 20.683 24.7304 21.5842 24.7304C22.4855 24.7304 22.912 25.1679 23.5872 25.9401C24.2615 27.0034 25.433 27.6477 26.692 27.6477C27.9511 27.6477 29.1225 27.0034 29.7968 25.9401C30.0712 25.5999 30.39 25.298 30.7447 25.0425C30.4273 26.6848 29.9433 28.2905 29.3002 29.8346H20.1332C19.7305 29.8346 19.404 30.1611 19.404 30.5638C19.404 30.9665 19.7305 31.2929 20.1332 31.2929H28.6527C27.1332 34.4451 25.0426 37.1831 22.842 38.5846ZM1.90404 21.8138C1.89381 20.7173 2.05143 19.6258 2.37143 18.577C2.66653 18.8171 2.93716 19.0858 3.17935 19.3791C3.88081 20.4101 5.03268 21.0439 6.27903 21.0846C7.52663 21.0431 8.67929 20.4079 9.3809 19.3755C10.0546 18.6055 10.4798 18.168 11.3759 18.168C12.272 18.168 12.7037 18.6055 13.3789 19.3776C14.0808 20.4091 15.2331 21.0433 16.4801 21.0846C17.727 21.0433 18.8793 20.4091 19.5812 19.3776C20.2571 18.6055 20.683 18.168 21.5842 18.168C22.4855 18.168 22.912 18.6055 23.5872 19.3776C24.2616 20.4406 25.4329 21.0846 26.6917 21.0846C27.9504 21.0846 29.1217 20.4406 29.7961 19.3776C30.0378 19.0841 30.3082 18.8154 30.6033 18.5756C30.9234 19.6248 31.081 20.7169 31.0707 21.8138C31.0707 22.3242 31.0342 22.8434 30.9824 23.372C30.0661 23.6416 29.2641 24.2053 28.7001 24.9762C28.1073 25.6543 27.6385 26.1888 26.6884 26.1888C25.7871 26.1888 25.3613 25.7513 24.6854 24.9791C24.0124 23.9164 22.8421 23.2722 21.5842 23.2722C20.3263 23.2722 19.156 23.9164 18.4831 24.9791C17.8079 25.7513 17.382 26.1888 16.4801 26.1888C15.5781 26.1888 15.153 25.7513 14.477 24.9791C13.7751 23.9477 12.6228 23.3134 11.3759 23.2721C10.1314 23.3137 8.98175 23.9478 8.28278 24.9784C7.60684 25.7513 7.18028 26.1888 6.27903 26.1888C5.37778 26.1888 4.95122 25.7513 4.27528 24.9798C3.71125 24.2087 2.90889 23.645 1.99227 23.3757C1.9405 22.8434 1.90404 22.3242 1.90404 21.8138ZM4.95778 14.5221H12.8415C13.2442 14.5221 13.5707 14.1957 13.5707 13.793C13.5707 13.3903 13.2442 13.0638 12.8415 13.0638H6.73184C7.77601 12.3077 8.92736 11.6018 10.1283 10.8763H22.8464C24.0473 11.6018 25.1987 12.3077 26.2429 13.0638H15.7582C15.3555 13.0638 15.029 13.3903 15.029 13.793C15.029 14.1957 15.3555 14.5221 15.7582 14.5221H28.0169C28.8411 15.2902 29.5285 16.1929 30.0498 17.1916C29.5394 17.5273 29.0845 17.9406 28.7016 18.4166C28.022 19.1888 27.5955 19.6263 26.6884 19.6263C25.7813 19.6263 25.3613 19.1888 24.6854 18.4166C24.0124 17.3539 22.8421 16.7097 21.5842 16.7097C20.3263 16.7097 19.156 17.3539 18.4831 18.4166C17.8079 19.1888 17.382 19.6263 16.4801 19.6263C15.5781 19.6263 15.153 19.1888 14.477 18.4166C13.7751 17.3852 12.6228 16.7509 11.3759 16.7096C10.1314 16.7512 8.98175 17.3853 8.28278 18.4159C7.60684 19.1888 7.18028 19.6263 6.27903 19.6263C5.37778 19.6263 4.95195 19.1888 4.27674 18.4188C3.894 17.9417 3.43882 17.5276 2.92779 17.1916C3.44818 16.1931 4.13464 15.2904 4.95778 14.5221ZM23.1228 6.90454C22.7381 7.69582 22.4861 8.54495 22.3768 9.41797H10.5979C10.4886 8.54495 10.2366 7.69582 9.85194 6.90454C9.5252 6.24829 9.13623 5.62491 8.69038 5.04298H24.2843C23.8385 5.62491 23.4495 6.24829 23.1228 6.90454ZM7.0082 2.12632H25.9665C26.3692 2.12632 26.6957 2.45278 26.6957 2.85549C26.6957 3.25819 26.3692 3.58465 25.9665 3.58465H7.0082C6.60549 3.58465 6.27903 3.25819 6.27903 2.85549C6.27903 2.45278 6.60549 2.12632 7.0082 2.12632Z" fill="#BB976D"/>
</svg> 