<svg className="mx-auto sm:mx-0" width="48" height="48" viewBox="0 0 48 48" fill="none" xmlns="http://www.w3.org/2000/svg">
    <path d="M44.7208 27.4548H42.3738V19.6318C42.3713 17.4724 40.6215 15.7227 38.4621 15.7202H25.9453C23.7859 15.7227 22.0361 17.4724 22.0336 19.6318V27.4548H19.6866C18.3913 27.4563 17.3413 28.5062 17.3398 29.8019V37.6249C17.3459 39.6837 18.9488 41.384 21.0037 41.5115L19.8789 45.4479H12.5669C12.1927 43.6283 10.5923 42.3212 8.73437 42.3187H7.16977V6.30106C7.17085 3.85407 9.0624 1.82393 11.5033 1.6506C13.9442 1.47727 16.104 3.2195 16.451 5.64177L16.4646 5.73667C15.4551 6.15244 14.8689 7.21246 15.0536 8.28823L15.2671 9.5513L13.1753 13.1435C12.8942 13.6266 12.8921 14.2229 13.1692 14.7081C13.4468 15.1934 13.9621 15.4938 14.5211 15.4963C14.6107 15.4963 14.7002 15.4888 14.7883 15.4738L22.2936 14.2053C22.892 14.104 23.378 13.6657 23.5406 13.0809C23.7028 12.4961 23.5123 11.8701 23.0514 11.4751L19.8953 8.76954L19.6819 7.50647C19.5304 6.62587 18.8908 5.90821 18.0335 5.65646L17.9998 5.42046C17.5375 2.18455 14.6526 -0.143548 11.3923 0.0881514C8.13203 0.319851 5.60518 3.03256 5.60518 6.30106V42.3187H4.04058V41.5366C4.04058 41.1043 3.69034 40.7541 3.2581 40.7541C2.82622 40.7541 2.47598 41.1043 2.47598 41.5366V42.6503C1.05248 43.2723 0.131771 44.6769 0.128906 46.2304C0.128906 46.6622 0.479141 47.0125 0.911384 47.0125H46.2854C46.7173 47.0125 47.0676 46.6622 47.0676 46.2304C47.0676 45.7981 46.7173 45.4479 46.2854 45.4479H44.5285L43.4037 41.5115C45.4585 41.384 47.0615 39.6837 47.0676 37.6249V29.8019C47.0661 28.5062 46.0161 27.4563 44.7208 27.4548ZM22.0329 12.6626L14.5276 13.9314L16.5774 10.4111L18.9406 10.0118L22.0386 12.6612L22.0329 12.6626ZM18.2699 8.5382L16.7271 8.7989L16.5964 8.02753C16.5251 7.60173 16.8116 7.19849 17.2374 7.1258C17.2807 7.11863 17.3244 7.11505 17.3685 7.11505C17.7499 7.11577 18.0754 7.3908 18.1399 7.76682L18.2699 8.5382ZM25.9453 17.2848H38.4621C39.7577 17.2862 40.8077 18.3362 40.8092 19.6318V27.5991C39.8741 27.9282 39.2474 28.8103 39.2446 29.8019V31.3865C38.5713 30.8691 37.7466 30.5869 36.8975 30.584H34.0924L35.8862 28.7902C36.1823 28.4833 36.1784 27.9952 35.8765 27.6937C35.5746 27.3918 35.0869 27.3875 34.78 27.684L32.9862 29.4778V25.8902C32.9862 25.458 32.6356 25.1077 32.2037 25.1077C31.7718 25.1077 31.4212 25.458 31.4212 25.8902V29.4778L29.6274 27.684C29.3205 27.3875 28.8328 27.3918 28.5309 27.6937C28.229 27.9952 28.2251 28.4833 28.5212 28.7902L30.315 30.584H27.5099C26.6608 30.5869 25.8361 30.8691 25.1628 31.3865V29.8019C25.16 28.8103 24.5333 27.9282 23.5982 27.5991V19.6318C23.5997 18.3362 24.6496 17.2862 25.9453 17.2848ZM36.8975 32.1486C38.1931 32.15 39.2431 33.2 39.2446 34.4957V35.2778H25.1628V34.4957C25.1643 33.2 26.2142 32.15 27.5099 32.1486H36.8975ZM38.0084 41.5366L40.2437 45.4479H24.164L26.399 41.5366H38.0084ZM39.2446 39.9716H25.1628V36.8424H39.2446V39.9716ZM18.9044 37.6249V29.8019C18.9048 29.37 19.255 29.0201 19.6866 29.0194H22.8161C23.2476 29.0201 23.5979 29.37 23.5982 29.8019V39.9716H21.2515C19.9559 39.9702 18.9059 38.9205 18.9044 37.6249ZM1.8278 45.4479C2.16013 44.511 3.0461 43.8843 4.04058 43.8833H8.73437C9.72849 43.8843 10.6148 44.511 10.9472 45.4479H1.8278ZM21.5061 45.4479L22.6238 41.5366H24.5974L22.3624 45.4479H21.5061ZM42.045 45.4479L39.81 41.5366H41.7836L42.9013 45.4479H42.045ZM45.503 37.6249C45.5015 38.9205 44.4515 39.9702 43.1559 39.9716H40.8092V29.8019C40.8095 29.37 41.1598 29.0201 41.5913 29.0194H44.7208C45.1524 29.0201 45.5022 29.37 45.503 29.8019V37.6249Z" fill="#ffffff"/>
</svg>  