<svg width="68" height="64" viewBox="0 0 68 64" fill="none" xmlns="http://www.w3.org/2000/svg">
<path d="M66.7052 35.3366H58.1202C60.0518 31.9554 59.9033 27.7724 57.7367 24.5367C54.3485 19.3055 55.9339 17.394 55.9396 17.3825C56.1576 17.1537 56.1491 16.7914 55.9203 16.5734C55.8144 16.4724 55.6739 16.4158 55.5275 16.4153H53.9879C54.058 15.3413 54.1822 14.2716 54.3599 13.2102C54.8646 13.3856 55.3939 13.4803 55.9281 13.4906C56.5719 13.5214 57.1976 13.2733 57.6451 12.8096C58.3548 12.0197 59.9345 11.4989 60.5068 11.3616C60.8163 11.2976 61.0155 10.9948 60.9514 10.6852C60.8874 10.3757 60.5846 10.1765 60.275 10.2406C60.2606 10.2437 60.2462 10.2472 60.2319 10.2512C60.1404 10.2512 57.8911 10.8236 56.7979 12.0426C56.3401 12.552 55.2469 12.3116 54.5716 12.0713C55.0752 9.64456 55.9909 6.8573 57.6507 5.00866C57.8625 4.77315 57.8433 4.41057 57.6078 4.19881C57.3723 3.98705 57.0097 4.00622 56.7979 4.24174C56.089 5.05359 55.4975 5.96103 55.0409 6.93743C53.8962 6.32503 52.6657 5.38068 52.9003 4.85986C53.3296 3.91551 54.2339 1.56894 53.3697 0.28119C53.2088 0.00904531 52.8578 -0.0810972 52.5857 0.0797285C52.3136 0.240554 52.2234 0.591537 52.3842 0.863682C52.395 0.881854 52.4068 0.899453 52.4194 0.91648C52.78 1.48881 52.5568 2.86241 51.8471 4.40199C51.1374 5.94157 53.4267 7.40674 54.5657 8.00197C53.5738 10.7081 52.9951 13.5482 52.8487 16.4267H52.6427C52.6348 15.6244 52.5466 14.8249 52.3794 14.0401C52.2486 13.4569 52.0785 12.8833 51.87 12.3231C51.7427 11.9744 51.5976 11.6324 51.435 11.2986C51.3178 10.942 51.2412 10.5735 51.2061 10.1997C51.0916 9.38129 50.9829 8.60292 50.5479 8.16794C50.3253 7.94359 49.963 7.94201 49.7385 8.16465C49.7373 8.1658 49.7362 8.1668 49.7352 8.16794C49.5133 8.39115 49.5133 8.75172 49.7352 8.97493C49.9307 9.41234 50.045 9.88165 50.0729 10.36C50.1162 10.8519 50.228 11.3354 50.4048 11.7965C50.5422 12.077 50.6738 12.3689 50.7997 12.718C50.8627 12.8954 50.9199 13.0786 50.9772 13.2903C50.4296 13.2265 49.942 12.914 49.6551 12.4433C49 11.5202 48.2308 10.6836 47.3657 9.95362C47.1242 9.74973 46.7631 9.78021 46.5592 10.0217C46.559 10.0219 46.5589 10.0222 46.5588 10.0223C46.3549 10.2638 46.3853 10.625 46.6269 10.8289C46.627 10.829 46.6273 10.8292 46.6274 10.8293C47.3906 11.486 48.0727 12.2315 48.6592 13.0499C49.1989 13.9286 50.1637 14.4556 51.1946 14.435H51.3151C51.4443 15.095 51.5133 15.7655 51.5212 16.4382H49.7355C49.5093 16.4396 49.3051 16.5742 49.2147 16.7816C49.1217 16.9886 49.1599 17.2311 49.312 17.3997C49.312 17.3997 50.9145 19.3284 47.5263 24.5596C45.3597 27.7953 45.2112 31.9783 47.1428 35.3595H34.0192C34.369 34.6653 34.6453 33.9364 34.8434 33.1846H35.8106C37.1287 33.1848 38.1974 32.1164 38.1974 30.7981C38.1975 29.4801 37.129 28.4114 35.8109 28.4114C35.8108 28.4114 35.8106 28.4114 35.8105 28.4114H35.2381C35.1916 27.8655 35.1132 27.3228 35.0035 26.7859C34.9482 26.5151 34.7074 26.3225 34.4311 26.3281H26.1438C25.8675 26.3225 25.6267 26.5151 25.5714 26.7859C25.372 27.7364 25.2722 28.7051 25.2738 29.6762C25.2479 31.6432 25.681 33.5891 26.5387 35.3595H21.6738V31.3532C21.6738 31.0371 21.4176 30.7808 21.1015 30.7808H19.8309V29.4988H21.1015C21.4176 29.4988 21.6738 29.2425 21.6738 28.9265V25.8817C21.6738 25.5656 21.4176 25.3093 21.1015 25.3093H3.69699C3.38092 25.3093 3.12466 25.5656 3.12466 25.8817V28.3484H1.85408C1.53801 28.3484 1.28175 28.6047 1.28175 28.9207V31.336C1.28175 31.6521 1.53801 31.9083 1.85408 31.9083H3.12466V35.3423H0.806708C0.490637 35.3423 0.234375 35.5986 0.234375 35.9147V48.9238C0.234375 49.2399 0.490637 49.4961 0.806708 49.4961H1.28747V51.9228C1.28747 52.2389 1.54373 52.4952 1.8598 52.4952H8.64767L9.35737 62.6655C9.3784 62.9659 9.62865 63.1985 9.9297 63.1978H12.7914C13.0924 63.1985 13.3427 62.9659 13.3637 62.6655L14.0734 52.4952H53.4385L54.1482 62.6655C54.1692 62.9659 54.4195 63.1985 54.7205 63.1978H57.5822C57.8832 63.1985 58.1335 62.9659 58.1545 62.6655L58.8642 52.4952H65.6521C65.9681 52.4952 66.2244 52.2389 66.2244 51.9228V49.4961H66.7052C67.0212 49.4961 67.2775 49.2399 67.2775 48.9238V35.9089C67.2775 35.5929 67.0212 35.3366 66.7052 35.3366ZM35.2783 29.6533V29.5331H35.8106C36.4966 29.533 37.0527 30.089 37.0527 30.775C37.0529 31.4609 36.4968 32.0171 35.8109 32.0171C35.8108 32.0171 35.8106 32.0171 35.8105 32.0171H35.0779C35.2117 31.2363 35.2788 30.4456 35.2783 29.6533ZM48.4649 25.1548C51.0518 21.1485 51.0003 18.7618 50.6283 17.5599H54.6347C54.2626 18.7618 54.2111 21.1599 56.7981 25.1548C58.8784 28.2216 58.8784 32.2469 56.7981 35.3137H48.4764C48.4764 35.3137 48.4706 35.3194 48.4649 35.3137C46.4144 32.2379 46.4144 28.2308 48.4649 25.1548ZM26.4358 29.6533C26.4365 28.915 26.4979 28.1781 26.6189 27.4499H33.9505C34.0744 28.1777 34.1357 28.915 34.1337 29.6533C34.1806 31.6425 33.686 33.6069 32.7028 35.3366H27.8666C26.8835 33.6069 26.3889 31.6425 26.4358 29.6533ZM20.5293 31.9141V35.3481H4.26933V31.9141H20.5293ZM4.26933 26.454H20.5293V28.3484H4.26933V26.454ZM2.42641 30.7694V29.4988H3.53102C3.58396 29.5196 3.64019 29.5311 3.69699 29.5331C3.75365 29.53 3.8096 29.5184 3.86297 29.4988H18.6864V30.7694H2.42641ZM1.37904 48.3515V36.4927H33.1836V48.3515H1.37904ZM12.2534 62.0531H10.462L9.79806 52.4952H12.9287L12.2534 62.0531ZM57.0442 62.0531H55.2471L54.5774 52.4952H57.7081L57.0442 62.0531ZM65.0568 51.3505H2.43213V49.4961H65.0797L65.0568 51.3505ZM66.1099 48.3515H34.3283V36.4813H66.1328L66.1099 48.3515Z" fill="#85A3B4"/>
<path d="M59.7645 41.8447H55.9356C55.6195 41.8447 55.3633 42.101 55.3633 42.4171C55.3633 42.7331 55.6195 42.9894 55.9356 42.9894H59.7645C60.0806 42.9894 60.3369 42.7331 60.3369 42.4171C60.3369 42.101 60.0806 41.8447 59.7645 41.8447Z" fill="#85A3B4"/>
<path d="M8.35347 41.8438H4.15827C3.8422 41.8438 3.58594 42.1 3.58594 42.4161C3.58594 42.7322 3.8422 42.9884 4.15827 42.9884H8.35347C8.66954 42.9884 8.92581 42.7322 8.92581 42.4161C8.92581 42.1 8.66954 41.8438 8.35347 41.8438Z" fill="#85A3B4"/>
<path d="M55.1479 27.12C54.9951 26.8433 54.647 26.7428 54.3703 26.8956C54.3663 26.8979 54.3621 26.9002 54.3581 26.9025C54.0771 27.0472 53.9665 27.3921 54.111 27.6733C54.1113 27.6739 54.1117 27.6746 54.112 27.6752C54.112 27.6752 54.9648 29.3922 54.072 32.4255C53.9797 32.7279 54.1499 33.0478 54.4523 33.1399C54.4533 33.1402 54.4544 33.1405 54.4554 33.1409C54.5107 33.1465 54.5662 33.1465 54.6214 33.1409C54.8842 33.1514 55.1203 32.9814 55.1937 32.7289C56.2297 29.2205 55.1937 27.2059 55.1479 27.12Z" fill="#85A3B4"/>
</svg>
