<svg width="233" height="80" viewBox="0 0 233 80" fill="#ffffff" xmlns="http://www.w3.org/2000/svg">
    <path d="M108.427 27.7063C109.612 26.8722 110.314 25.7748 110.534 24.4579C110.753 23.141 110.71 21.8242 110.402 20.5951C109.612 17.9174 108.207 15.5909 106.1 13.5716C104.037 11.5524 101.799 9.84045 99.4282 8.47966C94.0728 5.45081 88.2346 3.47547 81.9136 2.59754C75.5925 1.71961 69.4031 1.63182 63.3454 2.42196C58.8679 3.03651 54.5222 4.09002 50.2643 5.67029C46.0063 7.25056 42.1434 9.53317 38.7195 12.562C37.5782 13.5277 36.5686 14.5374 35.6029 15.5909C34.6372 16.6444 33.8031 17.7857 33.013 18.9709C33.4081 19.1465 33.847 19.3221 34.1982 19.5415C34.5933 19.761 34.9444 19.9366 35.2078 20.1122C35.5151 20.2878 35.7785 20.5073 36.0418 20.7706C36.3052 21.034 36.4808 21.3413 36.6125 21.6925C36.7442 21.9997 36.7003 22.307 36.4808 22.6143C36.2613 22.9216 35.9979 23.0972 35.7346 23.0094C35.0761 22.8777 34.5055 22.4387 33.9787 21.6925C33.452 20.9023 32.9691 20.3756 32.4862 19.9805L32.3107 19.8049C29.9402 23.4922 28.36 27.4868 27.6137 31.7886C26.8675 36.0905 27.2626 40.3923 28.7111 44.6503C29.6769 47.3279 31.0816 49.6983 32.9691 51.7176C34.8566 53.7807 37.1392 55.3171 39.7291 56.4145C40.8704 56.8973 42.0556 57.2485 43.3725 57.4241C44.6894 57.6436 46.0063 57.6436 47.2793 57.5119C48.5962 57.3802 49.7814 57.029 50.8788 56.4584C51.9762 55.8877 52.8541 55.0976 53.5126 54.0002C53.9077 53.3417 54.2149 52.5955 54.3905 51.7615C54.5661 50.9275 54.5661 50.1373 54.3905 49.3472C54.2149 48.557 53.9516 47.8986 53.6004 47.284C53.4687 47.1085 53.2931 46.8451 53.0297 46.5378C52.7664 46.2305 52.503 45.8794 52.2835 45.5721C52.064 45.2648 51.8884 44.9136 51.8445 44.6503C51.8006 44.343 51.8884 44.0796 52.1957 43.8601C52.6786 43.509 53.0736 43.4651 53.4248 43.7284C53.776 43.9918 54.0833 44.4308 54.3027 45.0014C54.5222 45.616 54.7417 46.2744 54.8734 47.0207C55.0051 47.7669 55.0929 48.4692 55.0929 49.2155C55.2246 50.0495 55.1368 50.9274 54.9173 51.8054C54.6978 52.6833 54.3027 53.5173 53.8638 54.2197C52.8103 55.9316 51.23 57.0729 49.2108 57.6436C47.1915 58.2142 45.1284 58.3459 43.0653 58.0387C40.6071 57.5558 38.3244 56.5901 36.1735 55.1854C34.0226 53.7368 32.2229 52.0249 30.7743 50.0056C29.1501 47.7669 28.0527 45.3087 27.4382 42.6749C26.8236 40.0411 26.5602 37.4074 26.7358 34.7297C26.8675 32.052 27.3942 29.3743 28.2283 26.7406C29.0623 24.1068 30.2036 21.6486 31.6083 19.366C30.7743 18.9709 29.5452 18.7075 27.9649 18.6636C26.3407 18.6197 24.98 18.7075 23.8825 18.927C22.2584 19.2343 20.722 19.6732 19.1856 20.2878C17.6493 20.9023 16.2446 21.6486 14.8399 22.5704C12.1183 24.4579 9.79181 26.8283 7.86037 29.5938C5.92893 32.4032 4.43646 35.3881 3.33905 38.5926C2.28553 41.797 1.67098 45.0892 1.58319 48.4254C1.4954 51.7615 1.89046 55.0537 2.76839 58.1703C3.64632 61.3309 5.051 64.2719 6.93855 66.9935C8.82609 69.7151 11.2843 72.0416 14.2692 73.9292C16.3324 75.2899 18.5711 76.4312 20.8976 77.3092C23.2241 78.1871 25.6384 78.8017 28.1405 79.1528C30.5987 79.4601 33.1008 79.504 35.6029 79.2845C38.105 79.065 40.5193 78.4066 42.8458 77.397C45.8746 76.1679 48.5523 74.4559 50.8788 72.3489C53.2053 70.2419 55.2684 67.8714 57.0243 65.2377C58.8241 62.6039 60.3604 59.7945 61.7212 56.8974C63.0381 54.0002 64.2672 51.103 65.3207 48.2498C66.8132 44.3869 68.2179 40.524 69.5348 36.705C70.8517 32.886 72.2563 29.0232 73.661 25.1603C73.8805 24.4579 74.2317 23.4922 74.5828 22.307C74.9779 21.1218 75.4169 19.8927 75.9436 18.6636C76.4704 17.4345 77.085 16.2054 77.7873 15.0202C78.4896 13.835 79.2359 12.8693 80.0699 12.1231C80.9039 11.3768 81.8258 10.9379 82.8354 10.7623C83.845 10.5867 84.9424 10.8501 86.1276 11.5524C86.2593 11.5963 86.2593 11.728 86.1715 11.8597C86.0837 11.9914 85.9959 12.0353 85.8642 11.9036C84.3279 11.0256 82.9232 10.9379 81.738 11.728C80.5089 12.5181 79.4554 13.6155 78.5774 15.108C77.6995 16.6005 76.9533 18.1808 76.3826 19.9366C75.812 21.6486 75.373 23.0093 75.0218 23.9312L67.9984 44.343C66.9449 47.3718 65.7597 50.4007 64.4867 53.4734C63.2137 56.5462 61.7212 59.4433 60.0532 62.2527C58.3851 65.0621 56.4537 67.652 54.2588 70.1102C52.064 72.5684 49.518 74.5876 46.577 76.2557C42.0556 78.8894 37.2709 80.0746 32.179 79.899C27.087 79.7235 22.2584 78.5383 17.6054 76.3435C15.0594 75.1582 12.689 73.6219 10.538 71.7782C8.38713 69.9346 6.54348 67.7837 5.051 65.2816C3.20735 62.2966 1.97826 59.0922 1.31981 55.6683C0.661365 52.2004 0.573569 48.7326 1.05643 45.2209C1.4515 41.6653 2.46112 38.1975 3.99749 34.8175C5.53386 31.4814 7.55309 28.4964 9.96739 25.9065C12.4256 23.3166 15.235 21.2974 18.4394 19.8488C21.6438 18.4002 25.1555 17.7857 28.9745 18.0052C29.4574 18.0491 29.9402 18.1369 30.5109 18.1808C31.0377 18.2246 31.6083 18.3124 32.2229 18.4441C32.4423 18.093 32.7057 17.6979 32.9691 17.3467C33.2325 16.9517 33.4958 16.6005 33.8031 16.3371C36.832 12.5181 40.4315 9.48927 44.5577 7.20666C48.684 4.92405 53.0736 3.25599 57.7266 2.15858C63.7843 0.797789 70.0615 0.314928 76.5582 0.709995C83.0548 1.10506 89.1565 2.50975 94.9069 4.92405C97.8918 6.10925 100.657 7.68952 103.291 9.66486C105.925 11.6402 108.032 14.0545 109.612 16.9078C110.271 18.1369 110.753 19.5415 111.017 20.9901C111.324 22.4826 111.192 23.8873 110.666 25.292C110.314 26.4333 109.656 27.3112 108.69 27.9696C107.988 28.4525 107.154 28.7598 106.276 28.9354C105.398 29.111 104.476 29.1548 103.598 29.0671C102.72 28.9793 101.843 28.8037 101.008 28.4964C100.174 28.1891 99.4721 27.7941 98.8576 27.3551C98.682 27.2234 98.4625 27.0039 98.1991 26.6967C97.9357 26.3894 97.7162 26.0382 97.5407 25.7748C97.3651 25.4676 97.3212 25.2042 97.409 24.9408C97.4968 24.6774 97.804 24.5018 98.3308 24.4579C98.8575 24.5018 99.3843 24.8969 99.8672 25.5992C100.35 26.3016 100.789 26.8722 101.184 27.3112C101.579 27.6624 102.106 27.9696 102.764 28.1452C103.379 28.3647 104.037 28.4964 104.696 28.5403C105.354 28.5842 106.013 28.5403 106.671 28.3647C107.373 28.3208 107.944 28.0574 108.427 27.7063Z"/>
    <path d="M81.7371 45.0014C80.947 46.5378 80.4641 47.8547 80.1568 48.9521C79.8934 50.0495 79.8057 50.9713 79.8495 51.6737C79.8934 52.376 80.1129 52.9028 80.4641 53.2979C80.8153 53.649 81.2542 53.9124 81.781 54.0002C82.9223 54.2197 83.9758 54.0002 84.9415 53.3417C85.9073 52.6394 86.9169 51.6298 87.9265 50.269C88.7166 49.2594 89.419 48.2498 90.0335 47.1963C90.6481 46.1427 91.3065 45.0892 91.965 44.0357C92.0088 43.8601 92.1405 43.8162 92.3161 43.904C92.4917 43.9918 92.5356 44.1235 92.4039 44.2991C91.7455 45.3087 91.087 46.3622 90.4286 47.5035C89.7701 48.6448 89.0239 49.6983 88.1899 50.708C87.3558 51.7176 86.434 52.6394 85.4244 53.5173C84.4148 54.3953 83.1857 54.7025 81.6932 54.4392C80.3763 54.2636 79.5862 53.3418 79.235 51.7176C78.9277 50.0934 79.4106 47.8108 80.7275 44.9137C79.8934 45.4404 79.0155 45.8794 78.0937 46.1866C77.1719 46.4939 76.25 46.6695 75.2843 46.6695C74.2308 46.6695 73.6602 46.45 73.6602 45.9672C73.6602 45.6599 73.7918 45.4843 74.0991 45.4404C74.4064 45.3965 74.8015 45.3965 75.2404 45.4404C75.6355 45.4843 76.2501 45.5282 77.0841 45.5282C77.8742 45.5282 78.5766 45.3965 79.1033 45.0892C79.5862 44.9575 80.2446 44.6503 81.0787 44.1235C81.0787 44.0796 81.0786 44.0357 81.1225 44.0357C81.1664 44.0357 81.1664 43.9918 81.1664 43.9479C83.0101 39.4705 85.0732 35.1248 87.3119 30.8229C88.4532 28.7598 89.5945 26.6528 90.7797 24.5896C91.9649 22.5265 93.3257 20.5073 94.7743 18.6197C94.9938 18.3124 95.3011 17.9613 95.6083 17.5662C95.9156 17.1711 96.3107 16.7761 96.6619 16.4249C97.0569 16.0737 97.452 15.7665 97.8471 15.547C98.2421 15.3275 98.725 15.1958 99.164 15.1958C99.7785 15.2397 100.13 15.4592 100.305 15.8542C100.481 16.2493 100.569 16.6883 100.569 17.1711C100.569 17.6979 100.481 18.1808 100.349 18.7075C100.217 19.2343 100.086 19.6293 99.9541 19.8927C99.0762 22.0875 97.9349 24.1946 96.618 26.1699C95.3011 28.1452 93.8964 30.1206 92.4917 32.0081C90.9553 34.0712 89.3312 36.1344 87.5753 38.1975C85.8634 40.2606 84.0197 42.1482 82.1322 43.9479L81.7371 45.0014ZM88.541 30.7351C87.707 32.3593 86.9169 33.9396 86.1706 35.5637C85.4244 37.1879 84.6782 38.8121 83.888 40.4801C83.7124 40.8313 83.5368 41.1825 83.3613 41.5336C83.1857 41.8848 83.054 42.236 82.9223 42.5871C83.5807 41.9287 84.1953 41.3141 84.7659 40.6996C85.3366 40.085 85.9073 39.5144 86.5218 38.8998C87.5314 37.7146 88.541 36.4855 89.5506 35.2564C90.5603 34.0274 91.526 32.7544 92.4917 31.5253C92.6673 31.3058 93.0624 30.7351 93.633 29.8572C94.2476 28.9793 94.8621 28.0135 95.6083 26.8722C96.3546 25.7309 97.0569 24.5457 97.7593 23.2727C98.4616 21.9997 99.0323 20.8145 99.5151 19.761C99.9541 18.7075 100.217 17.7857 100.261 16.9956C100.305 16.2054 100.042 15.7665 99.4712 15.6787C98.8128 15.547 98.1543 15.8542 97.4959 16.5127C96.8375 17.215 96.3546 17.7418 96.0473 18.1808C95.4328 18.8392 94.9499 19.4976 94.467 20.2439C94.0281 20.9462 93.5452 21.6486 93.1063 22.3948C92.2722 23.7556 91.4821 25.1603 90.7359 26.565C89.9457 27.9696 89.2434 29.3743 88.541 30.7351Z"/>
    <path d="M102.716 52.0249C102.321 51.8494 102.277 51.7616 102.277 51.2348C102.277 49.9179 102.365 48.5132 102.409 48.1182C102.453 47.767 102.497 47.5036 102.672 47.5036C102.892 47.5036 102.892 47.7231 102.892 47.8987C102.892 48.206 102.98 48.6888 103.111 49.1278C103.638 50.8837 105.043 51.5421 106.491 51.5421C108.642 51.5421 109.652 50.0935 109.652 48.8205C109.652 47.6792 109.301 46.5818 107.325 45.0454L106.228 44.2114C103.638 42.1922 102.716 40.5241 102.716 38.5927C102.716 36.0028 104.911 34.1152 108.203 34.1152C109.74 34.1152 110.749 34.3347 111.364 34.5103C111.583 34.5542 111.715 34.642 111.715 34.7737C111.715 35.081 111.627 35.7833 111.627 37.6269C111.627 38.1537 111.539 38.3293 111.364 38.3293C111.188 38.3293 111.144 38.1976 111.144 37.8903C111.144 37.6708 111.013 36.9246 110.53 36.3101C110.179 35.8711 109.476 35.1687 107.94 35.1687C106.184 35.1687 105.131 36.1784 105.131 37.6269C105.131 38.7244 105.657 39.5584 107.633 41.0509L108.291 41.5337C111.144 43.6846 112.198 45.3088 112.198 47.5914C112.198 48.9522 111.671 50.6203 109.959 51.7177C108.774 52.4639 107.457 52.6834 106.184 52.6834C104.779 52.6395 103.726 52.5078 102.716 52.0249Z"/>
    <path d="M120.187 41.2706C120.187 37.6711 120.187 37.0126 120.143 36.2225C120.099 35.4324 119.923 35.0373 119.133 34.8617C118.958 34.8178 118.519 34.7739 118.211 34.7739C117.948 34.7739 117.816 34.73 117.816 34.5544C117.816 34.3789 117.992 34.335 118.343 34.335C119.616 34.335 121.109 34.4228 121.767 34.4228C122.733 34.4228 124.094 34.335 125.191 34.335C128.176 34.335 129.229 35.3446 129.581 35.6958C130.107 36.1786 130.766 37.276 130.766 38.5051C130.766 41.8851 128.308 44.2555 124.928 44.2555C124.796 44.2555 124.533 44.2555 124.445 44.2116C124.313 44.1677 124.181 44.1677 124.181 43.9922C124.181 43.8166 124.357 43.7288 124.84 43.7288C126.157 43.7288 128 42.2363 128 39.822C128 39.0319 127.913 37.4516 126.596 36.2664C125.762 35.4763 124.752 35.3446 124.225 35.3446C123.874 35.3446 123.523 35.3885 123.303 35.4324C123.172 35.4763 123.128 35.608 123.128 35.8713V45.353C123.128 47.5478 123.128 49.3914 123.26 50.4449C123.347 51.1034 123.479 51.6301 124.181 51.7179C124.533 51.7618 125.015 51.8057 125.41 51.8057C125.674 51.8057 125.806 51.8935 125.806 51.9813C125.806 52.1569 125.63 52.2008 125.367 52.2008C123.786 52.2008 122.294 52.113 121.679 52.113C121.153 52.113 119.66 52.2008 118.694 52.2008C118.387 52.2008 118.211 52.113 118.211 51.9813C118.211 51.8496 118.299 51.8057 118.607 51.8057C118.958 51.8057 119.265 51.7618 119.441 51.7179C119.923 51.6301 120.055 51.1034 120.143 50.401C120.275 49.3914 120.275 47.5478 120.275 45.353V41.2706H120.187Z"/>
    <path d="M137.876 46.2744C137.744 46.2744 137.7 46.3183 137.656 46.45L136.383 49.6984C136.164 50.3129 136.032 50.8397 136.032 51.1469C136.032 51.5859 136.252 51.8932 136.998 51.8932H137.349C137.612 51.8932 137.7 51.9371 137.7 52.0688C137.7 52.2443 137.568 52.2882 137.305 52.2882C136.559 52.2882 135.505 52.2005 134.803 52.2005C134.54 52.2005 133.223 52.2882 131.994 52.2882C131.686 52.2882 131.555 52.2443 131.555 52.0688C131.555 51.9371 131.642 51.8932 131.818 51.8932C132.038 51.8932 132.345 51.8493 132.564 51.8493C133.662 51.7176 134.101 50.8836 134.584 49.6984L140.553 34.9931C140.817 34.2907 140.992 34.0273 141.212 34.0273C141.431 34.0273 141.563 34.2468 141.783 34.7736C142.353 36.0905 146.128 45.5721 147.665 49.1716C148.586 51.3225 149.245 51.6298 149.772 51.7615C150.123 51.8493 150.474 51.8493 150.781 51.8493C150.957 51.8493 151.089 51.8932 151.089 52.0249C151.089 52.2004 150.869 52.2443 149.991 52.2443C149.157 52.2443 147.401 52.2443 145.514 52.2005C145.075 52.1566 144.811 52.1565 144.811 52.0249C144.811 51.8932 144.899 51.8493 145.163 51.8054C145.338 51.7615 145.514 51.542 145.382 51.2786L143.495 46.4061C143.451 46.2744 143.363 46.2305 143.275 46.2305H137.876V46.2744ZM142.704 45.0892C142.836 45.0892 142.836 45.0014 142.836 44.9576L140.685 39.1193C140.641 39.0315 140.641 38.8998 140.553 38.8998C140.466 38.8998 140.422 39.0315 140.422 39.1193L138.227 44.9137C138.183 45.0014 138.227 45.0892 138.315 45.0892H142.704Z"/>
    <path d="M164.083 52.0249C163.688 51.8494 163.645 51.7616 163.645 51.2348C163.645 49.9179 163.732 48.5132 163.776 48.1182C163.82 47.767 163.864 47.5036 164.04 47.5036C164.259 47.5036 164.259 47.7231 164.259 47.8987C164.259 48.206 164.347 48.6888 164.479 49.1278C165.005 50.8837 166.41 51.5421 167.859 51.5421C170.01 51.5421 171.019 50.0935 171.019 48.8205C171.019 47.6792 170.668 46.5818 168.693 45.0454L167.595 44.2114C165.005 42.1922 164.083 40.5241 164.083 38.5927C164.083 36.0028 166.278 34.1152 169.571 34.1152C171.107 34.1152 172.117 34.3347 172.731 34.5103C172.951 34.5542 173.082 34.642 173.082 34.7737C173.082 35.081 172.994 35.7833 172.994 37.6269C172.994 38.1537 172.907 38.3293 172.731 38.3293C172.556 38.3293 172.512 38.1976 172.512 37.8903C172.512 37.6708 172.38 36.9246 171.897 36.3101C171.546 35.8711 170.844 35.1687 169.307 35.1687C167.551 35.1687 166.498 36.1784 166.498 37.6269C166.498 38.7244 167.025 39.5584 169 41.0509L169.658 41.5337C172.512 43.6846 173.565 45.3088 173.565 47.5914C173.565 48.9522 173.038 50.6203 171.326 51.7177C170.141 52.4639 168.824 52.6834 167.551 52.6834C166.147 52.6395 165.093 52.5078 164.083 52.0249Z"/>
    <path d="M184.451 42.3241H184.583C185.373 41.4461 188.841 37.9344 189.543 37.1004C190.202 36.3102 190.728 35.7396 190.728 35.3006C190.728 35.0373 190.641 34.8617 190.377 34.8178C190.158 34.7739 190.07 34.73 190.07 34.5983C190.07 34.4227 190.202 34.3788 190.465 34.3788C190.948 34.3788 192.265 34.4666 192.923 34.4666C193.669 34.4666 194.942 34.3788 195.689 34.3788C195.908 34.3788 196.084 34.4227 196.084 34.5983C196.084 34.7739 195.952 34.8178 195.733 34.8178C195.381 34.8178 194.811 34.9056 194.372 35.0812C193.625 35.3445 192.835 35.8713 191.826 36.8809C191.08 37.5832 187.524 41.1389 186.69 42.0168C187.524 43.1142 192.177 48.1184 193.099 48.9963C194.152 50.0059 195.206 51.0594 196.479 51.5423C197.181 51.8057 197.664 51.8935 197.971 51.8935C198.147 51.8935 198.279 51.9374 198.279 52.069C198.279 52.2446 198.147 52.2885 197.708 52.2885H195.645C194.942 52.2885 194.503 52.2885 194.021 52.2446C192.748 52.1129 192.089 51.5862 191.08 50.7083C190.026 49.7864 185.373 44.2994 184.846 43.5971L184.583 43.2459H184.451V45.3968C184.451 47.5916 184.451 49.4353 184.539 50.4888C184.583 51.1472 184.802 51.674 185.373 51.7618C185.724 51.8057 186.207 51.8496 186.514 51.8496C186.69 51.8496 186.822 51.9374 186.822 52.0251C186.822 52.2007 186.646 52.2446 186.383 52.2446C185.066 52.2446 183.573 52.1568 182.959 52.1568C182.432 52.1568 180.939 52.2446 179.974 52.2446C179.666 52.2446 179.491 52.1568 179.491 52.0251C179.491 51.8935 179.579 51.8496 179.886 51.8496C180.237 51.8496 180.544 51.8057 180.72 51.7618C181.203 51.674 181.291 51.1472 181.422 50.4449C181.554 49.4353 181.554 47.5916 181.554 45.3968V41.2266C181.554 37.6271 181.554 36.9687 181.51 36.1786C181.466 35.3884 181.291 34.9934 180.5 34.8178C180.325 34.7739 179.93 34.73 179.579 34.73C179.315 34.73 179.184 34.6861 179.184 34.5105C179.184 34.3349 179.359 34.291 179.71 34.291C180.983 34.291 182.476 34.3788 183.046 34.3788C183.617 34.3788 185.11 34.291 185.9 34.291C186.251 34.291 186.383 34.3349 186.383 34.5105C186.383 34.6861 186.251 34.73 186.031 34.73C185.812 34.73 185.636 34.7739 185.373 34.8178C184.715 34.9495 184.539 35.3445 184.495 36.1786C184.451 36.9248 184.451 37.5833 184.451 41.2266V42.3241Z"/>
    <path d="M202.141 41.2702C202.141 37.6707 202.141 37.0122 202.097 36.2221C202.053 35.432 201.834 34.993 201.307 34.9052C201.044 34.8174 200.737 34.8174 200.473 34.8174C200.254 34.8174 200.078 34.7735 200.078 34.5979C200.078 34.4663 200.254 34.4224 200.649 34.4224C201.571 34.4224 203.063 34.5101 203.722 34.5101C204.292 34.5101 205.697 34.4224 206.619 34.4224C206.926 34.4224 207.102 34.4663 207.102 34.5979C207.102 34.7735 206.97 34.8174 206.706 34.8174C206.487 34.8174 206.268 34.8613 206.004 34.9052C205.346 35.0369 205.17 35.432 205.126 36.266C205.082 37.0122 205.082 37.6707 205.082 41.3141V45.4842C205.082 47.7669 205.082 49.6544 205.17 50.664C205.258 51.3225 205.39 51.7175 206.136 51.8053C206.487 51.8492 206.97 51.8931 207.365 51.8931C207.628 51.8931 207.76 51.9809 207.76 52.0687C207.76 52.2443 207.584 52.2882 207.321 52.2882C205.741 52.2882 204.248 52.2004 203.634 52.2004C203.107 52.2004 201.614 52.2882 200.649 52.2882C200.341 52.2882 200.166 52.2004 200.166 52.0687C200.166 51.937 200.254 51.8931 200.561 51.8931C200.912 51.8931 201.219 51.8492 201.395 51.8053C201.878 51.7175 202.01 51.3225 202.097 50.6201C202.229 49.6105 202.229 47.7668 202.229 45.4403V41.2702H202.141Z"/>
    <path d="M216.539 49.0839C216.583 50.9275 216.891 51.5421 217.373 51.7176C217.768 51.8493 218.207 51.8932 218.603 51.8932C218.866 51.8932 218.998 51.9371 218.998 52.0688C218.998 52.2444 218.778 52.2883 218.471 52.2883C216.934 52.2883 215.969 52.2005 215.53 52.2005C215.31 52.2005 214.213 52.2883 212.984 52.2883C212.677 52.2883 212.457 52.2444 212.457 52.0688C212.457 51.9371 212.589 51.8932 212.852 51.8932C213.159 51.8932 213.598 51.8493 213.906 51.7615C214.52 51.586 214.608 50.8836 214.652 48.8205L214.871 34.8614C214.871 34.3786 214.959 34.0713 215.179 34.0713C215.442 34.0713 215.661 34.3786 216.057 34.8175C216.32 35.1248 219.963 38.8999 223.387 42.3677C225.011 43.9919 228.216 47.4158 228.611 47.767H228.743L228.523 37.1001C228.479 35.6516 228.304 35.2126 227.733 34.9492C227.382 34.8175 226.811 34.8175 226.46 34.8175C226.197 34.8175 226.065 34.7297 226.065 34.5981C226.065 34.4225 226.328 34.3786 226.679 34.3786C227.909 34.3786 229.05 34.4664 229.533 34.4664C229.796 34.4664 230.674 34.3786 231.859 34.3786C232.167 34.3786 232.386 34.4225 232.386 34.5981C232.386 34.7297 232.254 34.8175 231.947 34.8175C231.728 34.8175 231.508 34.8175 231.245 34.9053C230.586 35.0809 230.411 35.6077 230.367 36.9246L230.103 51.8932C230.103 52.42 230.016 52.6395 229.796 52.6395C229.533 52.6395 229.269 52.3761 229.006 52.1127C227.513 50.708 224.485 47.5914 222.026 45.1332C219.437 42.5872 216.803 39.69 216.364 39.2072H216.276L216.539 49.0839Z"/>
    <path d="M102.41 67.0816C102.278 67.0377 102.234 66.9938 102.234 66.7744C102.234 66.2915 102.278 65.8086 102.278 65.633C102.278 65.5014 102.322 65.4136 102.366 65.4136C102.454 65.4136 102.454 65.5014 102.454 65.5453C102.454 65.6769 102.498 65.8525 102.542 65.9842C102.717 66.5988 103.244 66.8622 103.771 66.8622C104.561 66.8622 104.912 66.3354 104.912 65.8964C104.912 65.4575 104.78 65.0624 104.078 64.5356L103.683 64.2284C102.761 63.4821 102.41 62.9115 102.41 62.2091C102.41 61.2873 103.2 60.585 104.385 60.585C104.956 60.585 105.307 60.6728 105.527 60.7167C105.614 60.7167 105.658 60.7605 105.658 60.8044C105.658 60.9361 105.614 61.1556 105.614 61.8141C105.614 61.9897 105.57 62.0774 105.527 62.0774C105.483 62.0774 105.439 62.0335 105.439 61.9019C105.439 61.8141 105.395 61.5507 105.219 61.3312C105.088 61.1556 104.824 60.8922 104.298 60.8922C103.683 60.8922 103.288 61.2434 103.288 61.7702C103.288 62.1652 103.463 62.4725 104.21 62.9993L104.429 63.1749C105.483 63.965 105.834 64.5356 105.834 65.3697C105.834 65.8525 105.658 66.4671 105.044 66.8622C104.605 67.1255 104.122 67.2133 103.683 67.2133C103.156 67.3011 102.805 67.2572 102.41 67.0816Z"/>
    <path d="M121.285 61.1996L120.012 61.2435C119.53 61.2435 119.31 61.2874 119.178 61.5068C119.091 61.6385 119.047 61.7263 119.047 61.8141C119.047 61.9019 119.003 61.9019 118.959 61.9019C118.915 61.9019 118.871 61.858 118.871 61.7702C118.871 61.6385 119.047 60.8484 119.047 60.8045C119.091 60.6728 119.091 60.6289 119.134 60.6289C119.222 60.6289 119.31 60.7167 119.486 60.7167C119.749 60.7606 120.056 60.7606 120.32 60.7606H123.7C123.963 60.7606 124.183 60.7167 124.27 60.7167C124.402 60.6728 124.446 60.6728 124.49 60.6728C124.534 60.6728 124.578 60.7167 124.578 60.8484C124.578 61.024 124.534 61.6385 124.534 61.858C124.534 61.9458 124.49 61.9897 124.446 61.9897C124.358 61.9897 124.358 61.9458 124.358 61.8141V61.7263C124.358 61.5068 124.095 61.2435 123.349 61.2435L122.251 61.1996V64.7113C122.251 65.5014 122.251 66.1598 122.295 66.5549C122.339 66.7744 122.383 66.9939 122.646 67.0378C122.778 67.0378 122.953 67.0817 123.085 67.0817C123.173 67.0817 123.217 67.1256 123.217 67.1695C123.217 67.2134 123.129 67.2573 123.041 67.2573C122.471 67.2573 121.944 67.2134 121.68 67.2134C121.505 67.2134 120.934 67.2573 120.583 67.2573C120.451 67.2573 120.407 67.2134 120.407 67.1695C120.407 67.1256 120.451 67.0817 120.539 67.0817C120.671 67.0817 120.759 67.0817 120.846 67.0378C121.022 66.9939 121.066 66.8183 121.11 66.5549C121.154 66.2037 121.154 65.5014 121.154 64.7113V61.1996H121.285Z"/>
    <path d="M136.869 63.175C136.869 61.8581 136.869 61.6386 136.869 61.3752C136.869 61.0679 136.781 60.9362 136.518 60.8923C136.43 60.8923 136.299 60.8484 136.167 60.8484C136.079 60.8484 136.035 60.8484 136.035 60.7606C136.035 60.6729 136.079 60.6729 136.211 60.6729C136.65 60.6729 137.22 60.7168 137.44 60.7168C137.659 60.7168 138.186 60.6729 138.493 60.6729C138.625 60.6729 138.669 60.6729 138.669 60.7606C138.669 60.8484 138.625 60.8484 138.537 60.8484C138.449 60.8484 138.406 60.8484 138.274 60.8923C138.054 60.9362 137.967 61.0679 137.967 61.3752C137.967 61.6386 137.967 61.902 137.967 63.175V64.3601C137.967 65.5892 138.23 66.116 138.625 66.4672C139.02 66.7745 139.415 66.8183 139.679 66.8183C140.074 66.8183 140.513 66.6867 140.864 66.3355C141.347 65.8526 141.347 65.1064 141.347 64.2285V63.175C141.347 61.8581 141.347 61.6386 141.347 61.3752C141.347 61.0679 141.259 60.9362 140.995 60.8923C140.908 60.8923 140.776 60.8484 140.688 60.8484C140.6 60.8484 140.556 60.8484 140.556 60.7606C140.556 60.6729 140.6 60.6729 140.732 60.6729C141.171 60.6729 141.698 60.7168 141.698 60.7168C141.786 60.7168 142.356 60.6729 142.663 60.6729C142.795 60.6729 142.839 60.6729 142.839 60.7606C142.839 60.8484 142.795 60.8484 142.663 60.8484C142.576 60.8484 142.532 60.8484 142.4 60.8923C142.181 60.9362 142.093 61.0679 142.093 61.3752C142.093 61.6386 142.093 61.902 142.093 63.175V64.0968C142.093 65.0625 142.005 66.0721 141.259 66.6867C140.644 67.2134 140.03 67.3012 139.459 67.3012C139.02 67.3012 138.186 67.2573 137.572 66.7305C137.133 66.3355 136.825 65.7209 136.825 64.4479V63.175H136.869Z"/>
    <path d="M154.471 63.175C154.471 61.8581 154.471 61.6386 154.471 61.3752C154.471 61.0679 154.383 60.9362 154.12 60.8923C154.032 60.8923 153.9 60.8484 153.768 60.8484C153.681 60.8484 153.637 60.8484 153.637 60.7606C153.637 60.6729 153.681 60.6729 153.812 60.6729C154.251 60.6729 154.822 60.7168 155.041 60.7168C155.305 60.7168 155.832 60.6729 156.358 60.6729C157.412 60.6729 158.86 60.6729 159.782 61.6386C160.221 62.0775 160.616 62.7799 160.616 63.8334C160.616 64.9308 160.177 65.7209 159.694 66.2038C159.299 66.5989 158.421 67.2134 156.841 67.2134C156.534 67.2134 156.183 67.1695 155.875 67.1695C155.568 67.1256 155.261 67.1256 155.041 67.1256C154.954 67.1256 154.778 67.1256 154.559 67.1256C154.383 67.1256 154.12 67.1256 153.988 67.1256C153.856 67.1256 153.812 67.0817 153.812 67.0378C153.812 66.9939 153.856 66.95 153.944 66.95C154.076 66.95 154.163 66.95 154.251 66.9061C154.427 66.8622 154.471 66.6867 154.515 66.4233C154.559 66.0721 154.559 65.3698 154.559 64.5796V63.175H154.471ZM155.568 64.1407C155.568 65.0625 155.568 65.7209 155.568 65.8526C155.568 66.0721 155.612 66.4233 155.656 66.5111C155.788 66.6866 156.095 66.8622 156.797 66.8622C157.675 66.8622 158.246 66.6867 158.773 66.2477C159.299 65.7648 159.475 65.0186 159.475 64.0968C159.475 62.9994 159.036 62.297 158.641 61.9458C157.851 61.1996 156.885 61.1118 156.227 61.1118C156.051 61.1118 155.744 61.1557 155.656 61.1557C155.568 61.1996 155.568 61.2435 155.568 61.3313C155.568 61.6386 155.568 62.3848 155.568 63.0433V64.1407Z"/>
    <path d="M174.18 63.175C174.18 61.8581 174.18 61.6386 174.18 61.3752C174.18 61.0679 174.092 60.9362 173.873 60.8923C173.785 60.8484 173.653 60.8484 173.565 60.8484C173.478 60.8484 173.434 60.8484 173.434 60.7606C173.434 60.7168 173.521 60.6729 173.653 60.6729C173.96 60.6729 174.531 60.7168 174.75 60.7168C174.97 60.7168 175.453 60.6729 175.804 60.6729C175.936 60.6729 175.98 60.6729 175.98 60.7606C175.98 60.8484 175.936 60.8484 175.848 60.8484C175.76 60.8484 175.672 60.8484 175.585 60.8923C175.365 60.9362 175.277 61.0679 175.277 61.3752C175.277 61.6386 175.277 61.902 175.277 63.175V64.6674C175.277 65.5015 175.277 66.1599 175.321 66.555C175.365 66.7744 175.409 66.95 175.672 66.9939C175.804 66.9939 175.98 67.0378 176.111 67.0378C176.199 67.0378 176.243 67.0817 176.243 67.1256C176.243 67.1695 176.155 67.2134 176.067 67.2134C175.497 67.2134 174.97 67.1695 174.75 67.1695C174.575 67.1695 174.004 67.2134 173.653 67.2134C173.521 67.2134 173.478 67.1695 173.478 67.1256C173.478 67.0817 173.521 67.0378 173.609 67.0378C173.741 67.0378 173.829 67.0378 173.916 66.9939C174.092 66.95 174.136 66.8183 174.18 66.555C174.224 66.2038 174.224 65.5015 174.224 64.7113V63.175H174.18Z"/>
    <path d="M189.02 63.965C189.02 62.5165 189.985 60.6289 192.575 60.6289C194.726 60.6289 196.043 61.858 196.043 63.8333C196.043 65.8087 194.682 67.3451 192.487 67.3451C189.985 67.3012 189.02 65.4575 189.02 63.965ZM194.814 64.0967C194.814 62.1653 193.716 60.9801 192.312 60.9801C191.346 60.9801 190.205 61.5068 190.205 63.6578C190.205 65.4575 191.17 66.8622 192.839 66.8622C193.409 66.8622 194.814 66.5988 194.814 64.0967Z"/>
</svg>