<svg width="227" height="82" viewBox="0 0 227 82" fill="#ffffff" xmlns="http://www.w3.org/2000/svg">
    <path d="M28.1987 61.8838C31.3316 62.5001 33.7454 65.2222 33.7454 68.5605C33.7454 72.3097 30.7153 75.3399 26.966 75.3399H19.673C19.6217 75.3399 19.5703 75.2886 19.5703 75.2372C19.5703 75.1859 19.6217 75.1345 19.673 75.1345C20.4948 75.1345 21.2138 74.4668 21.2138 73.5937V50.1739C21.2138 49.3522 20.5461 48.6332 19.673 48.6332C19.6217 48.6332 19.5703 48.5818 19.5703 48.5305C19.5703 48.4791 19.6217 48.4277 19.673 48.4277H26.9147C30.6639 48.4277 33.6941 51.4579 33.6941 55.2071C33.7454 58.4941 31.3316 61.2675 28.1987 61.8838ZM26.9147 61.7298C28.4555 61.7298 29.6881 58.8023 29.6881 55.1558C29.6881 51.5606 28.4555 48.5818 26.9147 48.5818H25.2198V75.0318H26.9147C28.4555 75.0318 29.6881 72.1043 29.6881 68.4578C29.6881 64.8627 28.4555 61.8838 26.9147 61.8838C26.8633 61.8838 26.812 61.8325 26.812 61.7811C26.812 61.7811 26.8633 61.7298 26.9147 61.7298Z"/>
    <path d="M66.463 48.5301V54.0255C66.463 54.0769 66.4117 54.1282 66.3603 54.1282C66.309 54.1282 66.2576 54.0769 66.2576 54.0255C66.2576 51.0467 63.8437 48.6328 60.8649 48.6328H57.9888V61.7294H60.3513C61.1217 61.678 61.7894 61.0104 61.7894 60.24C61.7894 60.1886 61.8407 60.1373 61.8921 60.1373C61.9434 60.1373 61.9948 60.1886 61.9948 60.24V63.527C61.9948 63.5783 61.9434 63.6297 61.8921 63.6297C61.8407 63.6297 61.7894 63.5783 61.7894 63.527C61.7894 62.7052 61.173 62.0889 60.3513 62.0376H60.2486C60.2486 62.0376 60.2486 62.0376 60.1972 62.0376H57.9888V75.1341H60.8649C63.8437 75.1341 66.2576 72.7203 66.2576 69.7414C66.2576 69.6901 66.309 69.6387 66.3603 69.6387C66.4117 69.6387 66.463 69.6901 66.463 69.7414V75.2369C66.463 75.2882 66.4117 75.3396 66.3603 75.3396H57.8861H54.1368H52.4933C52.442 75.3396 52.3906 75.2882 52.3906 75.2369C52.3906 75.1855 52.442 75.1341 52.4933 75.1341C53.3151 75.1341 54.0341 74.4665 54.0341 73.5934V50.1736C54.0341 49.3518 53.3665 48.6328 52.4933 48.6328C52.442 48.6328 52.3906 48.5815 52.3906 48.5301C52.3906 48.4787 52.442 48.4274 52.4933 48.4274H66.4117C66.4117 48.376 66.463 48.4274 66.463 48.5301Z"/>
    <path d="M100.823 48.5301C100.823 48.5815 100.771 48.6328 100.72 48.6328C99.8467 48.6328 99.025 49.3005 98.8195 50.1736L93.0673 75.2369C93.0673 75.2882 93.0673 75.2882 93.0159 75.2882C93.0159 75.2882 93.0159 75.2882 92.9646 75.2882C92.9646 75.2882 92.9646 75.2882 92.9132 75.2882C92.8619 75.2882 92.9132 75.2882 92.8619 75.2882C92.8619 75.2882 92.8619 75.2882 92.8105 75.2882L92.7591 75.2369L87.0069 50.1736C86.8015 49.3005 85.9797 48.6328 85.1066 48.6328C85.0553 48.6328 85.0039 48.5815 85.0039 48.5301C85.0039 48.4787 85.0553 48.4274 85.1066 48.4274H90.4993H92.1428C92.1942 48.4274 92.2455 48.4787 92.2455 48.5301C92.2455 48.5815 92.1942 48.6328 92.1428 48.6328C91.732 48.6328 91.4238 48.7869 91.2184 49.0437C91.0129 49.3005 90.9102 49.7114 91.0129 50.1222L94.7621 66.4544L98.5114 50.1222C98.6141 49.7114 98.5114 49.3518 98.3059 49.0437C98.1005 48.7869 97.741 48.6328 97.3815 48.6328C97.3301 48.6328 97.2787 48.5815 97.2787 48.5301C97.2787 48.4787 97.3301 48.4274 97.3815 48.4274H99.025H100.668C100.771 48.376 100.823 48.4274 100.823 48.5301Z"/>
    <path d="M131.944 48.5301V54.0255C131.944 54.0769 131.892 54.1282 131.841 54.1282C131.789 54.1282 131.738 54.0769 131.738 54.0255C131.738 51.0467 129.324 48.6328 126.345 48.6328H123.469V61.7294H125.832C126.602 61.678 127.27 61.0104 127.27 60.24C127.27 60.1886 127.321 60.1373 127.373 60.1373C127.424 60.1373 127.475 60.1886 127.475 60.24V63.527C127.475 63.5783 127.424 63.6297 127.373 63.6297C127.321 63.6297 127.27 63.5783 127.27 63.527C127.27 62.7052 126.654 62.0889 125.832 62.0376H125.729C125.729 62.0376 125.729 62.0376 125.678 62.0376H123.469V75.1341H126.345C129.324 75.1341 131.738 72.7203 131.738 69.7414C131.738 69.6901 131.789 69.6387 131.841 69.6387C131.892 69.6387 131.944 69.6901 131.944 69.7414V75.2369C131.944 75.2882 131.892 75.3396 131.841 75.3396H123.367H119.617H117.974C117.922 75.3396 117.871 75.2882 117.871 75.2369C117.871 75.1855 117.922 75.1341 117.974 75.1341C118.796 75.1341 119.515 74.4665 119.515 73.5934V50.1736C119.515 49.3518 118.847 48.6328 117.974 48.6328C117.922 48.6328 117.871 48.5815 117.871 48.5301C117.871 48.4787 117.922 48.4274 117.974 48.4274H131.892C131.892 48.376 131.944 48.4274 131.944 48.5301Z"/>
    <path d="M167.076 81.3485C167.076 81.3998 167.024 81.4512 166.973 81.4512C163.532 81.4512 160.707 78.6264 160.707 75.1854C160.707 71.5902 159.474 68.6114 157.934 68.6114C157.882 68.6114 157.831 68.56 157.831 68.5087C157.831 68.4573 157.882 68.406 157.934 68.406C159.474 68.406 160.707 65.4785 160.707 61.832V55.1553C160.707 51.5602 159.474 48.5813 157.934 48.5813H156.239V73.5932C156.239 74.415 156.906 75.134 157.78 75.134C157.831 75.134 157.882 75.1854 157.882 75.2367C157.882 75.2881 157.831 75.3395 157.78 75.3395H150.743C150.692 75.3395 150.641 75.2881 150.641 75.2367C150.641 75.1854 150.692 75.134 150.743 75.134C151.565 75.134 152.284 74.4663 152.284 73.5932V50.1735C152.284 49.3517 151.616 48.6327 150.743 48.6327C150.692 48.6327 150.641 48.5813 150.641 48.53C150.641 48.4786 150.692 48.4272 150.743 48.4272H157.985C161.734 48.4272 164.764 51.4574 164.764 55.2067V61.8833C164.764 65.1703 162.402 67.9437 159.269 68.56C162.402 69.1764 164.764 71.9497 164.764 75.2367C164.764 78.4724 165.792 81.2458 167.024 81.2458C167.024 81.2458 167.076 81.2971 167.076 81.3485Z"/>
    <path d="M197.119 69.5877C197.17 69.5877 197.221 69.6391 197.221 69.6904V75.1859C197.221 75.2372 197.17 75.2886 197.119 75.2886H183.2C183.149 75.2886 183.098 75.2372 183.098 75.1859C183.098 75.1345 183.149 75.0831 183.2 75.0831C184.022 75.0831 184.741 74.4155 184.741 73.5424V50.1739C184.741 49.3522 184.073 48.6332 183.2 48.6332C183.149 48.6332 183.098 48.5818 183.098 48.5305C183.098 48.4791 183.149 48.4277 183.2 48.4277H190.237C190.288 48.4277 190.339 48.4791 190.339 48.5305C190.339 48.5818 190.288 48.6332 190.237 48.6332C189.415 48.6332 188.696 49.3008 188.696 50.1739V75.1345H191.572C194.551 75.1345 196.965 72.7206 196.965 69.7418C197.016 69.6391 197.067 69.5877 197.119 69.5877Z"/>
    <path d="M226.704 48.5301C226.704 48.5815 226.652 48.6328 226.601 48.6328C225.728 48.6328 224.906 49.3005 224.752 50.1736L220.849 69.7414V73.5934C220.849 74.4151 221.516 75.1341 222.389 75.1341C222.441 75.1341 222.492 75.1855 222.492 75.2369C222.492 75.2882 222.441 75.3396 222.389 75.3396H215.353C215.302 75.3396 215.251 75.2882 215.251 75.2369C215.251 75.1855 215.302 75.1341 215.353 75.1341C216.175 75.1341 216.894 74.4665 216.894 73.5934V69.7414L212.991 50.1736C212.837 49.3005 212.015 48.6328 211.142 48.6328C211.09 48.6328 211.039 48.5815 211.039 48.5301C211.039 48.4787 211.09 48.4274 211.142 48.4274H216.535H218.178C218.229 48.4274 218.281 48.4787 218.281 48.5301C218.281 48.5815 218.229 48.6328 218.178 48.6328C217.767 48.6328 217.459 48.7869 217.202 49.0437C216.945 49.3005 216.894 49.7114 216.945 50.1222L220.746 69.0738L224.547 50.1222C224.649 49.7114 224.547 49.3518 224.29 49.0437C224.084 48.7869 223.725 48.6328 223.314 48.6328C223.263 48.6328 223.211 48.5815 223.211 48.5301C223.211 48.4787 223.263 48.4274 223.314 48.4274H224.957H226.601C226.652 48.376 226.704 48.4274 226.704 48.5301Z"/>
    <path d="M10.5302 15.9681C10.1707 16.0195 9.45166 16.1735 8.42448 16.3276C7.39729 16.533 6.52419 16.6871 5.7538 16.7898C5.03477 16.8926 4.26438 16.9953 3.54536 17.0466C3.03176 17.098 2.72361 17.0466 2.56953 16.8926L2.36409 16.6871C2.26138 16.5844 2.26138 16.3276 2.36409 16.0708C2.36409 16.0195 2.41545 15.9681 2.46681 15.8654L2.92904 15.5572C3.03176 15.4545 3.494 15.2491 4.21302 14.8896C5.18885 14.4787 6.31875 14.0164 7.65409 13.6056C8.98943 13.1947 10.0166 12.8865 10.8384 12.6298C11.6601 12.4243 12.8414 12.1162 14.5362 11.7053C27.4274 8.62373 39.1886 7.64791 49.82 8.67509C49.8713 8.67509 50.0254 8.72645 50.2308 8.77781C50.4363 8.82917 50.6417 8.88053 50.7444 8.88053C51.4121 8.98325 51.823 9.18869 51.9771 9.39412L52.1825 9.59956C52.3879 9.85635 52.3366 10.1132 52.0284 10.4213L51.6689 10.7808L51.6175 10.8322C51.5662 10.8835 51.5662 10.8835 51.5148 10.9349C51.3607 11.0376 51.258 11.0376 51.1553 10.9349L50.9499 10.7295C50.8985 10.6781 50.8472 10.5754 50.8472 10.4727C50.8472 10.3699 50.8472 10.2672 50.9499 10.2159L51.0012 10.1645C50.8472 10.1132 50.6931 10.0618 50.4876 10.0104C50.2308 9.95907 49.974 9.90771 49.7173 9.90771C49.4605 9.85635 49.1009 9.85635 48.7414 9.85635C48.3819 9.85635 48.1251 9.85635 48.0224 9.805C40.5753 9.24004 32.0497 9.75364 22.4969 11.3458C22.4969 11.3971 22.4969 11.4485 22.4969 11.4998C22.4969 11.5512 22.4969 11.6026 22.4455 11.6539C22.4455 11.7053 22.4455 11.7566 22.3942 11.808C22.3942 11.8594 22.3942 11.9107 22.3428 11.9621C21.7779 14.376 21.1102 16.7898 20.3912 19.2037C19.6721 21.6176 18.799 24.0828 17.7718 26.6508C16.796 29.2188 15.9229 31.3759 15.1525 33.1221C14.4335 34.8683 13.4063 37.1794 12.1737 40.0042C11.7628 40.9287 11.3006 41.9558 10.787 42.983C10.2734 44.0102 9.86253 44.986 9.45166 45.8078C9.04079 46.6295 8.57855 47.6567 7.96224 48.7866C7.39729 49.9165 6.93506 50.8923 6.57555 51.6114C6.21603 52.3304 5.70244 53.3062 5.08613 54.5902C4.41846 55.8742 3.95623 56.7986 3.64807 57.415C3.59671 57.569 3.494 57.7745 3.33992 58.0313C3.18584 58.2881 3.08312 58.4935 2.9804 58.7503C2.87769 58.9557 2.77497 59.2125 2.62089 59.4693C2.51817 59.7261 2.36409 59.9829 2.31273 60.1884C2.36409 60.137 2.46681 60.0343 2.72361 59.8288C2.72361 59.7775 2.77497 59.7775 2.77497 59.7261C4.3671 57.9285 6.52419 55.4119 9.09215 52.1763L9.45166 51.8168C9.60574 51.6627 9.75982 51.6627 9.96525 51.8168L10.1707 52.0222C10.3248 52.1763 10.3248 52.3304 10.1193 52.4845V52.5358C9.96525 52.7413 9.6571 53.1521 9.09215 53.8198C8.57855 54.4875 8.16768 54.9497 7.91088 55.2579C7.65409 55.566 7.29457 56.0283 6.83234 56.5932C6.37011 57.1582 5.85652 57.7231 5.34293 58.2881C4.82933 58.853 4.31574 59.4693 3.75079 60.0856C3.75079 60.0856 3.64807 60.1883 3.59671 60.2911C3.494 60.3938 3.39128 60.4965 3.33992 60.5992C3.28856 60.7019 3.18584 60.8047 3.03176 60.9074C2.92904 61.0615 2.77497 61.1642 2.67225 61.2669C2.56953 61.3696 2.46681 61.4723 2.31273 61.575C2.21002 61.6778 2.05594 61.7805 1.95322 61.8318C1.8505 61.8832 1.74778 61.9346 1.59371 61.9859C1.49099 62.0373 1.38827 62.0373 1.28555 62.0373C1.18283 62.0373 1.08011 61.9859 1.02876 61.8832C0.823319 61.421 0.926037 60.8047 1.23419 59.9829C2.21002 57.7745 3.85351 54.4875 6.11331 50.0706C8.37312 45.6537 10.0166 42.264 11.0438 39.9528C12.2764 37.1281 13.2522 34.9196 13.9713 33.2248C14.6903 31.5299 15.512 29.4756 16.5392 26.959C17.5151 24.4424 18.3882 22.0285 19.1072 19.7173C19.8262 17.4062 20.4939 15.095 21.0075 12.7325C19.9803 14.2732 19.4667 15.095 19.4667 15.095L19.1072 15.4545C18.9531 15.6086 18.799 15.6086 18.645 15.4545L18.4395 15.1977C18.2854 15.0436 18.2854 14.8896 18.4395 14.7355C18.4395 14.7355 18.4395 14.6841 18.4909 14.6841C18.7477 14.2732 19.1585 13.7083 19.6208 12.9893C20.083 12.2702 20.3912 11.808 20.4939 11.6539C17.2069 12.2702 14.3821 12.8352 11.9683 13.4515C9.55438 14.0678 7.29458 14.7868 5.13749 15.7113C5.70244 15.6599 6.26739 15.5572 6.8837 15.4545C7.50001 15.3518 8.16768 15.1977 8.88671 15.095C9.60574 14.9409 10.1707 14.8382 10.5816 14.7868C10.6843 14.7355 10.787 14.7868 10.8897 14.8896L11.0952 15.095H11.1465C11.3006 15.2491 11.3006 15.4031 11.1465 15.5572L10.7356 15.8654C10.6843 15.9167 10.6329 15.9681 10.5302 15.9681Z"/>
    <path d="M21.3169 29.6297C23.32 23.2611 25.2202 17.9711 26.9665 13.8624C27.5314 12.6298 27.8909 11.808 28.0964 11.3458C28.3018 10.8836 28.6613 10.1645 29.1749 9.086C29.6885 8.00746 30.1507 7.18571 30.5102 6.62076C30.8698 6.05581 31.332 5.33678 31.8969 4.56639C32.4619 3.79601 33.0268 3.07698 33.5918 2.51203H33.6432L34.0027 2.10115H34.054C34.5163 1.63892 35.0812 1.27941 35.6975 0.919891C36.3652 0.611736 36.8274 0.611736 37.1869 0.971251L37.3924 1.17669L37.4437 1.12533C37.5464 1.22805 37.5978 1.33076 37.6492 1.48484C37.7005 1.63892 37.7519 1.84436 37.8032 2.04979C37.8546 2.35795 37.8546 2.71746 37.7519 3.07698C37.7005 3.43649 37.5978 3.89872 37.4437 4.36096C37.2897 4.82319 37.1356 5.28542 36.9815 5.69629C36.8274 6.10717 36.622 6.62076 36.3138 7.18571C36.0057 7.75066 35.8002 8.21289 35.5948 8.62377C35.3894 9.03464 35.1326 9.49687 34.7731 10.1132C34.4135 10.7295 34.1567 11.1404 34.0027 11.4485C33.8486 11.7053 33.5918 12.1676 33.2323 12.7325C32.8728 13.2975 32.6673 13.657 32.5646 13.7597C26.5042 23.8261 23.0118 29.5783 22.036 30.965C21.4197 32.9167 20.8547 34.8169 20.4438 36.6145C20.033 38.4635 19.8789 39.5934 20.033 40.1069C20.1357 40.1069 20.2384 40.0556 20.3411 39.9529C20.6493 39.5934 21.0602 39.0284 21.471 38.3094C24.0903 34.0466 26.042 31.3245 27.2746 30.0405L27.6341 29.681L27.6855 29.6297C28.5072 28.8079 29.1749 28.4484 29.6371 28.6025C29.7399 28.6538 29.7912 28.7052 29.8939 28.7566L30.0994 28.962C30.3048 29.1161 30.3562 29.4242 30.3562 29.8351C30.3048 30.246 30.2534 30.6569 30.1507 31.0164C30.048 31.3759 29.9453 31.8381 29.8426 32.3003C29.7399 32.7626 29.7399 33.1221 29.7912 33.4302C29.7912 33.4816 29.7912 33.4816 29.8426 33.533C30.0994 33.6357 30.5616 33.6357 31.2293 33.4302C31.8969 33.2248 32.616 32.968 33.3864 32.5571C34.1567 32.1976 34.8758 31.7868 35.5948 31.3759C36.3138 30.965 36.9301 30.6055 37.4437 30.2973L38.1628 29.8865C38.3168 29.7837 38.4709 29.7837 38.6764 29.9378L38.8818 30.1433V30.1946C39.0359 30.3487 39.0359 30.5541 38.8818 30.7082L38.4709 31.0164C38.4709 31.0164 38.4196 31.0677 38.3682 31.0677C38.3168 31.1191 38.2141 31.1704 38.1114 31.2218C38.0087 31.2732 37.7519 31.4272 37.3924 31.684C37.0329 31.8895 36.6733 32.1463 36.3138 32.3517C35.9543 32.5571 35.4921 32.8139 35.0299 33.0707C34.5163 33.3275 34.054 33.5843 33.5918 33.7898C33.1296 33.9952 32.6673 34.2006 32.1537 34.4061C31.6401 34.6115 31.2293 34.7142 30.8184 34.8169C30.4075 34.9197 30.048 34.9197 29.7399 34.9197C29.3803 34.8683 29.1235 34.7656 28.9695 34.6115L28.764 34.4061V34.3547C28.61 34.2006 28.5072 33.9952 28.4559 33.7384C28.4045 33.3275 28.4559 32.8653 28.5586 32.3517C28.6613 31.8381 28.8154 31.3245 28.9181 30.8623C29.0208 30.4001 29.0722 30.0919 29.0722 29.9378C28.8667 29.9892 28.5586 30.1946 28.1991 30.5028C26.8124 31.9408 24.9635 34.6629 22.5496 38.6175C21.9846 39.542 21.5224 40.1583 21.1629 40.5178L20.8034 40.9287H20.752C20.187 41.4936 19.6735 41.5964 19.2112 41.2368L19.1599 41.1855L18.9544 40.98H18.9031C18.8004 40.826 18.6976 40.5692 18.6463 40.2097C18.5949 39.8501 18.6463 39.4393 18.6976 39.0284C18.749 38.5662 18.8004 38.0526 18.9544 37.4363C19.0571 36.82 19.2112 36.255 19.3653 35.6901C19.5194 35.1251 19.6735 34.5602 19.8789 33.8925C20.0843 33.2248 20.2384 32.7112 20.3411 32.249C20.4952 31.8381 20.6493 31.3759 20.8034 30.8623C20.9574 30.3487 21.0602 30.0405 21.1115 29.9378C21.2656 29.8351 21.2656 29.7324 21.3169 29.6297ZM23.2172 27.3699C24.8094 24.9046 27.5314 20.2823 31.4861 13.5029C31.5374 13.4002 31.6915 13.1947 31.8456 12.8866C35.6462 6.67212 37.1869 2.97426 36.4679 1.89572C36.057 1.69028 35.3894 1.99843 34.4649 2.9229C34.1567 3.23105 33.8486 3.59057 33.5918 3.89872C32.8728 4.82319 32.1024 5.90173 31.3833 7.18571C30.6643 8.46969 30.0994 9.49687 29.6885 10.4213C29.2776 11.2944 28.764 12.5271 28.0964 14.0165C26.6069 17.5089 24.9635 21.9772 23.2172 27.3699Z"/>
    <path d="M38.7775 30.9652C38.8289 31.7869 39.0857 32.4546 39.5993 32.9682C40.0102 33.379 40.5237 33.6358 41.0887 33.7899C41.5509 33.8926 42.0645 33.8926 42.5781 33.7899C43.1431 33.6872 43.708 33.4818 44.3243 33.1736C44.9406 32.8655 45.557 32.5059 46.0705 32.1978C46.6355 31.8383 47.2518 31.4788 48.0222 31.0165C48.7412 30.5543 49.3575 30.1948 49.8711 29.938C50.0252 29.8866 50.1279 29.8866 50.2306 29.9893L50.4361 30.1948C50.4361 30.1948 50.4874 30.2461 50.4874 30.2975C50.5388 30.4002 50.5388 30.5543 50.4361 30.657L50.0766 31.0165C50.0766 31.0165 50.0252 31.0679 49.9738 31.0679C49.5116 31.3247 48.998 31.6842 48.3817 32.0437C47.7654 32.4032 47.2518 32.7627 46.8409 33.0195C46.4301 33.2763 45.9678 33.5845 45.4542 33.8413C44.9406 34.1494 44.4784 34.3549 44.0675 34.5603C43.6567 34.7144 43.2458 34.8685 42.7836 34.9712C42.3727 35.0739 41.9104 35.1766 41.4996 35.1253C41.0887 35.1253 40.6778 35.0225 40.267 34.8685C40.0615 34.8171 39.9074 34.7144 39.702 34.6117C39.3938 34.4576 39.1371 34.2522 38.9316 33.9954L38.7262 33.7899H38.6748V33.7386C38.2639 33.379 37.9558 32.9168 37.7504 32.4032C37.5449 31.8896 37.4422 31.3247 37.4936 30.657C37.5449 29.9893 37.7504 29.373 38.1099 28.7567C38.3667 28.3458 38.6235 27.9863 38.9316 27.6782L39.2911 27.3187C39.8047 26.8051 40.3697 26.3942 41.0373 26.1374C41.705 25.8806 42.27 25.7779 42.7836 25.8292C43.1431 25.8806 43.3999 25.9833 43.6053 26.1888L43.8107 26.3942C44.0162 26.5996 44.0675 26.9078 44.0675 27.2159C44.0162 27.6782 43.7594 28.089 43.3485 28.5513L42.989 28.9108H42.9376C42.424 29.4244 41.8077 29.8353 40.986 30.1948C40.1642 30.5543 39.4452 30.8111 38.7775 30.9652ZM38.8803 29.6812C39.4966 29.6298 40.1642 29.373 40.8833 29.0649C41.6023 28.7054 42.1672 28.3458 42.6295 27.9863C42.6808 27.935 42.7322 27.8836 42.7322 27.8323C42.7836 27.5755 42.7836 27.4214 42.7322 27.2673C42.6808 27.2673 42.6295 27.2159 42.5781 27.2159C42.27 27.1132 41.8077 27.1646 41.2428 27.4214C40.6778 27.6268 40.1642 27.9863 39.702 28.3972C39.2911 28.7567 39.0343 29.219 38.8803 29.6812Z"/>
</svg>