<svg width="159" height="82" viewBox="0 0 159 82" fill="#3c474e" xmlns="http://www.w3.org/2000/svg">
    <path d="M34.9484 81.5299C34.3563 81.5299 33.5528 81.403 32.5801 81.1493C31.565 80.8955 30.8461 80.1766 30.4231 78.9501C30.2117 78.358 30.1271 77.7659 30.1271 77.2161C30.1271 75.8628 30.7192 74.3402 31.9457 72.6909C33.1721 71.0415 35.1176 69.4344 37.9089 67.9964C40.6578 66.5585 43.7452 65.6704 47.1708 65.332C47.8052 65.2474 48.4396 65.2474 49.074 65.2474C51.823 65.2474 54.572 65.8395 57.2787 66.9814C57.913 66.3047 58.5051 65.6704 59.0972 64.9937C61.8039 61.9064 63.4533 59.1151 63.9608 56.7044C64.0031 56.5352 64.0031 56.3661 64.0031 56.2392C64.0031 55.6471 63.7494 55.1396 63.2419 54.7167C62.3114 53.9554 60.2814 53.5748 57.1518 53.5748C53.5992 53.5748 47.1708 54.3361 37.782 55.8586C33.7219 56.5352 29.7042 57.1273 25.6864 57.6348C21.288 58.2269 17.4395 58.4807 14.0984 58.4807C11.7723 58.4807 9.69998 58.3115 7.92371 57.9309C3.99054 57.0005 1.5799 55.478 0.691766 53.4056C0.353429 52.6444 0.226562 51.7985 0.226562 50.9527C0.226562 49.4302 0.860945 47.4847 2.12971 45.0741C3.39847 42.7057 5.76681 39.8299 9.19248 36.4465C12.6181 33.1054 16.6782 29.6797 21.3726 26.2118C26.0671 22.7438 31.0998 19.445 36.5132 16.2731C41.6729 13.2704 47.4669 10.5637 53.9376 8.15304C60.4083 5.7001 66.6252 3.83924 72.673 2.52819C77.452 1.47088 81.5544 0.963379 85.0223 0.963379C85.9527 0.963379 86.8409 1.00567 87.6444 1.09026C90.478 1.3863 92.3389 2.23214 93.227 3.67007C93.5653 4.17758 93.6922 4.72738 93.6922 5.40405C93.6922 6.67282 93.0155 8.44909 91.6199 10.7329C90.2242 13.0589 87.0523 16.4 82.1041 20.7984C81.6389 21.179 81.216 21.3905 80.8354 21.3905C80.7085 21.3905 80.497 21.3482 80.201 21.2213C79.8204 21.0944 79.6512 20.7138 79.6512 20.2063C79.6512 19.8257 79.8626 19.5296 80.2433 19.2759C84.5994 16.8652 87.6867 14.4123 89.5476 11.9593C91.0701 9.92931 91.8313 8.19533 91.8313 6.67282C91.8313 6.33448 91.7044 5.7001 91.493 4.68509C91.2815 3.67008 89.9705 3.12028 87.6021 2.95111H87.1792C83.5421 2.95111 78.8477 3.71237 73.1382 5.27718C67.4288 6.84199 61.5925 8.74513 55.6716 11.0712C49.7507 13.3973 44.8871 15.5965 40.9962 17.7534C35.5828 20.7561 30.4654 23.8857 25.6018 27.1422C20.7383 30.3987 16.4667 33.6129 12.7873 36.7848C9.10789 39.9567 6.27433 42.8749 4.37119 45.6239C2.84867 47.7808 2.0874 49.7262 2.0874 51.3756C2.0874 51.7985 2.21428 52.6021 2.51032 53.7863C2.80637 54.9704 4.70951 55.9855 8.21976 56.789C9.91145 57.1273 11.8992 57.2965 14.183 57.2965C17.2703 57.2965 21.0766 57.0005 25.6018 56.4507C31.565 55.6471 35.5828 55.055 37.6974 54.6744C47.1285 53.1519 53.6838 52.3906 57.321 52.3906C58.7166 52.3906 59.9431 52.4752 61.0427 52.6444C63.8339 53.1096 65.2296 54.2938 65.2296 56.1546C65.2296 56.4084 65.1873 56.6621 65.145 56.9159C64.4683 60.0455 62.2268 63.598 58.4205 67.5312C60.5352 68.6308 62.4806 70.1956 64.2992 72.2679C64.5106 72.564 64.6375 72.8177 64.6375 73.0292C64.6375 73.5367 64.3837 73.7905 63.8339 73.7905C63.5802 73.7905 63.3264 73.6213 63.115 73.3252C61.5502 71.0415 59.7739 69.3075 57.8284 68.1233C55.1217 70.83 52.2036 73.3252 49.0317 75.5667C43.1531 79.5422 38.5009 81.5299 34.9484 81.5299ZM35.0753 80.388C38.2895 80.388 42.6879 78.4426 48.1858 74.594C51.2309 72.4794 54.0222 70.111 56.602 67.5312C54.2759 66.4739 51.9075 65.9241 49.4546 65.9241C48.7779 65.9241 47.4669 66.051 45.5637 66.2624C43.6183 66.4739 41.3345 67.3197 38.7124 68.7577C36.0903 70.1956 34.1026 71.845 32.7069 73.6636C31.7765 74.89 31.3113 76.0742 31.3113 77.1738C31.3113 78.9924 32.284 80.0497 34.2717 80.3034C34.5255 80.388 34.8215 80.388 35.0753 80.388Z"/>
    <path d="M81.8502 81.1494C81.3427 81.1494 80.9621 80.938 80.666 80.5573C80.5391 80.2613 80.4545 79.8384 80.4545 79.2886C80.4545 77.9775 80.9198 75.3977 81.8502 71.4645C82.3154 69.6037 82.5269 68.5041 82.5269 68.208C82.5269 68.0812 82.4846 68.0389 82.4423 68.0389C82.4 68.0389 81.7656 68.5041 80.4968 69.4345C79.2281 70.3649 78.0862 71.1685 77.0712 71.8452C76.606 72.1835 76.2254 72.3104 75.887 72.3104C75.8447 72.3104 75.7178 72.3104 75.5064 72.2681C75.2949 72.2681 75.2103 71.8452 75.168 70.9993C75.168 69.8574 75.2949 68.3349 75.591 66.4741C75.887 64.6132 76.1831 63.1753 76.5214 62.1603L76.5637 61.9911C76.5637 61.9488 76.5637 61.9488 76.5214 61.9488C76.4368 61.9488 76.2254 62.118 75.887 62.4563C75.4218 62.9215 73.9416 64.6132 71.4886 67.4891C70.0084 69.223 68.6127 70.7879 67.344 72.2258C65.7369 74.0443 64.7219 74.9325 64.299 74.9325C64.1721 74.9325 64.0875 74.8902 63.9606 74.8479C63.6223 74.6364 63.4531 74.2558 63.4531 73.706C63.4531 73.4945 63.4954 73.0716 63.6223 72.4795C63.8337 71.5068 64.7642 69.2653 66.4136 65.7128C67.8515 62.8369 68.5705 61.0607 68.5705 60.384C68.5705 60.0879 68.4859 59.9188 68.2744 59.8765C67.9784 59.7919 67.8092 59.665 67.8092 59.4958C67.8092 59.369 67.8938 59.1998 68.063 59.0306C68.4013 58.6923 68.6973 58.5654 68.9934 58.5654C69.078 58.5654 69.1626 58.5654 69.2048 58.6077C69.7124 58.9883 69.9661 59.4958 69.9661 60.0879C69.9661 60.2994 69.9238 60.4686 69.8815 60.68C69.7546 61.103 69.1203 62.6255 67.8938 65.2476L66.1598 69.0539C65.0602 71.5491 64.5104 72.987 64.5104 73.41C64.5104 73.4945 64.5527 73.5368 64.595 73.5368C65.1025 73.4523 65.8215 72.8602 66.7096 71.7183C67.5977 70.5764 68.6127 69.223 69.7123 67.6159C70.6851 66.2203 71.6578 64.867 72.6728 63.5559C74.7874 60.7646 76.3945 59.369 77.4941 59.369L77.7478 59.4113C78.4245 59.6227 78.7206 60.2571 78.7206 61.3144C78.7206 62.8792 78.2131 65.2053 77.1558 68.3349C76.6906 69.8997 76.4368 70.7879 76.4368 70.9147C76.4368 70.9993 76.4791 70.9993 76.5214 70.9993C76.6483 70.9993 77.1981 70.4918 78.0862 69.4768C80.7083 66.6009 82.5269 65.163 83.5842 65.163C83.7956 65.163 83.9648 65.2053 84.134 65.2899C84.5146 65.5859 84.726 66.0934 84.726 66.7701C84.726 67.7851 84.1762 69.6883 83.0344 72.5218C81.8925 75.3554 81.3427 77.3008 81.3427 78.4004C81.3427 78.9925 81.4695 79.4154 81.7656 79.7538C81.8925 79.8384 82.0193 79.8807 82.1885 79.8807C82.696 79.8807 83.6265 79.5 84.8529 78.6965C86.1217 77.8929 87.6019 76.751 89.3359 75.2708C91.0699 73.7906 92.5924 72.3104 93.9458 70.9147C95.2991 69.4768 96.0604 68.4195 96.2718 67.6582C96.3987 67.3199 96.5256 67.1507 96.6947 67.1507C96.8216 67.1507 96.9062 67.2353 97.0331 67.3622C97.16 67.4891 97.2022 67.7005 97.2022 67.912C97.2022 68.1234 97.0754 68.3349 96.8216 68.5887C96.3141 69.1385 95.5528 69.9843 94.4532 71.1262C91.5774 74.1712 88.9553 76.6242 86.5869 78.485C84.4723 80.3036 82.9075 81.1494 81.8502 81.1494Z"/>
    <path d="M94.0302 32.2596H89.6742V31.2446C89.6742 30.7794 89.6742 30.145 89.6319 29.3414C89.5896 28.5379 89.4627 27.7343 89.2512 26.9308C89.0398 26.1272 88.7014 25.4505 88.2362 24.8585C87.771 24.2664 87.0943 23.9703 86.2485 23.9703C85.4027 23.9703 84.726 24.2664 84.2607 24.8585C83.7955 25.4505 83.4572 26.1272 83.2457 26.9308C83.0343 27.7343 82.9074 28.5379 82.8651 29.3414C82.8228 30.145 82.8228 30.7794 82.8228 31.2446C82.8228 31.7521 82.992 32.3865 83.3303 33.0631C83.6687 33.7398 84.0493 34.4588 84.5568 35.1777C85.0643 35.8967 85.5718 36.6157 86.1639 37.2923C86.7137 37.969 87.2635 38.5611 87.8133 39.0686C88.067 39.3224 88.5323 39.8299 89.2512 40.5488C89.9279 41.2678 90.6469 42.1559 91.3236 43.1709C92.0425 44.186 92.6346 45.2856 93.2267 46.4697C93.7765 47.6539 94.0726 48.8381 94.0726 49.98C94.0726 51.0796 93.8611 52.0946 93.4382 53.025C93.0152 53.9555 92.4655 54.8013 91.7465 55.5203C91.0275 56.2392 90.224 56.789 89.2512 57.2119C88.3208 57.6349 87.3058 57.8463 86.2062 57.8463C85.1066 57.8463 84.0916 57.6349 83.1612 57.2119C82.2307 56.789 81.3849 56.2392 80.6659 55.5203C79.9469 54.8013 79.3971 53.9977 78.9742 53.025C78.5513 52.0523 78.3398 51.0373 78.3398 49.98V48.9227H82.7805V49.9377C82.7805 50.4029 82.7805 51.0373 82.8228 51.8408C82.8651 52.6444 82.992 53.4479 83.2034 54.2515C83.4149 55.055 83.7532 55.7317 84.2185 56.3238C84.6837 56.9159 85.3603 57.2119 86.2062 57.2119C87.052 57.2119 87.7287 56.9159 88.1939 56.3238C88.6591 55.7317 88.9975 55.055 89.209 54.2515C89.4204 53.4479 89.5473 52.6444 89.5895 51.8408C89.6318 51.0373 89.6319 50.4029 89.6319 49.9377C89.6319 49.4302 89.4627 48.7958 89.1243 48.1191C88.786 47.4425 88.4054 46.7235 87.8979 46.0045C87.3904 45.2856 86.8829 44.5666 86.2908 43.8899C85.6987 43.2132 85.1489 42.6212 84.6414 42.1136C84.3876 41.8599 83.9224 41.3524 83.2034 40.6334C82.5268 39.9145 81.8078 39.0263 81.1311 38.0113C80.4121 36.9963 79.7778 35.8967 79.228 34.7125C78.6782 33.5283 78.3821 32.3442 78.3821 31.2023C78.3821 30.1027 78.5936 29.0877 79.0165 28.1572C79.4394 27.2268 79.9892 26.381 80.7082 25.662C81.4272 24.943 82.2307 24.3932 83.2034 23.9703C84.1339 23.5474 85.1912 23.3359 86.2485 23.3359C87.3058 23.3359 88.3631 23.5474 89.2935 23.9703C90.2239 24.3932 91.0698 24.943 91.7888 25.662C92.5077 26.381 93.0575 27.1845 93.4805 28.1572C93.9034 29.13 94.1148 30.145 94.1148 31.2023V32.2596H94.0302Z"/>
    <path d="M110.314 57.2544V57.7619H106.804C106 57.7619 105.196 57.5927 104.477 57.2967C103.759 57.0006 103.124 56.5777 102.574 56.0279C102.025 55.4781 101.602 54.8437 101.306 54.1248C101.01 53.4058 100.84 52.6445 100.84 51.7987V30.2297H98.4297V29.7222H100.84V23.04H105.196V29.7222H109.806V30.2297H105.196V55.6896C105.196 56.1548 105.323 56.5354 105.619 56.8315C105.915 57.1275 106.296 57.2544 106.761 57.2544H110.314Z"/>
    <path d="M119.702 29.6377C120.59 29.6377 121.436 29.8069 122.281 30.1875C123.127 30.5681 123.889 31.1179 124.523 31.8792C125.2 32.6404 125.707 33.5709 126.13 34.6705C126.553 35.7701 126.764 37.0388 126.764 38.519V57.6774H122.324L122.366 56.4086C121.816 56.7893 121.182 57.0853 120.547 57.339C119.913 57.5928 119.194 57.7197 118.433 57.7197C117.883 57.7197 117.333 57.6351 116.868 57.5082C115.557 57.1276 114.5 56.4932 113.654 55.5205C112.808 54.5478 112.3 53.4482 112.174 52.1371C111.962 50.3608 112.343 48.8383 113.358 47.5696C114.373 46.3008 115.895 45.1166 117.841 44.017C118.856 43.4672 119.744 43.002 120.463 42.706C121.182 42.3676 121.859 42.1139 122.408 41.987V38.6036C122.408 37.8001 122.366 36.9542 122.324 35.9815C122.281 35.0088 122.155 34.1207 121.985 33.2325C121.816 32.3867 121.562 31.6677 121.182 31.0756C120.843 30.4835 120.336 30.1875 119.744 30.1875C119.152 30.1875 118.687 30.4835 118.306 31.0756C117.925 31.6677 117.672 32.3867 117.502 33.2325C117.333 34.0784 117.206 35.0088 117.164 35.9815C117.122 36.9542 117.079 37.8424 117.079 38.6036H112.723C112.723 37.1234 112.935 35.8546 113.358 34.755C113.781 33.6554 114.288 32.725 114.965 32.0061C115.642 31.2448 116.361 30.695 117.249 30.3144C118.094 29.9337 118.983 29.7646 119.871 29.7646L119.702 29.6377ZM122.408 55.6897L122.451 42.4522C121.859 42.6637 121.351 42.9174 120.928 43.1289C120.547 43.3404 120.125 43.6364 119.659 43.9324C118.983 44.3977 118.475 44.8629 118.01 45.3281C117.587 45.7933 117.206 46.3431 116.995 46.9352C116.741 47.5273 116.572 48.2039 116.487 48.9652C116.403 49.7265 116.361 50.5723 116.361 51.5027C116.361 52.8984 116.487 54.0403 116.783 55.013C117.079 55.9857 117.46 56.5778 117.968 56.7893C118.729 57.1276 119.49 57.1699 120.336 56.8738C121.14 56.6201 121.859 56.1972 122.408 55.6051V55.6897Z"/>
    <path d="M141.65 57.2544V57.7619H138.139C137.336 57.7619 136.532 57.5927 135.813 57.2967C135.094 57.0006 134.46 56.5777 133.91 56.0279C133.36 55.4781 132.938 54.8437 132.642 54.1248C132.345 53.4058 132.176 52.6445 132.176 51.7987V30.2297H129.766V29.7222H132.176V23.04H136.532V29.7222H141.142V30.2297H136.532V55.6896C136.532 56.1548 136.659 56.5354 136.955 56.8315C137.251 57.1275 137.632 57.2544 138.097 57.2544H141.65Z"/>
    <path d="M147.784 44.5243V54.6322C147.784 55.5626 148.038 56.2393 148.587 56.6622C149.095 57.1274 149.772 57.3389 150.617 57.3389C150.913 57.3389 151.252 57.2966 151.59 57.212C151.929 57.1274 152.267 57.0005 152.563 56.7891C152.859 56.5776 153.155 56.2816 153.366 55.9432C153.578 55.6049 153.705 55.182 153.705 54.6322V48.9227H158.061V50.7413C158.061 51.8832 157.849 52.8982 157.384 53.7863C156.961 54.6745 156.369 55.3934 155.65 55.9855C154.931 56.5776 154.17 57.0428 153.282 57.3389C152.394 57.6349 151.506 57.8041 150.617 57.8041C148.757 57.8041 147.149 57.212 145.796 56.0278C145.289 55.5626 144.781 54.8859 144.274 54.0401C143.766 53.1519 143.555 52.0523 143.555 50.6567V36.7426C143.555 35.347 143.808 34.2474 144.274 33.3592C144.781 32.4711 145.289 31.8367 145.796 31.3715C147.149 30.1873 148.757 29.5952 150.617 29.5952C151.506 29.5952 152.394 29.7644 153.282 30.0604C154.17 30.3565 154.974 30.8217 155.65 31.4138C156.369 32.0059 156.919 32.7248 157.384 33.613C157.807 34.5011 158.061 35.5161 158.061 36.658V44.3129L147.784 44.5243ZM147.826 44.0168H153.62V32.9363C153.62 32.4288 153.493 31.9636 153.282 31.6252C153.07 31.2869 152.817 30.9909 152.478 30.7794C152.182 30.5679 151.844 30.3988 151.506 30.3565C151.167 30.2719 150.829 30.2296 150.533 30.2296C149.729 30.2296 149.053 30.4411 148.503 30.9063C147.995 31.3292 147.699 32.0059 147.699 32.9363L147.826 44.0168Z"/>
    <path d="M109.171 68.3769C109.509 68.3769 109.848 68.4192 110.186 68.5461C110.524 68.6729 110.82 68.8421 111.116 69.0536C111.37 69.265 111.624 69.5611 111.793 69.8994C111.962 70.2378 112.047 70.6184 112.047 71.0836V76.497C112.047 76.9622 111.962 77.3428 111.793 77.6812C111.624 78.0195 111.412 78.3155 111.116 78.527C110.863 78.7385 110.524 78.9499 110.186 79.0345C109.848 79.1614 109.509 79.2037 109.171 79.2037C108.452 79.2037 107.818 78.9922 107.31 78.527C107.099 78.3578 106.929 78.1041 106.718 77.7658C106.506 77.4274 106.422 77.0045 106.422 76.4547V71.0413C106.422 70.4915 106.506 70.0686 106.718 69.7302C106.929 69.3919 107.099 69.1381 107.31 68.969C107.818 68.5461 108.41 68.3346 109.171 68.3769ZM110.355 69.6034C110.355 69.3919 110.313 69.2227 110.228 69.0959C110.144 68.969 110.059 68.8421 109.932 68.7575C109.805 68.6729 109.678 68.6306 109.552 68.5884C109.425 68.5461 109.298 68.5461 109.171 68.5461C108.833 68.5461 108.579 68.6306 108.367 68.7998C108.156 68.969 108.071 69.2227 108.071 69.6034V78.0195C108.071 78.3578 108.156 78.6539 108.367 78.8231C108.579 78.9922 108.833 79.0768 109.171 79.0768C109.298 79.0768 109.425 79.0768 109.552 79.0345C109.678 78.9922 109.805 78.9499 109.932 78.8654C110.059 78.7808 110.144 78.6539 110.228 78.527C110.313 78.4001 110.355 78.231 110.355 78.0195V69.6034Z"/>
    <path d="M116.994 65.3738C116.868 65.5007 116.825 65.6275 116.825 65.7967V69.8145H118.644V70.0259H116.825V79.2456H115.134V70.0259H114.203V69.8145H115.134V67.2769C115.134 66.9386 115.176 66.6426 115.303 66.3888C115.43 66.0928 115.599 65.8813 115.81 65.6698C116.022 65.4584 116.275 65.2892 116.529 65.1623C116.825 65.0355 117.121 64.9932 117.417 64.9932H118.771V65.2046H117.417C117.248 65.2046 117.079 65.2469 116.994 65.3738Z"/>
    <path d="M135.983 68.9689C136.152 69.138 136.321 69.3918 136.49 69.6878C136.66 69.9839 136.744 70.4068 136.744 70.9566V79.2881H135.052V69.4764C135.052 69.3495 135.052 69.2226 135.01 69.0957C134.968 68.9689 134.926 68.842 134.799 68.7574C134.714 68.6728 134.63 68.6305 134.545 68.6305C134.46 68.5882 134.334 68.5882 134.249 68.5882C134.08 68.5882 133.911 68.6305 133.699 68.6728C133.53 68.7151 133.361 68.7997 133.234 68.8843C133.107 68.9689 132.98 69.0534 132.896 69.1803C132.811 69.3072 132.769 69.3918 132.769 69.4764V79.2881H131.077V69.4764C131.077 69.3495 131.077 69.2226 131.035 69.0957C130.992 68.9689 130.95 68.842 130.823 68.7574C130.739 68.6728 130.654 68.6305 130.569 68.6305C130.485 68.5882 130.358 68.5882 130.273 68.5882C130.104 68.5882 129.935 68.6305 129.724 68.6728C129.512 68.7151 129.385 68.7997 129.258 68.8843C129.132 68.9689 129.005 69.0534 128.92 69.1803C128.836 69.3072 128.793 69.3918 128.793 69.4764V79.2881H127.102V68.3768H128.793V68.7151C129.258 68.5037 129.766 68.3768 130.273 68.3768C130.992 68.3768 131.542 68.5882 132.007 69.0111C132.05 69.0111 132.092 69.0534 132.134 69.0957C132.43 68.8843 132.769 68.6728 133.149 68.5459C133.53 68.4191 133.911 68.3345 134.249 68.3345C134.968 68.3345 135.56 68.5459 135.983 68.9689Z"/>
    <path d="M140.34 66.5582C140.086 66.5582 139.875 66.4736 139.663 66.2622C139.494 66.093 139.367 65.8393 139.367 65.5855C139.367 65.3318 139.452 65.1203 139.663 64.9088C139.832 64.7397 140.086 64.6128 140.34 64.6128C140.594 64.6128 140.805 64.6974 141.017 64.9088C141.186 65.078 141.313 65.3318 141.313 65.5855C141.313 65.8393 141.228 66.0507 141.017 66.2622C140.847 66.4736 140.594 66.5582 140.34 66.5582ZM139.494 79.2459V68.3345H141.186V79.2459H139.494Z"/>
    <path d="M148.882 68.969C149.052 69.1381 149.221 69.3919 149.39 69.688C149.559 69.984 149.644 70.4069 149.644 70.9567V79.2883H147.952V69.4765C147.952 69.3496 147.952 69.2227 147.91 69.0959C147.867 68.969 147.825 68.8421 147.698 68.7575C147.614 68.6729 147.529 68.6306 147.444 68.6306C147.36 68.5884 147.233 68.5884 147.148 68.5884C146.979 68.5884 146.81 68.6307 146.599 68.6729C146.429 68.7152 146.26 68.7998 146.133 68.8844C146.007 68.969 145.88 69.0536 145.795 69.1804C145.711 69.3073 145.668 69.3919 145.668 69.4765V79.2883H143.977V68.3769H145.668V68.7152C146.133 68.5038 146.641 68.3769 147.148 68.3769C147.825 68.3346 148.417 68.5461 148.882 68.969Z"/>
    <path d="M157.976 64.9932V79.2456H156.284V78.9073C155.819 79.1187 155.311 79.2456 154.804 79.2456C154.085 79.2456 153.535 79.0342 153.07 78.6112C152.901 78.4421 152.732 78.1883 152.562 77.8923C152.393 77.5962 152.309 77.1733 152.309 76.6235V70.9564C152.309 70.4066 152.393 69.9836 152.562 69.6876C152.732 69.3915 152.901 69.1378 153.07 68.9686C153.493 68.5457 154.085 68.3342 154.804 68.3342C155.311 68.3342 155.819 68.4611 156.284 68.6726V64.9932H157.976ZM156.284 69.3915C156.284 69.307 156.242 69.2224 156.157 69.0955C156.073 68.9686 155.946 68.884 155.819 68.7995C155.692 68.7149 155.523 68.6303 155.354 68.588C155.184 68.5457 155.015 68.5034 154.804 68.5034C154.719 68.5034 154.635 68.5034 154.508 68.5457C154.423 68.588 154.296 68.6303 154.254 68.7149C154.169 68.7995 154.085 68.9263 154.043 69.0532C154 69.1801 154 69.307 154 69.4338V78.1883C154 78.3152 154 78.4421 154.043 78.5689C154.085 78.6958 154.127 78.8227 154.254 78.9073C154.339 78.9919 154.423 79.0342 154.508 79.0765C154.592 79.1187 154.719 79.1187 154.804 79.1187C154.973 79.1187 155.142 79.0765 155.354 79.0342C155.523 78.9919 155.692 78.9073 155.819 78.8227C155.946 78.7381 156.073 78.6535 156.157 78.5267C156.242 78.4421 156.284 78.3152 156.284 78.2306V69.3915Z"/>
</svg>