<svg width="178" height="48" viewBox="0 0 178 48" fill="#ffffff" xmlns="http://www.w3.org/2000/svg">
    <g clip-path="url(#clip0_1117_4316)">
    <path d="M70.7299 8.83323C70.6463 8.95807 70.5628 9.08291 70.4374 9.16614C70.3538 9.24937 70.2284 9.29098 70.0612 9.29098C69.894 9.29098 69.7268 9.20776 69.476 9.0413C69.267 8.87485 68.9744 8.70839 68.6401 8.50032C68.3057 8.29225 67.9295 8.1258 67.4279 7.95934C66.9681 7.79289 66.383 7.70966 65.756 7.70966C65.129 7.70966 64.5857 7.79289 64.0841 7.95934C63.6243 8.1258 63.2063 8.33387 62.872 8.62516C62.5376 8.91646 62.3286 9.24937 62.1614 9.62389C61.9942 9.99842 61.9106 10.4146 61.9106 10.8723C61.9106 11.4549 62.036 11.9127 62.3286 12.2872C62.6212 12.6617 62.9974 12.9946 63.4571 13.2443C63.9169 13.494 64.4603 13.7437 65.0455 13.9517C65.6306 14.1598 66.2576 14.3679 66.8428 14.5759C67.4279 14.784 68.0549 15.0337 68.6401 15.2834C69.2252 15.5331 69.7686 15.866 70.2284 16.2821C70.6881 16.6982 71.0643 17.156 71.3569 17.7386C71.6495 18.3212 71.7749 19.0286 71.7749 19.9025C71.7749 20.818 71.6077 21.6503 71.3151 22.441C71.0225 23.2316 70.5628 23.8974 69.9776 24.48C69.3924 25.0626 68.6819 25.5204 67.8041 25.8533C66.9263 26.1862 65.965 26.3526 64.8783 26.3526C63.5407 26.3526 62.3286 26.103 61.2419 25.6452C60.1551 25.1458 59.1938 24.5216 58.4414 23.6894L59.2356 22.3577C59.3192 22.2329 59.4028 22.1497 59.5281 22.108C59.6535 22.0248 59.7789 21.9832 59.9043 21.9832C60.1133 21.9832 60.3223 22.108 60.6149 22.3161C60.8657 22.5242 61.2001 22.7739 61.5762 23.0235C61.9524 23.2732 62.454 23.5229 62.9974 23.731C63.5407 23.939 64.2095 24.0639 65.0037 24.0639C65.6724 24.0639 66.2576 23.9807 66.7592 23.7726C67.2607 23.6061 67.7205 23.3148 68.0967 23.0235C68.4729 22.6906 68.7236 22.3161 68.9326 21.8584C69.1416 21.4006 69.2252 20.9012 69.2252 20.3186C69.2252 19.6944 69.0998 19.1951 68.8073 18.7789C68.5147 18.3628 68.1385 18.0299 67.6787 17.7802C67.2189 17.5305 66.6756 17.2808 66.0904 17.1144C65.5052 16.9479 64.8783 16.7399 64.2931 16.5318C63.6661 16.3237 63.081 16.1157 62.4958 15.866C61.9106 15.6163 61.3672 15.2834 60.9075 14.8672C60.4477 14.4511 60.0715 13.9517 59.7789 13.3275C59.4863 12.7033 59.361 11.9543 59.361 11.0388C59.361 10.3313 59.4863 9.62389 59.7789 8.91646C60.0715 8.25064 60.4895 7.62643 60.9911 7.12706C61.5344 6.58609 62.2032 6.16995 62.9974 5.87865C63.7915 5.54574 64.7111 5.4209 65.7142 5.4209C66.8846 5.4209 67.9295 5.58735 68.849 5.96188C69.8104 6.3364 70.6463 6.83577 71.3569 7.5432L70.7299 8.83323Z" />
    <path d="M92.341 5.62891V7.95928H85.6951V26.1445H82.8947V7.95928H76.207V5.62891H92.341Z" />
    <path d="M106.174 23.981C107.01 23.981 107.805 23.8561 108.473 23.5648C109.142 23.2735 109.727 22.8574 110.187 22.358C110.647 21.8587 111.023 21.2345 111.232 20.527C111.483 19.8196 111.608 19.0289 111.608 18.155V5.6709H114.367V18.155C114.367 19.3202 114.158 20.4438 113.782 21.4425C113.405 22.4413 112.862 23.3152 112.151 24.0642C111.441 24.8133 110.605 25.3958 109.56 25.812C108.557 26.2281 107.387 26.4362 106.133 26.4362C104.879 26.4362 103.708 26.2281 102.705 25.812C101.702 25.3958 100.824 24.8133 100.114 24.0642C99.4032 23.3152 98.8598 22.4413 98.4836 21.4425C98.1074 20.4438 97.8984 19.3202 97.8984 18.155V5.6709H100.657V18.155C100.657 19.0289 100.782 19.8196 101.033 20.527C101.284 21.2345 101.618 21.8587 102.078 22.358C102.538 22.8574 103.123 23.2735 103.792 23.5648C104.544 23.8145 105.338 23.981 106.174 23.981Z" />
    <path d="M139.947 15.9075C139.947 17.4472 139.696 18.8621 139.195 20.1105C138.693 21.3589 138.024 22.4409 137.105 23.3564C136.227 24.2719 135.14 24.9377 133.886 25.4371C132.632 25.9365 131.253 26.1861 129.748 26.1861H122.016V5.62891H129.79C131.295 5.62891 132.674 5.87859 133.928 6.37796C135.182 6.87732 136.227 7.58476 137.146 8.45865C138.024 9.37415 138.735 10.4561 139.236 11.7045C139.738 12.9529 139.947 14.3678 139.947 15.9075ZM137.063 15.9075C137.063 14.6591 136.896 13.5355 136.561 12.5368C136.227 11.5381 135.725 10.7058 135.098 9.99836C134.471 9.29092 133.677 8.79156 132.799 8.41703C131.88 8.04251 130.877 7.87605 129.79 7.87605H124.9V23.8974H129.79C130.877 23.8974 131.88 23.7309 132.799 23.3564C133.719 22.9819 134.471 22.4825 135.098 21.7751C135.725 21.1092 136.227 20.2354 136.561 19.2782C136.896 18.3211 137.063 17.1559 137.063 15.9075Z" />
    <path d="M149.937 26.1861H147.137V5.62891H149.937V26.1861Z" />
    <path d="M177.483 15.9077C177.483 17.4474 177.232 18.8623 176.731 20.1523C176.229 21.4423 175.561 22.5243 174.641 23.4814C173.763 24.3969 172.677 25.146 171.423 25.6453C170.169 26.1447 168.789 26.3944 167.285 26.3944C165.78 26.3944 164.401 26.1447 163.147 25.6453C161.893 25.146 160.848 24.3969 159.928 23.4814C159.05 22.5659 158.34 21.4423 157.838 20.1523C157.337 18.8623 157.086 17.4474 157.086 15.9077C157.086 14.368 157.337 12.9531 157.838 11.6631C158.34 10.3731 159.009 9.24948 159.928 8.33398C160.806 7.41847 161.893 6.66942 163.147 6.17006C164.401 5.67069 165.78 5.37939 167.285 5.37939C168.789 5.37939 170.169 5.62908 171.423 6.17006C172.677 6.66942 173.763 7.41847 174.641 8.33398C175.519 9.24948 176.229 10.3731 176.731 11.6631C177.232 12.9531 177.483 14.368 177.483 15.9077ZM174.641 15.9077C174.641 14.6593 174.474 13.4941 174.139 12.4954C173.805 11.4966 173.303 10.6643 172.677 9.95691C172.05 9.24948 171.255 8.75011 170.378 8.37559C169.458 8.00107 168.455 7.83461 167.368 7.83461C166.281 7.83461 165.278 8.00107 164.359 8.37559C163.439 8.75011 162.687 9.29109 162.06 9.95691C161.433 10.6643 160.931 11.4966 160.597 12.4954C160.263 13.4941 160.095 14.6177 160.095 15.9077C160.095 17.1561 160.263 18.2797 160.597 19.2784C160.931 20.2771 161.433 21.1094 162.06 21.8169C162.687 22.5243 163.481 23.0237 164.359 23.3982C165.278 23.7727 166.281 23.9392 167.368 23.9392C168.497 23.9392 169.5 23.7727 170.378 23.3982C171.297 23.0237 172.05 22.4827 172.677 21.8169C173.303 21.1094 173.805 20.2771 174.139 19.2784C174.474 18.3213 174.641 17.1561 174.641 15.9077Z" />
    <path d="M66.5486 42.4157H65.6291C65.5455 42.4157 65.4619 42.3741 65.3783 42.3325C65.2947 42.2909 65.2529 42.2076 65.2529 42.1244L64.4587 40.0437H60.6133L59.8192 42.1244C59.7774 42.2076 59.7356 42.2493 59.6938 42.3325C59.6102 42.3741 59.5266 42.4157 59.443 42.4157H58.5234L61.9509 33.8433H63.1212L66.5486 42.4157ZM60.9059 39.2114H64.1243L62.7868 35.7159C62.7032 35.5078 62.6196 35.2165 62.536 34.9252C62.4942 35.0917 62.4524 35.2581 62.4106 35.383C62.3688 35.5078 62.327 35.6327 62.2852 35.7575L60.9059 39.2114Z" />
    <path d="M76.7907 39.6276C76.8325 39.7524 76.8743 39.8357 76.9161 39.9605C76.9579 39.8357 76.9997 39.7524 77.0415 39.6276C77.0833 39.5444 77.1251 39.4195 77.2087 39.3363L80.1345 34.0929C80.1763 34.0097 80.2599 33.9265 80.3017 33.9265C80.3435 33.9265 80.4271 33.8849 80.5525 33.8849H81.4303V42.4573H80.4271V36.132C80.4271 36.0488 80.4271 35.9656 80.4271 35.8823C80.4271 35.7991 80.4271 35.6743 80.4271 35.591L77.5013 40.9592C77.4177 41.1257 77.2505 41.2089 77.0833 41.2089H76.9161C76.7489 41.2089 76.5817 41.1257 76.4981 40.9592L73.4887 35.591C73.4887 35.6743 73.5305 35.7991 73.5305 35.8823C73.5305 35.9656 73.5305 36.0904 73.5305 36.1736V42.4573H72.5273V33.8433H73.4051C73.4887 33.8433 73.5723 33.8433 73.6559 33.8849C73.6977 33.8849 73.7813 33.9681 73.8231 34.0513L76.7907 39.3363C76.7071 39.4195 76.7489 39.5027 76.7907 39.6276Z" />
    <path d="M88.2422 42.4157V33.8433H91.0008C91.5442 33.8433 92.004 33.8849 92.3802 34.0097C92.7563 34.0929 93.0907 34.2594 93.3415 34.4675C93.5923 34.6755 93.7595 34.8836 93.8849 35.1749C94.0103 35.4662 94.0521 35.7575 94.0521 36.0904C94.0521 36.2985 94.0103 36.5065 93.9685 36.7146C93.8849 36.9227 93.8013 37.0891 93.6759 37.2556C93.5505 37.4221 93.3833 37.5885 93.1743 37.7133C92.9653 37.8382 92.7145 37.963 92.4638 38.0463C93.0907 38.1711 93.5505 38.3792 93.8849 38.7121C94.2193 39.045 94.3447 39.4611 94.3447 40.0021C94.3447 40.3766 94.2611 40.7095 94.1357 41.0008C94.0103 41.2921 93.8013 41.5418 93.5505 41.7915C93.2997 41.9996 92.9653 42.166 92.5892 42.2909C92.213 42.4157 91.795 42.4573 91.2934 42.4573H88.2422V42.4157ZM89.4125 37.6717H90.959C91.2934 37.6717 91.586 37.6301 91.795 37.5469C92.0458 37.4637 92.2548 37.3804 92.3802 37.2556C92.5474 37.1308 92.6727 36.9643 92.7145 36.7978C92.7981 36.6314 92.8399 36.4233 92.8399 36.2153C92.8399 35.7159 92.6727 35.3414 92.3802 35.0917C92.0876 34.842 91.586 34.7588 90.959 34.7588H89.3707V37.6717H89.4125ZM89.4125 38.504V41.5002H91.2516C91.586 41.5002 91.8786 41.4586 92.0876 41.3754C92.3384 41.2921 92.5056 41.2089 92.6727 41.0425C92.8399 40.9176 92.9235 40.7512 93.0071 40.5431C93.0907 40.335 93.1325 40.1269 93.1325 39.9189C93.1325 39.4611 92.9653 39.1282 92.6727 38.8785C92.3384 38.6289 91.8786 38.504 91.2516 38.504H89.4125Z" />
    <path d="M102.078 38.8369V42.4157H100.949V33.8433H103.373C103.917 33.8433 104.377 33.8849 104.795 34.0097C105.171 34.1346 105.505 34.2594 105.756 34.4675C106.007 34.6755 106.216 34.9252 106.341 35.2165C106.467 35.5078 106.508 35.8407 106.508 36.2153C106.508 36.5065 106.467 36.7978 106.383 37.0475C106.299 37.2972 106.132 37.5469 105.965 37.755C105.798 37.963 105.547 38.1295 105.296 38.2959C105.045 38.4624 104.753 38.5456 104.418 38.6289C104.544 38.7121 104.711 38.8369 104.795 39.0034L107.302 42.4157H106.258C106.049 42.4157 105.881 42.3325 105.798 42.166L103.582 39.1282C103.499 39.045 103.457 38.9618 103.373 38.9202C103.29 38.8785 103.164 38.8369 102.997 38.8369H102.078ZM102.078 38.0046H103.29C103.624 38.0046 103.917 37.963 104.168 37.8798C104.418 37.7966 104.627 37.6717 104.795 37.5469C104.962 37.3804 105.087 37.214 105.171 37.0059C105.254 36.7978 105.296 36.5898 105.296 36.3401C105.296 35.8407 105.129 35.4662 104.795 35.1749C104.46 34.9252 103.959 34.8004 103.29 34.8004H102.036V38.0046H102.078Z" />
    <path d="M121.053 38.1297C121.053 38.7539 120.969 39.3781 120.76 39.8775C120.551 40.4185 120.258 40.8762 119.882 41.2507C119.506 41.6253 119.046 41.9166 118.545 42.1662C118.043 42.3743 117.458 42.4992 116.831 42.4992C116.204 42.4992 115.619 42.3743 115.117 42.1662C114.616 41.9582 114.156 41.6669 113.78 41.2507C113.404 40.8762 113.111 40.4185 112.902 39.8775C112.693 39.3365 112.609 38.7539 112.609 38.1297C112.609 37.5055 112.693 36.8813 112.902 36.3819C113.111 35.8409 113.404 35.3832 113.78 35.0087C114.156 34.6341 114.616 34.3012 115.117 34.0932C115.619 33.8851 116.204 33.7603 116.831 33.7603C117.458 33.7603 118.043 33.8851 118.545 34.0932C119.046 34.3012 119.506 34.5925 119.882 35.0087C120.258 35.3832 120.551 35.8409 120.76 36.3819C120.927 36.8813 121.053 37.5055 121.053 38.1297ZM119.84 38.1297C119.84 37.5887 119.757 37.131 119.631 36.7148C119.506 36.2987 119.297 35.9242 119.004 35.6745C118.754 35.3832 118.419 35.1751 118.043 35.0087C117.667 34.8422 117.249 34.759 116.789 34.759C116.329 34.759 115.911 34.8422 115.535 35.0087C115.159 35.1751 114.825 35.3832 114.574 35.6745C114.323 35.9658 114.114 36.2987 113.947 36.7148C113.822 37.131 113.738 37.5887 113.738 38.1297C113.738 38.6707 113.822 39.1284 113.947 39.5446C114.072 39.9607 114.281 40.2936 114.574 40.5849C114.825 40.8762 115.159 41.0843 115.535 41.2507C115.911 41.4172 116.329 41.5004 116.789 41.5004C117.249 41.5004 117.667 41.4172 118.043 41.2507C118.419 41.0843 118.754 40.8762 119.004 40.5849C119.255 40.2936 119.464 39.9607 119.631 39.5446C119.757 39.1284 119.84 38.6707 119.84 38.1297Z" />
    <path d="M131.838 35.175C131.796 35.2166 131.754 35.2999 131.712 35.2999C131.67 35.3415 131.629 35.3415 131.545 35.3415C131.461 35.3415 131.378 35.2999 131.294 35.2582C131.211 35.175 131.085 35.1334 130.96 35.0502C130.834 34.9669 130.667 34.8837 130.458 34.8421C130.249 34.7589 130.04 34.7589 129.748 34.7589C129.497 34.7589 129.246 34.8005 129.079 34.8837C128.87 34.9669 128.703 35.0502 128.577 35.175C128.452 35.2999 128.327 35.4247 128.285 35.5912C128.201 35.7576 128.201 35.9241 128.201 36.1321C128.201 36.3818 128.243 36.5483 128.368 36.7147C128.494 36.8812 128.661 37.006 128.828 37.1309C129.037 37.2557 129.246 37.3389 129.497 37.4222C129.748 37.5054 129.999 37.5886 130.249 37.6718C130.5 37.7551 130.751 37.8383 131.002 37.9631C131.252 38.088 131.461 38.2128 131.67 38.3793C131.879 38.5457 132.005 38.7538 132.13 39.0035C132.256 39.2532 132.297 39.5445 132.297 39.919C132.297 40.2935 132.214 40.6264 132.088 40.9593C131.963 41.2922 131.754 41.5835 131.545 41.8332C131.294 42.0829 131.002 42.2494 130.625 42.4158C130.249 42.5823 129.873 42.6239 129.413 42.6239C128.87 42.6239 128.368 42.5407 127.909 42.3326C127.449 42.1245 127.073 41.8748 126.738 41.5003L127.073 40.9593C127.114 40.9177 127.156 40.8761 127.198 40.8345C127.24 40.7929 127.282 40.7929 127.365 40.7929C127.449 40.7929 127.532 40.8345 127.658 40.9177C127.783 41.0009 127.909 41.1258 128.076 41.209C128.243 41.3339 128.452 41.4171 128.661 41.5003C128.87 41.5835 129.163 41.6252 129.497 41.6252C129.79 41.6252 129.999 41.5835 130.249 41.5003C130.458 41.4171 130.667 41.3339 130.793 41.1674C130.96 41.0426 131.043 40.8761 131.127 40.668C131.211 40.46 131.252 40.2519 131.252 40.0438C131.252 39.7941 131.211 39.5861 131.085 39.4196C130.96 39.2532 130.793 39.1283 130.625 39.0035C130.416 38.8786 130.207 38.7954 129.957 38.7122C129.706 38.629 129.455 38.5457 129.204 38.4625C128.954 38.3793 128.703 38.2961 128.452 38.1712C128.201 38.0464 127.992 37.9215 127.783 37.7551C127.574 37.5886 127.449 37.3805 127.323 37.1309C127.198 36.8812 127.156 36.5483 127.156 36.1737C127.156 35.8824 127.198 35.5912 127.323 35.2999C127.449 35.0086 127.616 34.7589 127.825 34.5508C128.034 34.3427 128.327 34.1763 128.661 34.0098C128.995 33.885 129.372 33.8018 129.79 33.8018C130.249 33.8018 130.709 33.885 131.085 34.0098C131.461 34.1763 131.838 34.3844 132.13 34.6756L131.838 35.175Z" />
    <path d="M143.875 33.8433V34.8004H139.737V37.6301H143.081V38.5456H139.737V41.4586H143.875V42.4157H138.566V33.8433H143.875Z" />
    <path d="M156.206 33.8433V34.8004H153.447V42.3741H152.277V34.8004H149.477V33.8433H156.206Z" />
    <path d="M168.077 33.8433V34.8004H165.318V42.3741H164.148V34.8004H161.348V33.8433H168.077Z" />
    <path d="M175.475 42.4157H174.305V33.8433H175.475V42.4157Z" />
    <path d="M19.3621 21.0679C17.8574 20.194 16.1019 19.445 14.1792 18.8208C12.2565 18.1966 10.2502 17.5723 8.20212 16.9481C6.15403 16.3239 4.18954 15.5749 2.22504 14.701C1.51448 14.4097 0.845716 14.0352 0.21875 13.6606V38.8786C1.30549 39.5028 2.55942 40.0854 3.93875 40.668C5.73605 41.3754 7.95133 41.7084 10.5846 41.7084C12.7581 41.7084 14.6808 41.4171 16.3945 40.7929C18.1082 40.2103 19.5293 39.3364 20.7414 38.2544C21.9118 37.1725 22.8313 35.8824 23.4583 34.3843C24.0853 32.8862 24.4197 31.1801 24.4197 29.3491C24.4197 27.31 23.9599 25.6454 23.0403 24.3138C22.079 23.0654 20.8668 21.9834 19.3621 21.0679Z" />
    <path d="M5.61143 6.25339C7.15795 7.12728 8.87165 7.87633 10.8361 8.54215C12.7588 9.16635 14.7651 9.87379 16.8132 10.5396C18.8613 11.247 20.8258 11.9961 22.7903 12.87C24.713 13.7439 26.4685 14.8258 28.015 16.1575C28.9764 16.9898 29.8123 17.9469 30.5647 19.0288L37.8375 0.71875H0.804688C1.05547 1.59264 1.38986 2.3833 1.93323 3.04912C2.85278 4.29754 4.06491 5.3795 5.61143 6.25339Z" />
    <path d="M27.6367 47.2014H45.8605V34.1763H32.6942L27.6367 47.2014Z" />
    <path d="M45.5682 0.71875C45.2756 1.67587 44.983 2.50814 44.7322 3.21558L35.0352 28.1839H45.8608V0.71875H45.5682Z" />
    </g>
    <defs>
    <clipPath id="clip0_1117_4316">
    <rect width="177.264" height="46.4826" fill="white" transform="translate(0.21875 0.71875)"/>
    </clipPath>
    </defs>
</svg>