<svg width="192" height="124" viewBox="0 0 192 124" fill="#3c474e" xmlns="http://www.w3.org/2000/svg">
    <path d="M26.0781 84.2192V89.8979H28.2864V90.5919H25.2578V84.2192H26.0781Z"/>
    <path d="M38.4456 89.1407H35.6694L35.1646 90.5288H34.2812L36.5527 84.2192H37.4991L39.7706 90.5288H38.8872L38.4456 89.1407ZM37.0575 85.2288L35.9217 88.4467H38.1932L37.0575 85.2288Z"/>
    <path d="M45.7656 84.2197H46.649L48.0371 89.5829L49.5514 84.2197H50.4978L51.949 89.5829L53.3371 84.2197H54.2205L52.3907 90.5293H51.5073L50.0561 85.4185L48.5418 90.5293H47.5954L45.7656 84.2197Z"/>
    <path d="M71.3819 90.592C69.6153 90.592 68.1641 89.267 68.1641 87.3741C68.1641 85.4813 69.5522 84.1562 71.3819 84.1562C73.1486 84.1562 74.5998 85.4813 74.5998 87.3741C74.5998 89.267 73.2117 90.592 71.3819 90.592ZM71.3819 89.898C72.707 89.898 73.7165 88.9515 73.7165 87.3741C73.7165 85.7967 72.707 84.8503 71.3819 84.8503C70.0569 84.8503 69.0474 85.7967 69.0474 87.3741C69.0474 88.8884 70.0569 89.898 71.3819 89.898Z"/>
    <path d="M81.1602 84.2197H84.7566V84.9138H81.9804V87.059H84.2518V87.7531H81.9804V90.5924H81.1602V84.2197Z"/>
    <path d="M91.1953 84.2197H94.7918V84.9138H92.0156V87.059H94.287V87.7531H92.0156V90.5924H91.1953V84.2197Z"/>
    <path d="M101.289 84.2192H102.109V90.5288H101.289V84.2192Z"/>
    <path d="M111.827 84.0933C113.215 84.0933 114.287 84.7873 114.792 85.9861H113.783C113.467 85.229 112.773 84.7873 111.827 84.7873C110.502 84.7873 109.492 85.7337 109.492 87.3111C109.492 88.8885 110.502 89.835 111.827 89.835C112.773 89.835 113.404 89.3933 113.783 88.6362H114.792C114.287 89.835 113.215 90.529 111.827 90.529C110.06 90.529 108.672 89.204 108.672 87.3111C108.672 85.4183 110.06 84.0933 111.827 84.0933Z"/>
    <path d="M124.888 84.8502H122.301V86.9955H124.635V87.6895H122.301V89.8979H124.888V90.5919H121.48V84.2192H124.888V84.8502Z"/>
    <path d="M133.595 90.5921C132.333 90.5921 131.387 89.8981 131.387 88.8254H132.27C132.333 89.3302 132.712 89.8981 133.595 89.8981C134.415 89.8981 134.857 89.4564 134.857 88.8254C134.857 87.1219 131.45 88.1945 131.45 85.8599C131.45 84.7873 132.27 84.0933 133.532 84.0933C134.731 84.0933 135.551 84.7873 135.614 85.7337H134.731C134.668 85.2921 134.289 84.8504 133.532 84.7873C132.838 84.7873 132.333 85.1028 132.333 85.7968C132.333 87.4373 135.74 86.4278 135.74 88.7623C135.74 89.7088 134.983 90.5921 133.595 90.5921Z"/>
    <path d="M153.218 90.592C151.451 90.592 150 89.267 150 87.3741C150 85.4813 151.388 84.1562 153.218 84.1562C154.985 84.1562 156.436 85.4813 156.436 87.3741C156.436 89.267 154.985 90.592 153.218 90.592ZM153.218 89.898C154.543 89.898 155.552 88.9515 155.552 87.3741C155.552 85.7967 154.543 84.8503 153.218 84.8503C151.893 84.8503 150.883 85.7967 150.883 87.3741C150.883 88.8884 151.83 89.898 153.218 89.898Z"/>
    <path d="M162.934 84.2192H166.53V84.9133H163.754V87.0585H166.025V87.7526H163.754V90.5919H162.934V84.2192Z"/>
    <path d="M18.5069 119.742H18.6962V119.995H13.0807V119.742H13.3331C13.7117 119.742 13.964 119.616 14.0902 119.427C14.2795 119.174 14.3426 118.985 14.3426 118.796C14.3426 118.607 14.2795 118.417 14.2164 118.228L12.639 114.001H5.88777L4.24728 118.291C4.18419 118.48 4.12109 118.67 4.12109 118.859C4.12109 119.048 4.18419 119.238 4.37347 119.49C4.56276 119.742 4.81514 119.805 5.13062 119.805H5.38301V120.058H0.398438V119.805H0.650821C1.09249 119.805 1.47107 119.679 1.84964 119.427C2.22822 119.174 2.54369 118.796 2.79608 118.228L8.4116 104.789C9.04256 103.464 9.35804 102.58 9.35804 102.202H9.61042L16.2986 118.165C16.551 118.67 16.8664 119.048 17.245 119.364C17.6236 119.616 18.0653 119.742 18.5069 119.742ZM6.20325 113.18H12.3235L9.35804 105.167L6.20325 113.18Z"/>
    <path d="M22.7342 117.849C21.0937 116.209 20.2734 114.001 20.2734 111.287C20.2734 108.574 21.0937 106.366 22.7342 104.725C24.3747 103.085 26.583 102.202 29.2961 102.202C31.5045 102.202 33.5236 102.77 35.2271 103.905L35.7319 107.439H35.4795C35.101 105.987 34.3438 104.915 33.2712 104.158C32.1354 103.4 30.8104 103.022 29.2961 103.022C27.0878 103.022 25.3842 103.779 24.0592 105.293C22.7342 106.808 22.1032 108.827 22.1032 111.287C22.1032 113.811 22.7342 115.767 24.0592 117.282C25.3211 118.796 27.0247 119.616 29.1699 119.616C31.0628 119.616 32.5771 119.111 33.839 118.102C35.164 117.029 35.9843 115.199 36.2998 112.739H36.4891L36.1736 116.651C34.6593 119.111 32.3247 120.373 29.1699 120.373C26.5199 120.31 24.3747 119.49 22.7342 117.849Z"/>
    <path d="M40.7803 119.743C41.222 119.743 41.6006 119.616 41.916 119.301C42.2315 118.985 42.3577 118.607 42.4208 118.165V104.221C42.3577 103.842 42.1684 103.464 41.916 103.211C41.6006 102.959 41.2851 102.77 40.8434 102.77H40.5279V102.517H47.8471C48.3518 102.517 48.9197 102.454 49.5506 102.391C50.1816 102.265 50.5602 102.202 50.8126 102.076V105.23H50.5602V104.789C50.5602 104.41 50.434 104.032 50.1185 103.779C49.8661 103.527 49.4875 103.338 49.109 103.338H43.9982V111.035H48.2256C48.5411 111.035 48.8566 110.909 49.0459 110.657C49.2983 110.404 49.4244 110.152 49.4244 109.773V109.395H49.6768V113.307H49.4244V112.928C49.4244 112.613 49.2983 112.297 49.109 112.108C48.8566 111.856 48.6042 111.729 48.2887 111.729H44.0613V119.175H47.6578C48.9197 119.175 49.803 118.922 50.4971 118.354C51.128 117.787 51.6959 116.966 52.1376 115.894H52.39L50.9387 119.932H40.4648V119.679H40.7803V119.743Z"/>
    <path d="M60.9707 103.338H59.3933V118.228C59.3933 118.67 59.5195 119.049 59.835 119.364C60.1505 119.68 60.5291 119.806 60.9707 119.806H61.2862V120.058H55.7969V119.806H56.1124C56.554 119.806 56.9326 119.68 57.2481 119.364C57.5636 119.049 57.6897 118.67 57.7528 118.292V104.474C57.7528 104.032 57.5636 103.653 57.2481 103.338C56.9326 103.022 56.554 102.896 56.1124 102.896H55.7969V102.518H62.5481C64.0624 102.518 65.2612 102.959 66.1446 103.779C67.0279 104.6 67.4696 105.735 67.4696 107.06C67.4696 108.385 67.0279 109.584 66.2077 110.531C65.3874 111.477 64.3779 111.982 63.1791 111.982C63.4315 112.108 63.7469 112.297 64.0624 112.676C64.3779 112.991 64.6934 113.37 64.9458 113.749C66.397 115.768 67.2803 117.03 67.722 117.534C68.1636 118.039 68.4791 118.355 68.6684 118.481C68.8577 118.67 69.047 118.796 69.2363 118.986C69.4256 119.175 69.6779 119.301 69.8672 119.364C70.372 119.617 70.8768 119.743 71.4446 119.743V119.995H70.0565C69.3625 119.995 68.6684 119.869 68.0375 119.617C67.4065 119.364 66.9648 119.112 66.6494 118.796C66.3339 118.544 66.0815 118.228 65.8291 117.976C65.5767 117.724 65.0089 116.84 63.9993 115.389C62.9898 113.938 62.4219 113.118 62.2326 112.865C62.0434 112.676 61.9172 112.424 61.7279 112.234C61.2231 111.666 60.6552 111.414 60.1505 111.414V111.162C60.2767 111.162 60.466 111.162 60.6552 111.162C60.8445 111.162 61.16 111.162 61.4755 111.162C63.5577 111.099 64.8196 110.278 65.3874 108.575C65.5136 108.259 65.5136 107.944 65.5136 107.628C65.5136 107.313 65.5136 107.124 65.5136 107.06C65.4505 105.925 65.1981 105.041 64.6303 104.347C64.0624 103.653 63.3684 103.275 62.4219 103.275C62.1065 103.338 61.6017 103.338 60.9707 103.338Z"/>
    <path d="M83.9373 117.849C82.2968 116.209 81.4766 114.001 81.4766 111.287C81.4766 108.574 82.2968 106.366 83.9373 104.725C85.5778 103.085 87.7861 102.202 90.4993 102.202C92.7076 102.202 94.7267 102.77 96.4303 103.905L96.935 107.439H96.6827C96.3041 105.987 95.5469 104.915 94.4743 104.158C93.3386 103.4 92.0136 103.022 90.4993 103.022C88.2909 103.022 86.5873 103.779 85.2623 105.293C83.9373 106.808 83.3063 108.827 83.3063 111.287C83.3063 113.811 83.9373 115.767 85.2623 117.282C86.5873 118.796 88.2278 119.616 90.3731 119.616C92.2659 119.616 93.7802 119.111 95.0422 118.102C96.3672 117.029 97.1874 115.199 97.5029 112.739H97.6922L97.3767 116.651C95.8624 119.111 93.5279 120.373 90.3731 120.373C87.7231 120.31 85.5778 119.49 83.9373 117.849Z"/>
    <path d="M113.782 119.743C114.224 119.743 114.603 119.617 114.918 119.301C115.234 118.986 115.36 118.607 115.423 118.228V111.793H105.201V118.228C105.201 118.67 105.391 119.049 105.706 119.364C106.022 119.68 106.4 119.806 106.842 119.806H107.157V120.058H101.668V119.806H101.983C102.425 119.806 102.804 119.68 103.119 119.364C103.435 119.049 103.561 118.67 103.624 118.228V104.41C103.624 103.969 103.435 103.59 103.119 103.338C102.804 103.022 102.425 102.896 101.983 102.896H101.668V102.518H107.157V102.77H106.842C106.4 102.77 106.022 102.896 105.706 103.212C105.391 103.527 105.264 103.906 105.201 104.284V110.972H115.423V104.284C115.423 103.716 115.17 103.212 114.603 102.959C114.35 102.833 114.098 102.77 113.782 102.77H113.467V102.518H118.956V102.77H118.641C118.199 102.77 117.82 102.896 117.505 103.212C117.19 103.527 117.063 103.906 117 104.347V118.165C117 118.607 117.19 118.986 117.505 119.301C117.82 119.617 118.199 119.743 118.641 119.743H118.956V119.995H113.467V119.743H113.782Z"/>
    <path d="M123.499 119.743C123.941 119.743 124.319 119.617 124.635 119.301C124.95 118.986 125.076 118.607 125.14 118.165V104.347C125.14 103.906 124.95 103.527 124.635 103.275C124.319 102.959 123.941 102.833 123.499 102.833H123.184V102.518H128.673V102.77H128.357C127.916 102.77 127.537 102.896 127.222 103.212C126.906 103.527 126.78 103.906 126.717 104.284V118.102C126.717 118.544 126.906 118.922 127.222 119.238C127.537 119.553 127.916 119.68 128.357 119.68H128.673V119.932H123.184V119.68H123.499V119.743Z"/>
    <path d="M149.241 119.742H149.43V119.995H143.814V119.742H144.067C144.445 119.742 144.698 119.616 144.824 119.427C144.95 119.238 145.076 118.985 145.076 118.796C145.076 118.607 145.013 118.417 144.95 118.228L143.373 114.001H136.685L135.044 118.291C134.981 118.48 134.918 118.67 134.918 118.859C134.918 119.048 134.981 119.238 135.17 119.49C135.36 119.742 135.612 119.805 135.927 119.805H136.18V120.058H131.195V119.805H131.448C131.889 119.805 132.268 119.679 132.647 119.427C133.025 119.174 133.341 118.796 133.593 118.228L139.208 104.789C139.839 103.464 140.155 102.58 140.155 102.202H140.407L147.095 118.165C147.348 118.67 147.663 119.048 148.042 119.364C148.357 119.616 148.799 119.742 149.241 119.742ZM136.937 113.18H143.057L140.092 105.167L136.937 113.18Z"/>
    <path d="M169.746 102.77C169.304 102.77 168.989 102.896 168.673 103.211C168.358 103.527 168.232 103.842 168.168 104.284V117.155C168.168 118.102 168.232 119.048 168.358 119.868L168.421 120.31H168.232L154.666 105.798V118.228C154.666 118.796 154.918 119.238 155.423 119.553C155.675 119.679 155.928 119.742 156.18 119.742H156.685V119.995H151.574V119.742H152.079C152.521 119.742 152.836 119.616 153.152 119.301C153.467 118.985 153.593 118.67 153.593 118.228V105.293C153.593 104.284 153.53 103.4 153.404 102.58L153.341 102.202H153.593L167.159 116.714V104.347C167.159 103.905 166.97 103.527 166.654 103.274C166.339 102.959 166.023 102.833 165.581 102.833H165.077V102.517H170.187V102.77H169.746Z"/>
    <path d="M176.058 117.85C174.418 116.209 173.598 114.001 173.598 111.288C173.598 108.575 174.418 106.366 176.058 104.726C177.699 103.085 179.844 102.202 182.557 102.202C184.829 102.202 186.848 102.77 188.614 103.906L189.119 107.439H188.867C188.488 105.988 187.794 104.915 186.658 104.158C185.523 103.401 184.198 103.022 182.557 103.022C180.475 103.022 178.708 103.78 177.447 105.294C176.121 106.808 175.491 108.827 175.491 111.351C175.491 113.875 176.121 115.831 177.447 117.345C178.772 118.859 180.475 119.617 182.557 119.68C183.63 119.68 184.639 119.49 185.649 119.112C186.595 118.733 187.479 118.228 188.236 117.534V113.118C188.236 112.739 188.11 112.487 187.92 112.297C187.668 112.108 187.416 111.982 186.974 111.982H186.532V111.73H191.391V111.982H191.012C190.57 111.982 190.255 112.108 190.066 112.297C189.876 112.487 189.75 112.739 189.75 113.118V117.219C189.309 117.787 188.804 118.292 188.173 118.733C187.605 119.175 186.785 119.553 185.775 119.932C184.766 120.248 183.693 120.437 182.494 120.437C179.907 120.311 177.762 119.49 176.058 117.85Z"/>
    <path d="M22.733 86.9961H6.32812V87.7533H22.733V86.9961Z"/>
    <path d="M186.91 86.9961H169.117V87.7533H186.91V86.9961Z"/>
    <path d="M72.0133 119.175C70.3097 122.329 68.9847 123.213 68.4168 123.213C68.1013 123.213 67.1549 122.582 67.1549 122.014C67.1549 121.572 67.5965 120.878 68.6692 119.301C71.7609 114.632 99.7754 62.0729 99.7754 62.0729L66.2084 63.7134C65.3251 64.2182 56.6179 76.4588 55.4822 76.4588C54.8512 76.4588 54.094 75.8909 54.094 75.1338C54.094 74.2504 57.5643 70.0861 62.1703 63.7765C38.8249 65.1015 25.7009 64.4706 24.8176 66.048C24.5652 66.4265 24.1866 66.6158 23.745 66.6158C22.5461 66.6158 20.9688 65.6063 20.9688 64.7861C20.9688 63.3979 23.4295 63.1456 25.764 62.8301C32.2629 62.136 37.9415 61.8206 42.9261 61.8206C47.9738 61.8206 61.4132 61.1896 63.306 60.9372C64.1894 60.811 64.6941 60.3063 65.8299 58.6027C71.1299 50.9681 106.464 2.00573 109.177 2.00573C109.429 2.00573 109.681 2.25812 109.997 2.82598C110.186 3.07836 110.312 3.26765 110.312 3.58313C110.312 4.46647 109.24 6.10696 104.697 13.0475C99.2706 21.3761 98.5135 23.6476 97.504 23.6476C96.873 23.6476 96.3682 23.0797 96.3682 22.4488C96.3682 22.2595 96.4313 22.0702 96.5575 21.8178C96.6837 21.6285 96.7468 21.5023 96.7468 21.4392C96.1159 21.4392 79.8371 43.7752 79.2062 44.6585C79.2062 44.6585 101.668 20.1773 113.909 9.32485C120.218 3.70932 124.572 0.933105 127.096 0.933105C128.736 0.933105 129.62 1.81645 129.62 3.89861C129.62 9.9558 121.985 26.1083 104.634 59.1074L109.05 59.0443C111.637 59.0443 113.278 59.1074 113.278 60.4955C113.278 61.3789 112.395 62.3884 111.574 62.3884C111.259 62.3884 111.07 62.2622 110.817 62.136C110.628 61.8837 109.934 61.8206 108.23 61.8206C106.653 61.8206 102.93 62.0098 102.93 62.0098L72.0133 119.175ZM101.353 59.1705C101.353 59.1705 127.222 10.6499 127.222 4.15099C127.222 3.83551 127.159 3.64622 127.033 3.52003L126.907 3.45694C125.645 3.45694 120.597 6.9903 115.802 11.2177C97.2516 27.6226 69.1739 60.117 69.1739 60.4324C69.1739 60.4955 70.0573 60.5586 71.5716 60.5586C79.0169 60.5586 101.353 59.1705 101.353 59.1705Z"/>
    <path d="M141.733 62.2621L138.641 64.2811C135.297 66.4895 126.527 71.411 119.397 71.411H118.703C114.223 71.411 113.34 69.2657 113.34 66.3633C113.34 62.1359 120.47 57.4668 124.697 57.4668C126.905 57.4668 127.41 58.4763 127.41 59.4859C127.41 60.1799 126.527 60.4954 126.022 60.4954C125.013 60.4954 125.013 59.8013 124.508 59.8013H124.319C122.426 59.8013 116.116 63.2085 116.116 66.3002C116.116 68.3193 117.63 68.824 119.334 68.824H119.649C126.653 68.824 140.282 60.4954 140.408 60.4954C141.102 60.4954 141.607 61.0002 141.607 61.6942V62.2621H141.733Z"/>
    <path d="M95.9901 101.066C95.927 100.814 95.8639 100.624 95.8008 100.498C95.8639 100.687 95.9901 100.877 95.9901 101.066Z"/>
</svg>