<svg width="161" height="48" viewBox="0 0 161 48" fill="#3c474e" xmlns="http://www.w3.org/2000/svg">
    <g clip-path="url(#clip0_1117_11641)">
    <path d="M14.4517 3.0724C15.628 3.21469 17.0867 3.40442 18.7335 3.64157C20.3803 3.92616 22.2154 4.21075 24.1445 4.68506C26.1208 5.11194 28.1911 5.68112 30.3555 6.34515C32.0964 6.91433 33.9315 7.57837 35.5783 8.43213C39.2014 8.47956 42.0716 8.90644 43.9066 9.28589C44.6124 9.42819 45.2241 9.57048 45.7887 9.71277C45.5535 9.23846 45.3653 8.81158 45.0829 8.43213C44.5183 7.57837 43.8596 6.91433 43.2479 6.34515C41.9304 5.2068 40.5659 4.4479 39.2484 3.8313C36.5664 2.64552 33.9785 2.02891 31.5318 1.5546C29.038 1.17515 26.6854 0.985422 24.568 0.937991C20.2862 0.843128 16.8043 1.31744 14.4047 1.79175C13.1813 2.02891 12.2402 2.3135 11.6286 2.45579C11.0169 2.64552 10.6875 2.74038 10.6875 2.74038C10.6875 2.74038 11.0169 2.78781 11.6756 2.83524C12.2873 2.88267 13.2754 2.97754 14.4517 3.0724Z"/>
    <path d="M56.3266 46.8988C55.7619 46.5668 54.915 46.0925 53.8328 45.5233C52.7506 44.9541 51.4802 44.2427 49.9745 43.4838C48.4688 42.7249 46.822 41.8237 44.9869 40.8751C43.1518 39.9264 41.2227 38.8829 39.1053 37.792C37.035 36.7011 34.8706 35.5153 32.7062 34.2821C31.624 33.6655 30.4947 33.0015 29.4125 32.3849C29.1302 32.1951 28.8008 32.0054 28.5185 31.8157C28.095 31.5311 27.6245 31.2465 27.201 30.9619C27.4363 30.8671 27.6715 30.7722 27.9068 30.6773C28.1421 30.5825 28.3773 30.4402 28.6126 30.3453C28.989 30.203 29.3654 30.0133 29.6948 29.8236C30.3065 29.539 30.9182 29.207 31.5299 28.9224C32.1415 28.5904 32.7532 28.2583 33.3649 27.9738C33.9766 27.6417 34.5883 27.2623 35.2 26.9303C36.4233 26.1714 37.6467 25.4125 38.823 24.5113C39.4347 24.0844 39.9993 23.6101 40.611 23.1358C41.1756 22.614 41.7873 22.1397 42.352 21.5705C43.4812 20.4322 44.5164 19.1515 45.4104 17.4914C45.5045 17.3017 45.6456 17.0646 45.6927 16.8274L45.975 16.1634C46.0691 15.9262 46.1162 15.6891 46.2103 15.4519L46.3044 15.0724L46.3514 14.693C46.4455 14.1713 46.4926 13.5546 46.4926 12.9855C45.928 13.0329 45.034 13.1278 43.7635 13.2701C42.4461 13.4124 41.2227 13.6021 40.0464 13.7444L39.9523 13.9341C39.9052 14.029 39.8582 14.1238 39.8111 14.2187C39.7641 14.3135 39.717 14.4084 39.67 14.5033C39.2465 15.3096 38.5407 16.1634 37.7408 16.9697C37.3644 17.3966 36.8939 17.776 36.4233 18.2029C35.9528 18.5824 35.4823 19.0092 34.9647 19.3887C33.9766 20.1476 32.9414 20.9065 31.8592 21.618C30.777 22.3294 29.6948 22.9935 28.6126 23.6575C27.5304 24.3215 26.4011 24.9382 25.3189 25.5548C24.6131 25.9342 23.9544 26.3137 23.2486 26.6931C22.8251 26.9303 22.4487 27.1674 22.0252 27.3571C20.943 27.9263 19.9079 28.4955 18.8727 29.0172C17.8375 29.539 16.8494 30.0607 15.9084 30.5825C15.4849 30.8196 15.1085 31.0094 14.685 31.1991C14.1204 31.4837 13.5558 31.8157 12.9911 32.1003C11.1561 33.0489 9.46219 33.9501 8.00356 34.709C6.49787 35.5153 5.22745 36.1794 4.14524 36.7485C3.06303 37.3177 2.26314 37.792 1.65146 38.124C1.13388 38.4561 0.851562 38.5984 0.851562 38.5984C0.851562 38.5984 1.18093 38.5509 1.83967 38.4561C2.4984 38.3612 3.43946 38.2189 4.61577 37.9817C5.79209 37.7446 7.25072 37.46 8.89756 37.0331C9.7445 36.8434 10.5915 36.6062 11.5325 36.3691C12.4265 36.1319 13.4146 35.8473 14.4027 35.5628C15.3908 35.2782 16.426 34.9461 17.5082 34.6141C17.7905 34.5193 18.0728 34.4244 18.3551 34.3295C18.8727 34.1872 19.3432 33.9975 19.8608 33.8078C20.3313 34.1398 20.7548 34.4244 21.2253 34.709C21.7429 35.041 22.2605 35.373 22.7781 35.705C23.3898 36.0845 24.0014 36.4165 24.6131 36.7485C25.2248 37.0806 25.8365 37.4126 26.4482 37.6972C27.0599 37.9817 27.6715 38.3138 28.2832 38.5984C28.8949 38.8829 29.5066 39.1675 30.1183 39.4521C32.518 40.543 34.9176 41.4442 37.1762 42.2506C38.3054 42.6774 39.4347 43.0095 40.4698 43.3889C41.5521 43.7209 42.5872 44.0529 43.5753 44.3375C44.5634 44.6221 45.5515 44.8593 46.4455 45.1439C47.3866 45.381 48.2335 45.6182 49.0805 45.8079C50.7273 46.1874 52.1859 46.5194 53.3623 46.7565C54.5386 46.9937 55.5267 47.136 56.1384 47.2308C56.7971 47.3257 57.1265 47.3731 57.1265 47.3731C57.1265 47.3731 56.8912 47.2308 56.3266 46.8988Z"/>
    <path d="M37.9302 9.85499C37.0832 9.80756 36.1892 9.76013 35.2482 9.76013C34.6836 9.76013 34.0719 9.76013 33.4602 9.76013C31.3428 9.80756 29.0372 9.99729 26.5435 10.4242C24.0967 10.8511 21.5088 11.4677 18.8268 12.7009C17.5094 13.3175 16.1448 14.0764 14.8274 15.2147C14.1686 15.7839 13.5099 16.4479 12.9923 17.3017C12.71 17.6812 12.4747 18.2029 12.2395 18.6772C12.0513 19.199 11.863 19.6733 11.7219 20.2424C11.4866 21.3334 11.4866 22.4717 11.6748 23.5152L11.7219 23.8946L11.816 24.2741C11.863 24.5113 11.9571 24.7484 12.0513 24.9856L12.3336 25.6496C12.4277 25.8868 12.5218 26.0765 12.6159 26.3136C13.2746 27.5943 14.1216 28.6852 14.9685 29.6338L18.2622 27.9263C19.1091 27.4994 20.0031 27.0251 20.9442 26.5034C20.7089 26.2662 20.4737 26.0765 20.2384 25.8393C19.3915 25.033 18.7327 24.1792 18.3092 23.3729C18.2622 23.278 18.2151 23.1832 18.1681 23.0883C18.121 22.9935 18.074 22.8986 18.0269 22.8037L17.9328 22.5666L17.8858 22.4243V22.3294C17.7917 21.9974 17.7917 21.8077 17.8387 21.5231C17.8387 21.3808 17.8858 21.2859 17.9328 21.1436C17.9799 21.0013 18.0269 20.859 18.121 20.7168C18.2622 20.4322 18.5445 20.1001 18.8739 19.7681C19.5326 19.1041 20.4266 18.4875 21.3677 17.9183C23.2968 16.8274 25.5083 15.9736 27.6257 15.2622C29.743 14.5507 31.8604 14.0289 33.8366 13.6021C35.5776 13.2226 37.2244 12.8906 38.683 12.6534C38.8712 12.606 39.0594 12.606 39.2477 12.5586C39.53 12.5111 39.7652 12.4637 40.0005 12.4637C41.318 12.274 42.4943 12.1317 43.5294 11.9894C44.7058 11.8471 45.6468 11.7522 46.2585 11.7048H46.3055C46.9643 11.6574 47.2936 11.61 47.2936 11.61C47.2936 11.61 46.9643 11.5151 46.3526 11.3254C46.3055 11.3254 46.2585 11.2779 46.2114 11.2779C45.5998 11.0882 44.7058 10.8511 43.6235 10.6613C42.1649 10.2819 40.1887 9.99729 37.9302 9.85499Z"/>
    <path d="M59.6673 33.3335V37.3652C59.6673 38.883 60.326 39.4996 61.22 39.4996C62.2081 39.4996 62.8668 38.8355 62.8668 37.3652V33.3335H63.7608V37.2703C63.7608 39.3573 62.6786 40.211 61.22 40.211C59.8555 40.211 58.8203 39.4521 58.8203 37.3177V33.3335H59.6673Z"/>
    <path d="M71.1953 40.1161V33.3334H72.1364L74.2537 36.7485C74.7243 37.5548 75.1477 38.2663 75.43 38.9303H75.4771C75.383 38.0291 75.383 37.2228 75.383 36.1319V33.286H76.1829V40.0687H75.2889L73.1715 36.6536C72.701 35.8947 72.2775 35.1358 71.9482 34.3769H71.9011C71.9482 35.2307 71.9482 36.037 71.9482 37.1754V40.0687H71.1953V40.1161Z"/>
    <path d="M84.5581 33.3335V40.1162H83.6641V33.3335H84.5581Z"/>
    <path d="M93.5435 40.1162L91.332 33.3335H92.2731L93.3082 36.6537C93.5906 37.5549 93.8258 38.4086 94.014 39.1675C94.2022 38.4086 94.4846 37.5549 94.7669 36.6537L95.8961 33.3335H96.8372L94.4846 40.1162H93.5435Z"/>
    <path d="M107.048 36.9383H104.46V39.3573H107.377V40.0687H103.613V33.3335H107.236V34.045H104.46V36.1794H107.048V36.9383Z"/>
    <path d="M114.438 33.4283C114.861 33.3334 115.52 33.286 116.084 33.286C117.025 33.286 117.637 33.4757 118.013 33.8552C118.343 34.1398 118.531 34.6141 118.531 35.1358C118.531 36.037 117.966 36.6062 117.261 36.8434V36.8908C117.778 37.0805 118.061 37.5548 118.249 38.2663C118.484 39.2149 118.625 39.879 118.766 40.1161H117.872C117.778 39.9264 117.59 39.3572 117.449 38.5034C117.261 37.5548 116.884 37.2228 116.084 37.1754H115.284V40.1161H114.438V33.4283ZM115.284 36.5113H116.178C117.12 36.5113 117.684 35.9896 117.684 35.2307C117.684 34.3769 117.072 33.9975 116.131 33.9975C115.708 33.9975 115.426 34.0449 115.284 34.0449V36.5113Z"/>
    <path d="M125.634 39.0252C126.01 39.2624 126.575 39.4521 127.187 39.4521C128.081 39.4521 128.598 38.9778 128.598 38.3137C128.598 37.6971 128.222 37.3177 127.328 36.9857C126.246 36.6062 125.54 35.9896 125.54 35.041C125.54 33.9975 126.387 33.1912 127.704 33.1912C128.363 33.1912 128.881 33.3335 129.163 33.5232L128.928 34.2346C128.739 34.0924 128.269 33.9026 127.657 33.9026C126.763 33.9026 126.387 34.4718 126.387 34.8987C126.387 35.5153 126.81 35.8473 127.704 36.1793C128.833 36.6062 129.398 37.1754 129.398 38.1714C129.398 39.2149 128.645 40.1161 127.045 40.1161C126.387 40.1161 125.681 39.9264 125.352 39.6892L125.634 39.0252Z"/>
    <path d="M137.492 33.3335V40.1162H136.598V33.3335H137.492Z"/>
    <path d="M146.246 34.0924H144.223V33.3335H149.21V34.0924H147.14V40.1162H146.246V34.0924Z"/>
    <path d="M157.676 40.1161V37.2702L155.559 33.3809H156.547L157.488 35.2307C157.723 35.7524 157.958 36.1319 158.146 36.6062C158.335 36.1793 158.57 35.705 158.805 35.2307L159.793 33.3809H160.781L158.523 37.2702V40.1635H157.676V40.1161Z"/>
    <path d="M58.7734 8.14746H66.5842C68.6545 8.14746 70.2543 8.6692 71.3835 9.66526C72.5128 10.6613 73.0774 12.1791 73.0774 14.1238C73.0774 15.5467 72.701 16.78 71.9482 17.776C71.1953 18.7721 70.1131 19.4361 68.7015 19.8156L72.9833 27.784H70.019L65.8784 20.0527H61.5966V27.784H58.7734V8.14746ZM66.1136 17.6337C67.337 17.6337 68.3251 17.3491 69.078 16.7325C69.8308 16.1633 70.1602 15.2622 70.1602 14.1238C70.1602 12.8432 69.7837 11.942 69.078 11.4202C68.3722 10.8985 67.3841 10.6139 66.0666 10.6139H61.5495V17.6811H66.1136V17.6337Z"/>
    <path d="M81.7344 8.14746H94.5797V10.5665H84.5575V16.78H92.0389V19.1515H84.5575V25.365H94.5797V27.7366H81.7344V8.14746Z"/>
    <path d="M103.051 8.14746H111.991C113.732 8.14746 115.049 8.57434 115.99 9.47554C116.931 10.3767 117.402 11.7048 117.402 13.4123C117.402 14.4084 117.167 15.2622 116.696 15.9736C116.226 16.7325 115.661 17.2543 114.908 17.6337C116.979 18.2503 118.014 19.7681 118.014 22.2345C118.014 23.3729 117.778 24.369 117.261 25.1753C116.79 26.029 116.085 26.6457 115.238 27.12C114.391 27.5468 113.45 27.784 112.414 27.784H103.004V8.14746H103.051ZM111.662 16.5902C112.556 16.5902 113.308 16.3531 113.826 15.8313C114.344 15.3096 114.626 14.5981 114.626 13.6021C114.626 12.4637 114.391 11.6574 113.873 11.1831C113.355 10.7087 112.556 10.4716 111.52 10.4716H105.968V16.5902H111.662ZM111.85 25.4599C112.932 25.4599 113.779 25.2227 114.344 24.7484C114.908 24.2741 115.191 23.4203 115.191 22.2345C115.191 21.0488 114.908 20.195 114.297 19.7207C113.685 19.1989 112.791 18.9618 111.567 18.9618H105.874V25.4599H111.85Z"/>
    <path d="M126.719 8.14746H139.564V10.5665H129.542V16.78H137.023V19.1515H129.542V25.365H139.564V27.7366H126.719V8.14746Z"/>
    <path d="M148.078 8.14746H150.901V25.4124H160.782V27.784H148.078V8.14746Z"/>
    </g>
    <defs>
    <clipPath id="clip0_1117_11641">
    <rect width="159.932" height="46.4826" fill="white" transform="translate(0.851562 0.937988)"/>
    </clipPath>
    </defs>
</svg>