<svg width="196" height="102" viewBox="0 0 196 102" fill="#ffffff" xmlns="http://www.w3.org/2000/svg">
    <path d="M31.923 0.737326C31.1875 0.900771 30.2068 1.63627 28.9401 2.9847C27.6734 4.33312 26.4476 5.80412 25.3034 7.43858C24.1593 9.07303 23.1787 10.5849 22.4023 12.0559C21.6259 13.5269 21.4216 14.385 21.7077 14.7119C22.0754 15.1614 22.484 15.4065 22.8518 15.4474C23.2195 15.4882 23.5464 15.4065 23.8324 15.2022C24.1185 14.9979 24.3228 14.8345 24.5271 14.671C24.7314 14.5076 24.8131 14.5076 24.8131 14.671C23.1378 19.4518 21.6259 23.7831 20.2366 27.6649C18.8474 31.5467 17.2946 35.9597 15.6193 40.9448C13.944 45.889 12.2687 50.9967 10.5934 56.1861C8.95894 61.3755 7.36535 66.4423 5.9352 71.4273C4.4642 76.3716 3.27922 80.7846 2.33941 84.6255C1.3996 88.4665 0.868406 91.5719 0.6641 93.9828C0.459794 96.3527 0.827545 97.5786 1.76735 97.5786C2.29855 97.5786 2.70716 97.456 2.91147 97.2108C4.30075 90.673 6.26209 83.0319 8.79549 74.2468C10.9611 66.81 13.7806 57.7388 17.2946 47.1557C20.8087 36.5318 25.14 24.5186 30.3702 11.0344C31.923 7.02996 32.7402 4.29226 32.8628 2.78039C32.9854 1.22766 32.6585 0.573881 31.923 0.737326Z"/>
    <path d="M76.0549 55.9816C76.0549 55.9816 76.014 55.9816 75.9732 56.0225C75.8506 56.1042 75.6871 56.3085 75.4011 56.6354C75.0742 57.044 74.6248 57.6161 74.1344 58.3107C73.6441 59.0054 73.072 59.7409 72.4182 60.5172C71.7645 61.2936 71.1107 62.0291 70.416 62.7237C67.8009 65.4206 65.8396 66.9733 64.5729 67.3819C63.3062 67.7905 62.4481 67.4637 62.0395 66.3604C61.6309 65.2571 61.4674 63.541 61.6309 61.2936C61.7943 59.0462 61.9986 56.5946 62.3255 54.0203C62.6524 51.446 62.8976 48.8718 63.1427 46.3384C63.3879 43.805 63.3062 41.6802 62.8976 40.0049C62.4889 38.3296 61.7534 37.2263 60.5685 36.736C59.4244 36.2456 57.6265 36.736 55.2156 38.2478C52.8048 39.7597 49.6176 42.4566 45.6541 46.3792C41.6906 50.3019 36.7463 55.7773 30.8215 62.8872C30.658 60.2721 30.5763 57.9838 30.5354 56.0634C30.4946 54.1429 30.2494 52.7536 29.7999 51.8955C29.3505 51.0374 28.5332 50.874 27.3891 51.3643C26.245 51.8546 24.488 53.2439 22.1997 55.4504C22.5266 54.388 22.8127 53.3257 23.1395 52.345C23.4664 51.3235 23.6707 50.4654 23.7525 49.689C23.875 48.9126 23.7933 48.3406 23.5073 47.8911C23.2213 47.4825 22.7309 47.2782 21.9546 47.3599C21.6277 47.4416 21.2599 47.8502 20.8513 48.6266C20.4427 49.403 19.9932 50.3428 19.5846 51.446C19.176 52.5493 18.7674 53.7751 18.3588 55.0827C17.9502 56.3903 17.705 57.6161 17.5415 58.7602C17.3781 59.9043 17.419 60.8441 17.5824 61.5796C17.7867 62.3151 18.1953 62.6829 18.8082 62.6829C19.4212 62.6829 20.361 62.1108 21.5868 60.9667C22.8127 59.8226 24.6923 58.0247 27.2257 55.5322C27.0622 57.4526 26.9396 59.0871 26.8988 60.3947C26.8579 61.7022 26.8171 62.7646 26.8579 63.6227C26.8988 64.4808 27.0214 65.1754 27.2665 65.7066C27.5117 66.2378 27.8386 66.6873 28.2881 66.9733C28.6558 67.3002 29.1053 67.4228 29.5548 67.4228C30.1677 67.4228 31.3118 66.5647 33.028 64.8894C34.7033 63.2141 36.6646 61.171 38.912 58.7602C41.1594 56.3903 43.4885 53.8569 45.9401 51.2826C48.3918 48.6675 50.6392 46.4201 52.6822 44.5405C54.7253 42.6609 56.4006 41.3942 57.7082 40.7404C59.0157 40.0866 59.6695 40.4952 59.6695 41.9662C59.6695 43.2738 59.4244 46.0115 58.9749 50.1385C58.1168 56.6763 57.9125 61.5796 58.362 64.8077C58.7706 68.0357 59.5878 70.1605 60.7319 71.1412C61.876 72.1627 63.2653 72.2444 64.8998 71.4272C66.5342 70.61 68.1278 69.425 69.7214 67.9131C70.8655 66.8099 71.9688 65.6658 72.9494 64.4399C73.3581 63.9496 73.7258 63.4592 74.0936 62.9689C75.4011 61.2119 76.3409 59.7817 76.8721 58.6785C77.1173 58.229 77.2399 57.7795 77.3216 57.2892C77.4033 56.7989 76.9947 56.3494 76.0549 55.9816Z"/>
    <path d="M97.384 55.9819C97.2205 55.941 96.8119 56.2679 96.199 57.0034C96.0355 57.2077 95.8312 57.4529 95.6269 57.7389C94.6871 59.0056 93.7065 60.3949 92.6441 61.9476C91.5817 63.5003 90.4784 64.8487 89.416 66.0337C88.3536 67.2187 87.5773 67.6682 87.0869 67.3413C86.5966 67.0144 86.4331 66.4015 86.5149 65.4208C86.5966 64.481 86.8418 63.3369 87.2504 62.0293C87.659 60.7218 88.1902 59.3325 88.7622 57.8615C89.3343 56.3905 89.9064 55.042 90.4784 53.8162C91.0505 52.5904 91.7043 51.1602 92.4806 49.5258C92.4806 49.1989 92.1946 48.8311 91.6634 48.3817C91.1322 47.9322 90.6827 47.687 90.2741 47.687C89.9472 47.687 89.6203 47.8096 89.2934 48.0956C88.9257 48.3817 88.5988 48.6677 88.2719 48.9946C87.9042 49.3623 87.5773 49.6484 87.2095 49.9344C86.8826 50.2204 86.5966 50.343 86.3514 50.343C85.9428 50.343 85.6159 50.1796 85.3299 49.8935C85.003 49.5666 84.5127 49.444 83.818 49.444C82.7556 49.444 81.6115 49.8935 80.4265 50.7516C79.2416 51.6506 78.1383 52.7538 77.1576 54.1022C76.7082 54.6743 76.2996 55.2872 75.9318 55.9001C75.4415 56.7174 74.992 57.5754 74.5425 58.4744C73.807 60.068 73.3167 61.4981 73.0306 62.8465C72.9489 63.3369 72.8672 63.8272 72.8672 64.2767C72.8263 65.0122 72.9489 65.666 73.1532 66.1972C73.521 67.0961 74.2565 67.5047 75.4006 67.5047C76.0952 67.5047 76.8307 67.2596 77.6071 66.7692C78.3835 66.2789 79.119 65.666 79.8545 64.9713C80.59 64.2767 81.2846 63.5412 81.9384 62.7648C82.5922 61.9885 83.1642 61.3347 83.6137 60.8035C83.3686 63.0509 83.246 64.8487 83.1642 66.2789C83.0825 67.709 83.5729 68.9349 84.6761 70.0381C85.6159 70.9779 86.5966 71.264 87.659 70.9779C88.7214 70.651 89.8246 70.0381 90.887 69.0166C91.9494 68.0359 92.9709 66.8101 93.9516 65.3799C94.1151 65.1756 94.2376 64.9305 94.3602 64.7262C95.1366 63.5412 95.7904 62.3562 96.2807 61.2121C96.8936 59.8637 97.3022 58.6787 97.5474 57.6163C97.8743 56.7174 97.7926 56.1453 97.384 55.9819ZM83.6137 54.8786C82.9599 55.9819 82.1427 57.1668 81.1212 58.4744C80.0996 59.7411 79.1598 60.8443 78.1792 61.825C77.2394 62.8057 76.749 63.0917 76.749 62.6831C76.749 62.1519 77.0351 61.3755 77.6071 60.3131C78.1792 59.2916 78.8329 58.2292 79.5685 57.2077C80.304 56.1862 81.0395 55.2463 81.8158 54.4291C82.5922 53.6119 83.1642 53.2033 83.532 53.2033C84.2266 53.2033 84.2675 53.7753 83.6137 54.8786Z"/>
    <path d="M108.54 48.2588C107.641 48.3405 106.946 48.79 106.415 49.648C106.047 50.4244 105.72 50.7922 105.434 50.7922C105.148 50.7922 104.862 50.7104 104.576 50.5061C104.249 50.3018 103.841 50.1384 103.309 49.9749C102.778 49.8115 102.002 50.0158 100.98 50.547C99.9997 50.9965 99.1007 51.8545 98.2835 53.0804C97.5071 54.2654 96.8125 55.5729 96.2404 57.0031C96.2404 57.0439 96.1996 57.0848 96.1996 57.1257C95.6275 58.5967 95.178 59.9859 94.892 61.3344C94.5651 62.6828 94.4425 63.7043 94.4425 64.399C94.4425 64.5215 94.4425 64.685 94.4834 64.8484C94.5242 65.2162 94.606 65.6248 94.7286 66.0743C94.9329 66.7281 95.2597 67.2184 95.7501 67.5861C96.2404 67.913 96.8942 67.9948 97.6706 67.7496C98.4469 67.5044 99.3867 66.7689 100.572 65.5431C101.266 64.8484 101.757 64.3581 102.002 64.0312C102.288 63.7043 102.329 63.9086 102.165 64.5624C102.002 65.2162 101.634 66.442 101.021 68.1991C100.408 69.9561 99.591 72.5304 98.6104 75.9218C97.2211 80.3757 96.2813 83.3995 95.7092 84.993C95.178 86.5458 94.8511 87.2404 94.7694 86.9952C94.6877 86.7501 94.7694 85.9328 95.0554 84.4618C95.3415 82.9908 95.5458 81.4381 95.6684 79.8037C95.8318 78.1692 95.8727 76.6165 95.7909 75.2272C95.7092 73.8379 95.3415 73.1433 94.6468 73.1433C94.2791 73.1433 93.8705 73.7971 93.5027 75.1046C93.135 76.4122 92.7672 78.0466 92.3995 80.008C92.0726 81.9693 91.7457 84.0941 91.4597 86.4232C91.1736 88.7114 90.9693 90.9179 90.8467 92.961C90.6833 95.0041 90.6016 96.7611 90.6016 98.1912C90.6016 99.6622 90.7241 100.52 90.9285 100.725C91.3779 101.338 91.95 101.542 92.6446 101.378C93.3393 101.174 93.9113 100.643 94.3608 99.8257C94.5242 99.5805 95.0146 98.273 95.7909 95.8621C96.6082 93.4513 97.5888 90.4685 98.733 86.9135C99.8771 83.3586 101.103 79.5585 102.41 75.4724C103.718 71.3862 104.903 67.5453 106.006 63.8678C107.069 60.2311 107.968 57.0848 108.703 54.4697C109.439 51.8546 109.806 50.261 109.806 49.7298C109.847 48.6674 109.398 48.177 108.54 48.2588ZM102.451 55.4503C102.084 56.5536 101.552 57.6977 100.899 58.8418C100.245 59.9859 99.6319 60.8849 99.0598 61.4978C98.4878 62.1107 98.3243 61.9473 98.6512 61.0483C98.8147 60.5171 99.0598 59.8225 99.3867 58.9644C99.7136 58.1063 100.081 57.33 100.49 56.5536C100.858 55.7772 101.225 55.1234 101.512 54.5923C101.838 54.0611 102.043 53.775 102.206 53.775C102.778 53.775 102.86 54.3471 102.451 55.4503Z"/>
    <path d="M123.697 55.9815C123.615 55.9815 123.37 56.3493 122.88 57.0848C122.43 57.8203 121.532 58.9644 120.224 60.4763C119.202 61.6204 118.344 62.5193 117.568 63.1731C116.792 63.8269 116.138 64.3172 115.566 64.6032C114.994 64.9301 114.503 65.0936 114.054 65.1344C113.645 65.1753 113.278 65.1753 112.951 65.1753C112.624 64.8076 112.501 64.3581 112.542 63.9086C112.583 63.4591 112.787 62.8462 113.196 62.0699C113.564 61.2935 114.258 60.3537 115.28 59.2096C116.832 57.4525 117.854 55.9407 118.467 54.6331C119.039 53.3664 119.325 52.3449 119.325 51.5276C119.325 50.7104 119.121 50.1384 118.671 49.8115C118.263 49.4846 117.813 49.2803 117.364 49.2803C116.301 49.2803 115.116 50.0566 113.85 51.5685C112.583 53.1212 111.52 54.8783 110.662 56.8805C109.804 58.8827 109.314 60.8849 109.11 62.8871C108.905 64.8893 109.314 66.4011 110.336 67.3818C111.112 68.2399 112.093 68.5259 113.278 68.3216C114.463 68.0765 115.647 67.5861 116.873 66.7689C118.058 65.9517 119.202 64.971 120.347 63.786C121.45 62.601 122.39 61.4161 123.125 60.272C123.861 59.1278 124.31 58.1472 124.433 57.3299C124.555 56.4719 124.31 56.0632 123.697 55.9815Z"/>
    <path d="M147.683 53.1619C147.438 52.7941 147.07 52.5081 146.661 52.3038C147.356 51.8952 147.683 51.2414 147.683 50.4242C147.683 49.7704 147.438 49.1983 146.988 48.7488C146.539 48.2585 145.967 48.0542 145.313 48.0542H141.758V56.9211H145.64C146.334 56.9211 146.906 56.6759 147.397 56.1856C147.887 55.6953 148.132 55.1232 148.132 54.4286C148.05 53.9791 147.928 53.5296 147.683 53.1619ZM142.616 48.9123H145.313C145.721 48.9123 146.089 49.0757 146.375 49.3618C146.661 49.6478 146.825 50.0155 146.825 50.465C146.825 50.8736 146.661 51.2414 146.375 51.5683C146.089 51.8543 145.721 52.0177 145.313 52.0177H142.616V48.9123ZM146.702 55.6135C146.375 55.9404 146.007 56.1039 145.599 56.1039H142.616V52.835H145.599C146.048 52.835 146.416 52.9984 146.702 53.3253C147.029 53.6522 147.152 54.0199 147.152 54.4694C147.152 54.9189 147.029 55.2866 146.702 55.6135Z"/>
    <path d="M152.504 56.1039V52.8758H156.427V52.0586H152.504V48.9123H156.713V48.0542H151.605V56.9211H156.795V56.1039H152.504Z"/>
    <path d="M163.904 48.0542H163.005L159.613 56.9211H160.553L161.37 54.7554L161.697 53.9382L163.495 49.1983L165.293 53.9382L165.62 54.7554L166.437 56.9211H167.377L163.904 48.0542Z"/>
    <path d="M175.797 48.0547V53.8978C175.797 54.5925 175.593 55.1645 175.143 55.5732C174.735 55.9818 174.122 56.1861 173.386 56.1861C172.651 56.1861 172.038 55.9818 171.629 55.5732C171.22 55.1645 171.016 54.5925 171.016 53.8978V48.0547H170.117V53.8978C170.117 54.8785 170.403 55.614 171.016 56.1861C171.629 56.7581 172.405 57.0442 173.386 57.0442C174.367 57.0442 175.143 56.7581 175.756 56.1861C176.369 55.614 176.655 54.8377 176.655 53.8978V48.0547H175.797Z"/>
    <path d="M179.84 48.0542V48.9123H182.578V56.9211H183.476V48.9123H186.214V48.0542H179.84Z"/>
    <path d="M194.838 48.0545L192.223 52.3858L189.567 48.0545H188.586L191.773 53.2439V56.8806H192.672V53.2439L195.859 48.0137H194.838V48.0545Z"/>
    <path d="M144.128 61.8247H143.637L141.758 66.7281H142.289L142.738 65.5022L142.902 65.0527L143.883 62.4376L144.863 65.0527L145.027 65.5022L145.476 66.7281H146.007L144.128 61.8247Z"/>
    <path d="M150.867 66.0745C150.581 66.2379 150.214 66.3605 149.846 66.3605C149.233 66.3605 148.743 66.1562 148.334 65.7476C147.925 65.339 147.762 64.8486 147.762 64.2766C147.762 63.7045 147.966 63.2142 148.334 62.8056C148.743 62.3969 149.233 62.1926 149.846 62.1926C150.214 62.1926 150.541 62.2744 150.867 62.4787C151.153 62.6421 151.399 62.8873 151.562 63.2142L152.012 62.969C151.807 62.6013 151.521 62.3152 151.153 62.0701C150.786 61.8657 150.377 61.7432 149.887 61.7432C149.151 61.7432 148.538 61.9883 148.048 62.4787C147.558 62.969 147.312 63.5819 147.312 64.2766C147.312 64.9712 147.558 65.5841 148.048 66.0745C148.538 66.5648 149.151 66.81 149.887 66.81C150.336 66.81 150.745 66.6874 151.153 66.4831C151.521 66.2788 151.807 65.9519 152.012 65.5841L151.562 65.339C151.399 65.6658 151.153 65.911 150.867 66.0745Z"/>
    <path d="M155.733 61.8247H155.243L153.363 66.7281H153.894L154.344 65.5022L154.507 65.0527L155.488 62.4376L156.469 65.0527L156.632 65.5022L157.082 66.7281H157.613L155.733 61.8247Z"/>
    <path d="M162.922 62.5198C162.473 62.0295 161.941 61.8252 161.247 61.8252H159.367V66.7285H161.247C161.901 66.7285 162.473 66.4834 162.922 66.0339C163.372 65.5844 163.576 64.9715 163.576 64.2769C163.576 63.5822 163.372 63.0102 162.922 62.5198ZM162.595 65.707C162.268 66.0748 161.819 66.2791 161.288 66.2791H159.898V62.3155H161.288C161.819 62.3155 162.268 62.5198 162.595 62.8876C162.922 63.2553 163.126 63.7457 163.126 64.3177C163.126 64.8489 162.922 65.2984 162.595 65.707Z"/>
    <path d="M166.029 66.2787V64.4808H168.195V64.0314H166.029V62.3152H168.399V61.8657H165.539V66.7691H168.399V66.3196H166.029V66.2787Z"/>
    <path d="M174.284 61.8247L172.65 64.5624L171.015 61.8247H170.402V66.7281H170.893V62.5602L172.609 65.4205H172.691L174.407 62.5602V66.7281H174.897V61.8247H174.284Z"/>
    <path d="M180.084 61.8252L178.613 64.236L177.142 61.8252H176.57L178.327 64.7263V66.7694H178.818V64.7672L180.575 61.8661H180.084V61.8252Z"/>
    <path d="M133.911 46.7061H133.176V68.4034H133.911V46.7061Z"/>
</svg>