<svg width="234" height="86" viewBox="0 0 234 86" fill="#3c474e" xmlns="http://www.w3.org/2000/svg">
    <path d="M5.18973 85.6738C2.58148 85.6738 0.736607 84.2106 0.609375 82.1749H2.51785C2.64509 83.2564 3.59933 84.0834 5.18973 84.0834C6.6529 84.0834 7.47989 83.32 7.47989 82.4294C7.47989 79.9484 0.800215 81.4115 0.800215 77.2129C0.800215 75.4953 2.45423 74.0957 4.93525 74.0957C7.41627 74.0957 9.0703 75.4316 9.19753 77.6582H7.28905C7.22543 76.5131 6.33482 75.6861 4.87165 75.6861C3.4721 75.6861 2.64509 76.3223 2.64509 77.2765C2.64509 79.9484 9.19753 78.4852 9.26115 82.493C9.26115 84.2742 7.67075 85.6738 5.18973 85.6738Z"/>
    <path d="M20.5218 75.8133H19.0586V74.2865H20.5218V71.4238H22.3666V74.2865H25.2929V75.8133H22.3666V82.4294C22.3666 83.5109 22.7483 83.9562 23.957 83.9562H25.3566V85.5466H23.639C21.6669 85.5466 20.5218 84.7196 20.5218 82.493V75.8133Z"/>
    <path d="M40.4961 74.0322C42.5954 74.0322 44.0586 75.1137 44.6947 76.2588V74.2231H46.6032V85.4831H44.6947V83.3838C43.995 84.5925 42.5318 85.6739 40.4961 85.6739C37.5061 85.6739 35.1523 83.3202 35.1523 79.8213C35.1523 76.3224 37.4425 74.0322 40.4961 74.0322ZM40.8778 75.6862C38.8421 75.6862 37.0608 77.213 37.0608 79.8213C37.0608 82.4932 38.7785 84.0199 40.8778 84.0199C42.9135 84.0199 44.6947 82.4932 44.6947 79.8213C44.6947 77.2766 42.9135 75.6862 40.8778 75.6862Z"/>
    <path d="M58.3733 75.8133H56.9102V74.2865H58.3733V71.4238H60.2182V74.2865H63.1445V75.8133H60.2182V82.4294C60.2182 83.5109 60.5999 83.9562 61.8086 83.9562H63.2082V85.5466H61.4905C59.5184 85.5466 58.3733 84.7196 58.3733 82.493V75.8133Z"/>
    <path d="M78.5396 85.6739C75.3588 85.6739 72.9414 83.3838 72.9414 79.8213C72.9414 76.2588 75.2316 74.0322 78.5396 74.0322C81.784 74.0322 83.947 76.3224 83.947 79.4396C83.947 79.8213 83.947 80.203 83.8834 80.5847H74.8499C74.9771 82.8748 76.5675 84.1472 78.5396 84.1472C80.2572 84.1472 81.2751 83.2565 81.7204 82.0478H83.7561C83.12 84.0836 81.3387 85.6739 78.5396 85.6739ZM74.9135 79.0579H82.0385C82.0385 76.8313 80.3845 75.6226 78.476 75.6226C76.6311 75.6226 75.1043 76.8313 74.9135 79.0579Z"/>
    <path d="M113.274 85.6739C110.093 85.6739 107.676 83.3838 107.676 79.8213C107.676 76.2588 110.157 74.0322 113.401 74.0322C116.582 74.0322 119.127 76.2588 119.127 79.8213C119.063 83.4474 116.455 85.6739 113.274 85.6739ZM113.274 84.0835C115.246 84.0835 117.155 82.7476 117.155 79.8849C117.155 77.0222 115.31 75.6862 113.338 75.6862C111.366 75.6862 109.584 77.0222 109.584 79.8849C109.584 82.7476 111.302 84.0835 113.274 84.0835Z"/>
    <path d="M130.069 75.8134H128.605V74.2866H130.069V73.4596C130.069 70.9786 131.277 69.8335 134.204 69.8335V71.4239C132.55 71.4239 131.977 72.0601 131.977 73.5232V74.3502H134.331V75.877H131.977V85.6103H130.069V75.8134Z"/>
    <path d="M174.662 79.1215C174.662 76.8313 173.454 75.6226 171.609 75.6226C169.7 75.6226 168.428 76.8313 168.428 79.2487V85.4831H166.583V79.1215C166.583 76.8313 165.374 75.6226 163.53 75.6226C161.621 75.6226 160.349 76.8313 160.349 79.2487V85.4831H158.504V74.2231H160.349V75.8771C161.112 74.6684 162.448 74.0322 163.911 74.0322C165.756 74.0322 167.283 74.8592 168.046 76.5132C168.682 74.8592 170.336 74.0322 172.054 74.0322C174.599 74.0322 176.634 75.6226 176.634 78.867V85.4831H174.79V79.1215H174.662Z"/>
    <path d="M187.516 71.1698C187.516 70.47 188.088 69.8975 188.788 69.8975C189.488 69.8975 189.997 70.47 189.997 71.1698C189.997 71.8696 189.424 72.4421 188.788 72.4421C188.088 72.4421 187.516 71.8696 187.516 71.1698ZM187.834 74.2233H189.679V85.4834H187.834V74.2233Z"/>
    <path d="M209.335 79.1215C209.335 76.8313 208.063 75.6226 206.218 75.6226C204.31 75.6226 202.974 76.8313 202.974 79.2487V85.4831H201.129V74.2231H202.974V75.8135C203.737 74.6684 205.073 74.0322 206.6 74.0322C209.208 74.0322 211.18 75.6226 211.18 78.867V85.4831H209.335V79.1215Z"/>
    <path d="M227.144 74.0326C228.926 74.0326 230.516 74.9233 231.343 76.2592V70.2793H233.252V85.4835H231.343V83.3842C230.643 84.6565 229.18 85.6743 227.144 85.6743C224.091 85.6743 221.801 83.3206 221.801 79.8217C221.801 76.3228 224.091 74.0326 227.144 74.0326ZM227.463 75.6867C225.427 75.6867 223.646 77.2134 223.646 79.8217C223.646 82.4936 225.363 84.0203 227.463 84.0203C229.498 84.0203 231.28 82.4936 231.28 79.8217C231.28 77.2771 229.562 75.6867 227.463 75.6867Z"/>
    <path d="M110.028 62.963C112.128 56.0925 114.291 49.1583 118.171 42.9876C120.207 39.6795 123.07 36.8168 126.696 35.29C131.467 33.1907 134.648 37.3258 138.465 39.2978C142.6 41.4608 146.989 38.3436 149.343 35.1628C151.697 31.982 152.778 28.1014 155.068 24.857C156.659 22.6305 158.504 21.4218 160.476 23.7119C161.748 25.2387 161.875 27.5289 161.303 29.3101C160.985 30.2644 164.356 30.0099 164.611 29.1193C165.438 26.5747 164.865 23.0758 162.321 21.549C159.967 20.1494 157.295 20.722 155.005 21.9307C151.633 23.6483 149.916 27.9742 148.325 31.2186C147.18 33.5088 146.035 35.6717 144.19 37.453C141.582 39.9976 138.274 36.1171 136.175 34.7811C130.385 31.0914 122.815 34.5903 118.426 38.7889C111.937 44.9597 109.392 54.8838 106.784 63.1538C106.402 64.0445 109.774 63.8536 110.028 62.963Z"/>
    <path d="M127.969 40.443C132.868 33.9542 137.957 26.9565 138.084 18.4955C138.148 13.0882 135.603 7.68083 131.723 4.05472C125.743 -1.47986 116.264 1.31924 109.457 3.41856C100.296 6.21767 91.5174 10.2891 83.3745 15.3147C78.3489 18.3683 67.8523 23.9029 69.061 31.2824C70.0788 37.6439 75.0409 41.3973 80.9572 43.0513C85.4103 44.3236 90.0542 45.0234 94.571 46.0413C97.1156 46.6138 99.7239 47.1227 102.268 47.6953C102.714 47.8225 105.004 48.1406 104.813 49.0948C104.622 50.049 103.414 50.7488 102.714 51.2578C100.933 52.4665 98.5152 52.9118 96.4795 53.5479C93.8712 54.3749 91.3266 55.202 88.7183 56.029C83.5654 57.683 78.3489 59.337 73.196 60.991C72.8779 61.1182 74.2139 64.1718 74.9136 63.981C83.1201 61.3727 91.263 58.7644 99.4694 56.1562C103.923 54.7566 109.139 52.5301 105.322 47.3772C103.604 45.087 100.869 44.8326 98.2607 44.26C93.9984 43.3694 89.6725 42.4151 85.4103 41.5245C81.5933 40.6975 77.7764 39.9977 74.2775 38.1529C68.1067 34.8448 71.542 28.9286 74.9136 25.5569C80.2574 20.2768 87.8277 16.4598 94.4437 13.1518C101.505 9.65293 109.012 6.85382 116.709 4.94534C120.59 3.9911 124.598 3.60941 128.542 4.62726C134.204 6.09043 136.303 11.4978 136.239 16.8415C136.176 24.7299 130.768 31.664 126.252 37.6439C125.743 38.1529 127.842 40.5703 127.969 40.443Z"/>
</svg>