<svg width="234" height="56" viewBox="0 0 234 56" fill="#3c474e" xmlns="http://www.w3.org/2000/svg">
    <path d="M19.3458 35.8835V36.2114H12.5537V35.8835C13.959 35.8835 14.6616 34.8998 14.1464 33.4946L12.3664 28.9978H5.48067L4.59068 31.3398C3.09175 35.0403 5.66804 35.8835 6.93276 35.8835V36.2114H0.28125V35.8835C2.34228 35.8835 3.13858 33.7288 3.74752 32.2767C3.93489 31.8083 8.75957 19.6763 8.66589 19.4421C8.19747 18.5053 7.40118 18.4116 7.40118 18.4116C9.41536 17.99 10.5396 16.6316 10.5396 16.6316C10.5396 16.6316 17.0974 33.3072 17.1442 33.4009C18.0342 35.5556 18.2684 35.8835 19.3458 35.8835ZM12.2727 28.5762L8.99379 20.1447L5.66803 28.5762H12.2727Z"/>
    <path d="M44.1279 35.8835V36.2114H39.2095C36.0711 36.2114 36.4927 26.2341 31.4338 26.2341V33.9162C31.4338 35.6493 32.7454 35.8367 33.9632 35.8367V36.1646H26.2344V35.8367C27.4523 35.8367 28.6233 35.6025 28.6233 34.0567V18.8332C28.6233 17.1937 27.1712 17.0064 26.2344 17.0064V16.6785H33.4011V17.0064C32.4175 17.0064 31.3869 17.2406 31.3869 18.8332V25.9063L31.9491 25.8594C33.1201 25.6721 34.1506 24.9694 34.9001 24.0794L38.6474 19.5358C38.6474 19.5358 40.8958 17.0064 37.3827 17.0064V16.6785H44.0342V17.0532C41.5984 17.0532 40.0058 19.2079 40.0058 19.2079C40.0058 19.2079 34.5722 25.7657 34.338 25.9063C41.3174 28.061 38.9284 35.8835 44.1279 35.8835Z"/>
    <path d="M83.4233 36.4927C79.8165 36.4927 74.5234 33.3074 74.5234 26.7496C74.5234 16.0229 84.0791 16.3976 84.0791 16.3976C88.1543 16.3039 91.0585 19.0208 91.0585 19.0208L90.7306 23.7986H90.2622C90.0748 20.7071 87.7796 16.8192 84.0323 16.8192C78.1302 16.7724 77.7087 24.0796 77.8492 26.7496C78.4581 37.0548 88.3417 35.8369 91.1522 30.2159C91.1054 30.2627 89.7938 36.4927 83.4233 36.4927Z"/>
    <path d="M114.574 18.9269V33.9162C114.574 35.5556 115.839 35.8835 116.635 35.8835V36.2114H109.796V35.8835C110.827 35.8835 111.81 35.6493 111.81 33.963V26.6557H102.864V33.963C102.864 35.6493 103.894 35.8835 104.925 35.8835V36.2114H98.0391V35.8835C98.8822 35.8835 100.147 35.6025 100.147 33.9162V18.9737C100.147 17.3342 98.8822 17.0064 98.0391 17.0064V16.6785H104.925V17.0064C103.894 17.0064 102.864 17.2406 102.864 18.9737V26.281H111.81V18.9269C111.81 17.2406 110.78 17.0064 109.703 17.0064V16.6785H116.541V17.0064C115.745 17.0064 114.574 17.2874 114.574 18.9269Z"/>
    <path d="M137.998 34.0567C138.606 35.743 139.778 35.8366 140.714 35.8366V36.1645H136.264C133.267 36.1645 134.11 26.9836 129.8 26.8431H128.723V33.8693C128.723 35.9303 130.55 35.8366 131.299 35.8366V36.1645H123.57V35.8366C124.226 35.8366 125.912 35.9303 125.912 33.9161V18.9268C125.912 16.9126 124.086 16.9595 123.57 16.9595V16.6316H131.018C133.313 16.6316 137.998 17.1 137.998 21.7373C137.998 24.5478 135.796 25.9062 134.297 26.4215C133.594 26.7025 132.939 26.8431 132.095 26.8899C135.609 26.8899 136.78 30.7309 137.998 34.0567ZM128.723 26.562H131.065C131.346 26.562 134.765 26.3278 134.765 21.7373C134.765 19.0205 133.969 17.0063 131.018 17.0063C130.55 17.0063 128.676 17.0063 128.676 18.9268V26.562H128.723Z"/>
    <path d="M152.426 33.963C152.426 35.6025 153.41 35.8835 154.44 35.8835V36.2114H147.648V35.8835C148.679 35.8835 149.663 35.6025 149.663 33.963V18.9269C149.663 17.2874 148.679 17.0064 147.648 17.0064V16.6785H154.44V17.0064C153.41 17.0064 152.426 17.2874 152.426 18.9269V33.963Z"/>
    <path d="M172.048 35.5557C167.785 38.0852 161.649 35.3215 161.649 35.3215L162.07 30.5437H162.445C162.632 35.2747 167.082 36.7736 169.097 36.071C171.204 35.3683 171.86 32.23 170.689 30.4031C169.331 28.3889 166.801 27.1711 164.74 26C162.773 24.8758 161.368 22.768 161.461 20.5196C161.508 18.8333 162.914 17.2875 164.506 16.7254C168.535 15.2733 173.219 17.5685 173.219 17.5685L172.797 22.3932H172.422C172.095 17.2875 167.129 16.0228 165.209 17.0533C163.991 17.7091 163.663 19.5359 164.038 20.8475C164.506 22.4401 165.865 23.4237 167.317 24.1732C168.909 25.0632 170.502 25.9063 171.86 27.1711C174.671 29.841 174.39 34.1505 172.048 35.5557Z"/>
    <path d="M197.672 22.44H197.109C196.828 19.9574 195.517 16.9595 192.191 16.9595H190.645V33.8693C190.645 35.743 192.144 35.7898 193.409 35.7898V36.1646H185.071V35.7898C186.383 35.7898 187.835 35.6961 187.835 33.8693V17.0064H186.102C182.823 17.0064 181.745 19.9574 181.371 22.4868H180.762L181.183 16.6785H197.203L197.672 22.44Z"/>
    <path d="M209.383 33.963C209.383 35.6025 210.367 35.8835 211.397 35.8835V36.2114H204.605V35.8835C205.636 35.8835 206.62 35.6025 206.62 33.963V18.9269C206.62 17.2874 205.636 17.0064 204.605 17.0064V16.6785H211.397V17.0064C210.367 17.0064 209.383 17.2874 209.383 18.9269V33.963Z"/>
    <path d="M232.896 36.2114H218.375V35.8835C219.359 35.8835 220.764 35.5088 220.764 33.963V18.9269C220.764 17.0532 218.937 17.0064 218.375 17.0064V16.6785H232.427L232.755 21.5968H232.334C231.819 18.8332 229.758 17.0064 226.806 17.0064H225.542C224.137 17.0064 223.528 17.8027 223.528 18.8332V26.1873H224.745C227.041 26.0936 228.399 24.501 228.399 22.721H228.821V29.9346H228.399C228.399 28.1547 226.947 26.6089 224.699 26.5152H223.528V34.0099C223.528 35.7898 225.495 35.8367 225.542 35.8367H227.275C230.975 35.8367 232.615 33.3541 232.849 30.6841H233.271L232.896 36.2114Z"/>
    <path d="M53.9604 43.2853C53.5388 43.2853 53.2109 42.9574 53.2109 42.5358V10.3557C53.2109 9.93409 53.5388 9.6062 53.9604 9.6062C54.382 9.6062 54.7099 9.93409 54.7099 10.3557V42.5358C54.7099 42.9574 54.382 43.2853 53.9604 43.2853Z"/>
    <path d="M59.9604 52.0901C59.5388 52.0901 59.2109 51.7623 59.2109 51.3407V1.59492C59.2109 1.17335 59.5388 0.845459 59.9604 0.845459C60.382 0.845459 60.7099 1.17335 60.7099 1.59492V51.3407C60.7099 51.7623 60.3351 52.0901 59.9604 52.0901Z"/>
    <path d="M65.9096 43.2853C65.4881 43.2853 65.1602 42.9574 65.1602 42.5358V10.3557C65.1602 9.93409 65.4881 9.6062 65.9096 9.6062C66.3312 9.6062 66.6591 9.93409 66.6591 10.3557V42.5358C66.6591 42.9574 66.3312 43.2853 65.9096 43.2853Z"/>
    <path d="M82.7728 48.6251V51.4825H86.0517V48.6251H86.9417V55.4172H86.0517V52.2319H82.7728V55.4172H81.8828V48.6251H82.7728Z"/>
    <path d="M102.308 51.9038C102.308 54.2459 100.903 55.4638 99.1697 55.4638C97.3897 55.4638 96.125 54.0585 96.125 52.0443C96.125 49.8896 97.4834 48.4844 99.2634 48.4844C101.09 48.4844 102.308 49.9365 102.308 51.9038ZM97.015 52.0443C97.015 53.4964 97.8113 54.808 99.1697 54.808C100.575 54.808 101.324 53.5433 101.324 51.9975C101.324 50.6391 100.622 49.2338 99.1697 49.2338C97.7645 49.187 97.015 50.5454 97.015 52.0443Z"/>
    <path d="M111.488 48.625H112.378V54.6676H115.282V55.417H111.488V48.625Z"/>
    <path d="M124.273 48.7186C124.789 48.625 125.444 48.5781 126.147 48.5781C127.412 48.5781 128.302 48.8592 128.911 49.4213C129.52 49.9834 129.848 50.7797 129.848 51.857C129.848 52.9812 129.52 53.8712 128.864 54.4802C128.208 55.1359 127.178 55.4638 125.866 55.4638C125.257 55.4638 124.742 55.417 124.273 55.3702V48.7186ZM125.163 54.7144C125.398 54.7612 125.726 54.7612 126.053 54.7612C127.927 54.7612 128.958 53.7307 128.958 51.9039C128.958 50.3113 128.068 49.2807 126.194 49.2807C125.726 49.2807 125.398 49.3276 125.163 49.3744V54.7144Z"/>
    <path d="M139.87 48.625V55.417H138.98V48.625H139.87Z"/>
    <path d="M149.477 55.3702V48.625H150.413L152.568 52.0444C153.083 52.8407 153.458 53.5434 153.786 54.246C153.692 53.356 153.692 52.5129 153.692 51.4355V48.625H154.535V55.417H153.645L151.491 51.9976C151.022 51.2481 150.554 50.4518 150.226 49.7492H150.179C150.226 50.5923 150.273 51.4355 150.273 52.5597V55.4639H149.477V55.3702Z"/>
    <path d="M169.289 55.09C168.914 55.2306 168.118 55.4648 167.228 55.4648C166.197 55.4648 165.354 55.1837 164.699 54.5748C164.136 54.0127 163.762 53.1227 163.762 52.0453C163.762 50.0312 165.167 48.5322 167.415 48.5322C168.212 48.5322 168.821 48.7196 169.102 48.8601L168.867 49.5627C168.493 49.4222 168.071 49.2817 167.368 49.2817C165.729 49.2817 164.652 50.3122 164.652 51.9985C164.652 53.7316 165.682 54.7153 167.275 54.7153C167.837 54.7153 168.259 54.6216 168.446 54.5279V52.5138H167.087V51.8111H169.336V55.09H169.289Z"/>
    <path d="M178.566 54.3396C178.941 54.5738 179.55 54.7611 180.159 54.7611C181.049 54.7611 181.564 54.2927 181.564 53.5901C181.564 52.9343 181.189 52.6064 180.299 52.2317C179.175 51.857 178.519 51.248 178.519 50.3112C178.519 49.2338 179.409 48.4844 180.721 48.4844C181.424 48.4844 181.939 48.6249 182.22 48.8123L181.986 49.5149C181.752 49.3744 181.33 49.187 180.721 49.187C179.784 49.187 179.456 49.7491 179.456 50.2175C179.456 50.8733 179.878 51.1543 180.815 51.5291C181.939 51.9507 182.548 52.5128 182.548 53.5433C182.548 54.5738 181.752 55.5106 180.159 55.5106C179.503 55.5106 178.801 55.3232 178.426 55.089L178.566 54.3396Z"/>
</svg>