<svg width="243" height="91" viewBox="0 0 243 91" fill="#ffffff" xmlns="http://www.w3.org/2000/svg">
    <path d="M3.20282 53.6633C3.20282 52.5428 3.20282 51.5752 3.20282 50.8622C3.20282 50.1492 3.20282 49.538 3.20282 49.1306C3.20282 48.6723 3.20282 48.3158 3.20282 48.0611C3.20282 47.8065 3.20282 47.5518 3.15189 47.2972C3.10096 46.7879 2.99911 46.3805 2.84632 46.1258C2.69354 45.8712 2.38796 45.7184 1.87868 45.6166C1.77682 45.5656 1.57311 45.5656 1.3694 45.5656C1.16568 45.5656 1.0129 45.5656 0.860111 45.5656C0.707326 45.5656 0.605469 45.5147 0.605469 45.4128C0.605469 45.2601 0.758254 45.1582 1.06382 45.1582C1.42032 45.1582 1.77682 45.1582 2.13332 45.1582C2.48982 45.1582 2.84632 45.1582 3.20282 45.2091C3.50839 45.2091 3.81396 45.2091 4.01767 45.2601C4.22139 45.2601 4.37417 45.2601 4.4251 45.2601C4.52696 45.2601 4.67974 45.2601 4.93439 45.2601C5.18903 45.2601 5.4946 45.26 5.90203 45.2091C6.25853 45.2091 6.66595 45.2091 7.07338 45.1582C7.48081 45.1582 7.93916 45.1582 8.39752 45.1582C9.11052 45.1582 9.9763 45.1582 10.9949 45.1582C12.0134 45.1582 13.032 45.26 14.1015 45.4638C15.171 45.6675 16.2405 45.9731 17.31 46.4314C18.3795 46.8898 19.3471 47.6028 20.2129 48.4686C20.5694 48.876 20.9259 49.2834 21.2824 49.7927C21.6389 50.302 21.9445 50.8622 22.1991 51.4733C22.4538 52.0845 22.6575 52.7975 22.8103 53.5104C22.9631 54.2744 23.0649 55.0893 23.0649 55.955C23.0649 56.8717 22.9631 57.7375 22.8103 58.6033C22.6575 59.4181 22.4028 60.1821 22.0973 60.8951C21.7917 61.6081 21.4861 62.2192 21.0787 62.7794C20.6713 63.3396 20.3148 63.8489 19.9073 64.3073C19.6018 64.6638 19.1944 65.0203 18.6851 65.3768C18.1758 65.7842 17.5646 66.1407 16.8516 66.4972C16.1386 66.8537 15.2729 67.1083 14.3052 67.363C13.3376 67.5667 12.2172 67.7195 10.9949 67.7195C10.3837 67.7195 9.67073 67.7195 8.95773 67.6686C8.24474 67.6177 7.53174 67.5667 6.9206 67.5667C6.25853 67.4649 5.69831 67.4649 5.23996 67.4139C4.7816 67.363 4.52696 67.363 4.4251 67.363C4.37417 67.363 4.27232 67.363 4.01767 67.363C3.81396 67.363 3.55932 67.363 3.20282 67.4139C2.89725 67.4139 2.59168 67.4139 2.28611 67.4649C1.98054 67.4649 1.72589 67.5158 1.47125 67.5158C1.16568 67.5158 1.0129 67.4139 1.0129 67.2611C1.0129 67.1593 1.11475 67.1083 1.26754 67.1083C1.42032 67.1083 1.57311 67.1084 1.72589 67.0574C1.87868 67.0574 2.03147 67.0065 2.18425 66.9556C2.48982 66.9046 2.69353 66.7009 2.79539 66.4463C2.89725 66.1407 2.99911 65.7842 3.05003 65.3768C3.15189 64.7657 3.15189 63.8999 3.20282 62.7794C3.20282 61.659 3.20282 60.3858 3.20282 59.0107V53.6633ZM5.69831 56.8717C5.69831 57.6357 5.69831 58.3996 5.69831 59.1126C5.69831 59.8256 5.69831 60.4367 5.69831 61.0479C5.69831 61.6081 5.69831 62.1174 5.74924 62.4739C5.74924 62.8813 5.74924 63.1359 5.74924 63.2887C5.74924 63.4415 5.74924 63.6452 5.80017 63.8999C5.80017 64.1036 5.8511 64.3582 5.8511 64.5619C5.8511 64.7656 5.90203 64.9694 5.95296 65.1731C6.00388 65.3259 6.05481 65.4786 6.10574 65.5805C6.2076 65.7333 6.36038 65.8351 6.5641 65.9879C6.76781 66.1407 7.07338 66.2426 7.42988 66.3954C7.83731 66.4972 8.29566 66.5991 8.90681 66.65C9.51795 66.7009 10.2309 66.7518 11.0967 66.7518C12.4718 66.7518 13.745 66.4972 14.9673 66.0389C16.1896 65.5805 17.2081 64.8675 18.1249 64.0017C18.4814 63.6452 18.8379 63.1869 19.1434 62.6267C19.449 62.1174 19.7036 61.5062 19.9073 60.8951C20.1111 60.2839 20.2638 59.6219 20.3657 58.9598C20.4676 58.2977 20.5185 57.6357 20.5185 56.9227C20.5185 55.955 20.4166 55.1402 20.2638 54.3762C20.1111 53.6123 19.8564 52.8993 19.5508 52.2882C19.2453 51.677 18.9397 51.1168 18.6341 50.6585C18.2776 50.2001 17.9721 49.7927 17.6665 49.4871C16.9535 48.7741 16.2405 48.163 15.4766 47.7555C14.7126 47.3481 13.8978 46.9916 13.1339 46.737C12.319 46.4823 11.5042 46.3296 10.6384 46.2786C9.77259 46.2277 8.90681 46.1768 8.04102 46.1768C7.88824 46.1768 7.73545 46.1768 7.53174 46.1768C7.32802 46.1768 7.17524 46.1768 6.97152 46.2277C6.76781 46.2277 6.61503 46.2786 6.46224 46.2786C6.30945 46.3296 6.2076 46.3296 6.15667 46.3296C5.90203 46.4314 5.80017 46.6351 5.80017 46.9407C5.80017 47.1953 5.80017 47.5518 5.80017 48.0102C5.80017 48.4685 5.80017 49.0288 5.80017 49.589C5.80017 50.1492 5.80017 50.7603 5.80017 51.3715C5.80017 51.9826 5.80017 52.5938 5.80017 53.154V56.8717H5.69831Z"/>
    <path d="M29.6352 55.7005C29.6352 54.7328 29.6352 53.9689 29.6352 53.3577C29.6352 52.7466 29.6352 52.2373 29.6352 51.8808C29.6352 51.4734 29.6352 51.1678 29.6352 50.9641C29.6352 50.7604 29.6352 50.5058 29.5843 50.353C29.5334 49.9455 29.4825 49.589 29.3297 49.3853C29.2278 49.1816 28.9222 49.0288 28.5148 48.9779C28.413 48.9779 28.2602 48.927 28.1074 48.927C27.9037 48.927 27.7509 48.927 27.649 48.927C27.4962 48.927 27.4453 48.876 27.4453 48.7233C27.4453 48.5705 27.5981 48.5195 27.8527 48.5195C28.1583 48.5195 28.4639 48.5195 28.8204 48.5195C29.1769 48.5195 29.4825 48.5195 29.788 48.5195C30.0936 48.5195 30.3482 48.5195 30.5519 48.5195C30.7557 48.5195 30.9084 48.5195 30.9594 48.5195C31.0103 48.5195 31.1631 48.5195 31.4687 48.5195C31.7233 48.5195 32.0289 48.5195 32.3854 48.5195C32.7419 48.5195 33.0474 48.5195 33.4039 48.5195C33.7604 48.5195 34.0151 48.5195 34.2188 48.5195C35.0337 48.5195 35.8994 48.5705 36.7652 48.7233C37.631 48.876 38.3949 49.1307 39.057 49.64C39.2098 49.7418 39.4135 49.9455 39.6172 50.1492C39.8209 50.353 40.0246 50.6076 40.2284 50.9132C40.4321 51.2187 40.5849 51.5243 40.6867 51.8808C40.8395 52.2373 40.8904 52.6447 40.8904 53.0522C40.8904 53.9689 40.6358 54.8856 40.1774 55.8532C39.7191 56.77 38.9042 57.7885 37.6819 58.8071C38.7514 60.1312 39.7191 61.3535 40.6358 62.4739C41.5525 63.5944 42.3673 64.5111 43.1313 65.3259C43.8443 66.0389 44.4045 66.4973 44.8628 66.701C45.3212 66.9047 45.7286 67.0066 46.0342 67.0575C46.2888 67.1084 46.4926 67.1084 46.6453 67.1084C46.7981 67.1084 46.9 67.1084 46.9509 67.1084C47.1037 67.1084 47.2056 67.1594 47.2056 67.3121C47.2056 67.414 47.1546 67.4649 47.0528 67.4649C46.9509 67.5158 46.7981 67.5158 46.5435 67.5158H44.9138C44.1498 67.5158 43.5896 67.4649 43.2331 67.414C42.8257 67.3121 42.4692 67.2103 42.1636 67.0065C41.6034 66.701 41.0432 66.2426 40.5339 65.6315C40.0246 65.0204 39.3626 64.2564 38.6496 63.2888C38.3949 62.9323 38.0894 62.6267 37.8347 62.2193C37.5801 61.8628 37.2745 61.5063 37.0708 61.2007C36.8161 60.8952 36.6124 60.5896 36.4087 60.284C36.205 60.0294 36.0522 59.7747 35.8994 59.6219C35.7976 59.5201 35.6957 59.4691 35.5429 59.4691L32.2326 59.4182C32.1307 59.4182 32.0798 59.4691 32.0798 59.6219V60.2331C32.0798 61.4554 32.0798 62.5248 32.0798 63.4416C32.0798 64.3583 32.1307 65.1222 32.1817 65.6315C32.2326 65.988 32.2835 66.2936 32.4363 66.5482C32.5891 66.8029 32.8437 66.9047 33.2002 66.9556C33.353 67.0066 33.6077 67.0066 33.8114 67.0575C34.066 67.0575 34.2188 67.1084 34.3207 67.1084C34.4734 67.1084 34.5244 67.1594 34.5244 67.3121C34.5244 67.4649 34.3716 67.5158 34.1169 67.5158C33.7604 67.5158 33.4039 67.5158 33.0474 67.5158C32.6909 67.5158 32.3344 67.5158 32.0289 67.4649C31.7233 67.4649 31.4687 67.4649 31.2649 67.414C31.0612 67.414 30.9594 67.414 30.9084 67.414C30.501 67.414 30.1954 67.4649 29.9408 67.4649C29.6862 67.4649 29.3806 67.4649 29.075 67.5158C28.7695 67.5668 28.5148 67.5158 28.362 67.5158C28.1074 67.5158 27.9546 67.4649 27.9546 67.3121C27.9546 67.1594 28.0055 67.1084 28.1583 67.1084C28.2602 67.1084 28.413 67.1084 28.5657 67.0575C28.7185 67.0575 28.8713 67.0066 28.9732 66.9556C29.2278 66.9047 29.3806 66.7519 29.4825 66.5482C29.5334 66.3445 29.6352 66.0389 29.6862 65.6315C29.788 65.1222 29.788 64.4092 29.8389 63.4416C29.8389 62.4739 29.8389 61.4044 29.8389 60.1822V55.7005H29.6352ZM31.8761 57.8394C31.8761 57.9922 31.927 58.0941 32.0289 58.145C32.1307 58.1959 32.2835 58.2469 32.4872 58.2978C32.6909 58.3487 32.8947 58.3997 33.2002 58.3997C33.4549 58.4506 33.7604 58.4506 34.066 58.5015C34.3716 58.5015 34.6772 58.5524 34.9318 58.5524C35.2374 58.5524 35.5939 58.5525 35.8994 58.5015C36.2559 58.4506 36.5615 58.3487 36.8671 58.0941C37.3254 57.7885 37.6819 57.3302 37.9875 56.6681C38.2931 56.006 38.4459 55.1912 38.4459 54.2235C38.4459 52.6447 38.0384 51.4225 37.2745 50.5567C36.4596 49.6909 35.3902 49.2835 33.9642 49.2835C33.5567 49.2835 33.2002 49.2835 32.8437 49.3344C32.4872 49.3853 32.2326 49.3853 32.1307 49.4362C31.9779 49.5381 31.927 49.589 31.927 49.7418V57.8394H31.8761Z"/>
    <path d="M51.8909 60.8951C51.8909 60.233 51.84 59.7237 51.7381 59.3672C51.6362 59.0107 51.4835 58.6542 51.3307 58.2977C51.2797 58.2468 51.1779 58.0431 50.9742 57.7375C50.7705 57.432 50.5158 57.0245 50.2612 56.5662C49.9556 56.1078 49.65 55.5985 49.2935 55.0383C48.937 54.4781 48.6315 53.9688 48.275 53.4595C47.9185 52.9503 47.6129 52.441 47.3583 52.0336C47.1036 51.6261 46.8999 51.2696 46.7471 51.0659C46.4415 50.6075 46.136 50.2001 45.8304 49.8946C45.5248 49.589 45.2702 49.3853 45.0155 49.2325C44.8118 49.1306 44.6081 49.0288 44.4044 48.9778C44.2007 48.9269 44.0479 48.876 43.946 48.876C43.7933 48.876 43.6914 48.7741 43.6914 48.6213C43.6914 48.5195 43.7933 48.4686 43.997 48.4686C44.0988 48.4686 44.3025 48.4686 44.6081 48.4686C44.8628 48.4686 45.1683 48.4686 45.423 48.4686C45.7285 48.4686 45.9832 48.4686 46.1869 48.4686C46.3906 48.4686 46.5434 48.4686 46.5943 48.4686C46.6962 48.4686 46.9508 48.4685 47.4092 48.4176C47.8675 48.4176 48.3259 48.3667 48.8352 48.3667C48.988 48.3667 49.0898 48.3667 49.1407 48.4176C49.1917 48.4685 49.1917 48.4686 49.1917 48.5704C49.1917 48.6723 49.0389 48.7232 48.7843 48.8251C48.5805 48.9269 48.4787 49.0797 48.4787 49.2325C48.4787 49.3853 48.5296 49.589 48.5805 49.7418C48.6315 49.8946 48.7333 50.0473 48.8352 50.2001L53.5715 58.0431C53.6734 57.8903 53.8262 57.5847 54.0299 57.1773C54.2336 56.7699 54.4882 56.3625 54.7938 55.8532C55.0994 55.3439 55.4049 54.8346 55.7105 54.3253C56.0161 53.816 56.3217 53.3068 56.6272 52.7975C56.9328 52.3391 57.1874 51.8808 57.3912 51.5243C57.5949 51.1678 57.7477 50.9131 57.8495 50.7603C58.0023 50.5057 58.1042 50.251 58.206 50.0473C58.2569 49.8436 58.3079 49.6399 58.3079 49.4871C58.3079 49.1306 58.1551 48.9269 57.9004 48.8251C57.6458 48.7741 57.493 48.6723 57.493 48.5195C57.493 48.4176 57.6458 48.3667 57.9004 48.3667C58.2569 48.3667 58.6134 48.3667 58.9699 48.4176C59.3774 48.4176 59.5811 48.4686 59.6829 48.4686C59.7339 48.4686 59.8357 48.4686 60.0904 48.4686C60.2941 48.4686 60.5487 48.4686 60.8543 48.4686C61.1089 48.4686 61.4145 48.4686 61.6691 48.4686C61.9238 48.4686 62.1275 48.4686 62.2294 48.4686C62.4331 48.4686 62.5349 48.5195 62.5349 48.6213C62.5349 48.6723 62.484 48.7232 62.4331 48.7741C62.3821 48.825 62.2803 48.876 62.1784 48.876C62.0256 48.876 61.8219 48.876 61.6182 48.9269C61.4145 48.9778 61.1599 49.0797 60.9561 49.1815C60.7015 49.3343 60.4978 49.4871 60.345 49.6908C60.1922 49.8436 59.9376 50.0983 59.6829 50.4548C59.5302 50.6075 59.3264 50.9131 59.0718 51.3205C58.7662 51.728 58.4607 52.1863 58.1042 52.7465C57.7477 53.2558 57.3912 53.8161 57.0347 54.4272C56.6782 55.0383 56.3217 55.5985 55.9652 56.1078C55.6596 56.668 55.354 57.1264 55.0994 57.5338C54.8447 57.9412 54.6919 58.2468 54.5901 58.3996C54.3864 58.858 54.2845 59.2654 54.2845 59.7237C54.2845 60.1312 54.2845 60.5386 54.2845 60.946V63.085C54.2845 63.2887 54.2845 63.6452 54.2845 64.1036C54.2845 64.562 54.3355 65.0712 54.3355 65.5805C54.3864 65.937 54.4373 66.2426 54.5901 66.4972C54.7429 66.7519 54.9466 66.8537 55.354 66.9047C55.5068 66.9556 55.7614 66.9556 55.9652 67.0065C56.2198 67.0065 56.3726 67.0574 56.5254 67.0574C56.6782 67.0574 56.7291 67.1084 56.7291 67.2611C56.7291 67.4139 56.5763 67.4649 56.3217 67.4649C55.9652 67.4649 55.6087 67.4649 55.2522 67.4649C54.8957 67.4649 54.5392 67.4649 54.2336 67.4139C53.928 67.4139 53.6734 67.4139 53.4697 67.363C53.266 67.363 53.1641 67.363 53.1132 67.363C53.0622 67.363 52.9604 67.363 52.7567 67.363C52.553 67.363 52.3492 67.363 52.0946 67.4139C51.84 67.4139 51.5344 67.4139 51.2797 67.4649C51.0251 67.4649 50.7705 67.4649 50.5667 67.4649C50.3121 67.4649 50.1593 67.4139 50.1593 67.2611C50.1593 67.1084 50.2102 67.0574 50.363 67.0574C50.4649 67.0574 50.6177 67.0574 50.7705 67.0065C50.9232 67.0065 51.0251 66.9556 51.1779 66.9047C51.4325 66.8537 51.6362 66.7009 51.7381 66.4972C51.84 66.2935 51.8909 65.9879 51.9418 65.5805C51.9927 65.0712 51.9927 64.562 51.9927 64.1036C51.9927 63.6452 51.9927 63.2887 51.9927 63.085V60.8951H51.8909Z"/>
    <path d="M65.5884 67.6178C64.8754 67.5159 64.2642 67.3631 63.7549 67.1085C63.6022 67.0066 63.4494 66.9048 63.4494 66.8029C63.3984 66.7011 63.3984 66.4974 63.3984 66.1409C63.3984 65.5297 63.3984 64.9695 63.4494 64.5111C63.5003 64.0528 63.5003 63.6963 63.5512 63.4926C63.5512 63.2379 63.6022 63.0851 63.7549 63.0851C63.9077 63.0851 64.0096 63.187 64.0096 63.3907C64.0096 63.4926 64.0096 63.6453 64.0096 63.7981C64.0096 63.9509 64.0605 64.1546 64.0605 64.3074C64.1624 64.7658 64.3661 65.1223 64.6207 65.4788C64.8754 65.7843 65.2319 66.039 65.5884 66.2427C65.9958 66.4464 66.4032 66.5992 66.8106 66.6501C67.269 66.752 67.6764 66.8029 68.1348 66.8029C69.4589 66.8029 70.4266 66.4973 71.0377 65.8353C71.6998 65.1732 72.0053 64.4093 72.0053 63.4416C72.0053 62.9833 71.9544 62.5759 71.8016 62.2194C71.6488 61.8629 71.4961 61.5064 71.1905 61.2008C70.9358 60.8952 70.5793 60.5387 70.1719 60.2331C69.7645 59.8766 69.2552 59.5201 68.695 59.0618L67.5236 58.196C66.1486 57.1774 65.1809 56.2098 64.6207 55.3949C64.0605 54.5801 63.8059 53.7143 63.8059 52.8485C63.8059 52.1355 63.9587 51.4735 64.2133 50.8623C64.4679 50.2512 64.8754 49.7928 65.3846 49.3854C65.8939 48.978 66.5051 48.6724 67.2181 48.4687C67.9311 48.265 68.695 48.1631 69.5608 48.1631C70.0701 48.1631 70.5793 48.214 71.0377 48.2649C71.4961 48.3159 71.9035 48.4177 72.2091 48.4687C72.4637 48.5196 72.6674 48.5705 72.7693 48.5705C72.9221 48.5705 73.0239 48.5705 73.1258 48.5705C73.2786 48.5705 73.3804 48.6215 73.3804 48.7233C73.3804 48.7742 73.3804 49.0289 73.3295 49.4363C73.2786 49.8437 73.2786 50.5058 73.2786 51.3716C73.2786 51.7281 73.2276 51.9318 73.0748 51.9318C72.973 51.9318 72.9221 51.8809 72.9221 51.8299C72.9221 51.779 72.8711 51.6772 72.8711 51.5753C72.8711 51.4225 72.8202 51.2188 72.7183 50.9642C72.6165 50.7095 72.5656 50.5058 72.4637 50.353C72.4128 50.2512 72.3109 50.1493 72.2091 50.0474C72.0563 49.8947 71.8526 49.7928 71.5979 49.64C71.3433 49.4872 70.9868 49.3854 70.5794 49.2835C70.1719 49.1817 69.6626 49.1307 69.1024 49.1307C68.1348 49.1307 67.3709 49.3854 66.6579 49.8437C65.9958 50.3021 65.6393 50.9642 65.6393 51.8809C65.6393 52.2883 65.6902 52.6448 65.7921 52.9504C65.8939 53.3069 66.0976 53.6125 66.3523 53.918C66.6069 54.2236 66.9634 54.5801 67.3709 54.9366C67.7783 55.2931 68.3385 55.6496 69.0006 56.1079L69.7136 56.6172C70.4775 57.1265 71.1396 57.6867 71.6998 58.1451C72.26 58.6544 72.6674 59.1636 73.0239 59.622C73.3804 60.0803 73.5841 60.5896 73.7369 61.0989C73.8897 61.6082 73.9406 62.1175 73.9406 62.6268C73.9406 63.3907 73.7878 64.1037 73.4313 64.8676C73.0748 65.6316 72.4637 66.2936 71.547 66.9048C70.9868 67.2613 70.3247 67.5159 69.6117 67.6178C68.8478 67.7196 68.1348 67.7705 67.4218 67.7705C66.9125 67.7705 66.2504 67.7196 65.5884 67.6178Z"/>
    <path d="M81.3774 55.7005C81.3774 54.7328 81.3774 53.9689 81.3774 53.3577C81.3774 52.7466 81.3774 52.2373 81.3774 51.8808C81.3774 51.4734 81.3774 51.1678 81.3774 50.9641C81.3774 50.7604 81.3774 50.5058 81.3265 50.353C81.2756 49.9455 81.2246 49.589 81.0719 49.3853C80.97 49.1816 80.6644 49.0288 80.257 48.9779C80.1551 48.9779 80.0024 48.927 79.8496 48.927C79.6459 48.927 79.4931 48.927 79.3912 48.927C79.2384 48.927 79.1875 48.876 79.1875 48.7233C79.1875 48.5705 79.3403 48.5195 79.5949 48.5195C79.9005 48.5195 80.2061 48.5195 80.5626 48.5195C80.9191 48.5195 81.2246 48.5195 81.5302 48.5195C81.8358 48.5195 82.0904 48.5195 82.2941 48.5195C82.4979 48.5195 82.5997 48.5195 82.6506 48.5195C82.7525 48.5195 82.9053 48.5195 83.109 48.5195C83.3127 48.5195 83.6183 48.5195 83.9238 48.5195C84.2803 48.5195 84.6368 48.5195 84.9933 48.5195C85.3498 48.5195 85.7573 48.5195 86.1647 48.5195C86.8268 48.5195 87.5907 48.5195 88.4565 48.5195C89.3223 48.5195 90.239 48.6214 91.2066 48.7742C92.1743 48.927 93.091 49.2325 94.0586 49.64C94.9753 50.0474 95.8411 50.6076 96.605 51.3715C97.2671 52.0336 97.8273 52.8485 98.3366 53.918C98.8459 54.9875 99.1005 56.2607 99.1005 57.7376C99.1005 58.5015 98.9987 59.2654 98.8459 59.9784C98.6931 60.6914 98.4894 61.3026 98.2347 61.9137C97.9801 62.5248 97.6745 63.0341 97.318 63.5434C96.9615 64.0018 96.605 64.4601 96.2485 64.8166C95.9939 65.1222 95.6374 65.4278 95.179 65.7843C94.7207 66.1408 94.2114 66.4463 93.5493 66.701C92.8872 67.0066 92.1743 67.2103 91.3085 67.414C90.4427 67.6177 89.475 67.7196 88.3546 67.7196C87.7944 67.7196 87.1833 67.7196 86.5212 67.6686C85.8591 67.6177 85.2989 67.6177 84.6878 67.5668C84.1276 67.5159 83.6183 67.5158 83.2618 67.4649C82.8543 67.414 82.6506 67.414 82.5997 67.414C82.5488 67.414 82.4469 67.414 82.2432 67.414C82.0395 67.414 81.7849 67.414 81.5302 67.414C81.2756 67.414 80.97 67.4649 80.7154 67.4649C80.4607 67.4649 80.2061 67.4649 80.0024 67.4649C79.7477 67.4649 79.5949 67.414 79.5949 67.2612C79.5949 67.1084 79.6459 67.0575 79.7986 67.0575C79.9005 67.0575 80.0533 67.0575 80.2061 67.0065C80.3589 67.0065 80.5116 66.9556 80.6135 66.9047C80.8681 66.8538 81.0209 66.701 81.1228 66.4973C81.1737 66.2936 81.2756 65.988 81.3265 65.5806C81.4283 65.0713 81.4284 64.3583 81.4793 63.3906C81.4793 62.423 81.4793 61.3535 81.4793 60.1312V55.7005H81.3774ZM83.7711 58.4506C83.7711 59.1126 83.7711 59.7747 83.7711 60.3859C83.7711 60.997 83.7711 61.5572 83.7711 62.0156C83.7711 62.4739 83.7711 62.8814 83.7711 63.2379C83.7711 63.5944 83.7711 63.7981 83.7711 63.8999C83.7711 64.2055 83.822 64.562 83.8729 64.9185C83.9238 65.275 83.9748 65.5296 84.0766 65.6824C84.1785 65.7843 84.2803 65.9371 84.4841 66.0389C84.6368 66.1408 84.8915 66.2426 85.248 66.3445C85.5536 66.4463 86.0119 66.4973 86.5212 66.5991C87.0305 66.6501 87.6925 66.701 88.4565 66.701C89.6788 66.701 90.7483 66.4973 91.8178 66.1408C92.8363 65.7334 93.753 65.1731 94.5679 64.4601C94.9244 64.1546 95.179 63.7472 95.4337 63.3397C95.6883 62.8814 95.892 62.423 96.0448 61.9137C96.1976 61.4044 96.3504 60.8442 96.4522 60.284C96.5541 59.7238 96.605 59.1127 96.605 58.5524C96.605 57.7885 96.5032 57.0246 96.3504 56.3625C96.1976 55.7005 95.9939 55.0893 95.7392 54.58C95.4846 54.0707 95.23 53.6124 94.9244 53.205C94.6188 52.7975 94.3642 52.4919 94.1095 52.2373C93.4984 51.6262 92.8873 51.1169 92.2252 50.7604C91.5631 50.4039 90.901 50.0983 90.188 49.8946C89.475 49.6909 88.762 49.589 87.9981 49.4872C87.2342 49.4363 86.4703 49.3853 85.7063 49.3853C85.4517 49.3853 85.1461 49.3853 84.8406 49.4362C84.4841 49.4872 84.2803 49.5381 84.1785 49.5381C83.9748 49.64 83.8729 49.7927 83.8729 50.0474V58.4506H83.7711Z"/>
    <path d="M108.98 48.9779C109.133 48.5705 109.235 48.3158 109.337 48.163C109.438 48.0612 109.489 48.0103 109.591 48.0103C109.744 48.0103 109.846 48.1121 109.897 48.2649C109.948 48.4177 110.05 48.6723 110.202 48.927C110.304 49.0797 110.457 49.5381 110.712 50.1493C110.966 50.8113 111.272 51.5752 111.679 52.492C112.036 53.4087 112.443 54.4272 112.902 55.4967C113.36 56.5662 113.767 57.6867 114.226 58.7052C114.633 59.7747 115.091 60.7933 115.448 61.71C115.855 62.6777 116.161 63.4416 116.416 64.1037C116.67 64.6639 116.874 65.1222 117.078 65.4787C117.281 65.8352 117.485 66.0899 117.689 66.2936C117.893 66.4973 118.045 66.6501 118.198 66.701C118.351 66.8029 118.504 66.8538 118.656 66.8538C118.86 66.9047 119.064 66.9556 119.217 66.9556C119.369 66.9556 119.573 67.0066 119.675 67.0066C119.777 67.0066 119.828 67.0066 119.879 67.0575C119.93 67.1084 119.981 67.1594 119.981 67.2103C119.981 67.3121 119.93 67.3631 119.828 67.3631C119.726 67.414 119.573 67.414 119.42 67.414C119.319 67.414 119.115 67.414 118.86 67.414C118.606 67.414 118.3 67.414 117.893 67.414C117.536 67.414 117.129 67.414 116.67 67.414C116.212 67.414 115.804 67.414 115.346 67.3631C115.091 67.3631 114.888 67.3121 114.684 67.3121C114.531 67.3121 114.429 67.2612 114.429 67.1594C114.429 67.1084 114.429 67.0575 114.48 67.0575C114.531 67.0575 114.531 67.0066 114.633 67.0066C114.735 66.9556 114.786 66.9047 114.888 66.8029C114.99 66.701 114.99 66.5482 114.888 66.3445L112.545 60.5896C112.494 60.4877 112.392 60.4368 112.29 60.4368H106.281C106.179 60.4368 106.077 60.4877 106.026 60.6405L104.549 64.6639C104.295 65.3259 104.142 65.8861 104.142 66.3445C104.142 66.5991 104.244 66.8028 104.447 66.8538C104.651 66.9556 104.855 67.0066 105.059 67.0066H105.313C105.466 67.0066 105.568 67.0575 105.568 67.2103C105.568 67.3631 105.415 67.414 105.16 67.414C105.008 67.414 104.804 67.414 104.549 67.414C104.295 67.414 104.091 67.414 103.836 67.3631C103.582 67.3631 103.378 67.3631 103.225 67.3121C103.021 67.3121 102.92 67.3121 102.818 67.3121C102.767 67.3121 102.614 67.3121 102.461 67.3121C102.258 67.3121 102.054 67.3121 101.799 67.3631C101.545 67.3631 101.29 67.3631 100.984 67.414C100.679 67.414 100.424 67.414 100.169 67.414C99.8129 67.414 99.6602 67.3631 99.6602 67.2103C99.6602 67.0575 99.762 67.0066 99.9148 67.0066C100.017 67.0066 100.119 67.0066 100.322 67.0066C100.475 67.0066 100.628 67.0066 100.73 66.9556C101.341 66.8538 101.748 66.6501 102.054 66.2426C102.359 65.8352 102.614 65.3259 102.92 64.6639L108.98 48.9779ZM111.883 59.4182C111.985 59.4182 111.985 59.3673 111.985 59.2655L109.438 52.3901C109.286 52.0336 109.133 52.0336 108.98 52.3901L106.535 59.2655C106.485 59.3673 106.536 59.4182 106.637 59.4182H111.883Z"/>
    <path d="M125.787 60.182C125.787 61.0987 125.787 61.9136 125.787 62.5756C125.787 63.2377 125.838 63.7979 125.838 64.2053C125.889 64.6637 125.94 65.0202 125.991 65.2748C126.042 65.5295 126.143 65.7332 126.296 65.835C126.5 66.0387 126.907 66.1915 127.417 66.2934C127.926 66.3953 128.741 66.4462 129.759 66.4462C130.472 66.4462 131.084 66.3952 131.593 66.3443C132.153 66.2934 132.56 66.0388 132.866 65.6823C133.019 65.4785 133.172 65.2748 133.273 65.0202C133.375 64.7655 133.477 64.5109 133.477 64.2563C133.528 64.0526 133.63 63.9507 133.732 63.9507C133.834 63.9507 133.885 64.1035 133.885 64.3581C133.885 64.4091 133.885 64.5618 133.834 64.7655C133.834 64.9693 133.783 65.2239 133.732 65.4276C133.681 65.6313 133.63 65.9369 133.63 66.1915C133.579 66.4462 133.528 66.7008 133.477 66.8536C133.426 67.0064 133.375 67.1592 133.324 67.2101C133.273 67.312 133.172 67.3629 133.07 67.4138C132.968 67.4648 132.815 67.4647 132.611 67.5157C132.408 67.5157 132.153 67.5666 131.797 67.5666C129.963 67.5666 128.486 67.5157 127.264 67.4648C126.653 67.4648 126.143 67.4138 125.685 67.4138C125.227 67.4138 124.819 67.4138 124.412 67.4138C124.361 67.4138 124.208 67.4138 124.004 67.4138C123.801 67.4138 123.597 67.4138 123.342 67.4648C123.088 67.4648 122.782 67.5157 122.528 67.5157C122.273 67.5157 122.018 67.5157 121.815 67.5157C121.56 67.5157 121.407 67.4648 121.407 67.312C121.407 67.1592 121.458 67.1082 121.611 67.1082C121.713 67.1082 121.865 67.1083 122.018 67.0573C122.171 67.0573 122.324 67.0064 122.426 66.9555C122.68 66.9045 122.833 66.7518 122.935 66.548C123.037 66.3443 123.088 66.0388 123.139 65.6313C123.241 65.1221 123.241 64.409 123.291 63.4414C123.291 62.4738 123.291 61.4043 123.291 60.182V55.7512C123.291 54.7836 123.291 54.0197 123.291 53.4085C123.291 52.7974 123.291 52.2881 123.291 51.9316C123.291 51.5241 123.291 51.2186 123.291 51.0149C123.291 50.8112 123.291 50.5565 123.241 50.4037C123.19 49.9963 123.139 49.6398 122.986 49.4361C122.884 49.2324 122.578 49.0796 122.171 49.0286C122.069 49.0286 121.916 48.9777 121.764 48.9777C121.56 48.9777 121.407 48.9777 121.305 48.9777C121.152 48.9777 121.102 48.9268 121.102 48.774C121.102 48.6212 121.254 48.5703 121.509 48.5703C121.815 48.5703 122.12 48.5703 122.477 48.5703C122.833 48.5703 123.139 48.5703 123.393 48.5703C123.699 48.5703 123.954 48.5703 124.106 48.5703C124.31 48.5703 124.412 48.5703 124.463 48.5703C124.463 48.5703 124.616 48.5703 124.87 48.5703C125.125 48.5703 125.38 48.5703 125.685 48.5703C125.991 48.5703 126.296 48.5703 126.602 48.5703C126.907 48.5703 127.162 48.5703 127.366 48.5703C127.62 48.5703 127.773 48.6212 127.773 48.774C127.773 48.8759 127.722 48.9268 127.569 48.9268C127.468 48.9268 127.366 48.9268 127.162 48.9268C127.009 48.9268 126.856 48.9268 126.704 48.9777C126.296 49.0796 126.042 49.1814 125.94 49.3852C125.838 49.5889 125.736 49.9454 125.736 50.3528C125.736 50.5565 125.736 50.7602 125.736 50.9639C125.736 51.1676 125.736 51.5242 125.736 51.8807C125.736 52.2372 125.736 52.7464 125.736 53.3576C125.736 53.9687 125.736 54.7327 125.736 55.7003V60.182H125.787Z"/>
    <path d="M139.233 55.7005C139.233 54.7329 139.233 53.969 139.233 53.3578C139.233 52.7467 139.233 52.2374 139.233 51.8809C139.233 51.4735 139.233 51.1679 139.233 50.9642C139.233 50.7605 139.233 50.5058 139.182 50.3531C139.131 49.9456 139.08 49.5891 138.927 49.3854C138.825 49.1817 138.52 49.0289 138.112 48.978C138.011 48.978 137.858 48.927 137.705 48.927C137.501 48.927 137.349 48.927 137.247 48.927C137.094 48.927 137.043 48.8761 137.043 48.7233C137.043 48.5706 137.196 48.5196 137.45 48.5196C137.756 48.5196 138.062 48.5196 138.418 48.5196C138.775 48.5196 139.08 48.5196 139.386 48.5196C139.691 48.5196 139.946 48.5196 140.15 48.5196C140.353 48.5196 140.455 48.5196 140.506 48.5196C140.506 48.5196 140.659 48.5196 140.964 48.5196C141.27 48.5196 141.627 48.5196 142.034 48.5196C142.441 48.5196 142.951 48.5196 143.409 48.5196C143.918 48.5196 144.428 48.5196 144.835 48.5196C145.293 48.5196 145.701 48.5196 146.006 48.5196C146.363 48.5196 146.567 48.5196 146.668 48.5196C146.923 48.5196 147.178 48.4687 147.381 48.4687C147.585 48.4178 147.738 48.4177 147.84 48.4177C147.891 48.4177 147.942 48.3668 147.993 48.3668C148.044 48.3159 148.094 48.3159 148.145 48.3159C148.247 48.3159 148.247 48.4178 148.247 48.5706C148.247 48.6724 148.247 48.8252 148.196 48.978C148.145 49.1308 148.094 49.3854 148.044 49.7419C148.044 49.7928 148.044 49.8947 148.044 50.0475C148.044 50.2003 148.044 50.353 147.993 50.5568C147.993 50.7095 147.942 50.9132 147.942 51.066C147.942 51.2188 147.942 51.3207 147.891 51.4225C147.891 51.4735 147.84 51.5244 147.789 51.5753C147.738 51.6262 147.687 51.6772 147.636 51.6772C147.483 51.6772 147.432 51.5753 147.432 51.3716C147.432 51.2698 147.432 51.117 147.381 50.9642C147.381 50.8114 147.331 50.6586 147.28 50.4549C147.229 50.353 147.178 50.2512 147.127 50.2002C147.076 50.0984 146.974 50.0475 146.821 49.9966C146.668 49.9456 146.516 49.8947 146.312 49.8438C146.108 49.7928 145.803 49.7419 145.446 49.691C145.344 49.691 145.09 49.64 144.733 49.64C144.377 49.64 143.969 49.6401 143.562 49.5891C143.154 49.5891 142.747 49.5891 142.39 49.5891C142.034 49.5891 141.83 49.5891 141.728 49.5891C141.627 49.5891 141.576 49.691 141.576 49.8438V56.6682C141.576 56.8209 141.627 56.9228 141.728 56.9228C141.83 56.9228 142.034 56.9228 142.441 56.9228C142.849 56.9228 143.307 56.9228 143.816 56.9228C144.326 56.9228 144.784 56.9228 145.192 56.9228C145.65 56.9228 145.905 56.9228 146.057 56.8719C146.363 56.821 146.618 56.821 146.821 56.77C147.025 56.7191 147.178 56.6682 147.331 56.5154C147.534 56.3117 147.687 56.2098 147.738 56.2098C147.84 56.2098 147.891 56.2607 147.891 56.4135C147.891 56.5154 147.891 56.6172 147.84 56.8719C147.789 57.0756 147.738 57.3812 147.687 57.8395C147.636 58.0942 147.636 58.3997 147.585 58.7562C147.585 59.1127 147.534 59.3674 147.534 59.4692C147.534 59.5711 147.534 59.673 147.483 59.7748C147.432 59.8767 147.381 59.9276 147.28 59.9276C147.178 59.9276 147.127 59.8257 147.127 59.673C147.127 59.5711 147.127 59.4183 147.127 59.2655C147.127 59.1127 147.076 58.96 147.025 58.8072C146.974 58.6544 146.872 58.4507 146.719 58.3488C146.567 58.196 146.21 58.0942 145.701 58.0432C145.548 58.0432 145.242 57.9923 144.835 57.9923C144.428 57.9923 144.02 57.9414 143.613 57.9414C143.205 57.9414 142.798 57.9414 142.441 57.9414C142.085 57.9414 141.83 57.9414 141.728 57.9414C141.627 57.9414 141.576 57.9923 141.576 58.0942V60.1822C141.576 60.386 141.576 60.7424 141.576 61.1499C141.576 61.5573 141.576 62.0157 141.576 62.474C141.576 62.9324 141.576 63.3398 141.576 63.7472C141.576 64.1037 141.576 64.3584 141.576 64.4602C141.576 64.8676 141.627 65.2241 141.728 65.4788C141.83 65.7334 141.983 65.9371 142.187 66.0899C142.39 66.2427 142.747 66.3446 143.103 66.3955C143.511 66.4464 144.02 66.4464 144.682 66.4464C145.039 66.4464 145.446 66.4464 145.955 66.3955C146.465 66.3955 146.923 66.2937 147.28 66.1409C147.636 65.9881 147.891 65.7844 148.044 65.5297C148.247 65.2751 148.349 64.9186 148.451 64.4093C148.502 64.1547 148.604 64.0019 148.706 64.0019C148.807 64.0019 148.858 64.0528 148.858 64.1037C148.858 64.2056 148.909 64.2565 148.909 64.3584C148.909 64.4093 148.909 64.5111 148.858 64.7149C148.858 64.9186 148.807 65.1732 148.757 65.4279C148.706 65.6825 148.655 65.9371 148.655 66.1918C148.604 66.4464 148.553 66.6501 148.553 66.752C148.502 66.9048 148.451 67.0066 148.4 67.1085C148.349 67.2104 148.247 67.2613 148.145 67.3122C148.044 67.3631 147.891 67.3631 147.738 67.3631C147.585 67.3631 147.381 67.3631 147.127 67.3631C146.159 67.3631 145.293 67.3631 144.529 67.3122C143.766 67.3122 143.154 67.2613 142.594 67.2613C142.034 67.2103 141.576 67.2104 141.219 67.2104C140.863 67.2104 140.608 67.2104 140.404 67.2104C140.353 67.2104 140.251 67.2104 139.997 67.2104C139.793 67.2104 139.538 67.2103 139.284 67.2613C139.029 67.2613 138.775 67.3122 138.52 67.3122C138.265 67.3122 138.011 67.3122 137.807 67.3122C137.552 67.3122 137.399 67.2613 137.399 67.1085C137.399 66.9557 137.45 66.9048 137.603 66.9048C137.705 66.9048 137.858 66.9048 138.011 66.8539C138.163 66.8029 138.316 66.8029 138.418 66.8029C138.673 66.752 138.825 66.6502 138.927 66.3955C138.978 66.1409 139.08 65.8353 139.131 65.4788C139.233 64.9695 139.233 64.2565 139.284 63.2889C139.284 62.3212 139.284 61.2517 139.284 60.0295V55.7005H139.233Z"/>
    <path d="M172.031 58.858C172.031 60.284 172.031 61.5572 172.031 62.6267C172.031 63.7471 172.082 64.6129 172.184 65.224C172.235 65.6824 172.337 66.0389 172.439 66.2936C172.591 66.5991 172.897 66.7519 173.304 66.8028C173.508 66.8538 173.763 66.8538 174.017 66.9047C174.272 66.9047 174.476 66.9556 174.629 66.9556C174.781 66.9556 174.883 67.0065 174.883 67.1084C174.883 67.2612 174.73 67.363 174.425 67.363C174.017 67.363 173.61 67.363 173.203 67.363C172.795 67.363 172.388 67.3631 172.082 67.3121C171.726 67.3121 171.471 67.3121 171.216 67.2612C170.962 67.2103 170.86 67.2612 170.809 67.2612C170.758 67.2612 170.656 67.2612 170.401 67.2612C170.147 67.2612 169.892 67.2612 169.638 67.3121C169.332 67.3121 169.026 67.3121 168.721 67.363C168.415 67.414 168.161 67.363 167.906 67.363C167.6 67.363 167.448 67.2612 167.448 67.1084C167.448 67.0065 167.55 66.9556 167.702 66.9556C167.855 66.9556 168.008 66.9556 168.161 66.9047C168.313 66.9047 168.466 66.8538 168.619 66.8028C168.925 66.7519 169.128 66.5482 169.23 66.2936C169.332 65.988 169.434 65.6315 169.485 65.224C169.587 64.6129 169.587 63.7471 169.638 62.6267C169.638 61.5063 169.638 60.2331 169.638 58.858V46.3805L165.258 46.4315C164.799 46.4315 164.392 46.4315 164.086 46.4824C163.781 46.5333 163.475 46.5842 163.221 46.6352C162.966 46.6861 162.762 46.788 162.609 46.9408C162.457 47.0426 162.304 47.1954 162.202 47.3991C162.049 47.6537 161.947 47.8575 161.846 47.9593C161.795 48.1121 161.744 48.214 161.693 48.3158C161.591 48.5195 161.54 48.6214 161.387 48.6214C161.285 48.6214 161.234 48.5195 161.234 48.3667C161.234 48.2649 161.285 48.1121 161.336 47.8065C161.387 47.501 161.489 47.1954 161.54 46.8389C161.642 46.4824 161.693 46.1768 161.744 45.8713C161.795 45.5657 161.846 45.4129 161.896 45.362C161.947 45.2601 161.998 45.1583 162.049 45.0055C162.1 44.8527 162.151 44.8018 162.202 44.8018C162.304 44.8018 162.457 44.8527 162.609 44.9545C162.813 45.0564 163.068 45.1073 163.475 45.1583C163.934 45.2092 164.341 45.2092 164.85 45.2601C165.309 45.311 165.665 45.311 165.818 45.311H176.869C177.328 45.311 177.735 45.311 178.092 45.2601C178.448 45.2092 178.703 45.2092 178.957 45.1583C179.161 45.1073 179.365 45.1073 179.467 45.0564C179.62 45.0055 179.721 45.0055 179.772 45.0055C179.874 45.0055 179.874 45.0564 179.925 45.1073C179.925 45.1583 179.925 45.2601 179.925 45.362C179.925 45.5657 179.925 45.8713 179.925 46.1768C179.925 46.5333 179.925 46.8389 179.874 47.1954C179.874 47.5519 179.874 47.8065 179.823 48.1121C179.823 48.3667 179.823 48.5705 179.823 48.6214C179.823 48.876 179.772 49.0288 179.62 49.0288C179.518 49.0288 179.467 48.9779 179.467 48.9269C179.416 48.876 179.416 48.7232 179.416 48.5195L179.365 48.214C179.365 48.0103 179.263 47.8065 179.161 47.6028C179.059 47.3991 178.856 47.2463 178.601 47.0935C178.346 46.9408 177.99 46.8389 177.531 46.737C177.073 46.6352 176.462 46.5843 175.8 46.5843L172.082 46.5333V58.858H172.031Z"/>
    <path d="M185.475 55.7005C185.475 54.7329 185.475 53.969 185.475 53.3578C185.475 52.7467 185.475 52.2374 185.475 51.8809C185.475 51.4735 185.475 51.1679 185.475 50.9642C185.475 50.7605 185.475 50.5058 185.424 50.3531C185.373 49.9456 185.322 49.5891 185.169 49.3854C185.068 49.1817 184.762 49.0289 184.355 48.978C184.253 48.978 184.1 48.927 183.947 48.927C183.744 48.927 183.591 48.927 183.489 48.927C183.336 48.927 183.285 48.8761 183.285 48.7233C183.285 48.5706 183.438 48.5196 183.693 48.5196C183.998 48.5196 184.304 48.5196 184.66 48.5196C185.017 48.5196 185.322 48.5196 185.628 48.5196C185.933 48.5196 186.188 48.5196 186.392 48.5196C186.596 48.5196 186.697 48.5196 186.748 48.5196C186.748 48.5196 186.901 48.5196 187.207 48.5196C187.512 48.5196 187.869 48.5196 188.276 48.5196C188.684 48.5196 189.193 48.5196 189.651 48.5196C190.16 48.5196 190.67 48.5196 191.077 48.5196C191.536 48.5196 191.943 48.5196 192.249 48.5196C192.554 48.5196 192.809 48.5196 192.911 48.5196C193.165 48.5196 193.42 48.4687 193.624 48.4687C193.827 48.4178 193.98 48.4177 194.082 48.4177C194.133 48.4177 194.184 48.3668 194.235 48.3668C194.286 48.3159 194.337 48.3159 194.388 48.3159C194.489 48.3159 194.489 48.4178 194.489 48.5706C194.489 48.6724 194.489 48.8252 194.438 48.978C194.388 49.1308 194.337 49.3854 194.286 49.7419C194.286 49.7928 194.286 49.8947 194.286 50.0475C194.286 50.2003 194.286 50.353 194.235 50.5568C194.235 50.7095 194.184 50.9132 194.184 51.066C194.184 51.2188 194.184 51.3207 194.133 51.4225C194.133 51.4735 194.082 51.5244 194.031 51.5753C193.98 51.6262 193.929 51.6772 193.878 51.6772C193.725 51.6772 193.675 51.5753 193.675 51.3716C193.675 51.2698 193.675 51.117 193.624 50.9642C193.624 50.8114 193.573 50.6586 193.522 50.4549C193.471 50.353 193.42 50.2512 193.369 50.2002C193.318 50.0984 193.216 50.0475 193.063 49.9966C192.911 49.9456 192.758 49.8947 192.554 49.8438C192.35 49.7928 192.045 49.7419 191.688 49.691C191.586 49.691 191.332 49.64 190.975 49.64C190.619 49.64 190.211 49.6401 189.804 49.5891C189.397 49.5891 188.989 49.5891 188.633 49.5891C188.276 49.5891 188.072 49.5891 187.971 49.5891C187.869 49.5891 187.818 49.691 187.818 49.8438V56.6682C187.818 56.8209 187.869 56.9228 187.971 56.9228C188.072 56.9228 188.276 56.9228 188.684 56.9228C189.091 56.9228 189.549 56.9228 190.059 56.9228C190.568 56.9228 191.026 56.9228 191.434 56.9228C191.892 56.9228 192.147 56.9228 192.299 56.8719C192.605 56.821 192.86 56.821 193.063 56.77C193.267 56.7191 193.42 56.6682 193.573 56.5154C193.776 56.3117 193.929 56.2098 193.98 56.2098C194.082 56.2098 194.133 56.2607 194.133 56.4135C194.133 56.5154 194.133 56.6172 194.082 56.8719C194.031 57.0756 193.98 57.3812 193.929 57.8395C193.878 58.0942 193.878 58.3997 193.827 58.7562C193.827 59.1127 193.776 59.3674 193.776 59.4692C193.776 59.5711 193.776 59.673 193.725 59.7748C193.675 59.8767 193.624 59.9276 193.522 59.9276C193.42 59.9276 193.369 59.8257 193.369 59.673C193.369 59.5711 193.369 59.4183 193.369 59.2655C193.369 59.1127 193.318 58.96 193.267 58.8072C193.216 58.6544 193.114 58.4507 192.962 58.3488C192.809 58.196 192.452 58.0942 191.943 58.0432C191.79 58.0432 191.485 57.9923 191.077 57.9923C190.67 57.9923 190.262 57.9414 189.855 57.9414C189.447 57.9414 189.04 57.9414 188.684 57.9414C188.327 57.9414 188.072 57.9414 187.971 57.9414C187.869 57.9414 187.818 57.9923 187.818 58.0942V60.1822C187.818 60.386 187.818 60.7424 187.818 61.1499C187.818 61.5573 187.818 62.0157 187.818 62.474C187.818 62.9324 187.818 63.3398 187.818 63.7472C187.818 64.1037 187.818 64.3584 187.818 64.4602C187.818 64.8676 187.869 65.2241 187.971 65.4788C188.072 65.7334 188.225 65.9371 188.429 66.0899C188.633 66.2427 188.989 66.3446 189.346 66.3955C189.753 66.4464 190.262 66.4464 190.924 66.4464C191.281 66.4464 191.688 66.4464 192.198 66.3955C192.707 66.3955 193.165 66.2937 193.522 66.1409C193.878 65.9881 194.133 65.7844 194.286 65.5297C194.489 65.2751 194.591 64.9186 194.693 64.4093C194.744 64.1547 194.846 64.0019 194.948 64.0019C195.05 64.0019 195.101 64.0528 195.101 64.1037C195.101 64.2056 195.151 64.2565 195.151 64.3584C195.151 64.4093 195.151 64.5111 195.101 64.7149C195.101 64.9186 195.05 65.1732 194.999 65.4279C194.948 65.6825 194.897 65.9371 194.897 66.1918C194.846 66.4464 194.795 66.6501 194.795 66.752C194.744 66.9048 194.693 67.0066 194.642 67.1085C194.591 67.2104 194.489 67.2613 194.388 67.3122C194.286 67.3631 194.133 67.3631 193.98 67.3631C193.827 67.3631 193.624 67.3631 193.369 67.3631C192.401 67.3631 191.536 67.3631 190.772 67.3122C190.008 67.3122 189.397 67.2613 188.836 67.2613C188.276 67.2103 187.818 67.2104 187.461 67.2104C187.105 67.2104 186.85 67.2104 186.646 67.2104C186.596 67.2104 186.494 67.2104 186.239 67.2104C186.035 67.2104 185.781 67.2103 185.526 67.2613C185.271 67.2613 185.017 67.3122 184.762 67.3122C184.507 67.3122 184.253 67.3122 184.049 67.3122C183.794 67.3122 183.642 67.2613 183.642 67.1085C183.642 66.9557 183.693 66.9048 183.845 66.9048C183.947 66.9048 184.1 66.9048 184.253 66.8539C184.406 66.8029 184.558 66.8029 184.66 66.8029C184.915 66.752 185.068 66.6502 185.169 66.3955C185.271 66.1409 185.322 65.8353 185.373 65.4788C185.475 64.9695 185.475 64.2565 185.526 63.2889C185.526 62.3212 185.526 61.2517 185.526 60.0295V55.7005H185.475Z"/>
    <path d="M205.695 48.9779C205.848 48.5705 205.95 48.3158 206.051 48.163C206.153 48.0612 206.204 48.0103 206.306 48.0103C206.459 48.0103 206.561 48.1121 206.612 48.2649C206.663 48.4177 206.764 48.6723 206.917 48.927C207.019 49.0797 207.172 49.5381 207.426 50.1493C207.681 50.8113 207.987 51.5752 208.394 52.492C208.751 53.4087 209.158 54.4272 209.616 55.4967C210.075 56.5662 210.482 57.6867 210.941 58.7052C211.348 59.7747 211.806 60.7933 212.163 61.71C212.57 62.6777 212.876 63.4416 213.13 64.1037C213.385 64.6639 213.589 65.1222 213.793 65.4787C213.996 65.8352 214.2 66.0899 214.404 66.2936C214.607 66.4973 214.76 66.6501 214.913 66.701C215.066 66.8029 215.219 66.8538 215.371 66.8538C215.575 66.9047 215.779 66.9556 215.932 66.9556C216.084 66.9556 216.288 67.0066 216.39 67.0066C216.492 67.0066 216.543 67.0066 216.594 67.0575C216.645 67.1084 216.695 67.1594 216.695 67.2103C216.695 67.3121 216.645 67.3631 216.543 67.3631C216.441 67.414 216.288 67.414 216.135 67.414C216.033 67.414 215.83 67.414 215.575 67.414C215.32 67.414 215.015 67.414 214.607 67.414C214.251 67.414 213.843 67.414 213.385 67.414C212.927 67.414 212.519 67.414 212.061 67.3631C211.806 67.3631 211.603 67.3121 211.399 67.3121C211.246 67.3121 211.144 67.2612 211.144 67.1594C211.144 67.1084 211.144 67.0575 211.195 67.0575C211.246 67.0575 211.246 67.0066 211.348 67.0066C211.45 66.9556 211.501 66.9047 211.603 66.8029C211.704 66.701 211.704 66.5482 211.603 66.3445L209.26 60.5896C209.209 60.4877 209.107 60.4368 209.005 60.4368H202.996C202.894 60.4368 202.792 60.4877 202.741 60.6405L201.264 64.6639C201.009 65.3259 200.857 65.8861 200.857 66.3445C200.857 66.5991 200.959 66.8028 201.162 66.8538C201.366 66.9556 201.57 67.0066 201.773 67.0066H202.028C202.181 67.0066 202.283 67.0575 202.283 67.2103C202.283 67.3631 202.13 67.414 201.875 67.414C201.722 67.414 201.519 67.414 201.264 67.414C201.009 67.414 200.806 67.414 200.551 67.3631C200.296 67.3631 200.093 67.3631 199.94 67.3121C199.736 67.3121 199.634 67.3121 199.533 67.3121C199.482 67.3121 199.329 67.3121 199.176 67.3121C198.972 67.3121 198.769 67.3121 198.514 67.3631C198.259 67.3631 198.005 67.3631 197.699 67.414C197.394 67.414 197.139 67.414 196.884 67.414C196.528 67.414 196.375 67.3631 196.375 67.2103C196.375 67.0575 196.477 67.0066 196.63 67.0066C196.731 67.0066 196.833 67.0066 197.037 67.0066C197.19 67.0066 197.343 67.0066 197.445 66.9556C198.056 66.8538 198.463 66.6501 198.769 66.2426C199.074 65.8352 199.329 65.3259 199.634 64.6639L205.695 48.9779ZM208.598 59.4182C208.7 59.4182 208.7 59.3673 208.7 59.2655L206.153 52.3901C206 52.0336 205.848 52.0336 205.695 52.3901L203.25 59.2655C203.199 59.3673 203.25 59.4182 203.352 59.4182H208.598Z"/>
    <path d="M239.613 64.2057C239.613 64.4094 239.664 64.664 239.715 64.9187C239.766 65.1733 239.817 65.428 239.918 65.6826C240.02 65.9373 240.122 66.141 240.326 66.3447C240.479 66.5484 240.682 66.7012 240.988 66.7521C241.344 66.854 241.701 66.9558 242.006 66.9558C242.312 66.9558 242.516 67.0067 242.669 67.0067C242.821 67.0067 242.872 67.0577 242.872 67.1596C242.872 67.2614 242.821 67.3123 242.719 67.3123C242.618 67.3633 242.516 67.3632 242.312 67.3632C242.159 67.3632 241.905 67.3632 241.497 67.3632C241.09 67.3632 240.682 67.3633 240.224 67.3123C239.766 67.3123 239.307 67.3123 238.9 67.2614C238.441 67.2614 238.136 67.2105 237.881 67.2105C237.576 67.1595 237.372 67.1086 237.27 67.1086C237.168 67.0577 237.117 67.0068 237.117 66.9558C237.117 66.854 237.168 66.803 237.27 66.7521C237.372 66.7521 237.423 66.6502 237.423 66.4975C237.423 66.3447 237.423 66.141 237.372 65.8863L236.15 53.2051H236.099L229.835 66.0391C229.58 66.5993 229.376 66.9558 229.274 67.1086C229.172 67.2614 229.071 67.3632 228.918 67.3632C228.816 67.3632 228.663 67.2614 228.561 67.1086C228.459 66.9558 228.256 66.6503 228.001 66.1919C227.848 65.8863 227.594 65.4789 227.339 64.9696C227.084 64.4603 226.779 63.9001 226.473 63.3399C226.168 62.7797 225.913 62.2195 225.608 61.7102C225.302 61.2009 225.098 60.7425 224.945 60.386C224.742 59.9786 224.487 59.4693 224.181 58.8073C223.876 58.1452 223.519 57.4831 223.214 56.7701C222.857 56.0571 222.552 55.446 222.297 54.8349C221.992 54.2237 221.788 53.8163 221.686 53.5617H221.584L220.566 64.9187C220.566 65.1224 220.515 65.3261 220.515 65.5298C220.515 65.7336 220.515 65.9882 220.515 66.1919C220.515 66.5484 220.718 66.8031 221.126 66.9049C221.33 66.9558 221.533 67.0067 221.737 67.0067C221.89 67.0067 222.043 67.0577 222.144 67.0577C222.297 67.0577 222.348 67.1086 222.348 67.2105C222.348 67.3633 222.195 67.4651 221.89 67.4651C221.635 67.4651 221.38 67.4651 221.126 67.4651C220.871 67.4651 220.617 67.4651 220.413 67.4142C220.209 67.4142 220.005 67.4142 219.802 67.3632C219.649 67.3632 219.496 67.3632 219.445 67.3632C219.394 67.3632 219.292 67.3632 219.089 67.3632C218.936 67.3632 218.732 67.3633 218.528 67.4142C218.325 67.4142 218.07 67.4142 217.866 67.4651C217.663 67.516 217.459 67.4651 217.255 67.4651C216.95 67.4651 216.797 67.3633 216.797 67.2105C216.797 67.1086 216.899 67.0577 217.052 67.0577C217.153 67.0577 217.255 67.0577 217.357 67.0577C217.459 67.0577 217.612 67.0067 217.815 67.0067C218.223 66.9049 218.528 66.7012 218.579 66.2938C218.681 65.8863 218.732 65.4789 218.783 64.9696L220.667 48.5707C220.718 48.2651 220.82 48.1123 220.973 48.1123C221.177 48.1123 221.38 48.2651 221.482 48.5197L229.325 64.1038L236.863 48.5707C237.015 48.316 237.117 48.1632 237.27 48.1632C237.474 48.1632 237.576 48.367 237.678 48.8253L239.613 64.2057Z"/>
    <path d="M52.5004 87.3264C52.4495 86.4096 52.3986 85.3401 52.3986 84.5253H52.3476C52.1439 85.2892 51.8383 86.1041 51.5328 86.9699L50.4124 90.0765H49.8012L48.7826 87.0208C48.4771 86.1041 48.2224 85.2892 48.0187 84.5253C48.0187 85.3401 47.9678 86.4096 47.9169 87.3773L47.7641 90.1274H46.9492L47.4076 83.7104H48.4771L49.5466 86.8171C49.8012 87.6319 50.0559 88.294 50.2086 89.007H50.2596C50.4124 88.3449 50.667 87.6319 50.9216 86.8171L52.0421 83.7104H53.1116L53.519 90.1274H52.7041L52.5004 87.3264Z"/>
    <path d="M64.06 86.8681C64.06 89.058 62.7359 90.2803 61.0553 90.2803C59.3746 90.2803 58.1523 88.9562 58.1523 87.0209C58.1523 84.9838 59.4256 83.6596 61.1571 83.6596C62.9396 83.6087 64.06 84.9328 64.06 86.8681ZM59.0691 86.97C59.0691 88.345 59.833 89.5673 61.1062 89.5673C62.4303 89.5673 63.1433 88.3451 63.1433 86.9191C63.1433 85.6458 62.4813 84.3217 61.1062 84.3217C59.7821 84.2708 59.0691 85.544 59.0691 86.97Z"/>
    <path d="M68.9492 83.812C69.3566 83.7101 69.9678 83.6592 70.528 83.6592C71.3938 83.6592 72.0049 83.812 72.4123 84.1685C72.7179 84.474 72.9216 84.8815 72.9216 85.3908C72.9216 86.2565 72.4123 86.8168 71.6994 87.0205V87.0714C72.2086 87.2242 72.5142 87.6825 72.667 88.3446C72.8707 89.2613 73.0235 89.8725 73.1763 90.1271H72.3105C72.2086 89.9234 72.0558 89.4141 71.9031 88.5992C71.6993 87.7335 71.3428 87.377 70.6299 87.326H69.8659V90.1271H69.0511V83.812H68.9492ZM69.815 86.7149H70.6808C71.5466 86.7149 72.1068 86.2056 72.1068 85.4926C72.1068 84.6778 71.4956 84.3213 70.6299 84.2703C70.2224 84.2703 69.9678 84.3213 69.815 84.3722V86.7149Z"/>
    <path d="M79.2361 84.4234H77.3008V83.7104H82.0371V84.4234H80.0509V90.1274H79.2361V84.4234Z"/>
    <path d="M91.2067 89.8725C90.8502 90.0252 90.0863 90.229 89.2205 90.229C88.2529 90.229 87.438 89.9743 86.8269 89.3632C86.2667 88.803 85.9102 87.9881 85.9102 86.9695C85.9102 85.0342 87.2343 83.6592 89.3733 83.6592C90.1372 83.6592 90.6974 83.812 90.9521 83.9648L90.7484 84.6268C90.3919 84.474 89.9844 84.3722 89.3224 84.3722C87.7436 84.3722 86.725 85.3398 86.725 86.9695C86.725 88.5992 87.6927 89.5669 89.2205 89.5669C89.7807 89.5669 90.1372 89.5159 90.3409 89.4141V87.4788H89.0168V86.8167H91.1558V89.8725H91.2067Z"/>
    <path d="M97.3169 88.0903L96.6548 90.1274H95.7891L97.979 83.7104H98.9976L101.187 90.1274H100.322L99.6596 88.0903H97.3169ZM99.405 87.4791L98.7938 85.6457C98.6411 85.2383 98.5392 84.8309 98.4373 84.4744C98.3355 84.8309 98.2336 85.2383 98.1318 85.6457L97.5206 87.5301H99.405V87.4791Z"/>
    <path d="M110.66 89.8725C110.303 90.0252 109.539 90.229 108.674 90.229C107.706 90.229 106.891 89.9743 106.28 89.3632C105.72 88.803 105.363 87.9881 105.363 86.9695C105.363 85.0342 106.687 83.6592 108.826 83.6592C109.59 83.6592 110.151 83.812 110.405 83.9648L110.201 84.6268C109.845 84.474 109.438 84.3722 108.775 84.3722C107.197 84.3722 106.178 85.3398 106.178 86.9695C106.178 88.5992 107.146 89.5669 108.674 89.5669C109.234 89.5669 109.59 89.5159 109.794 89.4141V87.4788H108.47V86.8167H110.609V89.8725H110.66Z"/>
    <path d="M119.064 87.1225H116.569V89.4652H119.37V90.1782H115.754V83.7612H119.217V84.4742H116.569V86.5114H119.064V87.1225Z"/>
    <path d="M131.133 88.0903L130.471 90.1274H129.605L131.795 83.7104H132.814L135.004 90.1274H134.087L133.425 88.0903H131.133ZM133.272 87.4791L132.661 85.6457C132.508 85.2383 132.407 84.8309 132.305 84.4744C132.203 84.8309 132.101 85.2383 131.999 85.6457L131.388 87.5301H133.272V87.4791Z"/>
    <path d="M139.742 83.812C140.251 83.7101 140.863 83.6592 141.525 83.6592C142.696 83.6592 143.562 83.9138 144.122 84.4741C144.682 84.9833 145.039 85.7473 145.039 86.7658C145.039 87.8353 144.733 88.6502 144.122 89.2613C143.511 89.8724 142.543 90.178 141.27 90.178C140.659 90.178 140.201 90.1271 139.742 90.0762V83.812ZM140.557 89.465C140.761 89.516 141.066 89.516 141.372 89.516C143.154 89.516 144.122 88.5483 144.122 86.7658C144.122 85.238 143.256 84.2703 141.525 84.2703C141.117 84.2703 140.761 84.3213 140.557 84.3722V89.465Z"/>
    <path d="M151.354 90.1274L149.266 83.7104H150.182L151.201 86.868C151.456 87.7338 151.71 88.4977 151.863 89.2616C152.067 88.4977 152.321 87.6828 152.576 86.868L153.645 83.7104H154.511L152.219 90.1274H151.354Z"/>
    <path d="M159.858 83.7104V90.1274H159.043V83.7104H159.858Z"/>
    <path d="M165.051 89.1088C165.408 89.3635 165.968 89.5163 166.528 89.5163C167.394 89.5163 167.852 89.0579 167.852 88.3958C167.852 87.7847 167.496 87.4282 166.63 87.1226C165.561 86.7661 164.95 86.2059 164.95 85.2892C164.95 84.2706 165.764 83.5576 167.038 83.5576C167.7 83.5576 168.158 83.7104 168.464 83.8632L168.26 84.5253C168.056 84.4234 167.598 84.2197 167.038 84.2197C166.172 84.2197 165.815 84.729 165.815 85.1873C165.815 85.7985 166.223 86.1041 167.089 86.4096C168.158 86.8171 168.718 87.3773 168.718 88.294C168.718 89.2616 168.005 90.1274 166.477 90.1274C165.866 90.1274 165.204 89.9237 164.848 89.72L165.051 89.1088Z"/>
    <path d="M179.162 86.8681C179.162 89.058 177.837 90.2803 176.157 90.2803C174.476 90.2803 173.254 88.9562 173.254 87.0209C173.254 84.9838 174.527 83.6596 176.259 83.6596C178.041 83.6087 179.162 84.9328 179.162 86.8681ZM174.171 86.97C174.171 88.345 174.935 89.5673 176.208 89.5673C177.532 89.5673 178.245 88.3451 178.245 86.9191C178.245 85.6458 177.583 84.3217 176.208 84.3217C174.833 84.2708 174.171 85.544 174.171 86.97Z"/>
    <path d="M184.047 83.812C184.454 83.7101 185.065 83.6592 185.626 83.6592C186.491 83.6592 187.103 83.812 187.51 84.1685C187.816 84.474 188.019 84.8815 188.019 85.3908C188.019 86.2565 187.51 86.8168 186.797 87.0205V87.0714C187.306 87.2242 187.612 87.6825 187.765 88.3446C187.968 89.2613 188.121 89.8725 188.274 90.1271H187.408C187.306 89.9234 187.154 89.4141 187.001 88.5992C186.797 87.7335 186.441 87.377 185.728 87.326H184.964V90.1271H184.149V83.812H184.047ZM184.862 86.7149H185.728C186.593 86.7149 187.154 86.2056 187.154 85.4926C187.154 84.6778 186.542 84.3213 185.677 84.2703C185.269 84.2703 185.015 84.3213 184.862 84.3722V86.7149Z"/>
    <path d="M192.86 89.1088C193.216 89.3635 193.777 89.5163 194.337 89.5163C195.203 89.5163 195.661 89.0579 195.661 88.3958C195.661 87.7847 195.305 87.4282 194.439 87.1226C193.369 86.7661 192.758 86.2059 192.758 85.2892C192.758 84.2706 193.573 83.5576 194.846 83.5576C195.508 83.5576 195.967 83.7104 196.272 83.8632L196.068 84.5253C195.865 84.4234 195.406 84.2197 194.846 84.2197C193.98 84.2197 193.624 84.729 193.624 85.1873C193.624 85.7985 194.031 86.1041 194.897 86.4096C195.967 86.8171 196.527 87.3773 196.527 88.294C196.527 89.2616 195.814 90.1274 194.286 90.1274C193.675 90.1274 193.013 89.9237 192.656 89.72L192.86 89.1088Z"/>
    <path d="M102.311 15.2121C101.598 14.8046 101.14 14.3463 100.936 13.8879C99.663 10.6285 105.52 7.67466 118.405 5.07731C119.321 4.8736 120.136 4.77175 120.798 4.61896C121.46 4.46617 121.766 4.41525 121.817 4.41525C121.817 4.41525 121.919 4.26245 122.122 3.95688C122.275 3.65131 122.479 3.29482 122.734 2.8874C123.294 1.8179 123.701 1.10489 123.956 0.697464C124.261 0.340965 124.516 0.137254 124.771 0.239111C125.433 0.290039 125.433 1.05396 124.72 2.47996C124.516 2.83646 124.414 3.14203 124.261 3.4476C124.16 3.70224 124.109 3.85504 124.109 3.90596C124.16 3.90596 124.618 3.85503 125.382 3.75317C126.197 3.65131 127.164 3.4476 128.336 3.24389C131.29 2.7346 134.447 2.27625 137.757 1.76696C141.068 1.30861 143.36 1.00303 144.684 0.901174C145.906 0.799317 146.568 0.850255 146.721 1.05397C146.823 1.15583 146.925 1.3086 146.976 1.46139C147.026 1.61418 147.026 1.76696 147.026 1.91974C147.026 2.07253 146.976 2.12346 146.874 2.17439C146.874 2.17439 146.721 2.17439 146.517 2.17439C146.161 2.17439 145.651 2.17439 145.04 2.22532C144.48 2.22532 143.309 2.42903 141.526 2.68367C139.693 2.98924 137.656 3.29481 135.364 3.70224C133.072 4.05874 130.984 4.46617 129.049 4.77174C127.164 5.07731 125.891 5.33196 125.229 5.43382L123.141 5.79031L120.646 10.6285C118.354 15.1102 116.266 19.4901 114.432 23.6153C112.599 27.7914 110.46 32.9861 108.066 39.1484C106.844 42.306 105.673 45.158 104.654 47.6026C103.584 50.0981 102.922 51.6259 102.617 52.1861C102.362 52.5936 102.057 52.7973 101.7 52.8482C101.395 52.8991 101.089 52.7463 100.885 52.3899C100.682 51.8806 101.14 50.1999 102.209 47.3988C103.279 44.5978 104.705 41.3384 106.487 37.5187C108.066 34.1575 109.39 31.2036 110.46 28.6572C111.478 26.1108 112.09 24.3792 112.242 23.4625C112.395 22.0874 112.09 20.8651 111.275 19.7447C110.867 19.1336 110.307 18.6752 109.543 18.2168C108.779 17.8094 107.557 17.2492 105.825 16.6381C104.145 16.1288 102.973 15.6704 102.311 15.2121ZM105.01 10.8322C103.024 11.7999 102.158 12.6147 102.464 13.2259C102.617 13.4805 102.973 13.7861 103.585 14.0917C104.196 14.3972 105.214 14.8047 106.64 15.3649C108.626 16.1288 110.103 16.8418 111.071 17.5548C112.039 18.2169 112.701 19.0826 113.159 20.1012L113.617 21.0688L114.025 20.1521C114.178 19.8466 114.585 19.0317 115.247 17.6057C115.909 16.1797 116.724 14.6009 117.641 12.7675C118.608 10.8832 119.321 9.30437 119.882 8.08209C120.442 6.85981 120.646 6.24866 120.595 6.24866C120.493 6.24866 119.933 6.35052 118.965 6.55423C117.997 6.75795 116.928 7.01259 115.807 7.26723C114.687 7.52187 113.77 7.72559 113.057 7.92931C109.696 8.89695 106.997 9.86458 105.01 10.8322Z"/>
    <path d="M116.929 34.5138C116.827 34.412 116.674 34.3101 116.572 34.2083C116.318 33.9027 116.216 33.6481 116.267 33.3425C116.419 32.8332 117.031 31.6618 117.998 29.8284C119.017 27.995 120.086 26.1616 121.258 24.2772C122.684 21.9854 124.415 19.439 126.35 16.587C128.337 13.735 130.119 11.2395 131.749 9.10054C133.328 6.96155 134.346 5.7902 134.703 5.58648C134.957 5.53555 135.161 5.58648 135.365 5.73926C135.569 5.89205 135.67 6.09577 135.67 6.35041C135.67 6.75784 134.397 8.64219 131.851 12.0544C128.184 17.0454 124.67 22.291 121.258 27.8931C121.207 27.9441 121.461 27.7913 121.971 27.3329C122.48 26.8746 123.142 26.2634 123.957 25.4995C125.485 24.1244 126.554 23.1568 127.318 22.6475C128.031 22.1382 128.591 21.9854 128.846 22.0873C129.508 22.291 129.712 22.9531 129.406 24.0226C129.101 25.143 128.133 26.9764 126.656 29.5738C126.401 30.0321 126.198 30.4396 126.045 30.7451C125.892 31.0507 125.79 31.2544 125.841 31.3053C125.841 31.3053 126.147 31.1016 126.605 30.6942C127.114 30.2868 127.675 29.7775 128.439 29.1663C129.712 28.0459 130.578 27.3839 131.036 27.1801C131.545 26.9255 131.8 27.0274 131.851 27.4857C131.902 27.6385 131.698 27.9441 131.24 28.4024C130.781 28.8608 130.068 29.5228 129.05 30.4396C128.235 31.1526 127.471 31.8146 126.809 32.3239C126.147 32.8841 125.739 33.2406 125.536 33.3425C125.128 33.5971 124.772 33.6481 124.415 33.5971C124.11 33.5462 123.855 33.2916 123.753 32.9351C123.651 32.6295 123.753 32.0693 124.008 31.3053C124.313 30.5414 124.924 29.3191 125.841 27.5366C126.3 26.6199 126.656 25.856 126.911 25.2958C127.165 24.7356 127.216 24.4809 127.114 24.5828C125.077 26.2634 122.785 28.5043 120.239 31.2544C119.373 32.1711 118.66 32.9351 118.049 33.5462C117.438 34.1573 117.132 34.5138 117.081 34.5138C117.081 34.6666 117.031 34.6157 116.929 34.5138Z"/>
    <path d="M129.662 33.9535C129.204 33.9025 128.898 33.6988 128.694 33.4442C128.236 32.8331 128.287 31.9163 128.745 30.7959C129.458 29.0643 130.63 27.4346 132.107 25.9068C133.583 24.3789 134.857 23.5131 135.926 23.3604C136.334 23.3604 136.639 23.5131 136.945 23.8187C137.199 24.1243 137.301 24.4808 137.25 24.9391C137.148 25.6012 136.69 26.4161 135.824 27.3837C134.959 28.3513 134.093 29.1662 133.125 29.8792C132.158 30.5413 131.445 30.8468 130.935 30.694C130.884 30.694 130.782 30.745 130.681 30.8978C130.579 30.9996 130.477 31.2033 130.375 31.4071C130.273 31.6108 130.222 31.7635 130.171 31.9673C130.12 32.171 130.12 32.2728 130.171 32.3238C130.375 32.5784 131.699 32.0182 134.195 30.745C135.519 30.032 136.588 29.4718 137.352 29.0643C138.167 28.7078 138.727 28.4023 139.135 28.2495C139.542 28.0967 139.797 28.0967 139.899 28.1476C140 28.1986 140.102 28.3513 140.102 28.5551C140.204 28.7588 138.829 29.6755 135.926 31.3052C134.755 31.9673 133.685 32.5784 132.769 33.0368C131.852 33.546 131.241 33.8007 131.037 33.9025C130.579 34.0044 130.12 34.0044 129.662 33.9535ZM133.838 26.6198C133.533 26.9253 133.227 27.18 133.023 27.4856C132.769 27.7402 132.667 27.9439 132.667 28.0458C132.667 28.1476 132.82 28.0458 133.074 27.893C133.329 27.6893 133.634 27.4346 133.991 27.0781C134.296 26.7726 134.653 26.467 134.857 26.1105L135.417 25.3975L134.755 25.8558C134.449 26.1105 134.144 26.3142 133.838 26.6198Z"/>
    <path d="M2.08203 75.6133H238.95" stroke="#ffffff" stroke-width="2" stroke-miterlimit="10"/>
    <path d="M116.266 38.3848H238.952" stroke="#ffffff" stroke-width="2" stroke-miterlimit="10"/>
    <path d="M2.08203 38.3848H97.7766" stroke="#ffffff" stroke-width="2" stroke-miterlimit="10"/>
</svg>