<svg width="213" height="103" viewBox="0 0 213 103" fill="#ffffff" xmlns="http://www.w3.org/2000/svg">
    <path d="M6.08917 69.229L0.46875 84.878H3.16876L4.2708 81.6821L4.98713 79.5882L7.57693 72.3147L10.1116 79.5882L11.93 84.878H14.63L9.00959 69.229H6.08917Z"/>
    <path d="M27.581 80.8556L19.8667 69.229H17.332V84.878H19.8667V73.1964L27.581 84.878H30.1708V69.229H27.581V80.8556Z"/>
    <path d="M39.7566 78.3211H45.6526C45.2668 80.966 43.5036 82.6742 40.6383 82.6742C37.5525 82.6742 35.2933 80.4701 35.2933 76.9987C35.2933 73.5272 37.5525 71.3783 40.6383 71.3783C42.5117 71.3783 43.9995 72.1497 44.826 73.7477H47.9117C46.6995 70.717 43.8893 69.064 40.6383 69.064C36.2301 69.064 32.6484 72.3701 32.6484 77.0538C32.6484 81.7375 36.2301 85.0436 40.6383 85.0436C44.826 85.0436 47.9117 81.9579 48.3526 78.3211V76.3375H39.7566V78.3211Z"/>
    <path d="M53.4765 69.2295H50.8867V84.8785H53.4765V69.2295Z"/>
    <path d="M56.8359 84.8785H65.487V82.7846H59.4257V77.9907H64.8258V75.8969H59.4257V71.3234H65.487V69.2295H56.8359V84.8785Z"/>
    <path d="M84.391 75.9515H77.0625V69.229H74.4727V84.878H77.0625V78.0454H84.391V84.878H86.9809V69.229H84.391V75.9515Z"/>
    <path d="M97.4508 69.064C93.0426 69.064 89.4609 72.3701 89.4609 77.0538C89.4609 81.7375 93.0426 85.0436 97.4508 85.0436C101.914 85.0436 105.441 81.7375 105.441 77.0538C105.441 72.3701 101.914 69.064 97.4508 69.064ZM97.4508 82.7844C94.365 82.7844 92.1058 80.5252 92.1058 76.9987C92.1058 73.4721 94.365 71.2681 97.4508 71.2681C100.536 71.2681 102.796 73.4721 102.796 76.9987C102.796 80.5252 100.536 82.7844 97.4508 82.7844Z"/>
    <path d="M110.507 69.229H107.973V84.878H115.797V82.7841H110.507V69.229Z"/>
    <path d="M126.211 81.5173L120.7 69.2295H117.945V84.8785H120.48V74.1887L125.274 84.8785H127.092L131.831 74.1887V84.8785H134.421V69.2295H131.666L126.211 81.5173Z"/>
    <path d="M140.044 73.417C140.044 71.9293 141.201 71.213 142.689 71.213C144.287 71.2681 145.223 72.2048 145.334 73.3068H148.144C147.923 70.6068 145.829 69.064 142.799 69.064C139.603 69.064 137.399 70.7721 137.399 73.5272C137.399 79.2579 145.719 76.8334 145.719 80.6354C145.719 81.9579 144.727 82.9497 142.909 82.9497C141.146 82.9497 140.209 81.9028 140.099 80.6354H137.344C137.344 83.3905 139.768 85.0987 142.854 85.0987C146.325 85.0987 148.254 82.8395 148.254 80.5252C148.309 74.7395 140.044 76.9436 140.044 73.417Z"/>
    <path d="M150.566 71.3229H154.699V84.878H157.289V71.3229H161.422V69.229H150.566V71.3229Z"/>
    <path d="M174.977 73.9132C174.977 71.3785 173.158 69.2295 169.466 69.2295H164.066V84.8785H166.656V78.652H168.585L172.166 84.8785H175.197L171.34 78.3765C173.985 77.7152 174.977 75.7867 174.977 73.9132ZM166.601 76.5581V71.3234H169.411C171.395 71.3234 172.332 72.3152 172.332 73.9132C172.332 75.456 171.45 76.5581 169.411 76.5581H166.601Z"/>
    <path d="M185.392 69.064C180.984 69.064 177.402 72.3701 177.402 77.0538C177.402 81.7375 180.984 85.0436 185.392 85.0436C189.855 85.0436 193.382 81.7375 193.382 77.0538C193.327 72.3701 189.8 69.064 185.392 69.064ZM185.392 82.7844C182.306 82.7844 180.047 80.5252 180.047 76.9987C180.047 73.4721 182.306 71.2681 185.392 71.2681C188.478 71.2681 190.737 73.4721 190.737 76.9987C190.737 80.5252 188.478 82.7844 185.392 82.7844Z"/>
    <path d="M209.58 69.2295L204.125 81.5173L198.614 69.2295H195.859V84.8785H198.449V74.1887L203.243 84.8785H205.006L209.745 74.1887V84.8785H212.335V69.2295H209.58Z"/>
    <path d="M67.3113 95.0723V97.9376H70.6726V95.0723H71.5542V101.96H70.6726V98.709H67.3113V101.96H66.4297V95.0723H67.3113Z"/>
    <path d="M91.2817 98.4338C91.2817 100.803 89.849 102.071 88.0857 102.071C86.2674 102.071 85 100.638 85 98.544C85 96.3399 86.3776 94.9072 88.1959 94.9072C90.0694 94.9623 91.2817 96.395 91.2817 98.4338ZM85.9367 98.544C85.9367 100.032 86.7082 101.354 88.1408 101.354C89.5735 101.354 90.3449 100.032 90.3449 98.4889C90.3449 97.1113 89.6286 95.6787 88.1408 95.6787C86.6531 95.6787 85.9367 97.0562 85.9367 98.544Z"/>
    <path d="M110.514 98.9294C110.458 97.9927 110.403 96.8355 110.403 95.9539H110.348C110.128 96.7804 109.852 97.607 109.467 98.5988L108.254 101.96H107.593L106.491 98.6539C106.16 97.6621 105.885 96.7804 105.665 95.9539C105.665 96.8355 105.609 97.9927 105.554 98.9845L105.389 101.96H104.562L105.058 95.0723H106.216L107.373 98.4335C107.648 99.26 107.869 100.031 108.089 100.748H108.144C108.309 100.031 108.585 99.3151 108.86 98.4335L110.073 95.0723H111.23L111.671 101.96H110.789L110.514 98.9294Z"/>
    <path d="M128.804 98.709H126.104V101.189H129.08V101.96H125.223V95.0723H128.97V95.8437H126.104V98.0478H128.804V98.709Z"/>
    <path d="M142.416 100.858C142.801 101.079 143.408 101.299 144.014 101.299C144.95 101.299 145.446 100.803 145.446 100.142C145.446 99.4808 145.061 99.1502 144.124 98.7645C143.022 98.3787 142.306 97.7726 142.306 96.8359C142.306 95.7338 143.187 94.9624 144.565 94.9624C145.281 94.9624 145.777 95.1277 146.108 95.293L145.887 96.0093C145.667 95.8991 145.226 95.6787 144.565 95.6787C143.628 95.6787 143.242 96.2298 143.242 96.7257C143.242 97.3869 143.683 97.6624 144.62 98.0481C145.777 98.4889 146.383 99.04 146.383 100.087C146.383 101.134 145.612 102.071 143.959 102.071C143.297 102.071 142.581 101.85 142.195 101.63L142.416 100.858Z"/>
    <path d="M79.1016 0.0761719V54.6273H133.653V0.0761719H79.1016ZM132 26.6354H113.706V1.72924H132V26.6354ZM80.7546 4.20884L99.5996 39.7498H80.7546V4.20884ZM81.3057 1.72924H112.053V52.9743H108.471L81.3057 1.72924ZM80.7546 41.4579H100.481L106.598 52.9743H80.8097V41.4579H80.7546ZM113.761 52.9743V28.2885H132.055V52.9743H113.761Z"/>
</svg>