<svg width="196" height="62" viewBox="0 0 196 62" fill="#ffffff" xmlns="http://www.w3.org/2000/svg">
    <path d="M29.0286 60.5591C29.3682 60.7713 29.8776 60.9411 30.4294 60.9411C31.2359 60.9411 31.7029 60.5166 31.7029 59.9223C31.7029 59.3705 31.3633 59.0309 30.5568 58.7338C29.5805 58.3942 28.9862 57.8848 28.9862 57.0359C28.9862 56.102 29.7503 55.4229 30.9388 55.4229C31.5331 55.4229 32 55.5502 32.2547 55.72L32.0425 56.3567C31.8302 56.2294 31.4482 56.0596 30.8964 56.0596C30.0898 56.0596 29.7503 56.5689 29.7503 56.951C29.7503 57.5028 30.1323 57.7999 30.9388 58.0971C31.9576 58.4791 32.4669 58.9885 32.4669 59.8799C32.4669 60.8138 31.7878 61.6203 30.3445 61.6203C29.7503 61.6203 29.1135 61.4505 28.8164 61.2382L29.0286 60.5591Z" />
    <path d="M38.0721 59.6253L37.4354 61.5354H36.6289L38.6664 55.5078H39.6003L41.6378 61.5354H40.7888L40.1521 59.6253H38.0721ZM40.0248 59.031L39.4305 57.2906C39.3031 56.9086 39.2182 56.5266 39.1333 56.187C39.0484 56.5266 38.9635 56.9086 38.8362 57.2906L38.2419 59.031H40.0248Z" />
    <path d="M46.0932 55.5078H46.8573V60.8563H49.4042V61.493H46.0508V55.5078H46.0932Z" />
    <path d="M58.6589 58.4367C58.6589 60.5166 57.3854 61.6203 55.8573 61.6203C54.2867 61.6203 53.1406 60.3893 53.1406 58.564C53.1406 56.6538 54.3292 55.4229 55.9422 55.4229C57.5977 55.4229 58.6589 56.6538 58.6589 58.4367ZM54.032 58.564C54.032 59.8374 54.7112 60.9835 55.9422 60.9835C57.1732 60.9835 57.8524 59.8374 57.8524 58.4791C57.8524 57.2906 57.2156 56.0171 55.9422 56.0171C54.6688 56.0596 54.032 57.2481 54.032 58.564Z" />
    <path d="M63.2422 61.5354V55.5078H64.0911L66.0013 58.5641C66.4258 59.2857 66.8078 59.9224 67.0625 60.5167C66.9776 59.7102 66.9776 58.9886 66.9776 58.0547V55.5503H67.6992V61.5779H66.9352L65.025 58.5216C64.6005 57.8425 64.2185 57.1633 63.9214 56.5266H63.8789C63.9214 57.2906 63.9214 58.0122 63.9214 58.9886V61.5354H63.2422Z" />
    <path d="M81.8753 61.5358C81.7055 61.366 81.5357 61.1962 81.3234 60.9416C80.8141 61.4085 80.2198 61.6207 79.5831 61.6207C78.3945 61.6207 77.7578 60.8567 77.7578 59.9228C77.7578 59.1163 78.2672 58.522 78.9464 58.1824V58.14C78.6492 57.758 78.437 57.291 78.437 56.8665C78.437 56.1449 78.9464 55.3809 79.9651 55.3809C80.7292 55.3809 81.281 55.8902 81.281 56.6543C81.281 57.291 80.899 57.8004 79.9651 58.2673V58.3098C80.4745 58.904 81.0263 59.5408 81.4083 59.9653C81.7055 59.5408 81.8753 58.9465 82.0026 58.2249H82.7242C82.5544 59.1587 82.2998 59.9228 81.8753 60.4322C82.2149 60.7718 82.512 61.1113 82.8516 61.4934H81.8753V61.5358ZM80.9414 60.4746C80.6018 60.0926 79.9227 59.371 79.2435 58.5645C78.9039 58.7767 78.4794 59.1587 78.4794 59.7955C78.4794 60.4746 78.9888 61.0265 79.7104 61.0265C80.2198 61.0265 80.6443 60.8142 80.9414 60.4746ZM79.1161 56.8241C79.1161 57.2486 79.3284 57.5882 79.5831 57.8853C80.1774 57.5457 80.6018 57.2061 80.6018 56.6968C80.6018 56.3147 80.3896 55.9327 79.9227 55.9327C79.3708 55.9327 79.1161 56.3572 79.1161 56.8241Z" />
    <path d="M96.7333 61.3231C96.4362 61.4505 95.8844 61.6203 95.1628 61.6203C93.4648 61.6203 92.1914 60.5591 92.1914 58.564C92.1914 56.6963 93.4648 55.4229 95.3326 55.4229C96.0966 55.4229 96.5636 55.5926 96.7758 55.6775L96.606 56.3143C96.3089 56.1869 95.8844 56.0596 95.375 56.0596C93.9742 56.0596 93.0404 56.951 93.0404 58.5216C93.0404 60.0072 93.8893 60.9411 95.3326 60.9411C95.7995 60.9411 96.2664 60.8562 96.606 60.6864L96.7333 61.3231Z" />
    <path d="M106.245 58.4367C106.245 60.5166 104.971 61.6203 103.443 61.6203C101.873 61.6203 100.727 60.3893 100.727 58.564C100.727 56.6538 101.915 55.4229 103.528 55.4229C105.184 55.4229 106.245 56.6538 106.245 58.4367ZM101.576 58.564C101.576 59.8374 102.255 60.9835 103.486 60.9835C104.717 60.9835 105.396 59.8374 105.396 58.4791C105.396 57.2906 104.759 56.0171 103.486 56.0171C102.212 56.0596 101.576 57.2481 101.576 58.564Z" />
    <path d="M110.697 60.5591C111.036 60.7713 111.546 60.9411 112.097 60.9411C112.904 60.9411 113.371 60.5166 113.371 59.9223C113.371 59.3705 113.031 59.0309 112.225 58.7338C111.248 58.3942 110.654 57.8848 110.654 57.0359C110.654 56.102 111.418 55.4229 112.607 55.4229C113.201 55.4229 113.668 55.5502 113.923 55.72L113.71 56.3567C113.498 56.2294 113.116 56.0596 112.564 56.0596C111.758 56.0596 111.418 56.5689 111.418 56.951C111.418 57.5028 111.8 57.7999 112.607 58.0971C113.626 58.4791 114.135 58.9885 114.135 59.8799C114.135 60.8138 113.456 61.6203 112.013 61.6203C111.418 61.6203 110.782 61.4505 110.484 61.2382L110.697 60.5591Z" />
    <path d="M123.815 58.8617C123.772 58.0128 123.73 57.0365 123.73 56.2724H123.688C123.475 56.994 123.221 57.7156 122.923 58.5646L121.862 61.4935H121.268L120.292 58.6495C119.995 57.8005 119.782 57.0365 119.613 56.3148C119.613 57.0789 119.57 58.0552 119.485 58.9891L119.315 61.5784H118.594L119.018 55.5508H119.995L121.013 58.4373C121.268 59.1589 121.48 59.838 121.608 60.4748H121.65C121.82 59.8805 122.032 59.2013 122.287 58.4373L123.348 55.5508H124.324L124.706 61.5784H123.942L123.815 58.8617Z" />
    <path d="M132.602 58.6919H130.267V60.8567H132.857V61.4934H129.461V55.4658H132.687V56.1025H130.267V58.0127H132.602V58.6919Z" />
    <path d="M138.716 56.187H136.891V55.5078H141.348V56.187H139.522V61.5354H138.758V56.187H138.716Z" />
    <path d="M146.354 55.5078V61.5354H145.59V55.5078H146.354Z" />
    <path d="M155.483 61.3231C155.186 61.4505 154.634 61.6203 153.913 61.6203C152.215 61.6203 150.941 60.5591 150.941 58.564C150.941 56.6963 152.215 55.4229 154.083 55.4229C154.847 55.4229 155.314 55.5926 155.526 55.6775L155.356 56.3143C155.059 56.1869 154.634 56.0596 154.125 56.0596C152.724 56.0596 151.79 56.951 151.79 58.5216C151.79 60.0072 152.639 60.9411 154.083 60.9411C154.549 60.9411 155.016 60.8562 155.356 60.6864L155.483 61.3231Z" />
    <path d="M159.9 60.5591C160.239 60.7713 160.749 60.9411 161.301 60.9411C162.107 60.9411 162.574 60.5166 162.574 59.9223C162.574 59.3705 162.234 59.0309 161.428 58.7338C160.452 58.3942 159.857 57.8848 159.857 57.0359C159.857 56.102 160.621 55.4229 161.81 55.4229C162.404 55.4229 162.871 55.5502 163.126 55.72L162.914 56.3567C162.701 56.2294 162.319 56.0596 161.767 56.0596C160.961 56.0596 160.621 56.5689 160.621 56.951C160.621 57.5028 161.003 57.7999 161.81 58.0971C162.829 58.4791 163.338 58.9885 163.338 59.8799C163.338 60.8138 162.659 61.6203 161.216 61.6203C160.621 61.6203 159.985 61.4505 159.688 61.2382L159.9 60.5591Z" />
    <path d="M123.478 19.2986C123.478 19.7231 123.393 20.2324 123.18 20.8267C122.968 21.421 122.756 22.0153 122.459 22.652C122.162 23.2463 121.865 23.8405 121.525 24.4348C121.185 24.9866 120.931 25.496 120.718 25.9205C120.549 26.3025 120.294 26.7694 119.997 27.3213C119.7 27.8731 119.36 28.4674 118.978 29.1465C122.289 29.4861 125.515 29.4437 128.656 29.0616C131.797 28.6372 134.896 27.7033 137.952 26.2601C139.311 25.6658 140.711 24.9017 142.155 23.9254C143.555 22.9916 144.871 21.8879 146.06 20.6994C147.248 19.4684 148.182 18.1525 148.946 16.7093C149.71 15.266 150.092 13.7379 150.177 12.1249C150.262 10.342 149.923 8.81391 149.159 7.54047C148.437 6.26703 147.461 5.20583 146.23 4.39931C144.999 3.55035 143.683 2.91363 142.197 2.4467C140.711 1.97977 139.226 1.64019 137.74 1.42795C134.939 1.04592 131.84 0.91857 128.444 1.13081C125.048 1.3006 121.61 1.68264 118.129 2.27691C114.648 2.87118 111.295 3.63525 107.984 4.61155C104.715 5.54541 101.787 6.64906 99.2821 7.8376C98.5181 8.21964 97.5842 8.72901 96.4381 9.32329C95.3345 9.91756 94.2308 10.6392 93.1272 11.4032C92.0235 12.1673 91.0472 12.9738 90.1558 13.7803C89.2644 14.5868 88.6701 15.3934 88.3305 16.1574C88.1183 16.6668 88.1608 16.9639 88.4154 17.0488C88.7126 17.1337 89.0522 17.2186 89.4766 17.2611C89.6464 17.2611 89.7738 17.346 89.8587 17.5582C89.8587 17.7705 89.7738 17.8553 89.5615 17.8553C89.1371 17.8553 88.7126 17.8129 88.2881 17.6856C87.8636 17.6007 87.6089 17.2611 87.5665 16.6668C87.524 16.0301 87.8212 15.3509 88.4579 14.5444C89.0946 13.7803 89.8587 13.0163 90.7076 12.2947C91.599 11.573 92.4905 10.8939 93.3819 10.2996C94.2733 9.70532 94.9949 9.23839 95.5467 8.94125C98.0512 7.49802 100.853 6.22458 104.036 5.12093C107.22 4.01728 110.488 3.08342 113.884 2.31936C117.28 1.59774 120.676 1.04591 124.029 0.70633C127.383 0.366746 130.481 0.239401 133.368 0.324297C134.981 0.409193 136.764 0.578986 138.674 0.833674C140.584 1.13081 142.409 1.59774 144.15 2.27691C145.89 2.95608 147.418 3.88993 148.734 5.07848C150.05 6.26703 150.941 7.75271 151.408 9.57797C151.833 11.1486 151.833 12.7191 151.451 14.2048C151.026 15.7329 150.39 17.1337 149.498 18.4496C148.607 19.7655 147.546 20.9965 146.315 22.1002C145.084 23.2038 143.853 24.1377 142.622 24.9017C139.353 26.9392 135.872 28.34 132.137 29.1041C128.402 29.8682 124.666 30.1228 120.888 29.9106C122.586 30.5898 124.029 31.4812 125.26 32.6273C126.491 33.7734 127.34 35.3015 127.722 37.2117C129.717 36.3203 131.712 35.5562 133.75 34.8346C135.787 34.113 137.655 33.5187 139.438 32.9244C142.282 32.033 145.211 31.184 148.267 30.42C151.323 29.6559 154.337 29.1465 157.309 28.8494C157.563 28.8494 157.691 28.9343 157.691 29.1465C157.776 29.4012 157.691 29.5286 157.436 29.5286C155.101 29.7833 152.852 30.1228 150.559 30.6322C148.31 31.1416 146.06 31.651 143.853 32.2452C142.834 32.5424 141.688 32.8395 140.457 33.264C139.226 33.646 137.867 34.0705 136.467 34.5374C135.066 35.0044 133.623 35.5137 132.137 36.0656C130.651 36.6174 129.208 37.2117 127.765 37.8484C127.807 38.0182 127.807 38.188 127.807 38.4002C127.807 38.6125 127.807 38.7822 127.807 38.952C127.892 41.2442 127.34 43.2817 126.194 45.107C125.048 46.9323 123.393 48.2906 121.313 49.1396C120.803 49.3518 120.209 49.5216 119.403 49.7338C118.638 49.9036 117.832 49.9885 117.025 50.031C116.219 50.031 115.455 49.9885 114.733 49.7763C114.012 49.6065 113.502 49.2669 113.205 48.7151C112.823 48.1633 112.738 47.5265 113.035 46.8898C113.29 46.2107 113.714 45.5739 114.266 44.9797C114.818 44.3854 115.412 43.8336 116.049 43.3242C116.686 42.8148 117.195 42.4328 117.577 42.1781C118.808 41.2867 120.167 40.4802 121.61 39.7161C123.053 38.952 124.581 38.188 126.152 37.5088C125.43 33.4762 122.883 30.8869 118.511 29.7833C118.172 30.5049 117.789 31.2265 117.45 31.9481C117.11 32.7122 116.813 33.4338 116.516 34.113C116.219 34.7921 116.049 35.4288 115.879 36.0231C115.71 36.6174 115.667 37.0843 115.752 37.4664L115.837 37.7635C115.879 37.8484 115.752 37.9333 115.412 38.0182C115.115 38.1031 114.903 38.188 114.776 38.188C114.563 38.2729 114.436 38.188 114.351 37.9757L114.266 37.5513C114.181 37.0419 114.266 36.4476 114.436 35.7684C114.606 35.0468 114.861 34.3676 115.158 33.6036C115.455 32.882 115.794 32.1179 116.176 31.3963C116.516 30.6747 116.856 29.9955 117.195 29.4437C117.11 29.3588 117.025 29.2314 117.025 29.1465C117.068 28.9767 117.195 28.8918 117.45 28.8918L117.535 28.7221C117.79 28.2551 118.129 27.6184 118.638 26.727C119.148 25.8356 119.615 24.9442 120.124 24.0103C120.634 23.0765 121.058 22.1426 121.398 21.2936C121.78 20.4447 121.949 19.808 121.949 19.3835C121.949 19.1288 122.034 19.0014 122.204 19.0014C122.289 18.959 122.544 18.959 122.841 19.0439C123.223 19.1288 123.435 19.2137 123.478 19.2986ZM126.237 38.3153C123.86 39.3341 121.652 40.4377 119.615 41.6687C117.577 42.8997 115.964 44.1307 114.818 45.4466C114.097 46.2531 113.714 46.9323 113.672 47.4841C113.587 48.0359 113.757 48.5029 114.139 48.8424C114.521 49.182 115.03 49.3943 115.71 49.4792C116.389 49.5641 117.153 49.5216 118.002 49.3943C120.124 49.0122 121.949 48.1208 123.35 46.6776C124.793 45.2768 125.685 43.494 126.067 41.3291C126.279 40.2255 126.364 39.2067 126.237 38.3153Z" />
    <path d="M158.242 29.9107C158.115 30.2927 157.945 30.7596 157.818 31.269C157.691 31.7784 157.606 32.2877 157.563 32.8396C157.563 33.3489 157.606 33.8583 157.776 34.2828C157.945 34.7073 158.242 35.0469 158.709 35.2591C159.007 35.3865 159.473 35.3865 160.025 35.2167C160.577 35.0469 161.214 34.7497 161.851 34.4101C162.53 34.0281 163.209 33.6036 163.93 33.1367C164.652 32.6273 165.331 32.1604 166.01 31.651C166.69 31.1416 167.284 30.7172 167.793 30.2927C168.303 29.8682 168.685 29.5711 168.939 29.3588C169.067 29.2315 169.237 29.2315 169.406 29.4013C169.534 29.5286 169.534 29.6984 169.364 29.8682C168.345 30.7172 167.241 31.5661 166.095 32.4151C164.949 33.2641 163.761 34.0281 162.615 34.7073C162.02 35.0469 161.341 35.344 160.577 35.6411C159.813 35.8958 159.091 36.0232 158.455 35.9807C157.776 35.9383 157.224 35.726 156.757 35.344C156.29 34.962 156.035 34.2404 156.035 33.2216C156.035 32.3302 156.247 31.3114 156.629 30.2078C157.011 29.1041 157.478 28.0429 158.073 27.0242C158.667 26.0054 159.304 25.0716 159.983 24.2651C160.662 23.4585 161.299 22.9067 161.893 22.5671C162.148 22.4398 162.487 22.3125 162.912 22.2276C163.336 22.1427 163.761 22.1427 164.143 22.1851C164.525 22.2276 164.779 22.3973 164.949 22.652C165.119 22.9067 165.077 23.3312 164.864 23.883C164.61 24.3924 164.228 24.9867 163.718 25.581C163.209 26.1752 162.615 26.7695 161.978 27.3213C161.341 27.8731 160.704 28.3825 160.025 28.8495C159.346 29.2315 158.752 29.6135 158.242 29.9107ZM158.709 28.8919C159.219 28.5948 159.728 28.2127 160.28 27.7883C160.832 27.3638 161.384 26.9393 161.893 26.4299C162.402 25.963 162.912 25.4536 163.294 24.9442C163.718 24.4349 164.015 23.9679 164.228 23.501C164.313 23.2463 164.355 23.0765 164.355 22.9067C164.355 22.7794 164.185 22.6945 163.888 22.7369C163.379 22.7794 162.912 22.9916 162.402 23.4161C161.893 23.8406 161.384 24.35 160.917 24.9867C160.45 25.581 160.025 26.2601 159.601 26.9393C159.261 27.7034 158.964 28.2976 158.709 28.8919Z" />
    <path d="M170.086 29.9107C169.959 30.2927 169.789 30.7596 169.662 31.269C169.534 31.7784 169.449 32.2877 169.407 32.8396C169.407 33.3489 169.449 33.8583 169.619 34.2828C169.789 34.7073 170.086 35.0469 170.553 35.2591C170.85 35.3865 171.317 35.3865 171.869 35.2167C172.421 35.0469 173.058 34.7497 173.694 34.4101C174.373 34.0281 175.053 33.6036 175.774 33.1367C176.496 32.6273 177.175 32.1604 177.854 31.651C178.533 31.1416 179.128 30.7172 179.637 30.2927C180.146 29.8682 180.528 29.5711 180.783 29.3588C180.91 29.2315 181.08 29.2315 181.25 29.4013C181.377 29.5286 181.377 29.6984 181.208 29.8682C180.189 30.7172 179.085 31.5661 177.939 32.4151C176.793 33.2641 175.604 34.0281 174.458 34.7073C173.864 35.0469 173.185 35.344 172.421 35.6411C171.657 35.8958 170.935 36.0232 170.298 35.9807C169.619 35.9383 169.067 35.726 168.601 35.344C168.134 34.962 167.879 34.2404 167.879 33.2216C167.879 32.3302 168.091 31.3114 168.473 30.2078C168.855 29.1041 169.322 28.0429 169.916 27.0242C170.511 26.0054 171.147 25.0716 171.827 24.2651C172.506 23.4585 173.142 22.9067 173.737 22.5671C173.991 22.4398 174.331 22.3125 174.755 22.2276C175.18 22.1427 175.604 22.1427 175.986 22.1851C176.369 22.2276 176.623 22.3973 176.793 22.652C176.963 22.9067 176.92 23.3312 176.708 23.883C176.453 24.3924 176.071 24.9867 175.562 25.581C175.053 26.1752 174.458 26.7695 173.822 27.3213C173.185 27.8731 172.548 28.3825 171.869 28.8495C171.19 29.2315 170.596 29.6135 170.086 29.9107ZM170.553 28.8919C171.063 28.5948 171.572 28.2127 172.124 27.7883C172.676 27.3638 173.227 26.9393 173.737 26.4299C174.246 25.963 174.755 25.4536 175.138 24.9442C175.562 24.4349 175.859 23.9679 176.071 23.501C176.156 23.2463 176.199 23.0765 176.199 22.9067C176.199 22.7794 176.029 22.6945 175.732 22.7369C175.222 22.7794 174.755 22.9916 174.246 23.4161C173.737 23.8406 173.227 24.35 172.76 24.9867C172.294 25.581 171.869 26.2601 171.445 26.9393C171.105 27.7034 170.808 28.2976 170.553 28.8919Z" />
    <path d="M195.511 29.6558C194.619 30.8444 193.685 32.0754 192.709 33.3913C191.775 34.7072 190.799 35.9806 189.78 37.2965C188.762 38.6124 187.7 39.8434 186.639 41.0319C185.578 42.2205 184.474 43.2817 183.413 44.258C182.989 44.5976 182.437 45.022 181.758 45.4465C181.078 45.871 180.399 46.2106 179.678 46.3804C178.956 46.5502 178.362 46.5502 177.767 46.3379C177.216 46.1257 176.834 45.5314 176.664 44.5976C176.452 43.4939 176.621 41.8809 177.131 39.8434C177.64 37.8059 178.319 35.5986 179.168 33.2215C180.017 30.8444 180.951 28.4673 181.927 26.0478C182.946 23.6282 183.838 21.5483 184.644 19.723C183.158 19.6381 181.715 19.5957 180.314 19.5108C178.914 19.4259 177.428 19.3834 175.985 19.2985C175.772 19.2985 175.688 19.1712 175.688 18.9165C175.688 18.7042 175.815 18.6193 176.07 18.6193C177.555 18.7042 179.041 18.7467 180.527 18.8316C182.012 18.9165 183.498 18.9589 185.026 19.0438L186.172 16.412C186.215 16.3271 186.384 16.2423 186.766 16.1998C187.106 16.1574 187.318 16.1574 187.403 16.1998C187.573 16.3271 187.658 16.4969 187.615 16.6667L186.512 19.1287C189.186 19.2561 191.86 19.3834 194.577 19.4259C194.832 19.4259 194.959 19.5532 194.959 19.8079C194.959 20.0201 194.832 20.105 194.577 20.105C193.219 20.0626 191.818 20.0201 190.459 19.9352C189.059 19.8503 187.7 19.8079 186.257 19.723C186.13 20.0201 186.002 20.2748 185.875 20.5295C185.79 20.7842 185.663 21.0389 185.578 21.336C184.984 22.6944 184.347 24.1376 183.71 25.6657C183.073 27.1939 182.437 28.722 181.842 30.2926C181.248 31.8631 180.696 33.3913 180.145 34.9619C179.635 36.49 179.168 38.0181 178.829 39.5038C178.532 40.6074 178.362 41.7111 178.234 42.7298C178.107 43.7486 178.192 44.5551 178.447 45.1069C178.701 45.6588 179.211 45.871 179.932 45.7437C180.654 45.6163 181.715 44.9371 183.073 43.7486C184.177 42.8147 185.238 41.7111 186.3 40.5225C187.361 39.334 188.379 38.103 189.398 36.8296C190.417 35.5561 191.393 34.2402 192.327 32.9668C193.261 31.6509 194.195 30.4624 195.129 29.2738C195.256 29.0616 195.426 29.0616 195.596 29.2314C195.638 29.4012 195.681 29.5285 195.511 29.6558Z" />
    <path d="M27.8031 39.4193C25.0016 39.4193 23.431 37.7213 23.431 34.5802V25.2416C23.431 23.8833 23.2188 23.0768 22.582 22.6098H27.2089V34.75C27.2089 37.2544 28.2276 38.4854 30.1802 38.4854C30.6047 38.4854 30.9867 38.443 31.3263 38.3156C30.2227 39.1221 29.1615 39.4193 27.8031 39.4193ZM34.2128 35.7687L34.1704 25.1567C34.1704 23.8833 33.9157 23.0768 33.2789 22.5674H37.9907V35.5565C37.9907 36.9148 38.3303 37.7638 39.0519 38.2732L38.4576 38.3581C36.4625 38.5703 35.4013 38.7401 34.2128 39.0797V35.7687Z" />
    <path d="M85.9078 36.8298V26.7272C85.9078 23.4162 82.5969 22.5673 80.3047 22.3975C81.9177 23.204 82.1724 24.9868 82.1724 26.3876V36.3629C82.1724 36.3629 81.9602 39.6314 84.5919 39.6314C85.6107 39.6314 86.3748 39.3767 87.2237 38.74C86.5021 38.5702 85.9078 37.9759 85.9078 36.8298Z" />
    <path d="M75.8094 35.0475C75.8094 33.6891 76.3188 31.9912 78.3987 30.7178C76.1914 31.4394 74.9604 31.9488 73.9841 32.6279C72.4984 33.6042 71.7344 34.8777 71.7344 36.3209C71.7344 38.5282 72.8805 39.6319 75.2151 39.6319C76.7008 39.6319 77.9318 39.2923 79.2477 38.4433C79.0354 38.4858 78.8656 38.4858 78.6534 38.4858C76.913 38.4433 75.8094 37.1274 75.8094 35.0475Z" />
    <path d="M76.3626 26.8542C77.2965 25.8354 77.5087 22.6094 77.5087 22.6094C77.5087 22.6094 74.3251 23.1188 73.3913 24.1375C72.6272 24.944 72.7121 26.2175 73.5186 26.9815C74.3251 27.7456 75.5986 27.7031 76.3626 26.8542Z" />
    <path d="M101.87 22.8652H97.3281C98.0073 23.3746 98.262 24.1811 98.262 25.497V36.7033C98.262 37.9343 98.0073 38.6559 97.3281 39.1653H103.101C102.337 38.571 102.04 37.5947 102.04 35.8543L101.87 22.8652Z" />
    <path d="M109.427 23.7566C108.154 22.7802 104.461 22.8651 104.461 22.8651C104.461 22.8651 105.352 26.4732 106.626 27.4495C107.645 28.2136 109.088 28.0438 109.894 27.0251C110.658 26.0063 110.446 24.5631 109.427 23.7566Z" />
    <path d="M7.29924 29.1892C5.21929 28.3403 3.09688 27.1517 3.09688 25.0293C3.09688 23.9681 3.64871 23.0342 4.54012 22.4824C2.33282 23.0342 0.804688 24.8595 0.804688 27.1517C0.804688 29.359 2.24792 30.8871 5.81356 32.4153C7.97841 33.3491 10.0159 34.5377 10.0159 36.5327C10.0159 37.8486 9.2943 38.9098 8.19065 39.4616C10.6102 38.9947 12.1383 37.127 12.1383 34.4952C12.1383 32.4153 11.3743 30.8871 7.29924 29.1892Z" />
    <path d="M11.5425 27.0239C12.3914 26.0476 12.3065 24.6044 11.3302 23.7554C10.1417 22.6942 6.40625 22.5244 6.40625 22.5244C6.40625 22.5244 7.04297 26.1749 8.23152 27.2361C9.25027 28.0851 10.6935 27.9578 11.5425 27.0239Z" />
    <path d="M1.56726 34.9624C0.7183 35.9387 0.803197 37.3819 1.7795 38.2309C2.96805 39.2921 6.70348 39.4619 6.70348 39.4619C6.70348 39.4619 6.06676 35.8113 4.87821 34.7501C3.85946 33.9012 2.41622 34.0285 1.56726 34.9624Z" />
    <path d="M51.5305 32.6271L52.6341 32.9667C52.6766 32.9667 52.6766 32.9667 52.719 32.9667C51.2758 31.9904 51.0211 29.6558 51.0211 27.1089C51.0211 24.8167 51.1485 22.3971 52.5068 21.3359C49.3232 21.9302 47.3281 24.0526 47.3281 27.0664C47.3281 29.6982 48.9412 31.8631 51.5305 32.6271Z" />
    <path d="M56.919 36.8725H52.3347C50.8914 36.8725 49.2784 35.9811 50.382 33.6465C47.8352 34.6228 47.4531 35.8962 47.4531 37.0423C47.4531 38.528 48.6417 39.9288 50.5943 39.9288C52.1649 39.9288 57.2586 39.9288 57.2586 39.9288C60.7818 39.9288 61.5034 41.5418 61.5034 42.9002C61.5034 43.3246 61.3761 43.7067 61.1638 44.1312C62.3524 43.2822 62.9891 42.1361 62.9891 40.7353C62.9891 38.3582 60.6545 36.8725 56.919 36.8725Z" />
    <path d="M53.1875 44.5134C53.1875 45.7868 54.2063 46.848 55.5221 46.848C57.0927 46.848 60.0216 44.5134 60.0216 44.5134C60.0216 44.5134 57.1352 42.1787 55.5221 42.1787C54.2063 42.1787 53.1875 43.2399 53.1875 44.5134Z" />
    <path d="M61.4576 19.4261C62.5188 18.7469 62.8584 17.3037 62.1792 16.2C61.5 15.1388 60.0568 14.7993 58.9531 15.4784C57.6372 16.3274 56.4062 19.8506 56.4062 19.8506C56.4062 19.8506 60.0992 20.3175 61.4576 19.4261Z" />
    <path d="M56.1128 32.9667L57.2164 32.6271C59.8057 31.8206 61.4612 29.6982 61.4612 27.0664C61.4612 24.0526 59.4662 21.9302 56.2826 21.3359C57.5984 22.4396 57.7682 24.8167 57.7682 27.1089C57.7682 29.6133 57.5135 31.9904 56.0703 32.9667C56.0703 32.9667 56.1128 32.9667 56.1128 32.9667Z" />
</svg>