<svg width="186" height="69" viewBox="0 0 186 69" fill="#3c474e" xmlns="http://www.w3.org/2000/svg">
    <path d="M3.47707 58.661C15.4116 54.7616 26.1646 48.3217 36.5039 41.1727C47.9068 33.3148 59.0142 24.9843 70.1807 16.89C75.7344 12.8724 81.1699 8.67762 86.8418 4.83729C87.8462 4.1283 88.9688 3.65565 90.2095 3.59657C91.8638 3.4784 91.273 8.7367 91.273 9.44569C91.273 13.4042 91.273 17.3036 91.2139 21.2621C91.1548 36.2099 91.0957 51.1576 91.0366 66.1054C91.0366 68.4096 94.5816 68.4096 94.5816 66.1054C94.6406 50.3895 94.6997 34.6737 94.7588 18.8988C94.7588 14.9403 94.7588 11.0409 94.8179 7.08241C94.8179 4.95545 94.9361 2.23768 92.8682 0.878793C87.8462 -2.37072 81.4653 4.30555 77.8023 6.96424C65.1587 16.181 52.5152 25.3978 39.7534 34.5556C28.1734 42.8861 16.1206 50.8031 2.47268 55.2343C0.345723 55.9432 1.29104 59.37 3.47707 58.661Z"/>
    <path d="M92.6917 67.8779C94.9958 67.8779 94.9958 64.333 92.6917 64.333C90.4465 64.333 90.4465 67.8779 92.6917 67.8779Z"/>
    <path d="M92.6917 67.8779C94.9958 67.8779 94.9958 64.333 92.6917 64.333C90.4465 64.333 90.4465 67.8779 92.6917 67.8779Z"/>
    <path d="M92.8069 64.5693C87.5486 63.4467 83.1766 60.6699 79.8089 56.5341C78.0955 54.4663 76.8548 51.9257 76.0276 49.3261C74.846 45.663 75.2005 42.8271 78.7454 40.8774C87.0169 36.269 97.9471 38.8095 104.919 44.5996C108.7 47.7309 110.472 51.5712 112.245 56.0024C113.367 58.8383 116.676 62.7968 120.103 60.4335C123.293 58.2475 122.821 54.0527 123.825 50.7441C124.711 47.9082 128.315 47.3764 130.738 47.8491C133.81 48.4399 136.409 50.8032 138.714 52.7529C139.364 53.3437 140.604 53.58 141.195 52.7529C142.849 50.6259 143.736 48.3808 143.795 45.663C143.204 46.2539 142.613 46.8447 142.022 47.4355C155.907 47.1992 169.791 46.4902 183.675 46.2539C185.979 46.1948 185.979 42.6499 183.675 42.7089C169.791 42.9453 155.907 43.6543 142.022 43.8906C141.077 43.8906 140.25 44.6586 140.25 45.663C140.25 47.3764 139.777 48.8535 138.714 50.2714C139.541 50.2714 140.368 50.2714 141.195 50.2714C136.882 46.6084 132.215 43.1816 126.247 44.4814C120.516 45.7221 120.28 51.0395 119.158 55.7661C118.094 60.1381 115.376 54.7026 114.785 53.0483C113.899 50.5668 112.718 48.2626 111.122 46.1948C107.991 42.059 103.678 39.1049 98.8924 37.1552C94.2249 35.2055 89.1438 34.7919 84.181 35.4419C79.2181 36.0918 72.66 38.6323 71.7146 44.186C70.8284 49.3852 74.0779 55.2343 77.1502 59.1337C80.6951 63.7421 86.0716 66.8735 91.7435 68.1142C94.1067 68.4687 95.052 65.0419 92.8069 64.5693Z"/>
    <path d="M4.24433 57.5973C5.13056 53.9342 6.84394 50.6847 9.44355 47.9669C11.0388 46.3126 8.49824 43.8312 6.9621 45.4855C3.94892 48.6168 1.82197 52.4572 0.817571 56.7111C0.285833 58.8971 3.71259 59.8424 4.24433 57.5973Z"/>
</svg>