<svg width="184" height="86" viewBox="0 0 184 86" fill="#3c474e" xmlns="http://www.w3.org/2000/svg">
    <path d="M35.8692 83.1034C34.6569 85.3325 33.7574 85.9192 33.3664 85.9192C33.1317 85.9192 32.506 85.489 32.506 85.0979C32.506 84.785 32.8189 84.3158 33.601 83.1816C35.7519 79.8966 55.4621 42.9791 55.4621 42.9791L31.8803 44.1524C31.2937 44.5043 25.1538 53.108 24.3325 53.108C23.9024 53.108 23.394 52.7169 23.394 52.2085C23.394 51.5828 25.8186 48.6497 29.0645 44.2306C12.6785 45.13 3.44914 44.6999 2.82342 45.834C2.66699 46.1077 2.39323 46.2251 2.08037 46.2251C1.25912 46.2251 0.125 45.5211 0.125 44.9345C0.125 43.9177 1.84573 43.7613 3.52735 43.5657C8.10293 43.0965 12.0919 42.8618 15.5725 42.8618C19.1312 42.8618 28.5953 42.4316 29.8858 42.2361C30.4724 42.1579 30.8244 41.8059 31.6847 40.5936C35.3217 35.2359 60.155 0.78215 62.0713 0.78215C62.2668 0.78215 62.4232 0.977687 62.6579 1.32965C62.7752 1.52519 62.8925 1.64251 62.8925 1.83805C62.8925 2.42466 62.1495 3.637 58.9427 8.48633C55.0319 14.3133 54.4844 15.9167 53.7805 15.9167C53.3503 15.9167 52.9983 15.5257 52.9983 15.0955C52.9983 14.9782 53.0374 14.8217 53.1157 14.6653C53.1939 14.548 53.233 14.4307 53.233 14.3916C52.8028 14.3916 41.3443 30.0737 40.9141 30.6994C40.9141 30.6994 56.7135 13.4921 65.2781 5.90523C69.7754 1.95537 72.8258 0 74.5857 0C75.7589 0 76.3846 0.62572 76.3846 2.0727C76.3846 6.33541 71.0269 17.6766 58.8253 40.8282L61.9539 40.7891C63.792 40.7891 64.9652 40.8282 64.9652 41.845C64.9652 42.4707 64.3395 43.1747 63.7529 43.1747C63.5573 43.1747 63.4009 43.0965 63.2445 42.9791C63.1272 42.8227 62.6579 42.7836 61.4064 42.7836C60.2723 42.7836 57.6912 42.9009 57.6912 42.9009L35.8692 83.1034ZM56.4789 40.9455C56.4789 40.9455 74.6639 6.84381 74.6639 2.30734C74.6639 2.1118 74.6248 1.95537 74.5466 1.87716L74.4292 1.83805C73.5689 1.83805 70.0101 4.30182 66.6077 7.3131C53.5849 18.8107 33.9139 41.6104 33.9139 41.845C33.9139 41.8841 34.5396 41.9232 35.5955 41.9232C40.7968 41.8841 56.4789 40.9455 56.4789 40.9455Z" />
    <path d="M83.5411 42.5885C83.5411 43.2924 80.0997 44.8176 77.5577 44.8176C76.1107 44.8176 73.0994 44.4656 73.0994 44.4656C71.3787 44.4656 66.9987 48.7675 66.2947 48.7675C65.5908 48.7675 65.2779 48.5719 65.0433 48.2982C64.8869 48.1026 64.7695 47.9853 64.7695 47.8289C64.7695 47.5942 64.926 47.3205 65.2779 46.6557C66.2165 45.0132 67.5071 42.0801 68.0155 41.5326C68.211 41.2979 68.4456 41.2197 68.6412 41.2197C68.954 41.2197 69.1887 41.4153 69.3451 41.7672C69.3451 41.8063 69.3842 41.8846 69.3842 41.9628C69.3842 42.5494 67.8981 44.974 67.8981 45.0132C68.0155 45.0523 71.1441 42.5494 72.9039 42.5494C73.295 42.5494 73.8425 42.6276 74.8202 42.7449C75.6805 42.8622 76.1107 42.9013 77.0884 42.9013C80.5299 42.9013 82.407 41.8063 82.6025 41.8063C83.1892 41.8454 83.5411 42.0801 83.5411 42.5885Z" />
    <path d="M79.9455 46.6163C79.8282 46.4599 79.7891 46.1861 79.7891 45.8733C79.7891 45.5604 79.8282 45.1694 79.9064 44.661C80.1801 43.4877 81.3534 42.0016 83.4261 40.2027C87.2195 34.2975 90.1917 29.8392 92.3426 26.7497C96.2533 21.2356 98.7562 18.498 99.9294 18.498C100.868 18.498 101.376 18.9673 101.376 19.9841C101.376 20.8836 101.142 22.0177 100.712 23.3083C100.36 23.582 100.086 23.7385 99.8512 23.7385C99.5775 23.7385 99.3428 23.5429 99.2255 23.1127C99.4601 22.3697 99.5775 21.7831 99.5775 21.4702C99.5775 21.1574 99.4601 21.0009 99.2255 21.0009C98.9517 21.0009 97.974 22.0959 96.4489 24.2077C94.8454 26.3195 92.9292 29.0962 90.7001 32.5376L86.7893 38.4429C90.309 36.4093 92.851 35.3925 94.4544 35.3925C95.3538 35.3925 95.8622 35.7836 95.8622 36.6439C95.8622 36.8395 95.784 37.1132 95.5885 37.4261C95.393 37.7389 95.1583 38.0127 94.8846 38.2473C94.6108 38.5211 94.2979 38.6384 93.9851 38.6384C93.9069 38.5993 93.8287 38.5211 93.7504 38.4429C93.6331 38.3647 93.4376 38.3255 93.1247 38.3255C91.9124 38.3255 90.3481 38.7557 88.3927 39.6552L86.5938 41.2195C88.0016 43.214 89.2922 44.3481 90.5436 44.5436C93.2811 44.5436 96.0578 43.8006 98.7953 42.2754C99.1864 42.0408 99.421 41.9234 99.4992 41.9234C99.8903 41.9234 100.086 42.119 100.086 42.5492C100.008 43.1358 99.9294 43.4486 99.8121 43.4486C99.7339 43.4486 99.6557 43.4877 99.5775 43.566C96.9573 45.4822 93.946 46.4208 90.6609 46.4208C89.0184 46.4208 87.1022 45.0911 84.9904 42.4709L84.6775 42.7056C82.7612 45.756 81.4707 47.2421 80.7667 47.2421C80.4148 47.2812 80.1801 47.0856 79.9455 46.6163Z" />
    <path d="M95.3125 46.4208C95.3125 43.2922 102.117 39.7334 105.48 39.7334C106.81 39.7334 107.162 40.3591 107.162 40.9848C107.162 41.4541 106.888 41.8843 106.693 41.8843L106.536 43.3704C106.536 44.4654 106.849 45.7168 108.374 45.7168C111.62 45.7168 118.777 41.8843 118.777 41.8843C119.012 41.8843 119.716 42.5882 119.716 42.9793C119.716 43.4486 111.581 47.5158 108.218 47.5158C105.05 47.5158 104.855 44.7392 104.855 44.0352V43.9179C103.056 45.3649 100.318 48.689 97.1897 48.689C95.8991 48.689 95.3125 47.5158 95.3125 46.4208ZM104.581 41.9234H104.542C102.352 41.9234 97.0723 44.1134 97.0723 46.4599C97.0723 46.6554 97.3461 46.851 97.6981 46.851C99.497 46.8119 103.525 42.9011 104.581 41.9234Z" />
    <path d="M115.648 47.1629C115.648 45.8332 118.269 41.6487 119.246 41.6487C119.481 41.6487 119.95 41.766 119.95 42.3526C119.95 42.9393 117.995 44.8164 117.995 45.5595C117.995 45.7159 118.112 45.8332 118.386 45.8332C118.855 45.8332 124.526 41.4141 126.677 41.4141C127.459 41.4141 127.772 41.766 127.772 42.3135C127.772 43.4085 127.107 45.1684 127.107 45.9114C127.107 46.0679 127.185 46.3416 127.576 46.3416C130.079 46.3416 137.353 42.7046 138.174 41.8834C138.174 41.8834 138.8 42.3918 138.8 42.7437C136.454 45.2075 128.906 48.0623 127.029 48.0623C125.621 48.0623 125.152 47.1238 125.152 46.4589C125.152 45.2466 125.66 43.956 125.66 43.5259L125.582 43.4477C123.9 43.4477 117.995 48.4925 116.939 48.4925C116.235 48.4534 115.648 47.9841 115.648 47.1629Z" />
    <path d="M133.836 47.9075C133.836 45.2482 138.412 45.1308 138.412 45.1308C138.372 44.7789 137.864 42.9408 137.864 41.924C137.864 38.7172 140.758 38.3652 141.54 38.3652C142.635 38.3652 143.065 39.2256 143.065 39.6167C143.065 40.4379 142.596 40.9854 141.462 41.6894C140.758 42.1978 140.21 42.4715 140.21 42.4715C139.937 43.1755 140.523 44.114 140.523 44.9744C144.317 44.7006 146.233 44.2314 150.613 41.8458C150.926 41.8458 151.395 42.1196 151.395 42.5497C151.395 43.019 150.965 43.1363 150.574 43.4492C148.384 45.3264 144.043 46.3823 140.523 46.6169C140.25 47.9857 139.35 49.8628 136.221 49.8628C135.126 49.9019 133.836 49.2371 133.836 47.9075ZM138.412 46.6951C137.121 46.656 135.948 47.0862 135.948 47.4382C135.948 47.6728 136.104 47.9857 136.534 47.9857C137.629 48.0248 138.412 47.4382 138.412 46.6951Z" />
    <path d="M146.543 46.4208C146.543 43.2922 153.348 39.7334 156.711 39.7334C158.041 39.7334 158.393 40.3591 158.393 40.9848C158.393 41.4541 158.119 41.8843 157.923 41.8843L157.767 43.3704C157.767 44.4654 158.08 45.7168 159.605 45.7168C162.851 45.7168 170.007 41.8843 170.007 41.8843C170.242 41.8843 170.946 42.5882 170.946 42.9793C170.946 43.4486 162.812 47.5158 159.448 47.5158C156.281 47.5158 156.085 44.7392 156.085 44.0352V43.9179C154.286 45.3649 151.549 48.689 148.42 48.689C147.169 48.689 146.543 47.5158 146.543 46.4208ZM155.851 41.9234H155.811C153.621 41.9234 148.342 44.1134 148.342 46.4599C148.342 46.6554 148.616 46.851 148.968 46.851C150.727 46.8119 154.756 42.9011 155.851 41.9234Z" />
    <path d="M165.668 47.9075C165.668 45.2482 170.244 45.1308 170.244 45.1308C170.204 44.7789 169.696 42.9408 169.696 41.924C169.696 38.7172 172.59 38.3652 173.372 38.3652C174.467 38.3652 174.897 39.2256 174.897 39.6167C174.897 40.4379 174.428 40.9854 173.294 41.6894C172.59 42.1978 172.042 42.4715 172.042 42.4715C171.769 43.1755 172.355 44.114 172.355 44.9744C176.149 44.7006 178.065 44.2314 182.445 41.8458C182.758 41.8458 183.227 42.1196 183.227 42.5497C183.227 43.019 182.797 43.1363 182.406 43.4492C180.216 45.3264 175.875 46.3823 172.355 46.6169C172.082 47.9857 171.182 49.8628 168.054 49.8628C166.919 49.9019 165.668 49.2371 165.668 47.9075ZM170.244 46.6951C168.953 46.656 167.78 47.0862 167.78 47.4382C167.78 47.6728 167.936 47.9857 168.366 47.9857C169.461 48.0248 170.244 47.4382 170.244 46.6951Z" />
    <path d="M64.7696 58.2697C65.1607 58.1915 65.6691 58.1523 66.3339 58.1523C67.1551 58.1523 67.7418 58.3479 68.1328 58.6999C68.4848 59.0127 68.6803 59.482 68.6803 60.0295C68.6803 60.6161 68.5239 61.0463 68.1719 61.3983C67.7417 61.8676 67.0378 62.1022 66.2166 62.1022C65.9819 62.1022 65.7473 62.1022 65.5517 62.0631V64.6051H64.7305V58.2697H64.7696ZM65.5908 61.3201C65.7864 61.3592 65.9819 61.3983 66.2557 61.3983C67.2334 61.3983 67.8591 60.8899 67.8591 60.0295C67.8591 59.1691 67.2725 58.7781 66.373 58.7781C66.021 58.7781 65.7473 58.8172 65.5908 58.8563V61.3201Z" />
    <path d="M71.6953 58.1914H72.5166V63.862H75.2541V64.5659H71.6953V58.1914Z" />
    <path d="M79.0408 62.5324L78.376 64.5269H77.5156L79.7056 58.1523H80.6833L82.8734 64.5269H82.013L81.3482 62.5324H79.0408ZM81.1526 61.9067L80.5269 60.0686C80.3705 59.6384 80.2923 59.2865 80.214 58.8954C80.1358 59.2474 80.0185 59.6775 79.9012 60.0295L79.2755 61.8676H81.1526V61.9067Z" />
    <path d="M85.5746 63.5492C85.9265 63.7839 86.4741 63.9794 87.0216 63.9794C87.8428 63.9794 88.3512 63.5492 88.3512 62.8844C88.3512 62.2978 87.9992 61.9458 87.1389 61.633C86.083 61.2419 85.4573 60.6944 85.4573 59.834C85.4573 58.8563 86.2785 58.1133 87.53 58.1133C88.1557 58.1133 88.6641 58.2697 88.9378 58.4261L88.7032 59.091C88.5076 58.9736 88.0775 58.7781 87.4909 58.7781C86.6305 58.7781 86.2785 59.2865 86.2785 59.7167C86.2785 60.3033 86.6696 60.6162 87.53 60.929C88.625 61.3592 89.1334 61.8676 89.1334 62.8062C89.1334 63.7839 88.4294 64.6442 86.9042 64.6442C86.2785 64.6442 85.6137 64.4487 85.2617 64.214L85.5746 63.5492Z" />
    <path d="M93.4358 58.8953H91.5195V58.1914H96.2515V58.8953H94.2962V64.5659H93.4749V58.8953H93.4358Z" />
    <path d="M99.6494 58.1914V64.5659H98.8281V58.1914H99.6494Z" />
    <path d="M107.396 64.3705C107.122 64.5269 106.497 64.6833 105.715 64.6833C103.916 64.6833 102.586 63.5492 102.586 61.4374C102.586 59.4429 103.955 58.1133 105.91 58.1133C106.692 58.1133 107.201 58.2697 107.435 58.387L107.201 59.0519C106.888 58.8954 106.458 58.7781 105.91 58.7781C104.424 58.7781 103.407 59.7167 103.407 61.3983C103.407 62.9626 104.307 63.9403 105.832 63.9403C106.34 63.9403 106.849 63.823 107.201 63.6665L107.396 64.3705Z" />
    <path d="M114.125 63.5492C114.477 63.7839 115.025 63.9794 115.572 63.9794C116.394 63.9794 116.902 63.5492 116.902 62.8844C116.902 62.2978 116.55 61.9458 115.69 61.633C114.634 61.2419 114.008 60.6944 114.008 59.834C114.008 58.8563 114.829 58.1133 116.081 58.1133C116.706 58.1133 117.215 58.2697 117.489 58.4261L117.254 59.091C117.058 58.9736 116.628 58.7781 116.042 58.7781C115.181 58.7781 114.829 59.2865 114.829 59.7167C114.829 60.3033 115.22 60.6162 116.081 60.929C117.176 61.3592 117.684 61.8676 117.684 62.8062C117.684 63.7839 116.98 64.6442 115.455 64.6442C114.829 64.6442 114.164 64.4487 113.812 64.214L114.125 63.5492Z" />
    <path d="M121.595 58.1915V61.9849C121.595 63.3927 122.22 64.0185 123.081 64.0185C124.019 64.0185 124.645 63.3927 124.645 61.9849V58.1915H125.466V61.9067C125.466 63.862 124.45 64.6442 123.042 64.6442C121.751 64.6442 120.773 63.9011 120.773 61.9067V58.1523H121.595V58.1915Z" />
    <path d="M128.75 58.2697C129.18 58.1915 129.767 58.1523 130.314 58.1523C131.175 58.1523 131.761 58.3088 132.152 58.6607C132.465 58.9345 132.661 59.3647 132.661 59.8731C132.661 60.6943 132.113 61.2418 131.488 61.4765V61.5156C131.957 61.672 132.27 62.1413 132.426 62.8061C132.622 63.7056 132.778 64.2922 132.934 64.566H132.074C131.957 64.3704 131.839 63.8229 131.644 63.0408C131.448 62.1804 131.096 61.8284 130.353 61.7893H129.571V64.566H128.75V58.2697ZM129.571 61.1636H130.393C131.253 61.1636 131.839 60.6943 131.839 59.9513C131.839 59.13 131.253 58.7781 130.393 58.7781C130.001 58.7781 129.728 58.8172 129.571 58.8563V61.1636Z" />
    <path d="M140.6 64.2532C140.248 64.4096 139.505 64.6051 138.644 64.6051C137.667 64.6051 136.885 64.3705 136.259 63.7839C135.711 63.2364 135.359 62.4151 135.359 61.3983C135.359 59.482 136.689 58.1133 138.801 58.1133C139.544 58.1133 140.13 58.2697 140.404 58.387L140.209 59.0519C139.857 58.8954 139.427 58.7781 138.801 58.7781C137.237 58.7781 136.259 59.7558 136.259 61.3201C136.259 62.9235 137.237 63.9012 138.723 63.9012C139.27 63.9012 139.622 63.823 139.818 63.7448V61.8285H138.527V61.1637H140.639V64.2532H140.6Z" />
    <path d="M147.012 61.5546H144.548V63.862H147.324V64.5659H143.727V58.1914H147.168V58.8953H144.548V60.8898H147.012V61.5546Z" />
    <path d="M150.258 58.2697C150.688 58.1915 151.275 58.1523 151.822 58.1523C152.682 58.1523 153.269 58.3088 153.66 58.6607C153.973 58.9345 154.169 59.3647 154.169 59.8731C154.169 60.6943 153.621 61.2418 152.995 61.4765V61.5156C153.465 61.672 153.777 62.1413 153.934 62.8061C154.129 63.7056 154.286 64.2922 154.442 64.566H153.582C153.465 64.3704 153.347 63.8229 153.152 63.0408C152.956 62.1804 152.604 61.8284 151.861 61.7893H151.079V64.566H150.258V58.2697ZM151.079 61.1636H151.9C152.761 61.1636 153.347 60.6943 153.347 59.9513C153.347 59.13 152.761 58.7781 151.9 58.7781C151.509 58.7781 151.236 58.8172 151.079 58.8563V61.1636Z" />
    <path d="M158.549 64.5659V61.8675L156.516 58.1914H157.454L158.354 59.9512C158.588 60.4205 158.784 60.8116 158.979 61.2809C159.136 60.8507 159.37 60.4596 159.605 59.9512L160.505 58.1914H161.443L159.331 61.8284V64.5268H158.549V64.5659Z" />
</svg>