<svg width="197" height="85" viewBox="0 0 197 85" fill="#ffffff" xmlns="http://www.w3.org/2000/svg">
    <path d="M117.465 13.1085C117.657 13.5404 117.609 13.8763 117.369 14.1162C116.985 14.5001 116.697 14.74 116.457 14.8839C113.77 16.6114 111.323 18.3388 109.067 20.0663C106.812 21.7937 104.509 23.4252 102.158 25.0567L98.0309 28.2236C97.4551 28.6075 97.1192 29.1353 96.9272 29.9031C96.0635 32.8781 95.1998 35.9012 94.3361 38.8762C93.4723 41.8512 92.6566 44.8743 91.7449 47.8493C90.6892 51.3522 89.6336 54.7591 88.5779 58.166C87.5223 61.5729 86.3226 64.9318 84.9311 68.2907C84.2593 69.9222 83.5395 71.5536 82.8198 73.1371C82.1 74.7686 81.2843 76.3041 80.3246 77.7916C80.0367 78.2715 79.7008 78.7993 79.3649 79.2792C79.029 79.759 78.6451 80.2868 78.3092 80.7667C76.4858 82.83 74.4225 84.1256 72.0233 84.7014C68.1365 85.5651 65.0655 84.5575 62.6663 81.6304C60.7469 79.3271 59.8832 76.64 60.0271 73.569C60.2191 71.2657 60.7469 68.9145 61.6106 66.4673C62.4743 64.0201 63.578 61.7168 64.8256 59.5095C66.1212 57.3022 67.5127 55.1429 69.0002 53.1276C70.2478 51.4481 71.5914 49.8167 72.9829 48.2332C74.3745 46.6497 75.814 45.0662 77.2536 43.5307C79.6048 41.0355 82.148 38.5883 84.8831 36.237C87.5702 33.8858 90.3054 31.6305 92.9925 29.5192C93.6163 29.0394 94.0002 28.6555 94.1441 28.5115C94.2881 28.3196 94.48 27.8877 94.672 27.216L98.8946 12.5327C99.1825 11.669 99.5184 11.0932 99.8063 10.8052C100.094 10.5173 100.382 10.4214 100.67 10.5173C100.91 10.6133 101.102 10.8532 101.246 11.1891C101.39 11.525 101.39 11.9089 101.342 12.2448C101.198 12.8206 101.102 13.3484 101.006 13.9242C100.91 14.5001 100.814 15.0279 100.67 15.6037L98.4147 24.001C98.3668 24.1449 98.3188 24.2409 98.3188 24.3849C98.3188 24.5288 98.2708 24.6728 98.2228 24.8647L99.2305 24.1929C102.301 22.0816 104.749 20.3062 106.668 18.9626C108.587 17.5711 110.075 16.4674 111.179 15.6517C112.282 14.788 113.146 14.1642 113.722 13.7323C114.298 13.3004 114.825 12.9166 115.305 12.6287C115.593 12.4367 115.977 12.3408 116.361 12.2928C116.745 12.2448 117.081 12.4847 117.273 12.9166L117.465 13.1085ZM84.5472 61.093C86.1787 56.4385 87.6662 51.6881 89.0578 46.8896C90.4493 42.0912 91.7449 37.2927 92.8485 32.4943C92.5606 32.6862 92.3207 32.8301 92.2247 32.9261C92.1288 33.0221 92.0328 33.1181 91.8888 33.262C89.2497 35.3733 86.6585 37.6286 83.9714 39.9319C81.3323 42.2831 78.885 44.6343 76.6298 47.0815C75.0943 48.761 73.5588 50.4884 72.1192 52.2159C70.6797 53.9433 69.2881 55.8147 68.0405 57.7341C66.9849 59.3656 66.0252 60.9971 65.2095 62.5805C64.3457 64.212 63.626 65.8915 62.9062 67.7149C62.2344 69.7302 61.8026 71.7936 61.7066 74.0009C61.5626 76.3521 62.1864 78.4154 63.578 80.0949C64.4897 81.3425 65.7373 82.1582 67.2248 82.5901C68.7123 82.974 70.2958 82.926 71.9753 82.4461C73.1749 82.1102 74.1826 81.6304 74.9983 80.9106C75.862 80.1909 76.5818 79.3271 77.2056 78.3195C77.8774 77.2638 78.5492 76.0642 79.1729 74.7686C80.2286 72.6093 81.1883 70.354 82.004 68.0988C82.9157 65.7955 83.7315 63.4443 84.5472 61.093ZM101.582 5.76687C101.102 5.76687 100.718 5.57494 100.478 5.19106C100.046 4.80718 99.9982 4.37532 100.286 3.89548C100.958 2.69587 101.822 1.78416 102.925 1.16036C103.405 0.872453 103.933 0.824469 104.413 1.11238C104.893 1.40028 105.133 1.88013 105.085 2.55191C105.037 2.69587 104.989 2.83982 104.941 2.98377C104.893 3.12773 104.845 3.27168 104.701 3.41563C104.125 4.08742 103.501 4.71122 102.829 5.28703C102.397 5.67091 102.014 5.81486 101.582 5.76687Z"/>
    <path d="M111.754 23.9532C112.089 23.6652 112.473 23.2814 112.953 22.8495C113.433 22.4177 113.961 21.9858 114.441 21.5539C114.921 21.1221 115.4 20.6902 115.88 20.3063C116.36 19.9225 116.744 19.5866 117.032 19.3466C117.416 18.9628 117.704 18.7228 117.944 18.5789C118.231 18.339 118.567 18.291 118.903 18.387C119.239 18.5309 119.479 18.7708 119.623 19.1547C119.767 19.4906 119.815 19.6346 119.767 19.7305C119.719 19.7785 119.767 19.9704 119.911 20.3063C120.103 20.8821 120.247 21.41 120.439 21.9858C120.583 22.5616 120.775 23.0894 121.063 23.6653C121.206 24.0011 121.35 24.289 121.59 24.577C121.83 24.8649 122.022 25.1528 122.31 25.4887C122.55 25.8246 122.886 26.0165 123.318 26.1125C123.75 26.2084 124.134 26.1125 124.421 25.8725C124.853 25.6326 125.285 25.2967 125.717 24.8649C126.389 24.1931 127.061 23.4253 127.684 22.6576C128.308 21.8898 128.884 21.0741 129.46 20.1624C130.132 19.1547 130.707 18.291 131.139 17.5232C131.571 16.7555 132.099 15.8918 132.723 14.8841C132.963 14.4042 133.203 14.0204 133.395 13.8764C133.778 13.4445 134.21 13.3966 134.69 13.6845C134.978 13.9244 135.074 14.3083 134.882 14.7881L134.594 15.3639C133.539 17.0434 132.531 18.6269 131.619 20.0184C130.707 21.458 129.604 22.9455 128.356 24.529C127.972 24.9608 127.588 25.3927 127.253 25.7766C126.869 26.1604 126.485 26.5923 126.053 26.9282C125.285 27.696 124.469 28.0798 123.51 28.1278C122.406 28.1758 121.398 27.7919 120.535 26.9282C119.623 26.0165 118.951 24.8649 118.567 23.5693C118.423 23.1374 118.327 22.7056 118.183 22.3217C118.04 21.9378 117.944 21.458 117.8 20.9781C117.56 21.1701 117.224 21.362 116.888 21.6499L113.241 25.0088C112.953 25.2487 112.665 25.4887 112.377 25.7766C112.137 26.0165 111.85 26.2564 111.514 26.5443C110.842 27.0242 110.266 27.1201 109.786 26.7363C109.306 26.3524 109.066 25.8725 109.066 25.3447C109.066 24.9608 109.114 24.6729 109.162 24.481C109.306 24.1931 109.402 23.8572 109.45 23.5213C109.498 23.1854 109.594 22.8495 109.738 22.5616C110.65 19.8745 111.897 17.3793 113.385 15.076C113.721 14.6442 114.009 14.2123 114.297 13.8764C114.633 13.4925 115.016 13.1566 115.496 12.8687C116.6 12.101 117.752 11.957 118.855 12.3889C119.335 12.5808 119.767 12.8687 120.151 13.2526C120.631 13.6365 120.775 14.1163 120.535 14.6442C120.343 15.076 120.007 15.3159 119.527 15.3159C119.047 15.3159 118.471 15.268 117.8 15.22C117.128 15.172 116.648 15.3159 116.36 15.6998C116.168 15.8918 115.976 16.0837 115.784 16.2756C115.592 16.4676 115.448 16.6595 115.304 16.9474C114.825 17.7152 114.345 18.5309 113.913 19.5386C113.481 20.4983 113.049 21.41 112.617 22.2257C112.569 22.3697 112.377 22.6576 112.137 23.1854C111.993 23.4253 111.802 23.8092 111.754 23.9532Z"/>
    <path d="M5.23031 52.5986H6.62186V60.0362C6.62186 61.0439 6.33396 61.8117 5.71016 62.3875C5.08636 62.9633 4.31861 63.2512 3.31093 63.2512C2.25527 63.2512 1.43954 62.9633 0.863721 62.4355C0.287907 61.9076 0 61.1399 0 60.1802H1.39155C1.39155 60.804 1.5355 61.2358 1.8714 61.5717C2.20729 61.9076 2.68713 62.0996 3.31093 62.0996C3.88675 62.0996 4.36659 61.9076 4.70248 61.5717C5.03837 61.2358 5.23031 60.708 5.23031 60.0362V52.5986Z"/>
    <path d="M23.8485 58.2607H19.29V62.0035H24.5683V63.1551H17.8984V52.6465H24.5203V53.7981H19.29V57.205H23.8485V58.2607Z"/>
    <path d="M40.978 58.5006H36.5634V63.1551H35.1719V52.6465H41.6978V53.7981H36.5634V57.3969H40.978V58.5006Z"/>
    <path d="M58.06 58.5006H53.6455V63.1551H52.2539V52.6465H58.7798V53.7981H53.6455V57.3969H58.06V58.5006Z"/>
    <path d="M73.1758 58.8845H70.6806V63.1551H69.2891V52.6465H72.7919C73.9915 52.6465 74.9033 52.9344 75.5271 53.4622C76.1508 53.99 76.4867 54.8058 76.4867 55.8135C76.4867 56.4852 76.2948 57.0611 75.9589 57.5409C75.623 58.0207 75.0952 58.4046 74.4714 58.6445L76.9666 63.1071V63.2031H75.4791L73.1758 58.8845ZM70.7286 57.7328H72.8399C73.5117 57.7328 74.0875 57.5409 74.4714 57.205C74.8553 56.8691 75.0952 56.3893 75.0952 55.7655C75.0952 55.0937 74.9033 54.6138 74.5194 54.278C74.1355 53.9421 73.5597 53.7501 72.8399 53.7501H70.7286V57.7328Z"/>
    <path d="M93.2821 58.2607H88.7236V62.0035H94.0019V63.1551H87.332V52.6465H93.9539V53.7981H88.7236V57.205H93.2821V58.2607Z"/>
    <path d="M107.867 57.9248L110.602 52.6465H112.185L108.538 59.2683V63.2031H107.147V59.2683L103.5 52.6465H105.083L107.867 57.9248Z"/>
    <path d="M140.736 60.1801H135.937L134.834 63.1551H133.922L137.905 52.6465H138.768L142.751 63.1551H141.839L140.736 60.1801ZM136.273 59.4603H140.496L138.384 53.7501L136.273 59.4603Z"/>
    <path d="M153.215 63.1551V52.6465H156.142C157.006 52.6465 157.773 52.8384 158.445 53.2223C159.117 53.6062 159.645 54.182 160.029 54.9018C160.413 55.6215 160.604 56.4852 160.604 57.3969V58.3566C160.604 59.3163 160.413 60.1321 160.029 60.8518C159.645 61.5716 159.117 62.1474 158.397 62.5313C157.725 62.9152 156.91 63.1071 155.998 63.1071H153.215V63.1551ZM154.079 53.3663V62.3873H156.094C157.198 62.3873 158.109 62.0035 158.781 61.2837C159.453 60.5639 159.789 59.5563 159.789 58.3087V57.3969C159.789 56.1973 159.453 55.2376 158.781 54.4699C158.109 53.7501 157.246 53.3663 156.19 53.3663H154.079Z"/>
    <path d="M177.591 58.1156H172.649V62.4342H178.311V63.202H171.785V52.6934H178.311V53.4611H172.697V57.4438H177.639V58.1156H177.591Z"/>
    <path d="M193.041 58.7407H189.97V63.1072H189.059V52.5986H192.465C193.569 52.5986 194.481 52.8865 195.105 53.4144C195.728 53.9422 196.064 54.71 196.064 55.7176C196.064 56.3894 195.872 56.9652 195.489 57.4931C195.105 58.0209 194.577 58.3568 193.905 58.5487L196.544 63.0113V63.1072H195.584L193.041 58.7407ZM189.97 58.0209H192.705C193.473 58.0209 194.049 57.8289 194.529 57.3971C194.961 56.9652 195.201 56.4374 195.201 55.7656C195.201 55.0458 194.961 54.422 194.481 54.0382C194.001 53.6063 193.329 53.4144 192.513 53.4144H190.018V58.0209H189.97Z"/>
</svg>