<svg width="41" height="41" viewBox="0 0 41 41" fill="none" xmlns="http://www.w3.org/2000/svg">
<path d="M40.8797 18.3133C39.9285 26.4696 33.0077 32.8 24.6 32.8C15.5472 32.8 8.2 25.4528 8.2 16.4C8.2 7.99227 14.5304 1.07147 22.6867 0.120267C21.9651 0.0437333 21.2325 0 20.5 0C9.17307 0 0 9.17307 0 20.5C0 31.8269 9.17307 41 20.5 41C31.8269 41 41 31.8269 41 20.5C41 19.7565 40.9563 19.0349 40.8797 18.3133Z" fill="white"/>
<path d="M36.9008 0C36.9008 2.2632 35.064 4.1 32.8008 4.1C35.064 4.1 36.9008 5.9368 36.9008 8.2C36.9008 5.9368 38.7376 4.1 41.0008 4.1C38.7376 4.1 36.9008 2.2632 36.9008 0Z" fill="white"/>
<path d="M22.557 4.09985C22.557 6.36305 20.7202 8.19985 18.457 8.19985C20.7202 8.19985 22.557 10.0367 22.557 12.2999C22.557 10.0367 24.3829 8.19985 26.657 8.19985C24.3938 8.19985 22.557 6.36305 22.557 4.09985Z" fill="white"/>
<path d="M28.7016 20.5C28.7016 22.7632 26.8648 24.6 24.6016 24.6C26.8648 24.6 28.7016 26.4368 28.7016 28.7C28.7016 26.4368 30.5384 24.6 32.8016 24.6C30.5384 24.6 28.7016 22.7632 28.7016 20.5Z" fill="white"/>
<path d="M16.4008 16.3999C16.4008 18.6631 14.564 20.4999 12.3008 20.4999C14.564 20.4999 16.4008 22.3367 16.4008 24.5999C16.4008 22.3367 18.2376 20.4999 20.5008 20.4999C18.2376 20.4999 16.4008 18.6631 16.4008 16.3999Z" fill="white"/>
</svg>
