<svg width="29" height="28" viewBox="0 0 29 28" fill="none" xmlns="http://www.w3.org/2000/svg">
<g clip-path="url(#clip0_6601_1019)">
<path d="M19.375 9.03696C18.1157 7.77771 16.338 6.96289 14.412 6.96289C12.4861 6.96289 10.7083 7.74067 9.44907 9.03696C8.18981 10.2962 7.375 12.074 7.375 13.9999C7.375 15.9259 8.18981 17.7036 9.44907 18.9629C10.7083 20.2222 12.4861 21.037 14.412 21.037C16.338 21.037 18.1157 20.2592 19.375 18.9629C20.6343 17.7036 21.4491 15.9259 21.4491 13.9999C21.4491 12.074 20.6713 10.2962 19.375 9.03696ZM18.0417 17.6296C17.1157 18.5555 15.8194 19.111 14.412 19.111C13.0046 19.111 11.7083 18.5555 10.7824 17.6296C9.85648 16.7036 9.30093 15.4073 9.30093 13.9999C9.30093 12.5925 9.85648 11.2962 10.7824 10.3703C11.7083 9.44437 13.0046 8.88882 14.412 8.88882C15.8194 8.88882 17.1157 9.44437 18.0417 10.3703C18.9676 11.2962 19.5231 12.5925 19.5231 13.9999C19.5231 15.4073 18.9676 16.7036 18.0417 17.6296Z" fill="white"/>
<path d="M27.4496 13.0371H24.5977C24.0792 13.0371 23.6348 13.4816 23.6348 14.0001C23.6348 14.5186 24.0792 14.963 24.5977 14.963H27.4496C27.9681 14.963 28.4125 14.5186 28.4125 14.0001C28.4125 13.4816 27.9681 13.0371 27.4496 13.0371Z" fill="white"/>
<path d="M14.4122 23.2227C13.8937 23.2227 13.4492 23.6671 13.4492 24.1856V27.0375C13.4492 27.556 13.8937 28.0004 14.4122 28.0004C14.9307 28.0004 15.3751 27.556 15.3751 27.0375V24.1856C15.3751 23.6671 14.9307 23.2227 14.4122 23.2227Z" fill="white"/>
<path d="M24.3005 22.556L22.2635 20.519C21.9301 20.1486 21.3005 20.1486 20.9301 20.519C20.5598 20.8894 20.5598 21.482 20.9301 21.8523L22.9672 23.8894C23.3375 24.2597 23.9301 24.2597 24.3005 23.8894C24.6709 23.519 24.6709 22.9264 24.3005 22.556Z" fill="white"/>
<path d="M14.4122 0C13.8937 0 13.4492 0.444444 13.4492 0.962963V3.81481C13.4492 4.33333 13.8937 4.77778 14.4122 4.77778C14.9307 4.77778 15.3751 4.33333 15.3751 3.81481V0.962963C15.3751 0.444444 14.9307 0 14.4122 0Z" fill="white"/>
<path d="M24.3376 4.11079C23.9672 3.74042 23.3746 3.74042 23.0043 4.11079L20.9672 6.14782C20.5969 6.51819 20.5969 7.11079 20.9672 7.48116C21.3006 7.85153 21.9302 7.85153 22.3006 7.48116L24.3376 5.44412C24.708 5.07375 24.708 4.48116 24.3376 4.11079Z" fill="white"/>
<path d="M4.22692 13.0371H1.37507C0.856554 13.0371 0.412109 13.4816 0.412109 14.0001C0.412109 14.5186 0.819517 14.963 1.37507 14.963H4.22692C4.74544 14.963 5.18989 14.5186 5.18989 14.0001C5.18989 13.4816 4.74544 13.0371 4.22692 13.0371Z" fill="white"/>
<path d="M7.85713 20.519C7.5238 20.1486 6.89417 20.1486 6.5238 20.519L4.48676 22.556C4.11639 22.9264 4.11639 23.519 4.48676 23.8894C4.85713 24.2597 5.44973 24.2597 5.8201 23.8894L7.85713 21.8523C8.2275 21.482 8.2275 20.8894 7.85713 20.519Z" fill="white"/>
<path d="M7.85713 6.14782L5.8201 4.11079C5.44973 3.74042 4.85713 3.74042 4.48676 4.11079C4.11639 4.48116 4.11639 5.07375 4.48676 5.44412L6.5238 7.48116C6.89417 7.85153 7.48676 7.85153 7.85713 7.48116C8.2275 7.11079 8.2275 6.51819 7.85713 6.14782Z" fill="white"/>
</g>
<defs>
<clipPath id="clip0_6601_1019">
<rect width="28" height="28" fill="white" transform="translate(0.412109)"/>
</clipPath>
</defs>
</svg>
