<svg width="28" height="28" viewBox="0 0 28 28" fill="none" xmlns="http://www.w3.org/2000/svg">
<path d="M14.0803 25C11.0018 25 8.3855 23.9243 6.2313 21.7728C4.0771 19.6213 3 17.0082 3 13.9336C3 11.131 3.91413 8.70104 5.74238 6.64361C7.57064 4.58618 9.83472 3.37165 12.5346 3C12.6094 3 12.6828 3.00277 12.7548 3.0083C12.8269 3.01383 12.8975 3.02167 12.9668 3.03182C12.4995 3.68289 12.1297 4.40682 11.8573 5.2036C11.5849 6.00038 11.4488 6.83543 11.4488 7.70875C11.4488 10.1683 12.3102 12.2584 14.0332 13.9793C15.7562 15.7001 17.8495 16.5609 20.313 16.5619C21.1911 16.5619 22.0282 16.4258 22.8241 16.1538C23.62 15.8817 24.3347 15.5124 24.9681 15.0458C24.9792 15.1149 24.9871 15.1855 24.9917 15.2574C24.9963 15.3294 24.9991 15.4027 25 15.4774C24.6454 18.173 23.4381 20.4337 21.3781 22.2597C19.3181 24.0856 16.8864 24.9991 14.0803 25Z" fill="#172430"/>
</svg>
