<svg width="41" height="41" viewBox="0 0 41 41" fill="none" xmlns="http://www.w3.org/2000/svg">
<path d="M19.1328 4.1C19.1328 4.85475 19.7447 5.46669 20.4995 5.46669C21.2543 5.46669 21.8662 4.85483 21.8662 4.1V1.36669C21.8662 0.611865 21.2543 0 20.4995 0C19.7447 0 19.1328 0.611865 19.1328 1.36669V4.1Z" fill="url(#paint0_linear_1683_997)"/>
<path d="M19.1328 39.6332C19.1328 40.388 19.7447 40.9999 20.4995 40.9999C21.2543 40.9999 21.8662 40.388 21.8662 39.6332V36.8999C21.8662 36.1451 21.2543 35.5332 20.4995 35.5332C19.7447 35.5332 19.1328 36.1451 19.1328 36.8999V39.6332Z" fill="url(#paint1_linear_1683_997)"/>
<path d="M36.9018 19.1333C36.1471 19.1333 35.5352 19.7452 35.5352 20.5C35.5352 21.2548 36.147 21.8667 36.9018 21.8667H39.6352C40.39 21.8667 41.0018 21.2548 41.0018 20.5C41.0018 19.7452 40.39 19.1333 39.6352 19.1333H36.9018Z" fill="url(#paint2_linear_1683_997)"/>
<path d="M1.36669 19.1333C0.611865 19.1333 0 19.7452 0 20.5C0 21.2548 0.611865 21.8667 1.36669 21.8667H4.1C4.85475 21.8667 5.46669 21.2548 5.46669 20.5C5.46669 19.7452 4.85483 19.1333 4.1 19.1333H1.36669Z" fill="url(#paint3_linear_1683_997)"/>
<path d="M20.4992 32.8002C27.2923 32.8002 32.7992 27.2933 32.7992 20.5002C32.7992 13.7071 27.2923 8.2002 20.4992 8.2002C13.7061 8.2002 8.19922 13.7071 8.19922 20.5002C8.19922 27.2933 13.7061 32.8002 20.4992 32.8002Z" fill="url(#paint4_linear_1683_997)"/>
<path d="M31.1308 7.93709C30.597 8.47083 30.597 9.33612 31.1308 9.86986C31.6645 10.4036 32.5298 10.4036 33.0635 9.86986L34.9963 7.93709C35.5301 7.40334 35.5301 6.53805 34.9963 6.00431C34.4626 5.47057 33.5973 5.47057 33.0635 6.00431L31.1308 7.93709Z" fill="url(#paint5_linear_1683_997)"/>
<path d="M6.00578 33.0628C5.47203 33.5966 5.47203 34.4619 6.00578 34.9956C6.53952 35.5293 7.40481 35.5293 7.93855 34.9956L9.87132 33.0628C10.4051 32.5291 10.4051 31.6638 9.87132 31.13C9.33758 30.5963 8.47229 30.5963 7.93855 31.13L6.00578 33.0628Z" fill="url(#paint6_linear_1683_997)"/>
<path d="M33.0635 31.13C32.5298 30.5963 31.6645 30.5963 31.1308 31.13C30.597 31.6638 30.597 32.5291 31.1308 33.0628L33.0635 34.9956C33.5973 35.5293 34.4626 35.5293 34.9963 34.9956C35.5301 34.4619 35.5301 33.5966 34.9963 33.0628L33.0635 31.13Z" fill="url(#paint7_linear_1683_997)"/>
<path d="M7.93855 6.00431C7.40481 5.47057 6.53952 5.47057 6.00578 6.00431C5.47203 6.53805 5.47203 7.40334 6.00578 7.93709L7.93855 9.86986C8.47229 10.4036 9.33758 10.4036 9.87132 9.86986C10.4051 9.33612 10.4051 8.47083 9.87132 7.93709L7.93855 6.00431Z" fill="url(#paint8_linear_1683_997)"/>
<path d="M14.2242 5.96788C13.9814 5.96788 13.751 5.82409 13.6523 5.58576L13.1293 4.3231C12.9985 4.00739 13.1484 3.64548 13.4641 3.51473C13.7798 3.38414 14.1417 3.53378 14.2725 3.84957L14.7955 5.11224C14.9263 5.42795 14.7764 5.78986 14.4607 5.92061C14.3833 5.95262 14.3031 5.96788 14.2242 5.96788V5.96788Z" fill="url(#paint9_linear_1683_997)"/>
<path d="M27.2984 37.5344C27.0556 37.5344 26.8253 37.3906 26.7266 37.1523L26.2036 35.8896C26.0727 35.5739 26.2226 35.212 26.5384 35.0812C26.8541 34.9504 27.216 35.1003 27.3468 35.4161L27.8698 36.6788C28.0006 36.9945 27.8507 37.3564 27.5349 37.4871C27.4576 37.5192 27.3773 37.5344 27.2984 37.5344V37.5344Z" fill="url(#paint10_linear_1683_997)"/>
<path d="M5.35003 14.8441C5.27109 14.8441 5.1909 14.8289 5.11352 14.7968L3.85085 14.2738C3.53514 14.1431 3.38525 13.7812 3.51601 13.4655C3.64676 13.1497 4.00883 12.9996 4.32437 13.1306L5.58704 13.6536C5.90275 13.7844 6.05264 14.1463 5.92189 14.462C5.82323 14.7002 5.59282 14.8441 5.35003 14.8441Z" fill="url(#paint11_linear_1683_997)"/>
<path d="M36.9164 27.919C36.8375 27.919 36.7573 27.9038 36.6799 27.8717L35.4173 27.3487C35.1015 27.218 34.9516 26.8561 35.0825 26.5404C35.2133 26.2247 35.5754 26.0746 35.8909 26.2055L37.1535 26.7285C37.4692 26.8593 37.6192 27.2212 37.4884 27.5369C37.3896 27.7751 37.1593 27.919 36.9164 27.919Z" fill="url(#paint12_linear_1683_997)"/>
<path d="M4.08785 27.9197C3.84507 27.9197 3.61466 27.7759 3.51599 27.5376C3.38524 27.2218 3.53522 26.8599 3.85084 26.7292L5.11351 26.2062C5.42914 26.0755 5.79112 26.2252 5.92188 26.541C6.05263 26.8567 5.90274 27.2186 5.58703 27.3494L4.32436 27.8724C4.24698 27.9044 4.1668 27.9197 4.08785 27.9197V27.9197Z" fill="url(#paint13_linear_1683_997)"/>
<path d="M35.6543 14.844C35.4115 14.844 35.1812 14.7002 35.0825 14.4619C34.9516 14.1462 35.1015 13.7843 35.4173 13.6535L36.68 13.1305C36.9956 12.9998 37.3576 13.1496 37.4883 13.4654C37.6192 13.7811 37.4693 14.143 37.1535 14.2737L35.8908 14.7967C35.8134 14.8288 35.7332 14.844 35.6543 14.844V14.844Z" fill="url(#paint14_linear_1683_997)"/>
<path d="M13.7046 37.5344C13.6257 37.5344 13.5454 37.5193 13.468 37.4872C13.1523 37.3564 13.0024 36.9945 13.1332 36.6788L13.6562 35.4161C13.7869 35.1005 14.149 34.9503 14.4646 35.0813C14.7803 35.212 14.9302 35.5739 14.7994 35.8897L14.2764 37.1523C14.1777 37.3906 13.9473 37.5344 13.7046 37.5344V37.5344Z" fill="url(#paint15_linear_1683_997)"/>
<path d="M26.7788 5.96726C26.6999 5.96726 26.6197 5.95208 26.5423 5.91999C26.2266 5.78924 26.0766 5.42733 26.2074 5.11163L26.7305 3.84896C26.8613 3.53333 27.2235 3.38319 27.5388 3.51411C27.8545 3.64486 28.0045 4.00677 27.8737 4.32248L27.3507 5.58515C27.252 5.82339 27.0217 5.96726 26.7788 5.96726V5.96726Z" fill="url(#paint16_linear_1683_997)"/>
<path d="M20.4995 8.2002C20.1802 8.2002 19.8638 8.2124 19.5508 8.23625C25.9006 8.72057 30.9021 14.0263 30.9021 20.5002C30.9021 26.9741 25.9006 32.2798 19.5508 32.7641C19.8638 32.788 20.1802 32.8003 20.4995 32.8003C27.2926 32.8003 32.7995 27.2934 32.7995 20.5003C32.7995 13.7071 27.2926 8.2002 20.4995 8.2002V8.2002Z" fill="url(#paint17_linear_1683_997)"/>
<path d="M4.10051 19.1333H2.20312C2.95787 19.1333 3.56982 19.7452 3.56982 20.5C3.56982 21.2547 2.95795 21.8667 2.20312 21.8667H4.10051C4.85526 21.8667 5.4672 21.2548 5.4672 20.5C5.4672 19.7452 4.85526 19.1333 4.10051 19.1333V19.1333Z" fill="url(#paint18_linear_1683_997)"/>
<path d="M39.6318 19.1333H37.7344C38.4892 19.1333 39.1011 19.7452 39.1011 20.5C39.1011 21.2547 38.4892 21.8667 37.7344 21.8667H39.6318C40.3866 21.8667 40.9985 21.2548 40.9985 20.5C40.9985 19.7452 40.3866 19.1333 39.6318 19.1333Z" fill="url(#paint19_linear_1683_997)"/>
<path d="M20.4995 0C20.1306 0 19.7966 0.146759 19.5508 0.384179C19.8081 0.632736 19.9688 0.9807 19.9688 1.36669V4.1C19.9688 4.48599 19.8081 4.83396 19.5508 5.08243C19.7966 5.31985 20.1306 5.46661 20.4995 5.46661C21.2542 5.46661 21.8662 4.85475 21.8662 4.09992V1.36669C21.8662 0.611865 21.2542 0 20.4995 0V0Z" fill="url(#paint20_linear_1683_997)"/>
<path d="M20.4995 35.5332C20.1306 35.5332 19.7966 35.68 19.5508 35.9174C19.8081 36.1659 19.9688 36.5138 19.9688 36.8998V39.6331C19.9688 40.0191 19.8081 40.3671 19.5508 40.6156C19.7966 40.853 20.1306 40.9997 20.4995 40.9997C21.2542 40.9997 21.8662 40.3879 21.8662 39.633V36.8999C21.8662 36.1451 21.2542 35.5332 20.4995 35.5332V35.5332Z" fill="url(#paint21_linear_1683_997)"/>
<path d="M34.9963 6.00433C34.4682 5.47628 33.6161 5.47158 33.0812 5.98833C33.087 5.99394 33.0932 5.99864 33.0989 6.00433C33.6326 6.53807 33.6326 7.40336 33.0989 7.93711L31.1661 9.86988C31.1604 9.87557 31.1541 9.88028 31.1484 9.88589C31.6834 10.4026 32.5355 10.3979 33.0635 9.86988L34.9963 7.93711C35.53 7.40336 35.53 6.53807 34.9963 6.00433Z" fill="url(#paint22_linear_1683_997)"/>
<path d="M34.9963 33.0628L33.0635 31.1301C32.5354 30.602 31.6833 30.5973 31.1484 31.1141C31.1542 31.1196 31.1604 31.1244 31.1661 31.1301L33.0989 33.0628C33.6326 33.5966 33.6326 34.4619 33.0989 34.9956C33.0932 35.0013 33.0869 35.006 33.0812 35.0116C33.6161 35.5284 34.4682 35.5237 34.9963 34.9956C35.53 34.4619 35.53 33.5966 34.9963 33.0628Z" fill="url(#paint23_linear_1683_997)"/>
<path d="M9.86919 7.93706L7.93641 6.00429C7.40902 5.4769 6.5585 5.47162 6.02344 5.98647C6.02987 5.99266 6.03688 5.99794 6.04315 6.00429L7.97593 7.93706C8.50967 8.47081 8.50967 9.3361 7.97593 9.86984C7.96958 9.87619 7.96265 9.88147 7.95621 9.88766C8.49127 10.4025 9.34188 10.3971 9.86919 9.86984C10.4028 9.3361 10.4028 8.47072 9.86919 7.93706Z" fill="url(#paint24_linear_1683_997)"/>
<path d="M9.86919 31.1303C9.3418 30.6029 8.49127 30.5976 7.95621 31.1124C7.96265 31.1186 7.96958 31.1239 7.97593 31.1303C8.50967 31.664 8.50967 32.5293 7.97593 33.063L6.04315 34.9958C6.0368 35.0022 6.02987 35.0074 6.02344 35.0136C6.5585 35.5285 7.40911 35.5231 7.93641 34.9958L9.86919 33.063C10.4028 32.5293 10.4028 31.664 9.86919 31.1303Z" fill="url(#paint25_linear_1683_997)"/>
<defs>
<linearGradient id="paint0_linear_1683_997" x1="20.4995" y1="0.066667" x2="19.7182" y2="4.42924" gradientUnits="userSpaceOnUse">
<stop stop-color="#FFD80E"/>
<stop offset="1" stop-color="#FF900E"/>
</linearGradient>
<linearGradient id="paint1_linear_1683_997" x1="20.4995" y1="35.5999" x2="19.7182" y2="39.9624" gradientUnits="userSpaceOnUse">
<stop stop-color="#FFD80E"/>
<stop offset="1" stop-color="#FF900E"/>
</linearGradient>
<linearGradient id="paint2_linear_1683_997" x1="38.2685" y1="19.1666" x2="38.1679" y2="21.4134" gradientUnits="userSpaceOnUse">
<stop stop-color="#FFD80E"/>
<stop offset="1" stop-color="#FF900E"/>
</linearGradient>
<linearGradient id="paint3_linear_1683_997" x1="2.73335" y1="19.1666" x2="2.63274" y2="21.4134" gradientUnits="userSpaceOnUse">
<stop stop-color="#FFD80E"/>
<stop offset="1" stop-color="#FF900E"/>
</linearGradient>
<linearGradient id="paint4_linear_1683_997" x1="20.4992" y1="8.5002" x2="18.6992" y2="28.6002" gradientUnits="userSpaceOnUse">
<stop stop-color="#FFD80E"/>
<stop offset="1" stop-color="#FF900E"/>
</linearGradient>
<linearGradient id="paint5_linear_1683_997" x1="33.0636" y1="5.66091" x2="32.7221" y2="9.4735" gradientUnits="userSpaceOnUse">
<stop stop-color="#FFD80E"/>
<stop offset="1" stop-color="#FF900E"/>
</linearGradient>
<linearGradient id="paint6_linear_1683_997" x1="7.93855" y1="30.7866" x2="7.59712" y2="34.5992" gradientUnits="userSpaceOnUse">
<stop stop-color="#FFD80E"/>
<stop offset="1" stop-color="#FF900E"/>
</linearGradient>
<linearGradient id="paint7_linear_1683_997" x1="33.0636" y1="30.7866" x2="32.7221" y2="34.5992" gradientUnits="userSpaceOnUse">
<stop stop-color="#FFD80E"/>
<stop offset="1" stop-color="#FF900E"/>
</linearGradient>
<linearGradient id="paint8_linear_1683_997" x1="7.93855" y1="5.66091" x2="7.59712" y2="9.4735" gradientUnits="userSpaceOnUse">
<stop stop-color="#FFD80E"/>
<stop offset="1" stop-color="#FF900E"/>
</linearGradient>
<linearGradient id="paint9_linear_1683_997" x1="13.9624" y1="3.49802" x2="13.7047" y2="5.5246" gradientUnits="userSpaceOnUse">
<stop stop-color="#FFD80E"/>
<stop offset="1" stop-color="#FF900E"/>
</linearGradient>
<linearGradient id="paint10_linear_1683_997" x1="27.0367" y1="35.0644" x2="26.7789" y2="37.0911" gradientUnits="userSpaceOnUse">
<stop stop-color="#FFD80E"/>
<stop offset="1" stop-color="#FF900E"/>
</linearGradient>
<linearGradient id="paint11_linear_1683_997" x1="4.71895" y1="13.1047" x2="4.62785" y2="14.5493" gradientUnits="userSpaceOnUse">
<stop stop-color="#FFD80E"/>
<stop offset="1" stop-color="#FF900E"/>
</linearGradient>
<linearGradient id="paint12_linear_1683_997" x1="36.2854" y1="26.1797" x2="36.1943" y2="27.6242" gradientUnits="userSpaceOnUse">
<stop stop-color="#FFD80E"/>
<stop offset="1" stop-color="#FF900E"/>
</linearGradient>
<linearGradient id="paint13_linear_1683_997" x1="4.71894" y1="26.1804" x2="4.62785" y2="27.6249" gradientUnits="userSpaceOnUse">
<stop stop-color="#FFD80E"/>
<stop offset="1" stop-color="#FF900E"/>
</linearGradient>
<linearGradient id="paint14_linear_1683_997" x1="36.2854" y1="13.1047" x2="36.1943" y2="14.5492" gradientUnits="userSpaceOnUse">
<stop stop-color="#FFD80E"/>
<stop offset="1" stop-color="#FF900E"/>
</linearGradient>
<linearGradient id="paint15_linear_1683_997" x1="13.9663" y1="35.0644" x2="13.7086" y2="37.0911" gradientUnits="userSpaceOnUse">
<stop stop-color="#FFD80E"/>
<stop offset="1" stop-color="#FF900E"/>
</linearGradient>
<linearGradient id="paint16_linear_1683_997" x1="27.0406" y1="3.49729" x2="26.7828" y2="5.52396" gradientUnits="userSpaceOnUse">
<stop stop-color="#FFD80E"/>
<stop offset="1" stop-color="#FF900E"/>
</linearGradient>
<linearGradient id="paint17_linear_1683_997" x1="26.1751" y1="8.5002" x2="22.8967" y2="28.2163" gradientUnits="userSpaceOnUse">
<stop stop-color="#FFD80E"/>
<stop offset="1" stop-color="#FF900E"/>
</linearGradient>
<linearGradient id="paint18_linear_1683_997" x1="3.83516" y1="19.1666" x2="3.66728" y2="21.4053" gradientUnits="userSpaceOnUse">
<stop stop-color="#FFD80E"/>
<stop offset="1" stop-color="#FF900E"/>
</linearGradient>
<linearGradient id="paint19_linear_1683_997" x1="39.3664" y1="19.1666" x2="39.1985" y2="21.4053" gradientUnits="userSpaceOnUse">
<stop stop-color="#FFD80E"/>
<stop offset="1" stop-color="#FF900E"/>
</linearGradient>
<linearGradient id="paint20_linear_1683_997" x1="20.7085" y1="0.066666" x2="19.7972" y2="4.37645" gradientUnits="userSpaceOnUse">
<stop stop-color="#FFD80E"/>
<stop offset="1" stop-color="#FF900E"/>
</linearGradient>
<linearGradient id="paint21_linear_1683_997" x1="20.7085" y1="35.5999" x2="19.7973" y2="39.9096" gradientUnits="userSpaceOnUse">
<stop stop-color="#FFD80E"/>
<stop offset="1" stop-color="#FF900E"/>
</linearGradient>
<linearGradient id="paint22_linear_1683_997" x1="33.2725" y1="5.66139" x2="32.8982" y2="9.46698" gradientUnits="userSpaceOnUse">
<stop stop-color="#FFD80E"/>
<stop offset="1" stop-color="#FF900E"/>
</linearGradient>
<linearGradient id="paint23_linear_1683_997" x1="33.2725" y1="30.7871" x2="32.8982" y2="34.5927" gradientUnits="userSpaceOnUse">
<stop stop-color="#FFD80E"/>
<stop offset="1" stop-color="#FF900E"/>
</linearGradient>
<linearGradient id="paint24_linear_1683_997" x1="8.14643" y1="5.66138" x2="7.77201" y2="9.46685" gradientUnits="userSpaceOnUse">
<stop stop-color="#FFD80E"/>
<stop offset="1" stop-color="#FF900E"/>
</linearGradient>
<linearGradient id="paint25_linear_1683_997" x1="8.14643" y1="30.7874" x2="7.77201" y2="34.5928" gradientUnits="userSpaceOnUse">
<stop stop-color="#FFD80E"/>
<stop offset="1" stop-color="#FF900E"/>
</linearGradient>
</defs>
</svg>
